<svg width="12" height="14" viewBox="0 0 12 14" fill="none" xmlns="http://www.w3.org/2000/svg">
<path fill-rule="evenodd" clip-rule="evenodd" d="M3.33333 0.666748C3.70153 0.666748 4 0.965228 4 1.33341V2.0016C4.19815 2.00007 4.41199 2.00008 4.64299 2.00008H7.357C7.588 2.00008 7.80187 2.00007 8 2.0016V1.33341C8 0.965228 8.29847 0.666748 8.66667 0.666748C9.03487 0.666748 9.33333 0.965228 9.33333 1.33341V2.08314C9.54613 2.11943 9.74733 2.17306 9.94227 2.25381C10.7591 2.59213 11.4079 3.24104 11.7463 4.0578C11.887 4.3976 11.9454 4.75645 11.9731 5.16229C12 5.55695 12 6.04189 12 6.64307V9.06908C12 9.80381 12 10.3963 11.9602 10.8759C11.9192 11.3699 11.8325 11.8033 11.6247 12.2033C11.3085 12.8121 10.8121 13.3085 10.2033 13.6248C9.80327 13.8325 9.3698 13.9193 8.87587 13.9603C8.39627 14.0001 7.80373 14.0001 7.069 14.0001H4.931C4.19629 14.0001 3.60371 14.0001 3.12411 13.9603C2.63023 13.9193 2.19675 13.8325 1.79675 13.6248C1.18794 13.3085 0.69154 12.8121 0.375287 12.2033C0.167507 11.8033 0.0808336 11.3699 0.0398136 10.8759C-1.31006e-05 10.3963 -6.46172e-06 9.80381 2.04948e-07 9.06908V6.64307C-6.46172e-06 6.0419 -6.45965e-06 5.55695 0.0269202 5.16229C0.0546069 4.75645 0.112987 4.3976 0.253734 4.0578C0.592047 3.24104 1.24096 2.59213 2.05772 2.25381C2.25267 2.17306 2.4539 2.11943 2.66667 2.08314V1.33341C2.66667 0.965228 2.96515 0.666748 3.33333 0.666748ZM2.66667 3.44992C2.63129 3.46103 2.59865 3.47294 2.56797 3.48565C2.07791 3.68864 1.68856 4.07799 1.48557 4.56805C1.42333 4.7183 1.38022 4.91511 1.35716 5.25305C1.34301 5.46039 1.33727 5.70242 1.33493 6.00008H10.6651C10.6627 5.70242 10.657 5.46039 10.6429 5.25305C10.6198 4.91511 10.5767 4.7183 10.5144 4.56805C10.3115 4.07799 9.92207 3.68864 9.43207 3.48565C9.40133 3.47294 9.36873 3.46103 9.33333 3.44992V4.00008C9.33333 4.36827 9.03487 4.66675 8.66667 4.66675C8.29847 4.66675 8 4.36827 8 4.00008V3.33501C7.80393 3.33347 7.58367 3.33341 7.33333 3.33341H4.66667C4.41632 3.33341 4.19609 3.33347 4 3.33501V4.00008C4 4.36827 3.70153 4.66675 3.33333 4.66675C2.96515 4.66675 2.66667 4.36827 2.66667 4.00008V3.44992ZM10.6667 7.33341H1.33333V9.04008C1.33333 9.81061 1.33387 10.3477 1.36857 10.7656C1.40262 11.1755 1.46606 11.4107 1.55851 11.5887C1.74826 11.954 2.0461 12.2518 2.41139 12.4415C2.58935 12.534 2.82452 12.5975 3.23445 12.6315C3.65237 12.6662 4.18949 12.6667 4.96 12.6667H7.04C7.81053 12.6667 8.3476 12.6662 8.76553 12.6315C9.17547 12.5975 9.41067 12.534 9.5886 12.4415C9.95393 12.2518 10.2517 11.954 10.4415 11.5887C10.5339 11.4107 10.5974 11.1755 10.6314 10.7656C10.6661 10.3477 10.6667 9.81061 10.6667 9.04008V7.33341ZM6.66667 10.6667C6.66667 10.2985 6.96513 10.0001 7.33333 10.0001H8.66667C9.03487 10.0001 9.33333 10.2985 9.33333 10.6667C9.33333 11.0349 9.03487 11.3334 8.66667 11.3334H7.33333C6.96513 11.3334 6.66667 11.0349 6.66667 10.6667Z" fill="#A62BF2"/>
</svg>
