<svg width="17" height="17" viewBox="0 0 17 17" fill="none" xmlns="http://www.w3.org/2000/svg">
<path d="M6.61111 0V1.88889H1.88889V15.1111H15.1111V10.3889H17V16.0556C17 16.306 16.9005 16.5463 16.7234 16.7234C16.5463 16.9005 16.306 17 16.0556 17H0.944444C0.693962 17 0.453739 16.9005 0.276621 16.7234C0.0995036 16.5463 0 16.306 0 16.0556V0.944444C0 0.693962 0.0995036 0.453739 0.276621 0.276621C0.453739 0.0995036 0.693962 0 0.944444 0H6.61111ZM13.7757 1.88889H9.44444V0H17V7.55556H15.1111V3.22433L8.5 9.83544L7.16456 8.5L13.7757 1.88889Z" fill="#E09B2D"/>
</svg>
