<svg width="90" height="90" viewBox="0 0 90 90" fill="none" xmlns="http://www.w3.org/2000/svg">
<path d="M62.0696 14.5383C62.0696 14.5383 56.0767 29.8313 79.3556 43.9191C100.03 56.4304 78.923 77.3908 66.9629 80.8786C51.4697 85.3966 34.2008 71.7865 26.3521 82.982C18.5034 94.1775 -5.3519 74.15 5.4451 56.6654C18.876 34.9154 2.8699 34.5794 0.190123 25.1054C-1.73318 18.3059 11.2134 -0.433272 26.4495 5.43875C39.2705 10.3798 41.5572 5.06045 44.6315 1.92785C49.0652 -2.59021 65.4501 0.526907 62.0696 14.5383Z" fill="#DEE9FF"/>
<path d="M35.9118 65.0472C32.0408 64.8713 27.6419 60.2378 29.5775 59.0061C31.513 57.7744 31.2783 55.1938 30.5745 54.8421C26.2343 53.1413 25.1785 49.3289 24.2401 44.4608C23.3017 39.5927 23.8296 24.1088 23.8296 24.1088L29.2842 21.3522L44.3577 20.4724L48.6392 27.5693C48.6392 27.5693 47.0698 31.8063 46.9384 36.0456C47.9659 35.2245 49.7607 34.0937 51.1024 34.9007C51.9705 35.4215 52.4936 36.2356 52.7164 37.1459C53.0049 38.3259 52.7868 39.6726 52.158 40.7659C51.7216 41.526 51.21 42.2839 50.5017 42.8659C49.4997 43.6893 48.1017 44.1563 45.9456 43.7762C46.0324 44.9328 48.287 44.9822 48.287 46.1621C48.287 47.2765 48.245 48.9774 48.287 49.6226C48.6389 54.9012 51.5128 56.7194 52.979 58.479C54.4452 60.2385 39.7829 65.2232 35.9118 65.0472Z" fill="#A2BDFF"/>
<path d="M24.7101 43.2285C27.0744 43.2285 28.9911 41.1445 28.9911 38.5736C28.9911 36.0028 27.0744 33.9187 24.7101 33.9187C22.3458 33.9187 20.4292 36.0028 20.4292 38.5736C20.4292 41.1445 22.3458 43.2285 24.7101 43.2285Z" fill="#A62BF2"/>
<path d="M24.71 42.3059C26.6208 42.3059 28.1698 40.6349 28.1698 38.5736C28.1698 36.5123 26.6208 34.8413 24.71 34.8413C22.7992 34.8413 21.2502 36.5123 21.2502 38.5736C21.2502 40.6349 22.7992 42.3059 24.71 42.3059Z" fill="#D4E5FF"/>
<path d="M36.0001 43.5806C38.2837 43.5806 40.135 41.6374 40.135 39.2404C40.135 36.8433 38.2837 34.9001 36.0001 34.9001C33.7164 34.9001 31.8651 36.8433 31.8651 39.2404C31.8651 41.6374 33.7164 43.5806 36.0001 43.5806Z" fill="#A62BF2"/>
<path d="M35.9998 42.9062C37.8177 42.9062 39.2915 41.265 39.2915 39.2405C39.2915 37.2159 37.8177 35.5747 35.9998 35.5747C34.1819 35.5747 32.7081 37.2159 32.7081 39.2405C32.7081 41.265 34.1819 42.9062 35.9998 42.9062Z" fill="#D4E5FF"/>
<path d="M28.785 37.1454C28.785 37.1454 30.9114 36.3372 32.3119 37.8621C32.3119 38.1261 32.0995 38.5738 32.0995 38.5738C32.0995 38.5738 30.2212 37.0996 28.785 38.2138C28.5511 37.7526 28.4101 37.2525 28.785 37.1454Z" fill="#A62BF2"/>
<path d="M39.7871 38.1079L46.8733 35.5747L46.8058 36.2018L40.0136 39.0398L39.7871 38.1079Z" fill="#A62BF2"/>
<path d="M11.0014 69.3345C10.845 68.9097 10.7835 68.4559 10.8214 68.0048C10.8593 67.5538 10.9955 67.1166 11.2206 66.7239L13.0378 63.5222C13.0378 63.5222 13.2724 62.271 18.5901 61.528C23.9079 60.7851 29.0236 59.4488 29.5776 59.006C29.5776 59.006 38.9742 67.0776 52.8095 58.2812C52.8095 58.2812 64.1036 64.6561 66.6842 64.8907C68.2002 65.0287 69.3788 68.0133 70.0934 70.4527C70.2119 70.8577 70.246 71.2826 70.1936 71.7012C70.1412 72.1199 70.0033 72.5233 69.7886 72.8865C69.5739 73.2496 69.2869 73.5649 68.9454 73.8126C68.6038 74.0603 68.2151 74.2352 67.8032 74.3266C56.3849 76.8664 16.6797 84.5042 11.0014 69.3345Z" fill="#E09B2D"/>
<path d="M50.5021 42.865C49.1625 46.0533 48.2475 47.395 47.173 47.2756C46.0516 47.1513 45.6974 45.3376 45.7724 43.7424C48.027 44.1812 49.4745 43.7096 50.5021 42.865Z" fill="#008A93"/>
<path d="M52.7451 37.0702C52.7357 37.096 52.7263 37.1218 52.7169 37.1454C52.494 36.235 51.9709 35.421 51.1029 34.9002C49.7258 34.0722 47.8701 35.2849 46.8566 36.1131C47.049 32.4204 46.7252 28.242 44.7099 27.3341C41.1908 25.7505 41.0477 26.1024 38.8612 26.2197C36.8083 26.3299 31.776 26.6467 30.9221 26.1517C31.4851 26.6797 34.1433 28.9458 38.3826 29.1523C38.8612 29.5042 38.5515 29.7975 38.0826 29.7388C37.6137 29.6801 31.2203 29.5629 26.4109 23.5217C26.4109 23.5217 23.6214 28.7394 23.6824 33.4337C23.6824 33.4337 21.8944 29.9146 23.009 24.8705C23.6824 21.1168 25.4138 21.4685 25.4138 21.4685C25.4138 21.4685 24.2402 13.0817 32.2755 13.8442C34.6215 14.1375 38.6099 17.5979 41.3079 17.5392C44.0058 17.4805 46.4692 17.6566 46.4692 17.6566C46.4692 17.6566 50.2816 17.07 50.9268 22.2314C50.9547 23.2704 51.7048 23.7387 53.742 23.991C55.8421 24.2509 55.5016 29.6802 52.7451 37.0702Z" fill="#008A93"/>
<path d="M71.9282 81.6718C77.3216 81.6718 81.6938 77.2996 81.6938 71.9062C81.6938 66.5128 77.3216 62.1406 71.9282 62.1406C66.5348 62.1406 62.1626 66.5128 62.1626 71.9062C62.1626 77.2996 66.5348 81.6718 71.9282 81.6718Z" fill="#008A93" stroke="#008A93" stroke-width="15" stroke-miterlimit="10"/>
<path d="M80.3036 70.8008H74.5357C74.4912 70.8008 74.4471 70.792 74.4059 70.7749C74.3647 70.7578 74.3273 70.7328 74.2958 70.7012C74.2643 70.6697 74.2393 70.6322 74.2223 70.591C74.2053 70.5498 74.1965 70.5056 74.1965 70.461V64.6845C74.1926 64.2364 74.0122 63.808 73.6945 63.4925C73.3768 63.177 72.9474 63 72.5 63C72.0526 63 71.6232 63.177 71.3055 63.4925C70.9878 63.808 70.8074 64.2364 70.8035 64.6845V70.461C70.8035 70.5511 70.7678 70.6375 70.7042 70.7012C70.6405 70.7649 70.5543 70.8008 70.4643 70.8008H64.6964C64.2465 70.8008 63.815 70.9797 63.4969 71.2984C63.1787 71.617 63 72.0491 63 72.4997C63 72.9503 63.1787 73.3824 63.4969 73.701C63.815 74.0196 64.2465 74.1986 64.6964 74.1986H70.4643C70.5088 74.1986 70.553 74.2074 70.5941 74.2245C70.6353 74.2416 70.6727 74.2666 70.7042 74.2982C70.7357 74.3298 70.7607 74.3672 70.7777 74.4085C70.7948 74.4497 70.8035 74.4939 70.8035 74.5385V80.3155C70.8074 80.7636 70.9878 81.192 71.3055 81.5075C71.6232 81.823 72.0526 82 72.5 82C72.9474 82 73.3768 81.823 73.6945 81.5075C74.0122 81.192 74.1926 80.7636 74.1965 80.3155V74.5385C74.1965 74.4939 74.2052 74.4497 74.2223 74.4085C74.2393 74.3672 74.2643 74.3298 74.2958 74.2982C74.3273 74.2666 74.3647 74.2416 74.4059 74.2245C74.447 74.2074 74.4912 74.1986 74.5357 74.1986H80.3036C80.7535 74.1986 81.185 74.0196 81.5031 73.701C81.8213 73.3824 82 72.9503 82 72.4997C82 72.0491 81.8213 71.617 81.5031 71.2984C81.185 70.9797 80.7535 70.8008 80.3036 70.8008Z" fill="white"/>
</svg>
