<svg width="16" height="16" viewBox="0 0 16 16" fill="none" xmlns="http://www.w3.org/2000/svg">
<path d="M9.36593 0.0553157C10.939 0.275529 12.3126 0.912609 13.5012 1.94456C13.5972 2.02781 13.6154 2.06959 13.5121 2.16698C12.821 2.82039 12.1357 3.47946 11.4539 4.14167C11.3576 4.23497 11.3052 4.25099 11.1907 4.15424C10.1833 3.30134 8.99848 2.94982 7.69242 3.10281C5.62396 3.34501 4.26034 4.49288 3.52384 6.38747C3.45061 6.33627 3.37513 6.28789 3.30414 6.23386C2.4976 5.62097 1.69171 5.00745 0.885498 4.39393C2.18996 1.96561 4.21684 0.518047 6.97479 0.0590854C7.71576 -0.0562047 9.16957 0.0279853 9.36593 0.0553157Z" fill="#CE412E"/>
<path d="M0.884524 4.39417C1.69074 5.00768 2.49663 5.6212 3.30316 6.23409C3.37416 6.28813 3.44963 6.3365 3.52287 6.38771C3.16949 7.45171 3.17141 8.51539 3.52542 9.57876C3.48193 9.6086 3.43716 9.63656 3.39527 9.66829C2.55835 10.3019 1.72144 10.9359 0.884844 11.5701C0.518994 10.9889 0.0632802 9.4952 0.00603618 7.98229C-0.0595226 6.23975 0.420496 5.29041 0.884524 4.39417Z" fill="#E1B827"/>
<path d="M0.885498 11.5696C1.72241 10.9357 2.55901 10.3014 3.39592 9.66778C3.43781 9.63605 3.48259 9.60809 3.52608 9.57825C3.77744 10.2593 4.1337 10.8785 4.65049 11.4009C5.64826 12.4099 6.8619 12.9122 8.29716 12.8928C9.2783 12.8796 10.1872 12.632 11.0084 12.0961C11.0228 12.1112 11.0356 12.1281 11.0519 12.1407C11.8885 12.7775 12.7251 13.4139 13.5617 14.0507C12.7539 14.8009 11.8105 15.3292 10.7465 15.6258C8.1299 16.3552 5.66745 16.0427 3.41799 14.4873C2.32331 13.7306 1.48096 12.7505 0.885498 11.5696Z" fill="#579D4B"/>
<path d="M13.5596 14.0506C12.723 13.4141 11.8861 12.7777 11.0499 12.1406C11.0335 12.128 11.0208 12.1111 11.0064 12.096C11.5545 11.6904 12.0022 11.2013 12.3083 10.5931C12.4576 10.2966 12.5657 9.98685 12.6367 9.66297C12.6645 9.53606 12.6399 9.48956 12.4944 9.49019C11.1093 9.49522 9.72397 9.49082 8.33892 9.49648C8.19821 9.4971 8.16239 9.46286 8.16335 9.32433C8.17038 8.44504 8.17006 7.56576 8.16367 6.68679C8.16271 6.55171 8.20492 6.52532 8.3338 6.52564C10.7793 6.52941 13.2245 6.52909 15.67 6.52627C15.7851 6.52627 15.8328 6.55234 15.8577 6.67266C16.016 7.44387 16.0275 8.22106 15.9588 9.00013C15.8718 9.98622 15.6371 10.9371 15.2053 11.8359C14.8014 12.6775 14.2677 13.4267 13.5596 14.0506Z" fill="#3E62B8"/>
</svg>
