<svg width="18" height="16" viewBox="0 0 18 16" fill="none" xmlns="http://www.w3.org/2000/svg">
<path d="M13.5002 11.75V15.5H12.0002V11.75C12.0002 8.41175 13.9832 5.53625 16.8354 4.238L17.4564 5.603C16.2765 6.13968 15.276 7.00471 14.5744 8.09474C13.8729 9.18477 13.4999 10.4537 13.5002 11.75V11.75ZM6.00019 11.75V15.5H4.5002V11.75C4.50031 10.4538 4.12731 9.18506 3.42577 8.09518C2.72423 7.00529 1.72379 6.14038 0.543945 5.60375L1.16495 4.238C2.60696 4.89387 3.8297 5.95097 4.68711 7.28304C5.54453 8.61511 6.00037 10.1658 6.00019 11.75ZM9.00019 8C8.00563 8 7.05181 7.60491 6.34854 6.90165C5.64528 6.19839 5.2502 5.24456 5.2502 4.25C5.2502 3.25544 5.64528 2.30161 6.34854 1.59835C7.05181 0.895088 8.00563 0.5 9.00019 0.5C9.99476 0.5 10.9486 0.895088 11.6518 1.59835C12.3551 2.30161 12.7502 3.25544 12.7502 4.25C12.7502 5.24456 12.3551 6.19839 11.6518 6.90165C10.9486 7.60491 9.99476 8 9.00019 8V8ZM9.00019 6.5C9.29567 6.5 9.58825 6.4418 9.86123 6.32873C10.1342 6.21566 10.3823 6.04992 10.5912 5.84099C10.8001 5.63206 10.9659 5.38402 11.0789 5.11104C11.192 4.83806 11.2502 4.54547 11.2502 4.25C11.2502 3.95453 11.192 3.66194 11.0789 3.38896C10.9659 3.11598 10.8001 2.86794 10.5912 2.65901C10.3823 2.45008 10.1342 2.28434 9.86123 2.17127C9.58825 2.0582 9.29567 2 9.00019 2C8.40346 2 7.83116 2.23705 7.4092 2.65901C6.98725 3.08097 6.75019 3.65326 6.75019 4.25C6.75019 4.84674 6.98725 5.41903 7.4092 5.84099C7.83116 6.26295 8.40346 6.5 9.00019 6.5V6.5Z" fill="#008A93"/>
</svg>
