<svg width="16" height="16" viewBox="0 0 16 16" fill="none" xmlns="http://www.w3.org/2000/svg">
<path d="M5 5.75C5.41421 5.75 5.75 5.41421 5.75 5C5.75 4.58579 5.41421 4.25 5 4.25C4.58578 4.25 4.25 4.58579 4.25 5C4.25 5.41421 4.58578 5.75 5 5.75Z" fill="#4F4F4F"/>
<path fill-rule="evenodd" clip-rule="evenodd" d="M8.1226 0.543983C7.73777 0.471503 7.34207 0.502163 6.82262 0.542416L4.62388 0.711578C4.10646 0.751373 3.67584 0.784486 3.32358 0.839153C2.95536 0.896296 2.61745 0.984196 2.29861 1.16213C1.82175 1.42827 1.42827 1.82174 1.16214 2.29861C0.984194 2.61745 0.896302 2.95535 0.839159 3.32357C0.784492 3.67583 0.751372 4.10645 0.711577 4.62387L0.542414 6.82258C0.502162 7.3421 0.471502 7.7378 0.543989 8.12263C0.605242 8.44775 0.720847 8.76028 0.885952 9.047C1.08133 9.3863 1.36213 9.6668 1.73077 10.0351L5.49097 13.7952C5.87599 14.1802 6.19448 14.4988 6.47439 14.7392C6.7651 14.989 7.05925 15.1954 7.40837 15.3224C8.05907 15.5592 8.77232 15.5592 9.42302 15.3224C9.77215 15.1954 10.0663 14.989 10.357 14.7392C10.6369 14.4988 10.9554 14.1802 11.3404 13.7952L13.7952 11.3404C14.1802 10.9554 14.4987 10.6369 14.7392 10.357C14.989 10.0663 15.1953 9.7721 15.3224 9.42298C15.5592 8.77235 15.5592 8.05903 15.3224 7.4084C15.1953 7.05928 14.989 6.76513 14.7392 6.47438C14.4987 6.19447 14.1802 5.87596 13.7951 5.49094L10.035 1.73078C9.66685 1.36213 9.38635 1.08133 9.04697 0.885946C8.76025 0.720841 8.44772 0.605236 8.1226 0.543983ZM6.85255 2.04458C7.49522 1.99514 7.67987 1.98698 7.84495 2.01806C8.00447 2.04812 8.15785 2.10484 8.29855 2.18585C8.44405 2.26964 8.57897 2.39602 9.03475 2.85184L12.7144 6.5315C13.1246 6.94175 13.4024 7.22023 13.6015 7.4519C13.7955 7.67765 13.8734 7.81325 13.9128 7.9214C14.0291 8.24068 14.0291 8.5907 13.9128 8.90998C13.8734 9.01813 13.7955 9.15365 13.6015 9.37948C13.4024 9.61115 13.1246 9.88963 12.7144 10.2999L10.2999 12.7144C9.88967 13.1246 9.61112 13.4024 9.37945 13.6015C9.1537 13.7955 9.0181 13.8735 8.90995 13.9129C8.59067 14.029 8.24072 14.029 7.92145 13.9129C7.81322 13.8735 7.6777 13.7955 7.45195 13.6015C7.2202 13.4024 6.94172 13.1246 6.53147 12.7144L2.85184 9.03478C2.39602 8.57893 2.26965 8.444 2.18586 8.2985C2.10484 8.1578 2.04812 8.0045 2.01806 7.8449C1.98698 7.6799 1.99514 7.49525 2.04458 6.8525L2.20497 4.7674C2.24752 4.21424 2.2767 3.84175 2.32141 3.55361C2.36465 3.27497 2.41503 3.13163 2.47196 3.02961C2.60255 2.79562 2.79562 2.60255 3.02962 2.47196C3.13163 2.41502 3.27497 2.36465 3.5536 2.32141C3.84175 2.27669 4.21425 2.24752 4.7674 2.20497L6.85255 2.04458Z" fill="#4F4F4F"/>
</svg>
