<svg width="15" height="15" viewBox="0 0 15 15" fill="none" xmlns="http://www.w3.org/2000/svg">
<path d="M4.49976 5.24976C4.91397 5.24976 5.24976 4.91397 5.24976 4.49976C5.24976 4.08555 4.91397 3.74976 4.49976 3.74976C4.08554 3.74976 3.74976 4.08555 3.74976 4.49976C3.74976 4.91397 4.08554 5.24976 4.49976 5.24976Z" fill="#E09B2D"/>
<path fill-rule="evenodd" clip-rule="evenodd" d="M7.62235 0.043739C7.23753 -0.028741 6.84183 0.00191901 6.32238 0.0421715L4.12363 0.211334C3.60621 0.251129 3.1756 0.284241 2.82334 0.338909C2.45512 0.396051 2.11721 0.483951 1.79837 0.661889C1.32151 0.928026 0.928025 1.3215 0.661895 1.79836C0.48395 2.1172 0.396058 2.45511 0.338915 2.82333C0.284248 3.17559 0.251128 3.60621 0.211333 4.12363L0.0421702 6.32233C0.00191767 6.84186 -0.0287423 7.23756 0.0437452 7.62238C0.104998 7.94751 0.220603 8.26003 0.385708 8.54676C0.58109 8.88606 0.861882 9.16656 1.23053 9.53481L4.99073 13.2949C5.37574 13.68 5.69424 13.9985 5.97414 14.239C6.26485 14.4888 6.559 14.6951 6.90813 14.8222C7.55883 15.0589 8.27208 15.0589 8.92278 14.8222C9.2719 14.6951 9.56605 14.4888 9.85675 14.239C10.1367 13.9985 10.4552 13.68 10.8402 13.2949L13.295 10.8402C13.68 10.4551 13.9985 10.1366 14.239 9.85671C14.4888 9.56601 14.6951 9.27186 14.8221 8.92273C15.059 8.27211 15.059 7.55878 14.8221 6.90816C14.6951 6.55903 14.4888 6.26488 14.239 5.97414C13.9985 5.69422 13.68 5.37571 13.2949 4.99069L9.53478 1.23053C9.1666 0.861884 8.8861 0.581084 8.54673 0.385702C8.26 0.220597 7.94748 0.104991 7.62235 0.043739ZM6.3523 1.54433C6.99498 1.49489 7.17963 1.48673 7.3447 1.51782C7.50423 1.54787 7.6576 1.60459 7.7983 1.68561C7.9438 1.7694 8.07873 1.89577 8.5345 2.35159L12.2142 6.03126C12.6244 6.44151 12.9022 6.71998 13.1013 6.95166C13.2953 7.17741 13.3732 7.31301 13.4126 7.42116C13.5288 7.74043 13.5288 8.09046 13.4126 8.40973C13.3732 8.51788 13.2953 8.65341 13.1013 8.87923C12.9022 9.11091 12.6244 9.38938 12.2142 9.79963L9.79968 12.2142C9.38943 12.6244 9.11088 12.9022 8.8792 13.1013C8.65345 13.2952 8.51785 13.3732 8.4097 13.4126C8.09043 13.5288 7.74048 13.5288 7.4212 13.4126C7.31298 13.3732 7.17745 13.2952 6.9517 13.1013C6.71995 12.9022 6.44148 12.6244 6.03123 12.2142L2.3516 8.53453C1.89578 8.07868 1.76941 7.94376 1.68562 7.79826C1.6046 7.65756 1.54788 7.50426 1.51782 7.34466C1.48674 7.17966 1.4949 6.99501 1.54434 6.35226L1.70473 4.26715C1.74728 3.714 1.77646 3.3415 1.82117 3.05336C1.86441 2.77473 1.91479 2.63138 1.97172 2.52937C2.10231 2.29537 2.29538 2.1023 2.52937 1.97172C2.63139 1.91478 2.77473 1.86441 3.05336 1.82116C3.34151 1.77645 3.714 1.74727 4.26715 1.70473L6.3523 1.54433Z" fill="#E09B2D"/>
</svg>
