<svg width="17" height="15" viewBox="0 0 17 15" fill="none" xmlns="http://www.w3.org/2000/svg">
<path d="M12.9562 11.25V15H11.4562V11.25C11.4562 7.91175 13.4392 5.03625 16.2915 3.738L16.9125 5.103C15.7325 5.63968 14.732 6.50471 14.0305 7.59474C13.3289 8.68477 12.956 9.95372 12.9562 11.25V11.25ZM5.45625 11.25V15H3.95625V11.25C3.95636 9.95385 3.58337 8.68506 2.88183 7.59518C2.18028 6.50529 1.17985 5.64038 0 5.10375L0.621 3.738C2.06301 4.39387 3.28575 5.45097 4.14317 6.78304C5.00058 8.11511 5.45642 9.66584 5.45625 11.25ZM8.45625 7.5C7.46169 7.5 6.50786 7.10491 5.8046 6.40165C5.10134 5.69839 4.70625 4.74456 4.70625 3.75C4.70625 2.75544 5.10134 1.80161 5.8046 1.09835C6.50786 0.395088 7.46169 0 8.45625 0C9.45081 0 10.4046 0.395088 11.1079 1.09835C11.8112 1.80161 12.2062 2.75544 12.2062 3.75C12.2062 4.74456 11.8112 5.69839 11.1079 6.40165C10.4046 7.10491 9.45081 7.5 8.45625 7.5V7.5ZM8.45625 6C8.75172 6 9.0443 5.9418 9.31729 5.82873C9.59027 5.71566 9.83831 5.54992 10.0472 5.34099C10.2562 5.13206 10.4219 4.88402 10.535 4.61104C10.6481 4.33806 10.7062 4.04547 10.7062 3.75C10.7062 3.45453 10.6481 3.16194 10.535 2.88896C10.4219 2.61598 10.2562 2.36794 10.0472 2.15901C9.83831 1.95008 9.59027 1.78434 9.31729 1.67127C9.0443 1.5582 8.75172 1.5 8.45625 1.5C7.85951 1.5 7.28722 1.73705 6.86526 2.15901C6.4433 2.58097 6.20625 3.15326 6.20625 3.75C6.20625 4.34674 6.4433 4.91903 6.86526 5.34099C7.28722 5.76295 7.85951 6 8.45625 6V6Z" fill="#001617"/>
</svg>
