<svg width="15" height="17" viewBox="0 0 15 17" fill="none" xmlns="http://www.w3.org/2000/svg">
<path fill-rule="evenodd" clip-rule="evenodd" d="M7.70979 1.78675C7.57284 1.74686 7.42734 1.74686 7.29031 1.78675C7.25094 1.79823 7.18164 1.82696 7.03426 1.93853C6.87931 2.05588 6.68956 2.22382 6.39391 2.48663L2.46417 5.97971C1.98241 6.40795 1.84583 6.53711 1.75088 6.67991C1.65955 6.81731 1.59151 6.96881 1.5495 7.12833C1.50583 7.29423 1.50005 7.48203 1.50005 8.12666V11.8774C1.50005 12.5307 1.50066 12.9747 1.52914 13.3178C1.55689 13.6519 1.60715 13.8225 1.66894 13.9413C1.81125 14.2153 2.03463 14.4387 2.3086 14.581C2.42752 14.6428 2.59807 14.6931 2.93215 14.7208C3.2752 14.7493 3.71929 14.7499 4.37255 14.7499H4.50005V12.4999C4.50005 10.8431 5.8432 9.49991 7.50009 9.49991C9.15691 9.49991 10.5001 10.8431 10.5001 12.4999V14.7499H10.6276C11.2808 14.7499 11.7249 14.7493 12.068 14.7208C12.402 14.6931 12.5726 14.6428 12.6915 14.581C12.9655 14.4387 13.1888 14.2153 13.3312 13.9413C13.393 13.8225 13.4432 13.6519 13.471 13.3178C13.4994 12.9747 13.5001 12.5307 13.5001 11.8774V8.12666C13.5001 7.48203 13.4943 7.29423 13.4506 7.12833C13.4086 6.96881 13.3406 6.81731 13.2492 6.67991C13.1543 6.53711 13.0177 6.40795 12.536 5.97971L8.60619 2.48663C8.31054 2.22382 8.12079 2.05588 7.96584 1.93853C7.81846 1.82696 7.74916 1.79823 7.70979 1.78675ZM6.87091 0.346577C7.28184 0.226922 7.71826 0.226922 8.12919 0.346577C8.41426 0.42961 8.65066 0.57562 8.87124 0.74263C9.07899 0.89992 9.31299 1.10789 9.58239 1.34737L13.5325 4.8586C13.5538 4.8775 13.5747 4.89614 13.5955 4.91455C13.9868 5.26196 14.2823 5.52442 14.4984 5.84948C14.681 6.12428 14.8172 6.42731 14.9012 6.74643C15.0005 7.12391 15.0004 7.51916 15.0001 8.04236C15.0001 8.07011 15.0001 8.09816 15.0001 8.12666V11.9089C15.0001 12.5228 15.0001 13.0295 14.9658 13.442C14.9303 13.8705 14.8538 14.2641 14.6623 14.6328C14.3777 15.1808 13.9309 15.6275 13.383 15.9121C13.0142 16.1037 12.6206 16.1801 12.1921 16.2156C11.7796 16.2499 11.273 16.2499 10.659 16.2499H10.3538C10.348 16.2499 10.3421 16.2499 10.3361 16.2499C10.2453 16.2499 10.1369 16.25 10.0413 16.242C9.93054 16.2329 9.77199 16.2093 9.60646 16.1232C9.40096 16.0165 9.23341 15.849 9.12669 15.6435C9.04074 15.4779 9.01711 15.3194 9.00789 15.2086C8.99994 15.1131 9.00001 15.0046 9.00001 14.9138L9.00009 12.4999C9.00009 11.6715 8.32846 10.9999 7.50009 10.9999C6.67164 10.9999 6.00005 11.6715 6.00005 12.4999L6.00006 14.9138C6.00009 15.0046 6.00016 15.1131 5.99221 15.2086C5.983 15.3194 5.95938 15.4779 5.87339 15.6435C5.76666 15.849 5.59912 16.0165 5.39365 16.1232C5.22811 16.2093 5.06956 16.2329 4.95879 16.242C4.86326 16.25 4.75478 16.2499 4.66394 16.2499C4.65799 16.2499 4.6521 16.2499 4.6463 16.2499H4.34107C3.72717 16.2499 3.22051 16.2499 2.808 16.2156C2.37949 16.1801 1.98586 16.1037 1.61713 15.9121C1.0692 15.6275 0.622439 15.1808 0.337814 14.6328C0.146279 14.2641 0.0698761 13.8705 0.0342886 13.442C3.61316e-05 13.0295 4.37197e-05 12.5228 5.12197e-05 11.9089V8.12666C5.12197e-05 8.09816 3.61892e-05 8.07011 2.86892e-05 8.04236C-0.000248811 7.51916 -0.000451371 7.12391 0.0989386 6.74643C0.182961 6.42731 0.319049 6.12428 0.501719 5.84948C0.717809 5.52442 1.01338 5.26196 1.40463 4.91456C1.42536 4.89614 1.44635 4.8775 1.46762 4.8586L5.41774 1.34738C5.68714 1.10789 5.92109 0.89992 6.12886 0.74263C6.34944 0.57562 6.58584 0.42961 6.87091 0.346577Z" fill="black"/>
</svg>
