<svg width="16" height="17" viewBox="0 0 16 17" fill="none" xmlns="http://www.w3.org/2000/svg">
<path fill-rule="evenodd" clip-rule="evenodd" d="M8.20979 1.78675C8.07284 1.74686 7.92734 1.74686 7.79031 1.78675C7.75094 1.79823 7.68164 1.82696 7.53426 1.93853C7.37931 2.05588 7.18956 2.22382 6.89391 2.48663L2.96417 5.97971C2.48241 6.40795 2.34583 6.53711 2.25088 6.67991C2.15955 6.81731 2.09151 6.96881 2.0495 7.12833C2.00583 7.29423 2.00005 7.48203 2.00005 8.12666V11.8774C2.00005 12.5307 2.00066 12.9747 2.02914 13.3178C2.05689 13.6519 2.10715 13.8225 2.16894 13.9413C2.31125 14.2153 2.53463 14.4387 2.8086 14.581C2.92752 14.6428 3.09807 14.6931 3.43215 14.7208C3.7752 14.7493 4.21929 14.7499 4.87255 14.7499H5.00005V12.4999C5.00005 10.8431 6.3432 9.49991 8.00009 9.49991C9.65691 9.49991 11.0001 10.8431 11.0001 12.4999V14.7499H11.1276C11.7808 14.7499 12.2249 14.7493 12.568 14.7208C12.902 14.6931 13.0726 14.6428 13.1915 14.581C13.4655 14.4387 13.6888 14.2153 13.8312 13.9413C13.893 13.8225 13.9432 13.6519 13.971 13.3178C13.9994 12.9747 14.0001 12.5307 14.0001 11.8774V8.12666C14.0001 7.48203 13.9943 7.29423 13.9506 7.12833C13.9086 6.96881 13.8406 6.81731 13.7492 6.67991C13.6543 6.53711 13.5177 6.40795 13.036 5.97971L9.10619 2.48663C8.81054 2.22382 8.62079 2.05588 8.46584 1.93853C8.31846 1.82696 8.24916 1.79823 8.20979 1.78675ZM7.37091 0.346577C7.78184 0.226922 8.21826 0.226922 8.62919 0.346577C8.91426 0.42961 9.15066 0.57562 9.37124 0.74263C9.57899 0.89992 9.81299 1.10789 10.0824 1.34737L14.0325 4.8586C14.0538 4.8775 14.0747 4.89614 14.0955 4.91455C14.4868 5.26196 14.7823 5.52442 14.9984 5.84948C15.181 6.12428 15.3172 6.42731 15.4012 6.74643C15.5005 7.12391 15.5004 7.51916 15.5001 8.04236C15.5001 8.07011 15.5001 8.09816 15.5001 8.12666V11.9089C15.5001 12.5228 15.5001 13.0295 15.4658 13.442C15.4303 13.8705 15.3538 14.2641 15.1623 14.6328C14.8777 15.1808 14.4309 15.6275 13.883 15.9121C13.5142 16.1037 13.1206 16.1801 12.6921 16.2156C12.2796 16.2499 11.773 16.2499 11.159 16.2499H10.8538C10.848 16.2499 10.8421 16.2499 10.8361 16.2499C10.7453 16.2499 10.6369 16.25 10.5413 16.242C10.4305 16.2329 10.272 16.2093 10.1065 16.1232C9.90096 16.0165 9.73341 15.849 9.62669 15.6435C9.54074 15.4779 9.51711 15.3194 9.50789 15.2086C9.49994 15.1131 9.50001 15.0046 9.50001 14.9138L9.50009 12.4999C9.50009 11.6715 8.82846 10.9999 8.00009 10.9999C7.17164 10.9999 6.50005 11.6715 6.50005 12.4999L6.50006 14.9138C6.50009 15.0046 6.50016 15.1131 6.49221 15.2086C6.483 15.3194 6.45938 15.4779 6.37339 15.6435C6.26666 15.849 6.09912 16.0165 5.89365 16.1232C5.72811 16.2093 5.56956 16.2329 5.45879 16.242C5.36326 16.25 5.25478 16.2499 5.16394 16.2499C5.15799 16.2499 5.1521 16.2499 5.1463 16.2499H4.84107C4.22717 16.2499 3.72051 16.2499 3.308 16.2156C2.87949 16.1801 2.48586 16.1037 2.11713 15.9121C1.5692 15.6275 1.12244 15.1808 0.837814 14.6328C0.646279 14.2641 0.569876 13.8705 0.534289 13.442C0.500036 13.0295 0.500044 12.5228 0.500051 11.9089V8.12666C0.500051 8.09816 0.500036 8.07011 0.500029 8.04236C0.499751 7.51916 0.499549 7.12391 0.598939 6.74643C0.682961 6.42731 0.819049 6.12428 1.00172 5.84948C1.21781 5.52442 1.51338 5.26196 1.90463 4.91456C1.92536 4.89614 1.94635 4.8775 1.96762 4.8586L5.91774 1.34738C6.18714 1.10789 6.42109 0.89992 6.62886 0.74263C6.84944 0.57562 7.08584 0.42961 7.37091 0.346577Z" fill="#E09B2D"/>
</svg>
