<svg width="357" height="450" viewBox="0 0 357 450" fill="none" xmlns="http://www.w3.org/2000/svg">
<ellipse opacity="0.3" cx="182.5" cy="305.5" rx="154.5" ry="144.5" fill="#DD9FF2"/>
<ellipse cx="284.724" cy="193.394" rx="72.2757" ry="69.1701" fill="#E09B2D" fill-opacity="0.16"/>
<ellipse cx="146.004" cy="61.5473" rx="63.8059" ry="61.5473" fill="#BAE6FF"/>
<ellipse cx="238.608" cy="94.2974" rx="65.4998" ry="62.6766" fill="#69D4EC"/>
<path d="M252.157 345.178L229.581 344.682L227.597 327.413L219.999 261.203L216.458 320.534L198.048 321.873L198.985 214.483L237.164 216.705L250.084 327.413L252.157 345.178Z" fill="#B8C1D0"/>
<path d="M238.682 213.6C238.682 213.67 241.395 237.451 241.395 237.451L234.947 237.605C233.155 237.649 231.413 237.012 230.073 235.821C228.733 234.631 227.894 232.977 227.726 231.192L226.149 214.478L238.682 213.6Z" fill="#4B764A"/>
<path d="M242.446 220.172C239.966 220.172 239.163 217.399 239.708 215.078C240.254 212.757 244.425 214.086 244.425 214.086L242.446 220.172Z" fill="black"/>
<path d="M219.314 149.532C221.055 155.375 222.93 160.83 226.188 159.179C228.326 158.093 226.03 153.634 219.741 148.764L219.314 149.532Z" fill="black"/>
<path d="M255.137 218.024C249.186 219.378 242.446 220.167 242.446 220.167C242.823 214.954 242.892 205.754 240.829 203.354L244.345 203.106L240.105 195.409L226.515 195.647L207.337 195.979L190.916 196.262C190.916 196.262 194.109 178.1 194.883 173.879C195.657 169.659 199.233 164.952 204.673 164.02C206.697 163.662 208.339 163.454 209.598 163.325C210.248 163.266 210.798 163.221 211.245 163.196C211.939 163.162 212.4 163.157 212.624 163.157H212.782L220.911 162.219C221.496 162.289 222.067 162.353 222.622 162.408L224.551 162.611C235.785 163.757 239.643 163.603 243.78 168.027C248.328 172.917 249.612 176.954 252.251 183.139C254.889 189.323 259.373 199.689 260.791 204.138C262.21 208.586 261.108 216.675 255.137 218.024Z" fill="#4B764A"/>
<path d="M226.699 197.239C226.699 197.239 207.312 197.859 207.178 197.705C207.178 197.705 207.222 197.06 207.336 195.984C207.36 195.769 207.384 195.536 207.411 195.285L208.849 195.429L212.643 163.161H212.802L220.931 162.224L221.923 162.333L224.586 193.866C224.586 193.866 225.612 193.812 226.312 193.792L226.53 195.647L226.699 197.239Z" fill="#B7AD7A"/>
<path d="M227.468 191.679H227.438C227.414 191.674 227.392 191.664 227.372 191.65C227.352 191.636 227.335 191.618 227.322 191.597C227.309 191.576 227.3 191.553 227.296 191.529C227.292 191.505 227.294 191.48 227.299 191.456C228.143 187.816 229.695 181.041 229.923 180.049L226.035 177.356C226.01 177.339 225.99 177.317 225.976 177.29C225.962 177.264 225.955 177.235 225.955 177.205C225.955 177.175 225.962 177.146 225.976 177.119C225.99 177.093 226.01 177.07 226.035 177.054L229.566 174.524L225.554 165.324C225.542 165.28 225.546 165.234 225.565 165.193C225.585 165.152 225.619 165.119 225.66 165.101C225.702 165.083 225.749 165.081 225.792 165.094C225.835 165.108 225.872 165.137 225.896 165.175L229.968 174.514C229.984 174.553 229.987 174.597 229.975 174.637C229.963 174.678 229.938 174.713 229.903 174.737L226.461 177.217L230.226 179.836C230.256 179.857 230.279 179.887 230.293 179.921C230.306 179.956 230.308 179.993 230.3 180.029C230.3 180.029 228.554 187.603 227.647 191.541C227.637 191.58 227.614 191.616 227.581 191.641C227.549 191.666 227.509 191.68 227.468 191.679V191.679Z" fill="black"/>
<path d="M206.518 192.175C206.475 192.175 206.434 192.16 206.4 192.133C206.367 192.106 206.344 192.068 206.335 192.026L204.004 180.466C203.997 180.432 204 180.396 204.013 180.364C204.025 180.332 204.046 180.303 204.073 180.282L207.451 177.723L204.063 174.648C204.034 174.621 204.013 174.585 204.005 174.546C203.997 174.507 204.002 174.466 204.019 174.43L208.522 165.16C208.548 165.125 208.586 165.1 208.629 165.09C208.672 165.08 208.716 165.085 208.756 165.104C208.795 165.124 208.827 165.156 208.845 165.196C208.863 165.237 208.866 165.282 208.854 165.324L204.391 174.469L207.862 177.599C207.883 177.617 207.9 177.639 207.911 177.663C207.923 177.688 207.929 177.715 207.929 177.743C207.929 177.77 207.923 177.797 207.911 177.822C207.9 177.847 207.883 177.869 207.862 177.887L204.391 180.51L206.697 191.957C206.706 192.005 206.696 192.054 206.669 192.095C206.642 192.136 206.6 192.164 206.553 192.175H206.518Z" fill="black"/>
<path d="M220.931 162.234C220.668 162.671 216.061 168.042 216.061 168.042C215.347 167.209 213.581 163.405 213.581 163.405C213.581 163.182 213.368 161.758 213.144 160.494C212.956 159.412 212.777 158.45 212.777 158.45C209.42 158.688 207.074 156.784 207.153 149.959C207.188 146.765 207.684 144.107 208.641 142.203C209.747 140.035 211.483 138.83 213.864 138.9C218.327 139.029 220.257 143.958 220.103 148.754C220.559 149.33 220.405 151.234 219.18 151.76C219.23 151.755 219.845 158.887 220.931 162.234Z" fill="#F88D7A"/>
<path d="M208.863 148.805C208.911 148.494 208.806 148.219 208.628 148.191C208.449 148.163 208.265 148.392 208.216 148.703C208.167 149.015 208.272 149.29 208.451 149.318C208.629 149.346 208.814 149.116 208.863 148.805Z" fill="black"/>
<path d="M213.04 148.704C213.052 148.389 212.916 148.128 212.735 148.121C212.554 148.113 212.398 148.363 212.385 148.678C212.373 148.993 212.509 149.254 212.69 149.261C212.87 149.269 213.027 149.019 213.04 148.704Z" fill="black"/>
<path d="M220.153 148.749C219.161 147.638 218.243 148.218 218.243 148.218C217.251 147.479 215.877 145.57 216.021 145.406C218.005 143.13 215.709 141.84 215.709 141.84C212.644 143.278 210.471 143.179 208.691 142.197C209.797 140.03 211.533 138.825 213.913 138.894C218.392 139.023 220.306 143.953 220.153 148.749Z" fill="black"/>
<path d="M214.345 147.559C214.3 147.558 214.256 147.541 214.223 147.511C214.189 147.481 214.167 147.44 214.161 147.395C214.126 147.288 214.071 147.19 213.998 147.104C213.924 147.019 213.835 146.949 213.735 146.899C213.531 146.775 213.303 146.698 213.066 146.675C212.829 146.652 212.589 146.683 212.366 146.765C212.342 146.778 212.316 146.785 212.289 146.786C212.262 146.787 212.235 146.783 212.21 146.773C212.185 146.763 212.162 146.748 212.143 146.728C212.125 146.709 212.11 146.686 212.102 146.66C212.093 146.635 212.089 146.608 212.092 146.581C212.094 146.554 212.102 146.528 212.115 146.505C212.129 146.481 212.147 146.461 212.169 146.445C212.19 146.429 212.215 146.418 212.242 146.413C212.519 146.313 212.814 146.276 213.107 146.306C213.4 146.336 213.682 146.432 213.933 146.587C214.083 146.664 214.214 146.772 214.319 146.904C214.424 147.035 214.501 147.188 214.543 147.35C214.549 147.4 214.535 147.449 214.504 147.488C214.473 147.527 214.429 147.553 214.379 147.559H214.345Z" fill="black"/>
<path d="M218.397 150.172C218.355 150.175 218.313 150.163 218.279 150.138C218.244 150.114 218.219 150.078 218.208 150.037C218.197 149.996 218.2 149.953 218.218 149.914C218.235 149.876 218.265 149.844 218.303 149.825C218.67 149.612 219.206 149.23 219.211 149.225C219.251 149.196 219.301 149.184 219.349 149.192C219.398 149.2 219.442 149.227 219.471 149.267C219.5 149.307 219.512 149.357 219.504 149.406C219.496 149.455 219.469 149.499 219.429 149.527C219.429 149.527 218.873 149.924 218.491 150.147C218.463 150.164 218.43 150.173 218.397 150.172V150.172Z" fill="black"/>
<path d="M210.343 151.636H210.303C209.751 151.528 209.213 151.362 208.696 151.14C208.628 151.1 208.569 151.046 208.524 150.981C208.48 150.915 208.45 150.841 208.438 150.763C208.379 150.386 208.671 149.84 209.43 148.943C209.643 148.065 209.534 147.296 209.147 146.959C209.042 146.864 208.913 146.801 208.773 146.776C208.634 146.752 208.49 146.767 208.359 146.82C208.312 146.835 208.261 146.831 208.218 146.809C208.174 146.786 208.141 146.748 208.126 146.701C208.111 146.654 208.115 146.604 208.137 146.56C208.159 146.516 208.198 146.483 208.245 146.468C208.439 146.394 208.65 146.375 208.854 146.415C209.059 146.454 209.248 146.55 209.4 146.691C209.896 147.157 210.04 148.055 209.777 149.101C209.77 149.129 209.756 149.154 209.738 149.176C208.919 150.168 208.78 150.56 208.81 150.733C208.815 150.759 208.825 150.783 208.84 150.803C208.856 150.824 208.876 150.841 208.899 150.852C209.379 151.052 209.877 151.203 210.387 151.304C210.436 151.309 210.481 151.333 210.511 151.371C210.542 151.409 210.556 151.458 210.551 151.507C210.546 151.556 210.521 151.6 210.483 151.631C210.445 151.661 210.396 151.676 210.348 151.671L210.343 151.636Z" fill="black"/>
<path d="M210.897 153.411C210.853 153.404 210.813 153.381 210.784 153.347C210.755 153.313 210.739 153.27 210.739 153.225C210.739 153.18 210.755 153.137 210.784 153.103C210.813 153.069 210.853 153.046 210.897 153.039C211.964 153.039 212.202 152.647 212.231 152.047C212.235 151.999 212.257 151.953 212.293 151.92C212.329 151.887 212.376 151.869 212.425 151.869C212.449 151.869 212.473 151.875 212.496 151.885C212.518 151.895 212.538 151.91 212.555 151.928C212.572 151.946 212.584 151.967 212.593 151.99C212.601 152.013 212.605 152.038 212.603 152.062C212.559 153.272 211.602 153.411 210.897 153.411Z" fill="black"/>
<path d="M216.299 156.769C216.161 157.62 215.792 158.418 215.233 159.075C214.673 159.731 213.944 160.222 213.125 160.493C212.961 159.546 212.802 158.45 212.802 158.45C214.114 158.265 215.336 157.678 216.299 156.769V156.769Z" fill="black"/>
<path d="M128.301 136.474C52.7515 136.474 70.9581 202.66 68.5874 344.826H188.014C185.643 202.65 203.85 136.474 128.301 136.474Z" fill="white"/>
<path d="M128.306 345.074C128.24 345.074 128.177 345.048 128.13 345.002C128.084 344.955 128.058 344.892 128.058 344.826V136.474C128.058 136.409 128.084 136.345 128.13 136.299C128.177 136.252 128.24 136.226 128.306 136.226C128.371 136.226 128.434 136.252 128.481 136.299C128.527 136.345 128.554 136.409 128.554 136.474V344.826C128.554 344.892 128.527 344.955 128.481 345.002C128.434 345.048 128.371 345.074 128.306 345.074Z" fill="#F6EEE8"/>
<path d="M128.306 185.604H71.3154C71.2496 185.604 71.1865 185.577 71.14 185.531C71.0935 185.484 71.0674 185.421 71.0674 185.356C71.0674 185.29 71.0935 185.227 71.14 185.18C71.1865 185.134 71.2496 185.108 71.3154 185.108H128.306C128.372 185.108 128.435 185.134 128.481 185.18C128.528 185.227 128.554 185.29 128.554 185.356C128.554 185.421 128.528 185.484 128.481 185.531C128.435 185.577 128.372 185.604 128.306 185.604Z" fill="#F6EEE8"/>
<path d="M128.306 263.092H68.3945C68.3287 263.092 68.2656 263.066 68.2191 263.02C68.1726 262.973 68.1465 262.91 68.1465 262.844C68.1465 262.779 68.1726 262.716 68.2191 262.669C68.2656 262.623 68.3287 262.596 68.3945 262.596H128.306C128.372 262.596 128.435 262.623 128.482 262.669C128.528 262.716 128.554 262.779 128.554 262.844C128.554 262.91 128.528 262.973 128.482 263.02C128.435 263.066 128.372 263.092 128.306 263.092Z" fill="#F6EEE8"/>
<path d="M185.281 185.604H128.306C128.24 185.604 128.177 185.577 128.13 185.531C128.084 185.484 128.058 185.421 128.058 185.356C128.058 185.29 128.084 185.227 128.13 185.18C128.177 185.134 128.24 185.108 128.306 185.108H185.281C185.347 185.108 185.41 185.134 185.457 185.18C185.503 185.227 185.529 185.29 185.529 185.356C185.529 185.421 185.503 185.484 185.457 185.531C185.41 185.577 185.347 185.604 185.281 185.604Z" fill="#F6EEE8"/>
<path d="M188.212 263.092H128.306C128.24 263.092 128.177 263.066 128.13 263.02C128.084 262.973 128.058 262.91 128.058 262.844C128.058 262.779 128.084 262.716 128.13 262.669C128.177 262.623 128.24 262.596 128.306 262.596H188.217C188.283 262.596 188.346 262.623 188.393 262.669C188.439 262.716 188.465 262.779 188.465 262.844C188.465 262.91 188.439 262.973 188.393 263.02C188.346 263.066 188.283 263.092 188.217 263.092H188.212Z" fill="#F6EEE8"/>
<path d="M196.917 214.097V237.61H201.212C202.462 237.61 203.667 237.144 204.591 236.301C205.515 235.459 206.091 234.302 206.206 233.057L207.966 214.097H196.917Z" fill="#4B764A"/>
<path d="M240.621 221.159L222.478 221.229L173.379 221.417L173.27 193.266L179.826 193.227L187.027 193.197H192.815L200.017 193.167H205.809L213.011 193.142H218.749H222.355H225.95L240.497 193.088L240.536 203.463C238.293 203.59 236.044 203.59 233.801 203.463C231.654 203.324 229.501 203.324 227.354 203.463C225.98 203.587 225.37 203.83 225.598 204.723C225.826 205.616 229.66 205.789 230.622 206.409C231.584 207.029 232.393 207.972 230.483 209.197C229.233 210 225.965 210.918 222.409 211.438C221.829 211.528 221.244 211.602 220.658 211.666C218.675 211.88 218.273 213.412 221.343 213.69C220.41 214.186 220.638 215.58 222.429 215.833C222.538 215.833 222.652 215.862 222.771 215.867C222.618 215.944 222.497 216.072 222.429 216.229C222.382 216.34 222.358 216.459 222.358 216.579C222.358 216.699 222.382 216.818 222.429 216.929C222.627 217.425 223.277 217.95 224.497 217.965C224.036 218.337 225.137 219.453 227.121 219.304C230.55 218.913 233.914 218.08 237.129 216.824C237.91 216.615 238.708 216.482 239.515 216.428C239.462 217.003 239.53 217.584 239.713 218.132C239.897 218.68 240.192 219.184 240.581 219.612L240.621 221.159Z" fill="#E4D0C0"/>
<path d="M185.413 189.704L181.445 189.719C180.552 189.722 179.831 190.449 179.834 191.342L179.847 194.754C179.851 195.647 180.578 196.368 181.47 196.365L185.438 196.349C186.331 196.346 187.052 195.619 187.049 194.726L187.036 191.314C187.032 190.421 186.306 189.7 185.413 189.704Z" fill="#E4D0C0"/>
<path d="M198.401 189.654L194.433 189.669C193.54 189.673 192.819 190.399 192.823 191.292L192.836 194.704C192.839 195.597 193.566 196.318 194.459 196.315L198.426 196.3C199.319 196.296 200.04 195.57 200.037 194.677L200.024 191.264C200.02 190.372 199.294 189.65 198.401 189.654Z" fill="#E4D0C0"/>
<path d="M211.39 189.604L207.422 189.619C206.529 189.622 205.808 190.349 205.811 191.242L205.824 194.654C205.828 195.547 206.555 196.268 207.448 196.265L211.415 196.25C212.308 196.246 213.029 195.52 213.026 194.627L213.013 191.214C213.009 190.321 212.283 189.6 211.39 189.604Z" fill="#E4D0C0"/>
<path d="M224.333 189.554L220.366 189.569C219.473 189.573 218.752 190.299 218.755 191.192L218.768 194.604C218.772 195.497 219.498 196.218 220.391 196.215L224.359 196.2C225.252 196.196 225.973 195.47 225.97 194.577L225.956 191.165C225.953 190.272 225.226 189.551 224.333 189.554Z" fill="#E4D0C0"/>
<path d="M173.264 193.45C173.22 193.442 173.18 193.42 173.151 193.386C173.122 193.351 173.106 193.308 173.106 193.264C173.106 193.219 173.122 193.176 173.151 193.142C173.18 193.107 173.22 193.085 173.264 193.078L240.511 192.815C240.555 192.822 240.596 192.845 240.625 192.879C240.654 192.913 240.669 192.956 240.669 193.001C240.669 193.045 240.654 193.089 240.625 193.123C240.596 193.157 240.555 193.179 240.511 193.187L173.264 193.45Z" fill="#F6EEE8"/>
<path d="M222.438 221.223C222.39 221.222 222.344 221.202 222.31 221.168C222.276 221.134 222.256 221.088 222.255 221.04L222.186 193.073C222.186 193.023 222.205 192.976 222.239 192.941C222.273 192.906 222.32 192.885 222.369 192.884L240.511 192.815C240.555 192.822 240.595 192.845 240.624 192.879C240.653 192.913 240.669 192.956 240.669 193.001C240.669 193.045 240.653 193.089 240.624 193.123C240.595 193.157 240.555 193.179 240.511 193.187L222.553 193.256L222.622 221.03C222.622 221.079 222.603 221.126 222.569 221.161C222.534 221.196 222.488 221.217 222.438 221.218V221.223Z" fill="#F6EEE8"/>
<path d="M171.4 313.154H167.432C166.539 313.154 165.815 313.878 165.815 314.771V318.183C165.815 319.076 166.539 319.8 167.432 319.8H171.4C172.293 319.8 173.017 319.076 173.017 318.183V314.771C173.017 313.878 172.293 313.154 171.4 313.154Z" fill="#E4D0C0"/>
<path d="M184.389 313.154H180.422C179.529 313.154 178.805 313.878 178.805 314.771V318.183C178.805 319.076 179.529 319.8 180.422 319.8H184.389C185.282 319.8 186.006 319.076 186.006 318.183V314.771C186.006 313.878 185.282 313.154 184.389 313.154Z" fill="#E4D0C0"/>
<path d="M197.378 313.154H193.41C192.517 313.154 191.793 313.878 191.793 314.771V318.183C191.793 319.076 192.517 319.8 193.41 319.8H197.378C198.271 319.8 198.995 319.076 198.995 318.183V314.771C198.995 313.878 198.271 313.154 197.378 313.154Z" fill="#E4D0C0"/>
<path d="M226.481 316.67H159.234V344.826H226.481V316.67Z" fill="#E4D0C0"/>
<path d="M226.486 316.854H159.234C159.19 316.847 159.149 316.824 159.121 316.79C159.092 316.756 159.076 316.713 159.076 316.668C159.076 316.623 159.092 316.58 159.121 316.546C159.149 316.512 159.19 316.489 159.234 316.482H226.486C226.535 316.482 226.582 316.502 226.617 316.537C226.652 316.572 226.672 316.619 226.672 316.668C226.672 316.717 226.652 316.765 226.617 316.8C226.582 316.835 226.535 316.854 226.486 316.854V316.854Z" fill="#F6EEE8"/>
<path d="M226.485 316.67H208.343V344.826H226.485V316.67Z" fill="#E4D0C0"/>
<path d="M208.344 344.99C208.295 344.988 208.249 344.969 208.215 344.935C208.181 344.9 208.161 344.854 208.16 344.806V316.67C208.167 316.626 208.19 316.586 208.224 316.557C208.258 316.528 208.301 316.512 208.346 316.512C208.391 316.512 208.434 316.528 208.468 316.557C208.502 316.586 208.525 316.626 208.532 316.67V344.826C208.526 344.872 208.504 344.913 208.469 344.943C208.434 344.974 208.39 344.99 208.344 344.99V344.99Z" fill="#F6EEE8"/>
<path d="M44.9252 344.821C44.9252 344.821 52.5332 341.612 51.5412 326.734C51.2562 322.656 50.2609 318.66 48.6002 314.925C48.3324 314.315 48.0596 313.73 47.7769 313.174C47.1739 311.985 46.5118 310.826 45.7931 309.702C44.7824 308.085 43.6199 306.567 42.3214 305.169H24.7744C23.6388 306.386 22.6131 307.7 21.7094 309.097V309.097C20.6159 310.736 19.6493 312.455 18.8179 314.241C17.4884 317.08 16.5363 320.081 15.986 323.168C15.7783 324.344 15.6342 325.532 15.5545 326.724C14.5626 341.603 22.1706 344.811 22.1706 344.811L44.9252 344.821Z" fill="white"/>
<path d="M30.6123 316.075C26.5987 316.136 22.5991 315.589 18.749 314.453C18.6832 314.434 18.628 314.389 18.5954 314.328C18.5628 314.268 18.5556 314.197 18.5754 314.131C18.5951 314.065 18.6402 314.01 18.7006 313.978C18.7611 313.945 18.832 313.938 18.8977 313.958C22.5579 315.123 27.0959 315.669 32.0258 315.54C33.0177 315.54 34.0096 315.46 35.0511 315.376C39.3468 315.017 43.5898 314.186 47.703 312.896C47.7688 312.876 47.8397 312.884 47.9001 312.916C47.9606 312.949 48.0056 313.004 48.0254 313.07C48.0451 313.136 48.0379 313.206 48.0053 313.267C47.9728 313.327 47.9175 313.372 47.8518 313.392C43.7022 314.686 39.4227 315.517 35.0908 315.872C34.0592 315.956 33.0325 316.011 32.0357 316.036C31.5562 316.062 31.0818 316.075 30.6123 316.075Z" fill="#F6EEE8"/>
<path d="M17.6481 323.445C17.0927 323.445 16.5339 323.445 15.9718 323.445C15.9392 323.445 15.9071 323.438 15.8773 323.425C15.8474 323.411 15.8204 323.393 15.7979 323.369C15.7753 323.346 15.7576 323.318 15.7457 323.288C15.7339 323.257 15.7281 323.225 15.7288 323.192C15.7272 323.159 15.7328 323.126 15.7451 323.095C15.7574 323.064 15.7762 323.037 15.8001 323.013C15.8241 322.99 15.8527 322.973 15.884 322.962C15.9153 322.951 15.9486 322.946 15.9817 322.949C21.3486 323.093 26.7134 322.594 31.9615 321.461C33.0129 321.233 34.0346 320.966 34.9868 320.718C40.1993 319.289 44.8514 317.246 48.4422 314.766C48.4961 314.733 48.5609 314.721 48.6232 314.734C48.6854 314.747 48.7403 314.783 48.7765 314.835C48.8128 314.887 48.8277 314.951 48.818 315.014C48.8084 315.077 48.7751 315.134 48.7249 315.173C45.0895 317.677 40.3828 319.765 35.1207 321.209C34.1586 321.476 33.1369 321.705 32.0656 321.962C27.3272 322.975 22.4933 323.472 17.6481 323.445V323.445Z" fill="#F6EEE8"/>
<path d="M53.1834 283.322C54.1753 284.314 59.5713 280.937 57.2998 278.983C55.0283 277.029 51.8691 282.053 53.1834 283.322Z" fill="#4B764A"/>
<path d="M51.477 286.348C52.5334 284.86 51.8738 280.049 49.4138 281.21C46.7009 282.499 50.4206 287.846 51.477 286.348Z" fill="#4B764A"/>
<path d="M47.5537 291.922C48.9721 290.182 47.1668 285.237 45.307 285.698C42.4007 286.432 46.2791 293.49 47.5537 291.922Z" fill="#4B764A"/>
<path d="M30.0171 273.006C30.3544 271.94 26.3917 267.491 25.1319 268.746C22.791 271.092 28.6731 277.217 30.0171 273.006Z" fill="#4B764A"/>
<path d="M51.4173 286.467C52.2356 284.527 55.7272 282.707 56.7042 285.157C57.711 287.682 50.7229 288.103 51.4173 286.467Z" fill="#4B764A"/>
<path d="M48.1344 291.248C48.9973 289.626 54.3884 288.947 53.5899 291.377C52.97 293.291 46.8449 293.678 48.1344 291.248Z" fill="#4B764A"/>
<path d="M44.9256 295.439C45.7439 293.792 51.9235 293.951 51.0854 296.371C50.0538 299.307 43.9783 297.323 44.9256 295.439Z" fill="#4B764A"/>
<path d="M42.5149 298.95C43.864 297.705 48.6351 300.617 46.9786 302.576C44.9947 304.956 40.9576 300.354 42.5149 298.95Z" fill="#4B764A"/>
<path d="M40.1991 304.143C41.0472 302.06 47.9559 304.529 46.4135 306.87C44.7024 309.469 39.4056 306.082 40.1991 304.143Z" fill="#4B764A"/>
<path d="M29.6454 263.256C29.7495 261.272 26.7589 257.532 24.9338 258.604C21.4422 260.677 29.4916 266.261 29.6454 263.256Z" fill="#4B764A"/>
<path d="M29.3726 256.412C30.0819 254.646 26.258 248.759 24.8098 250.619C22.9897 252.95 28.6535 258.197 29.3726 256.412Z" fill="#4B764A"/>
<path d="M30.9789 280.838C31.0086 279.255 26.7484 276.423 25.6275 277.257C22.2996 279.736 30.8995 284.651 30.9789 280.838Z" fill="#4B764A"/>
<path d="M32.1643 286.963C32.167 286.974 32.167 286.986 32.1643 286.998C32.0805 287.222 31.9367 287.418 31.7486 287.566C31.5605 287.714 31.3355 287.807 31.0979 287.836C29 288.366 24.7398 286.968 26.2177 284.642C26.9716 283.456 29.1935 284.062 30.6813 285.044C31.2423 285.37 31.7155 285.828 32.0601 286.378C32.1643 286.554 32.2013 286.762 32.1643 286.963Z" fill="#4B764A"/>
<path d="M34.7785 274.713C34.5631 275.064 34.3175 275.396 34.0445 275.704C33.5635 276.255 33.0075 276.736 32.393 277.133C31.5002 277.698 30.6869 277.857 30.4637 277.222C30.0124 275.942 31.5647 272.054 33.3948 271.643C33.6676 271.59 33.9496 271.611 34.2113 271.704C34.473 271.798 34.7049 271.96 34.8827 272.173C35.5274 272.818 35.3389 273.775 34.7785 274.713Z" fill="#4B764A"/>
<path d="M37.1541 283.585C36.9833 284.364 36.5701 285.069 35.9738 285.599C34.6297 286.953 32.5814 287.89 32.1648 286.968C32.1648 286.933 32.1648 286.898 32.1301 286.859C32.0899 286.696 32.0633 286.53 32.0507 286.363C32.0049 285.565 32.1763 284.77 32.5467 284.062C32.7897 283.562 33.1112 283.105 33.4989 282.708C33.6031 282.603 33.7072 282.504 33.8163 282.415C34.7785 281.611 35.9539 281.423 36.8566 282.474C36.9981 282.637 37.0954 282.834 37.1393 283.045C37.1791 283.222 37.1841 283.406 37.1541 283.585V283.585Z" fill="#4B764A"/>
<path d="M29.8383 270.75C29.5308 267.278 32.1544 262.998 33.4588 264.848C35.4426 267.66 30.002 272.605 29.8383 270.75Z" fill="#4B764A"/>
<path d="M43.7747 296.961C42.9613 297.636 41.5677 296.649 40.8386 295.349C40.2038 294.228 40.0649 292.869 41.2007 292.15C41.3587 292.04 41.5417 291.971 41.733 291.95C41.9244 291.928 42.1181 291.954 42.2967 292.026C43.8094 292.607 44.846 296.068 43.7747 296.961Z" fill="#4B764A"/>
<path d="M34.3172 293.985C34.0742 296.341 27.2597 295.414 28.0582 292.002C28.3806 290.633 29.9329 290.583 31.4158 291.134C32.75 291.63 34.0295 292.622 34.2775 293.544C34.318 293.687 34.3315 293.837 34.3172 293.985Z" fill="#4B764A"/>
<path d="M40.2777 303.721C39.6578 304.217 38.6708 303.687 37.9765 302.799C37.1284 301.713 36.7167 300.13 37.9417 299.327C38.7849 298.786 39.6082 299.466 40.124 300.453C40.729 301.628 40.9224 303.186 40.2777 303.721Z" fill="#4B764A"/>
<path d="M29.8032 234.208C30.7704 231.956 27.5962 226.272 25.8604 227.547C22.835 229.813 28.9651 236.152 29.8032 234.208Z" fill="#4B764A"/>
<path d="M29.194 246.984C29.9826 244.608 25.5041 240.744 24.1998 242.143C21.7745 244.747 28.7576 248.278 29.194 246.984Z" fill="#4B764A"/>
<path d="M29.3971 240.015C29.789 237.66 27.7059 233.627 26.0445 234.56C23.3365 236.112 29.0549 242.004 29.3971 240.015Z" fill="#4B764A"/>
<path d="M29.8038 234.208C29.541 232.402 32.7449 228.425 34.1633 230.21C35.5817 231.996 30.1361 236.499 29.8038 234.208Z" fill="#4B764A"/>
<path d="M29.3972 246.552C29.0698 244.707 32.3729 238.909 34.0542 240.848C35.7355 242.788 30.0469 250.133 29.3972 246.552Z" fill="#4B764A"/>
<path d="M29.397 240.015C29.397 238.032 31.9561 233.603 33.4489 235.467C35.3385 237.833 29.4218 242.53 29.397 240.015Z" fill="#4B764A"/>
<path d="M29.4864 253.605C28.8913 251.512 33.9501 246.502 35.3139 249.419C36.5886 252.146 30.1758 256.005 29.4864 253.605Z" fill="#4B764A"/>
<path d="M29.7045 261.828C28.8911 260.206 31.1626 254.011 33.3845 256.372C34.9319 258.058 30.6022 263.623 29.7045 261.828Z" fill="#4B764A"/>
<path d="M40.124 300.483C39.7153 301.492 38.9515 302.318 37.9765 302.804C37.1284 301.717 36.7167 300.135 37.9417 299.332C38.7849 298.811 39.6082 299.491 40.124 300.483Z" fill="black"/>
<path d="M40.8386 295.349C40.2038 294.228 40.0649 292.869 41.2007 292.15C41.3587 292.04 41.5417 291.971 41.733 291.95C41.9244 291.928 42.1181 291.954 42.2967 292.026C42.6092 293.549 41.5875 294.719 40.8386 295.349Z" fill="black"/>
<path d="M34.2771 293.549L32.4867 294.898C32.4867 294.898 29.5109 293.306 31.4154 291.139C32.7495 291.635 34.0142 292.617 34.2771 293.549Z" fill="black"/>
<path d="M37.1538 283.585C35.8711 283.734 34.5764 283.431 33.4937 282.727C33.5978 282.623 33.702 282.524 33.8111 282.434C34.7732 281.631 35.9486 281.442 36.8513 282.494C36.9928 282.657 37.0901 282.853 37.134 283.064C37.1729 283.235 37.1797 283.412 37.1538 283.585V283.585Z" fill="black"/>
<path d="M34.0445 275.705C33.4448 274.442 33.2193 273.034 33.3948 271.648C33.6676 271.595 33.9495 271.616 34.2113 271.71C34.473 271.803 34.7048 271.965 34.8826 272.178C35.7555 273.046 35.0959 274.509 34.0445 275.705Z" fill="black"/>
<path d="M34.1633 293.97C34.1258 293.97 34.0892 293.959 34.0583 293.937C34.0274 293.916 34.0035 293.886 33.9897 293.851C31.0139 285.995 29.4368 273.269 29.4368 264.754C29.4368 262.442 29.3674 259.635 29.2979 256.669C29.1144 249.052 28.9061 240.412 29.6203 234.193C29.6309 234.147 29.6577 234.108 29.6957 234.081C29.7337 234.055 29.7802 234.043 29.8263 234.048C29.8723 234.054 29.9147 234.076 29.9454 234.111C29.976 234.146 29.9927 234.191 29.9923 234.237C29.2781 240.432 29.4963 249.057 29.6699 256.665C29.7443 259.64 29.8088 262.442 29.8088 264.759C29.8088 273.239 31.3661 285.911 34.3369 293.723C34.3531 293.769 34.3508 293.819 34.3304 293.864C34.31 293.908 34.2732 293.943 34.2277 293.961L34.1633 293.97Z" fill="black"/>
<path d="M35.9336 302.154C35.3335 303.483 33.9498 303.176 32.7446 302.313C31.5395 301.45 30.6269 300.175 30.6368 299.277C30.6337 299.055 30.7122 298.839 30.8576 298.671C31.003 298.503 31.205 298.394 31.4254 298.365C31.5731 298.329 31.7246 298.31 31.8767 298.31C32.769 298.35 33.6305 298.648 34.3565 299.168C35.5369 299.947 36.3949 301.137 35.9336 302.154Z" fill="#8EBF8C"/>
<path d="M36.3996 295.523C36.4071 295.604 36.4071 295.685 36.3996 295.766C36.3714 296.014 36.2938 296.253 36.1714 296.47C36.0907 296.615 35.9714 296.734 35.8269 296.814C35.6824 296.895 35.5184 296.934 35.3531 296.927C34.7032 296.875 34.0842 296.628 33.5776 296.217C33.1862 295.941 32.8269 295.621 32.5063 295.265C32.1913 294.924 31.9259 294.54 31.7177 294.124C31.2218 293.133 31.3061 292.18 32.4765 291.674C34.0388 290.995 36.4244 293.544 36.3996 295.523Z" fill="#8EBF8C"/>
<path d="M38.5623 274.881C39.1723 273.299 36.39 269.024 34.674 270.452C32.5265 272.253 37.8233 276.806 38.5623 274.881Z" fill="#8EBF8C"/>
<path d="M36.767 293.107C37.4961 291.302 43.0211 289.879 42.4507 292.522C41.9944 294.6 35.6759 295.81 36.767 293.107Z" fill="#8EBF8C"/>
<path d="M35.9982 300.502C36.2908 298.414 42.0538 295.33 42.1431 298.256C42.2274 300.557 35.5717 303.627 35.9982 300.502Z" fill="#8EBF8C"/>
<path d="M42.3519 251.809C43.7406 251.983 45.4219 246.23 43.4232 245.927C40.5714 245.491 40.7053 251.606 42.3519 251.809Z" fill="#8EBF8C"/>
<path d="M41.0622 257.086C42.0541 255.648 40.8093 251.08 38.9841 251.814C36.4944 252.821 40.0505 258.519 41.0622 257.086Z" fill="#8EBF8C"/>
<path d="M39.5048 264.089C40.9233 262.348 39.118 257.404 37.2581 257.865C34.3468 258.599 38.2252 265.637 39.5048 264.089Z" fill="#8EBF8C"/>
<path d="M39.0541 269.009C39.7633 267.244 37.095 263.554 35.6865 264.441C33.0678 266.058 38.3349 270.805 39.0541 269.009Z" fill="#8EBF8C"/>
<path d="M37.8134 282.459C38.4135 280.52 35.1501 277.336 33.5234 278.174C30.5922 279.682 37.0695 284.87 37.8134 282.459Z" fill="#8EBF8C"/>
<path d="M36.9902 289.938C37.5903 287.999 34.4459 284.255 32.7597 285.281C29.6203 287.196 36.2512 292.354 36.9902 289.938Z" fill="#8EBF8C"/>
<path d="M41.8704 253.813C42.1431 252.013 45.6843 249.815 46.5274 251.938C47.3705 254.061 41.5232 256.104 41.8704 253.813Z" fill="#8EBF8C"/>
<path d="M40.3781 260.791C40.6757 258.742 44.3011 255.717 45.1442 257.815C45.9874 259.913 40.0111 263.28 40.3781 260.791Z" fill="#8EBF8C"/>
<path d="M38.6215 273.944C38.0512 272.322 42.1924 268.28 43.2637 270.417C44.5681 273.021 39.2762 275.804 38.6215 273.944Z" fill="#8EBF8C"/>
<path d="M39.5391 265.795C39.4002 264.173 44.1515 261.451 44.6276 263.668C45.2079 266.361 39.6978 267.655 39.5391 265.795Z" fill="#8EBF8C"/>
<path d="M38.2054 279.796C37.4019 278.144 41.5729 274.42 42.9715 276.557C44.6776 279.166 39.1278 281.69 38.2054 279.796Z" fill="#8EBF8C"/>
<path d="M37.4014 288.282C36.6526 286.739 40.5458 283.253 41.8651 285.256C43.4373 287.691 38.2595 290.052 37.4014 288.282Z" fill="#8EBF8C"/>
<path d="M36.3801 295.761C36.3519 296.009 36.2743 296.248 36.1519 296.465C36.0712 296.61 35.9519 296.729 35.8074 296.809C35.6629 296.89 35.4989 296.929 35.3336 296.921C34.6837 296.87 34.0648 296.622 33.5581 296.212C33.1667 295.936 32.8074 295.616 32.4868 295.26C33.2456 294.561 34.8426 294.055 36.3801 295.761Z" fill="black"/>
<path d="M34.3714 299.163C34.2771 300.274 33.4489 301.475 32.7446 302.308C31.6039 301.489 30.6269 300.17 30.6368 299.273C31.027 298.922 31.4413 298.598 31.8767 298.305C32.7741 298.342 33.6412 298.64 34.3714 299.163V299.163Z" fill="black"/>
<path d="M26.0793 294.983C24.4674 292.557 17.5538 291.655 16.6561 294.244C15.4658 297.715 27.22 296.664 26.0793 294.983Z" fill="#8EBF8C"/>
<path d="M16.3036 283.238C15.5101 281.75 9.39989 282.246 8.86425 285.356C8.29886 288.768 17.7568 285.971 16.3036 283.238Z" fill="#8EBF8C"/>
<path d="M30.2203 304.738C31.3114 302.015 38.4383 302.402 37.3075 305.288C36.1767 308.175 29.6499 306.156 30.2203 304.738Z" fill="#8EBF8C"/>
<path d="M20.986 288.565C20.0685 286.581 12.6539 287.112 11.2007 290.082C8.68623 295.215 21.7101 290.122 20.986 288.565Z" fill="#8EBF8C"/>
<path d="M11.8749 277.887C11.4236 275.774 5.80436 276.255 4.59918 278.516C2.17891 283.05 12.3113 279.955 11.8749 277.887Z" fill="#8EBF8C"/>
<path d="M17.2416 284.324C15.3867 282.152 18.4219 273.081 21.477 275.343C24.5322 277.604 18.174 285.416 17.2416 284.324Z" fill="#8EBF8C"/>
<path d="M21.239 288.857C20.1975 285.882 24.5272 280.203 26.4912 282.663C28.0634 284.647 21.8936 290.717 21.239 288.857Z" fill="#8EBF8C"/>
<path d="M27.0018 296.386C25.4593 294.754 27.1456 287.593 29.5857 288.698C32.2391 289.884 28.3557 297.799 27.0018 296.386Z" fill="#8EBF8C"/>
<path d="M8.38777 271.89C7.83726 270.184 3.31412 270.05 2.07919 271.484C-0.286533 274.236 9.15651 274.256 8.38777 271.89Z" fill="#8EBF8C"/>
<path d="M6.11677 266.629C6.04237 265.394 2.53595 261.947 1.45476 262.572C-1.19862 264.149 6.34987 270.512 6.11677 266.629Z" fill="#8EBF8C"/>
<path d="M5.42705 262.562C6.80582 261.788 6.71654 255.058 4.59384 255.435C1.68257 255.95 3.11093 263.861 5.42705 262.562Z" fill="#8EBF8C"/>
<path d="M9.17196 273.334C7.98166 271.801 10.6598 265.096 12.7528 267.035C14.7267 268.85 10.8334 275.481 9.17196 273.334Z" fill="#8EBF8C"/>
<path d="M6.70227 267.913C5.24911 266.237 7.30734 261.079 8.81009 262.165C11.2006 263.925 7.86777 269.257 6.70227 267.913Z" fill="#8EBF8C"/>
<path d="M12.1481 277.971C11.0868 275.541 14.9651 270.16 16.5225 272.054C18.4021 274.34 12.8573 279.598 12.1481 277.971Z" fill="#8EBF8C"/>
<path d="M29.5508 301.896C28.5887 297.378 35.0659 293.767 35.8644 296.351C36.6381 298.836 29.8087 303.071 29.5508 301.896Z" fill="#8EBF8C"/>
<path d="M29.9773 303.468C29.7491 301.296 24.3531 298.3 22.9247 299.996C20.2714 303.2 30.1856 305.427 29.9773 303.468Z" fill="#8EBF8C"/>
<path d="M39.9157 305.313H39.8711C39.8233 305.3 39.7824 305.269 39.7574 305.227C39.7323 305.184 39.7251 305.133 39.7372 305.085C41.0068 300.126 43.4668 296.956 46.3185 293.286C48.5404 290.425 51.0599 287.186 53.3512 282.559C53.3776 282.524 53.4154 282.499 53.4581 282.489C53.5009 282.478 53.5458 282.483 53.5852 282.503C53.6246 282.522 53.656 282.555 53.674 282.595C53.6919 282.635 53.6953 282.68 53.6835 282.722C51.3724 287.384 48.843 290.658 46.6112 293.514C43.7842 297.15 41.349 300.294 40.0943 305.174C40.0843 305.214 40.0613 305.249 40.0289 305.275C39.9966 305.3 39.9567 305.313 39.9157 305.313V305.313Z" fill="black"/>
<path d="M35.9042 303.329C35.8551 303.328 35.8084 303.308 35.7741 303.272C35.7399 303.237 35.7207 303.19 35.7207 303.141C35.8397 298.752 36.3654 294.07 36.9804 288.654C37.521 283.863 38.136 278.437 38.6022 272.034C39.2916 262.532 42.7187 249.518 42.7534 249.389C42.7659 249.342 42.7967 249.301 42.839 249.277C42.8813 249.252 42.9317 249.245 42.979 249.258C43.0264 249.27 43.0668 249.301 43.0915 249.343C43.1161 249.386 43.123 249.436 43.1105 249.483C43.0758 249.612 39.6388 262.596 38.9742 272.064C38.508 278.472 37.893 283.908 37.3524 288.699C36.7424 294.11 36.2117 298.781 36.0976 303.156C36.0938 303.204 36.0716 303.249 36.0356 303.281C35.9996 303.314 35.9526 303.331 35.9042 303.329Z" fill="black"/>
<path d="M30.2795 305.313C30.2352 305.313 30.1924 305.296 30.1588 305.267C30.1253 305.238 30.103 305.198 30.096 305.154C29.1041 297.973 24.3132 292.562 19.2246 286.834C13.0698 279.89 6.09166 272.039 4.41036 259.407C4.4071 259.383 4.40863 259.359 4.41484 259.335C4.42105 259.312 4.43184 259.29 4.44657 259.27C4.46131 259.251 4.47971 259.235 4.50073 259.222C4.52175 259.21 4.54497 259.202 4.56907 259.199C4.59316 259.196 4.61767 259.197 4.64118 259.203C4.66469 259.21 4.68674 259.22 4.70609 259.235C4.72543 259.25 4.74168 259.268 4.75391 259.289C4.76614 259.31 4.77411 259.334 4.77737 259.358C6.43883 271.881 13.3773 279.692 19.4974 286.591C24.6207 292.364 29.4612 297.814 30.4581 305.11C30.4616 305.134 30.4602 305.158 30.4541 305.182C30.448 305.206 30.4372 305.228 30.4224 305.247C30.4076 305.267 30.3892 305.283 30.368 305.295C30.3469 305.307 30.3236 305.315 30.2994 305.318L30.2795 305.313Z" fill="black"/>
<path d="M258.004 243.001C258.212 245.754 261.714 245.699 262.105 243.869C263.211 245.605 265.711 244.553 265.612 242.619C266.634 243.368 268.528 242.222 267.194 240.859C270.666 239.133 267.923 232.889 264.784 234.049C265.007 230.776 258.941 230.612 259.269 234.153C258.773 231.713 255.147 233.186 256.466 235.373L258.004 243.001Z" fill="black"/>
<path d="M192.592 304.649C192.126 304.783 189.522 306.985 187.93 308.453C185.004 311.151 184.181 309.539 185.227 308.2C187.776 304.931 191.233 300.408 196.545 296.297C198.122 295.072 202.992 292.299 207.535 290.345C226.694 282.211 227.528 281.835 231.436 278.72C233.876 276.776 242.124 268.702 242.124 268.702L243.473 268.503L252.831 275.997L247.376 283.526L233.241 294.219C233.241 294.219 223.51 297.77 217.792 300.522C212.073 303.275 209.901 304.158 209.901 304.158C209.901 304.158 205.517 307.5 203.513 308.834C201.51 310.169 198.742 310.779 198.216 310.422C195.429 308.532 194.219 307.575 194.219 307.575C192.835 307.6 191.888 306.851 192.592 304.649Z" fill="#C15D31"/>
<path d="M196.46 308.978C195.934 310.521 197.04 311.23 198.414 310.64C200.145 309.896 201.653 307.451 201.39 306.632C201.127 305.814 199.669 305.923 198.186 306.737C197.361 307.254 196.749 308.049 196.46 308.978V308.978Z" fill="#C15D31"/>
<path d="M197.497 311.032C197.143 311.045 196.797 310.923 196.53 310.689C196.113 310.302 196.034 309.697 196.282 308.919C196.586 307.947 197.226 307.115 198.087 306.573C199.218 305.953 200.329 305.73 200.984 305.983C201.117 306.031 201.238 306.108 201.338 306.21C201.438 306.311 201.513 306.433 201.559 306.568C201.881 307.56 200.22 310.04 198.489 310.803C198.177 310.946 197.84 311.023 197.497 311.032V311.032ZM196.634 309.048C196.426 309.653 196.48 310.144 196.783 310.426C197.012 310.579 197.279 310.664 197.554 310.674C197.829 310.684 198.101 310.617 198.34 310.481C200.061 309.742 201.425 307.366 201.207 306.702C201.178 306.618 201.131 306.543 201.068 306.481C201.005 306.419 200.929 306.372 200.845 306.345C200.299 306.131 199.287 306.345 198.266 306.915C197.486 307.412 196.907 308.169 196.634 309.053V309.048Z" fill="black"/>
<path d="M202.045 331.42C202.104 332.006 203.037 332.368 204.138 331.331C206.647 329.03 210.034 327.294 211.612 326.535C213.189 325.776 215.579 325.047 219.349 323.277C223.118 321.506 241.786 312.594 241.989 312.594C242.192 312.594 237.203 298.707 237.203 298.707C233.235 301.187 224.7 306.062 210.664 312.787C209.018 313.576 201.167 314.86 198.464 315.267C196.857 315.52 196.658 316.011 196.703 316.591L202.972 316.651C200.952 318.049 199.088 319.66 197.412 321.457C194.139 324.824 192.84 327.522 193.445 328.127C194.05 328.732 195.731 326.858 197.447 325.271C199.163 323.683 200.423 322.791 200.611 322.855C200.696 322.89 199.867 324.189 199.525 324.918C198.652 326.763 197.923 328.162 197.745 330.225C197.566 332.288 199.089 331.872 199.5 331.182C199.743 332.194 200.944 332.745 202.045 331.42Z" fill="#C15D31"/>
<path d="M299.392 343.289C299.263 343.407 299.125 343.514 298.98 343.611C297.492 344.603 294.829 344.915 290.579 344.494C291.007 343.677 291.664 343.001 292.468 342.55L292.825 342.341C293.986 341.692 294.864 339.366 295.216 337.878C295.292 337.566 295.347 337.25 295.379 336.93C295.464 335.77 295.786 332.72 294.412 330.979C293.778 330.175 291.367 330.076 291.367 330.076L290.722 318.754L297.289 317.295C298.241 317.34 299.392 317.444 300.572 317.603C303.717 318.02 307.084 318.828 307.516 320.013C308.23 322.126 300.771 342.049 299.392 343.289Z" fill="#C15D31"/>
<path d="M299.391 343.289C299.263 343.406 299.125 343.514 298.98 343.611C297.492 344.638 294.799 345.099 290.504 344.677C290.525 344.615 290.55 344.553 290.578 344.494C291.007 343.677 291.663 343.001 292.468 342.55L292.825 342.341C293.986 341.692 294.863 339.366 295.216 337.878C296.485 337.659 298.191 337.292 299.119 336.757C299.119 336.757 301.38 329.689 301.38 328.965C301.38 328.38 300.607 320.708 300.572 317.613C303.716 318.029 307.084 318.838 307.515 320.023C308.229 322.126 300.77 342.049 299.391 343.289Z" fill="#F09400"/>
<path d="M293.168 319.463C293.451 322.548 293.842 328.276 293.451 330.29C293.059 332.303 289.86 337.521 272.759 340.968C255.659 344.415 248.844 344.826 248.844 344.826C248.844 344.826 238.27 346.909 234.575 340.968C230.737 334.788 231.634 327.245 248.07 318.744C263.862 310.58 276.236 307.466 276.236 307.466L293.168 319.463Z" fill="#5B77C9"/>
<path d="M254.046 274.197L267.735 286.913L258.887 295.275C258.887 295.275 243.175 282.003 243.398 282.003C243.621 282.003 254.046 274.197 254.046 274.197Z" fill="#C15D31"/>
<path d="M247.4 283.714C247.366 283.713 247.333 283.703 247.304 283.685C247.275 283.666 247.252 283.641 247.237 283.61C247.221 283.579 247.215 283.545 247.217 283.511C247.22 283.477 247.232 283.444 247.252 283.417L252.008 276.885C252.039 276.852 252.082 276.832 252.127 276.828C252.172 276.824 252.217 276.837 252.254 276.863C252.29 276.89 252.316 276.928 252.327 276.972C252.337 277.016 252.331 277.063 252.31 277.103L247.554 283.635C247.537 283.659 247.514 283.679 247.487 283.693C247.46 283.707 247.431 283.714 247.4 283.714V283.714Z" fill="black"/>
<path d="M302.213 317.077C293.871 327.874 269.738 315.55 266.906 313.893C270.344 317.162 273.289 320.913 275.65 325.028C279.295 331.545 278.442 333.895 278.283 334.297L260.751 334.793C260.751 334.793 256.66 334.267 251.437 327.711C246.215 321.154 234.024 304.019 231.758 300.096C231.49 299.63 231.182 299.02 230.845 298.305C229.9 296.294 229.479 294.076 229.621 291.858C229.763 289.64 230.464 287.494 231.658 285.62C232.852 283.746 234.501 282.204 236.452 281.138C238.402 280.072 240.59 279.517 242.812 279.523C247.736 279.506 252.642 280.123 257.408 281.359V281.359L242.093 268.702C242.093 268.702 252.176 259.278 257.642 251.839H261.257C264 253.744 272.907 260.057 279.265 265.81C284.721 270.77 293.048 279.201 298.444 286.893C299.153 287.885 299.818 288.917 300.428 289.899C300.577 290.14 300.72 290.383 300.859 290.628C301.731 292.121 302.521 293.661 303.225 295.24C306.498 302.6 307.376 310.402 302.213 317.077Z" fill="#8EBF8C"/>
<path d="M255.856 266.663C255.99 264.644 257.141 256.848 257.141 256.848L253.357 253.228L251.244 251.204L251.14 251.105L256.213 246.145C257.701 249.027 261.287 251.883 261.287 251.883L255.856 266.663Z" fill="#C15D31"/>
<path d="M254.884 248.357C254.598 250.041 254.084 251.678 253.357 253.223L251.244 251.204L254.884 248.357Z" fill="black"/>
<path d="M258.436 243.274C257.901 244.521 257.236 245.708 256.452 246.815V246.815C256.308 247.023 256.164 247.222 256.015 247.42C254.973 248.853 253.757 250.151 252.395 251.284C249.419 253.466 244.46 251.452 245.109 245.679C245.501 242.247 246.994 238.344 249.265 236.063C250.694 234.629 252.425 233.836 254.384 234.188C255.233 234.357 256.042 234.685 256.769 235.155C259.819 237.144 259.715 240.268 258.436 243.274Z" fill="#C15D31"/>
<path d="M303.24 295.26L297.368 298.281L292.751 295.756L286.457 292.493C286.457 292.493 293.103 288.872 298.459 286.913C299.168 287.905 299.833 288.937 300.443 289.919C300.592 290.16 300.736 290.403 300.875 290.648C301.746 292.141 302.536 293.681 303.24 295.26V295.26Z" fill="#4B764A"/>
<path d="M302.213 317.077C293.871 327.874 269.738 315.55 266.906 313.893C270.344 317.162 273.289 320.913 275.65 325.028C279.295 331.545 278.442 333.895 278.283 334.297L260.751 334.793C260.751 334.793 256.66 334.267 251.437 327.711C246.215 321.154 234.024 304.019 231.758 300.096C231.49 299.63 231.182 299.02 230.845 298.305C229.9 296.294 229.479 294.076 229.621 291.858C229.763 289.64 230.464 287.494 231.658 285.62C232.852 283.746 234.501 282.204 236.452 281.138C238.402 280.072 240.59 279.517 242.812 279.524C247.736 279.506 252.642 280.123 257.408 281.359H257.438C283.481 287.523 294.392 292.24 294.392 292.24L300.443 289.939C300.592 290.18 300.735 290.423 300.874 290.668C305.854 299.233 308.472 308.974 302.213 317.077Z" fill="#5B77C9"/>
<path d="M102.099 319.542C102.099 319.666 83.4067 344.836 83.4067 344.836C78.3529 345.148 56.9672 344.915 49.88 344.995C42.7927 345.074 40.2286 344.836 40.2286 344.836C43.9681 343.462 43.3085 335.324 43.3085 335.324C37.7935 334.436 31.842 334.475 31.222 334.704L31.0584 334.773C30.3343 335.12 29.63 335.998 29.144 337.506C28.7626 338.626 28.5405 339.795 28.4843 340.977C28.4298 342.207 28.3554 342.525 29.6449 343.304C30.9344 344.082 31.2369 344.861 31.2369 344.861H23.6339C22.8503 344.861 21.0301 342.441 20.8714 341.672C20.7127 340.903 21.3326 333.533 21.9228 326.972C22.4188 321.764 22.7362 316.998 23.3462 316.502C24.2042 315.808 26.5352 316.472 30.5574 317.444C34.2719 318.366 38.0334 319.086 41.8256 319.602L42.3216 319.666C52.9747 321.025 76.1657 322.453 76.1657 322.453C76.1657 322.453 78.2835 296.857 78.5215 284.448C78.8489 267.397 80.1235 262.75 81.2096 257.875L102.823 280.6C103.28 285.559 102.099 319.418 102.099 319.542Z" fill="#F09400"/>
<path d="M119.845 344.821H83.4072C84.8157 341.766 86.4375 338.711 88.0792 335.839C91.1977 330.446 94.6015 325.223 98.2761 320.192C105.889 313.972 117.772 325.365 117.772 325.365C117.638 325.563 110.496 333.761 108.086 337.238C106.524 339.475 114.925 342.812 117.336 343.006C118.948 343.135 119.85 343.328 119.845 344.821Z" fill="#FFDCAE"/>
<path d="M106.954 257.418C106.954 257.418 108.804 260.335 109.489 260.761C109.801 260.96 137.044 266.688 148.005 269.316C160.443 272.292 165.725 282.211 152.032 297.244C146.115 303.731 131.202 319.805 122.418 333.126C121.982 331.44 119.105 330.175 115.609 327.894C110.153 324.348 102.714 319.706 98.2801 320.172C98.2801 320.172 107.376 307.356 125.002 288.525C125.002 288.525 103.136 285.133 95.7408 284.091C87.2302 282.891 79.5478 278.244 80.2967 265.245C80.5734 260.583 81.4059 255.971 82.7765 251.507L106.954 257.418Z" fill="#F09400"/>
<path d="M95.7468 284.275H95.722C92.3297 283.779 81.121 281.195 79.2612 267.809C79.2577 267.785 79.259 267.76 79.2652 267.737C79.2713 267.713 79.282 267.691 79.2968 267.671C79.3116 267.652 79.3301 267.636 79.3512 267.624C79.3723 267.611 79.3957 267.604 79.4199 267.601C79.444 267.597 79.4686 267.598 79.4922 267.605C79.5158 267.611 79.5379 267.621 79.5573 267.636C79.5767 267.651 79.593 267.669 79.6051 267.691C79.6173 267.712 79.6251 267.735 79.6282 267.759C81.4533 280.887 92.4487 283.441 95.7766 283.908C95.8259 283.911 95.8719 283.934 95.9044 283.971C95.937 284.008 95.9534 284.057 95.9502 284.106C95.9469 284.155 95.9241 284.201 95.8869 284.234C95.8497 284.266 95.8011 284.283 95.7518 284.28L95.7468 284.275Z" fill="black"/>
<path d="M118.729 216.933C118.729 216.933 123.292 224.601 128.976 230.032C134.659 235.462 143.854 243.189 146.89 245.01L145.868 250.366C145.868 250.366 128.857 237.471 117.236 223.088C117.236 223.078 117.479 217.315 118.729 216.933Z" fill="#EA4338"/>
<path d="M156.859 240.968L152.925 240.453C152.04 240.337 151.228 240.961 151.112 241.846L150.669 245.229C150.553 246.115 151.177 246.926 152.063 247.042L155.997 247.558C156.882 247.673 157.694 247.05 157.81 246.164L158.253 242.781C158.369 241.896 157.745 241.084 156.859 240.968Z" fill="#E4D0C0"/>
<path d="M169.744 242.656L165.81 242.141C164.925 242.025 164.113 242.649 163.997 243.534L163.554 246.917C163.438 247.803 164.062 248.614 164.947 248.73L168.881 249.246C169.767 249.361 170.579 248.738 170.694 247.852L171.137 244.469C171.253 243.584 170.63 242.772 169.744 242.656Z" fill="#E4D0C0"/>
<path d="M182.623 244.344L178.689 243.829C177.804 243.713 176.992 244.336 176.876 245.222L176.433 248.605C176.317 249.49 176.941 250.302 177.826 250.418L181.76 250.933C182.646 251.049 183.457 250.425 183.573 249.54L184.016 246.157C184.132 245.271 183.509 244.46 182.623 244.344Z" fill="#E4D0C0"/>
<path d="M195.454 246.025L191.52 245.51C190.634 245.394 189.823 246.018 189.707 246.903L189.264 250.286C189.148 251.172 189.771 251.984 190.657 252.1L194.591 252.615C195.476 252.731 196.288 252.107 196.404 251.221L196.847 247.838C196.963 246.953 196.339 246.141 195.454 246.025Z" fill="#E4D0C0"/>
<path d="M211.022 251.608L144.345 242.877L140.689 270.794L207.367 279.525L211.022 251.608Z" fill="#E4D0C0"/>
<path d="M211.027 251.794L144.32 243.061C144.279 243.047 144.243 243.019 144.22 242.982C144.197 242.944 144.187 242.9 144.193 242.857C144.199 242.813 144.22 242.773 144.252 242.743C144.284 242.713 144.326 242.696 144.37 242.694L211.071 251.427C211.115 251.435 211.156 251.457 211.184 251.491C211.213 251.525 211.229 251.569 211.229 251.613C211.229 251.658 211.213 251.701 211.184 251.735C211.156 251.769 211.115 251.792 211.071 251.799L211.027 251.794Z" fill="#F6EEE8"/>
<path d="M166.628 275.66C167.754 276.553 168.979 276.453 169.421 275.61C169.535 275.392 170.378 276.424 171.31 276.215C172.505 275.953 170.616 273.24 171.023 273.096C171.737 272.808 173.418 276.414 174.698 276.161C176.111 275.883 173.914 271.479 173.914 271.479C174.067 270.667 174.036 269.831 173.822 269.032C173.608 268.234 173.218 267.494 172.679 266.867C170.244 263.891 163.752 260.558 161.158 259.745L156.283 270.978C158.543 271.893 160.625 273.199 162.433 274.837C165.557 277.619 166.435 276.052 166.628 275.66Z" fill="#FFDCAE"/>
<path d="M138.389 204.435C138.29 208.12 135.016 213.362 131.361 215.118C127.592 216.938 124.859 214.087 124.859 211.949C124.301 212.141 123.755 212.369 123.227 212.633C121.437 213.491 119.438 214.707 119.438 214.707L115.793 209.906C119.2 208.388 125.514 205.159 125.514 205.159C125.578 204.073 126.278 203.066 127.245 202.997C127.245 202.997 129.427 199 134.005 199.481C138.582 199.962 138.389 204.435 138.389 204.435Z" fill="#FFDCAE"/>
<path d="M82.772 251.492C87.5381 231.217 99.4064 219.528 106.107 214.9C111.126 211.429 117.712 208.587 117.712 208.587L121.387 214.994C121.387 214.994 118.937 216.696 118.729 216.939C118.521 217.182 118.521 221.997 118.66 222.394C118.798 222.791 126.937 231.951 133.275 237.6C139.614 243.249 152.618 252.846 156.447 254.572C159.388 255.896 161.986 258.044 162.958 260.216C162.958 260.216 160.29 267.422 157.384 271.747C157.384 271.747 154.473 272.888 151.15 270.572C147.827 268.255 135.279 259.884 130.577 256.372C125.038 252.226 119.25 246.141 114.513 241.875C114.513 241.875 107.858 256.025 106.851 257.587C106.027 257.404 82.772 251.492 82.772 251.492Z" fill="#EA4338"/>
<path d="M171.305 276.404C171.257 276.409 171.208 276.395 171.17 276.364C171.131 276.333 171.107 276.289 171.102 276.24C171.097 276.191 171.111 276.142 171.142 276.104C171.172 276.066 171.217 276.042 171.265 276.037C171.309 276.031 171.351 276.015 171.387 275.99C171.423 275.965 171.453 275.931 171.474 275.893C171.647 275.56 171.315 274.747 171.072 274.157C170.829 273.567 170.715 273.269 170.799 273.071C170.813 273.038 170.834 273.009 170.859 272.984C170.885 272.959 170.915 272.94 170.948 272.927C171.394 272.743 171.885 273.368 172.565 274.226C173.244 275.084 174.053 276.101 174.658 275.982C174.712 275.974 174.762 275.952 174.806 275.919C174.849 275.886 174.883 275.843 174.906 275.794C175.293 275.005 174.202 272.476 173.745 271.568C173.73 271.526 173.73 271.481 173.745 271.439C173.89 270.653 173.857 269.844 173.649 269.072C173.442 268.299 173.064 267.583 172.545 266.975C170.651 264.669 166.177 262.016 162.824 260.578C162.78 260.559 162.744 260.523 162.726 260.479C162.707 260.434 162.707 260.384 162.725 260.339L162.77 260.22C161.832 258.187 159.392 256.094 156.382 254.74C152.355 252.925 139.306 243.209 133.166 237.739C127.026 232.268 118.684 223.009 118.496 222.453C118.488 222.409 118.497 222.364 118.52 222.326C118.543 222.288 118.579 222.259 118.621 222.245C118.663 222.231 118.709 222.232 118.751 222.248C118.792 222.264 118.827 222.295 118.848 222.334C119.101 222.83 127.16 231.891 133.409 237.461C139.921 243.264 152.89 252.761 156.531 254.403C159.655 255.806 162.185 258.008 163.137 260.141C163.154 260.186 163.154 260.235 163.137 260.28V260.305C166.509 261.793 170.928 264.421 172.833 266.752C173.383 267.392 173.784 268.146 174.007 268.96C174.23 269.774 174.27 270.628 174.122 271.459C174.395 272.014 175.769 274.931 175.253 275.957C175.207 276.057 175.138 276.144 175.052 276.212C174.966 276.28 174.865 276.327 174.757 276.349C173.939 276.508 173.066 275.422 172.277 274.459C171.915 274.003 171.389 273.339 171.151 273.274C171.222 273.53 171.311 273.78 171.419 274.023C171.717 274.757 172.059 275.585 171.806 276.071C171.759 276.158 171.693 276.233 171.613 276.29C171.534 276.348 171.442 276.386 171.345 276.404H171.305Z" fill="black"/>
<path d="M144.504 246.79C144.465 246.79 144.427 246.778 144.395 246.755C139.996 243.477 135.899 240.194 133.156 237.749C127.021 232.293 118.674 223.019 118.486 222.463C118.375 221.291 118.343 220.113 118.392 218.937C118.387 218.91 118.389 218.882 118.396 218.856C118.403 218.83 118.416 218.805 118.434 218.784C118.452 218.764 118.474 218.747 118.498 218.735C118.523 218.724 118.55 218.718 118.578 218.718C118.605 218.718 118.632 218.724 118.657 218.735C118.681 218.747 118.704 218.764 118.721 218.784C118.739 218.805 118.752 218.83 118.759 218.856C118.766 218.882 118.768 218.91 118.764 218.937C118.719 220.072 118.746 221.208 118.843 222.339C119.096 222.835 127.155 231.896 133.404 237.466C136.137 239.901 140.229 243.179 144.618 246.453C144.648 246.476 144.671 246.509 144.682 246.546C144.694 246.583 144.694 246.623 144.682 246.66C144.67 246.696 144.647 246.729 144.616 246.752C144.585 246.775 144.547 246.789 144.509 246.79H144.504Z" fill="black"/>
<path d="M143.358 205.209C141.374 203.786 140.085 200.249 139.554 198.266C139.058 196.396 136.221 195.915 135.016 197.145C130.151 194.591 127.552 200.354 127.245 202.972C128.544 202.868 129.347 203.746 129.085 205.06C131.564 204.867 133.166 203.458 134.426 200.765C134.426 200.765 134.56 203.126 135.681 204.629C137.084 206.533 139.787 206.236 143.358 205.209Z" fill="#C15D31"/>
<path d="M258.436 243.274C257.901 244.521 257.236 245.708 256.452 246.815C257.94 244.424 256.02 243.08 254.999 243.77C253.654 242.961 253.55 240.402 254.765 239.435C253.278 239.748 252.286 238.537 253.193 236.826C251.423 237.61 249.87 237.382 249.226 236.107C250.654 234.674 252.385 233.88 254.344 234.233C255.193 234.402 256.002 234.73 256.729 235.2C259.819 237.144 259.715 240.268 258.436 243.274Z" fill="black"/>
<path d="M254.567 245.759C254.543 245.762 254.519 245.76 254.495 245.753C254.472 245.747 254.45 245.736 254.431 245.721C254.412 245.706 254.396 245.687 254.384 245.666C254.372 245.645 254.364 245.622 254.361 245.597C254.358 245.573 254.36 245.549 254.367 245.525C254.373 245.502 254.384 245.48 254.399 245.461C254.414 245.442 254.433 245.426 254.454 245.414C254.475 245.402 254.498 245.395 254.522 245.392L256.01 245.01C256.058 244.997 256.109 245.004 256.152 245.029C256.195 245.055 256.226 245.096 256.238 245.144C256.251 245.192 256.244 245.243 256.219 245.285C256.194 245.328 256.153 245.359 256.105 245.372L254.617 245.754L254.567 245.759Z" fill="black"/>
<path d="M258.435 243.274C258.931 238.314 257.136 235.487 254.324 234.232C255.173 234.402 255.982 234.73 256.709 235.2C259.819 237.144 259.715 240.268 258.435 243.274Z" fill="#F09400"/>
<path d="M252.489 242.411C252.449 242.411 252.409 242.398 252.377 242.374C252.345 242.35 252.321 242.316 252.31 242.277C252.163 242.016 251.933 241.812 251.655 241.699C251.378 241.585 251.071 241.569 250.783 241.652C250.737 241.654 250.692 241.64 250.657 241.612C250.621 241.584 250.596 241.544 250.588 241.499C250.579 241.454 250.587 241.408 250.61 241.368C250.634 241.329 250.67 241.299 250.713 241.285C251.091 241.185 251.492 241.218 251.848 241.378C252.204 241.539 252.493 241.818 252.667 242.168C252.681 242.215 252.676 242.266 252.653 242.31C252.63 242.353 252.591 242.386 252.543 242.401L252.489 242.411Z" fill="black"/>
<path d="M246.994 245.634C246.947 245.633 246.903 245.615 246.869 245.583C246.835 245.551 246.814 245.507 246.811 245.461C246.778 245.165 246.653 244.888 246.454 244.667C246.306 244.507 246.193 244.319 246.122 244.113C246.051 243.907 246.024 243.689 246.042 243.472C246.101 242.902 246.702 242.639 247.282 242.386C247.787 242.243 248.227 241.929 248.527 241.498C248.593 241.35 248.613 241.184 248.582 241.024C248.55 240.864 248.471 240.718 248.353 240.605C248.189 240.422 247.979 240.284 247.745 240.208C247.51 240.131 247.26 240.118 247.019 240.169C246.972 240.185 246.921 240.183 246.876 240.161C246.832 240.14 246.797 240.102 246.781 240.055C246.764 240.008 246.767 239.957 246.789 239.912C246.81 239.868 246.848 239.833 246.895 239.817C247.205 239.742 247.529 239.752 247.834 239.846C248.139 239.941 248.412 240.116 248.626 240.352C248.794 240.519 248.906 240.732 248.949 240.965C248.991 241.197 248.962 241.437 248.864 241.652C248.611 242.212 247.981 242.485 247.431 242.728C246.88 242.971 246.439 243.16 246.409 243.512C246.397 243.682 246.42 243.853 246.479 244.014C246.537 244.174 246.628 244.321 246.746 244.444C246.991 244.721 247.141 245.068 247.178 245.436C247.18 245.461 247.177 245.485 247.169 245.509C247.161 245.532 247.149 245.553 247.133 245.572C247.117 245.59 247.097 245.606 247.075 245.616C247.053 245.627 247.029 245.633 247.004 245.634H246.994Z" fill="black"/>
<path d="M250.707 242.845C250.847 242.562 250.828 242.268 250.666 242.188C250.504 242.108 250.26 242.272 250.12 242.555C249.981 242.837 249.999 243.131 250.161 243.211C250.323 243.291 250.568 243.127 250.707 242.845Z" fill="black"/>
<path d="M133.011 208.341C133.182 208.077 133.198 207.783 133.046 207.684C132.894 207.586 132.633 207.721 132.461 207.985C132.29 208.25 132.274 208.544 132.426 208.642C132.578 208.74 132.84 208.606 133.011 208.341Z" fill="black"/>
<path d="M135.801 210.461C135.99 210.209 136.025 209.917 135.88 209.809C135.735 209.7 135.465 209.817 135.277 210.07C135.088 210.322 135.053 210.615 135.198 210.723C135.343 210.831 135.613 210.714 135.801 210.461Z" fill="black"/>
<path d="M247.923 241.468C248.063 241.185 248.044 240.891 247.882 240.811C247.72 240.731 247.476 240.896 247.336 241.178C247.197 241.46 247.215 241.754 247.378 241.834C247.54 241.914 247.784 241.75 247.923 241.468Z" fill="black"/>
<path d="M247.232 247.38C248.198 247.45 249.169 247.389 250.118 247.197C249.727 248.808 247.579 249.939 247.232 247.38Z" fill="white"/>
<path d="M266.906 314.081C266.862 314.081 266.82 314.065 266.787 314.037C266.742 313.997 262.165 310.163 260.28 308.328C260.263 308.311 260.248 308.291 260.239 308.269C260.229 308.246 260.224 308.222 260.223 308.198C260.223 308.174 260.227 308.149 260.236 308.127C260.245 308.104 260.258 308.083 260.275 308.065C260.292 308.048 260.312 308.034 260.335 308.024C260.357 308.014 260.381 308.009 260.406 308.009C260.43 308.008 260.454 308.012 260.477 308.021C260.5 308.03 260.52 308.044 260.538 308.061C262.413 309.886 266.985 313.71 267.025 313.749C267.055 313.773 267.077 313.806 267.088 313.843C267.098 313.88 267.097 313.92 267.084 313.956C267.071 313.992 267.046 314.023 267.014 314.045C266.983 314.067 266.945 314.078 266.906 314.077V314.081Z" fill="black"/>
<path d="M252.156 277.182C252.119 277.183 252.083 277.173 252.052 277.153C252.012 277.124 251.984 277.082 251.975 277.034C251.966 276.986 251.976 276.936 252.003 276.895C252.052 276.825 256.833 269.778 257.602 268.419C257.611 268.393 257.626 268.369 257.645 268.349C257.665 268.33 257.688 268.315 257.714 268.305C257.74 268.295 257.767 268.291 257.795 268.294C257.822 268.296 257.849 268.304 257.873 268.318C257.897 268.331 257.918 268.35 257.934 268.373C257.949 268.395 257.96 268.421 257.965 268.448C257.97 268.475 257.969 268.503 257.962 268.53C257.955 268.556 257.942 268.581 257.924 268.602C257.146 269.976 252.504 276.815 252.305 277.103C252.288 277.127 252.266 277.147 252.24 277.161C252.215 277.175 252.186 277.182 252.156 277.182V277.182Z" fill="black"/>
<path d="M260.087 263.797C260.05 263.797 260.014 263.787 259.983 263.767C259.942 263.739 259.913 263.697 259.903 263.649C259.893 263.601 259.902 263.55 259.928 263.509C261.977 260.389 264.154 258.991 266.376 259.353C266.4 259.356 266.423 259.365 266.444 259.378C266.465 259.39 266.483 259.407 266.498 259.427C266.512 259.447 266.522 259.469 266.528 259.493C266.533 259.517 266.534 259.542 266.53 259.566C266.521 259.614 266.494 259.658 266.454 259.686C266.414 259.715 266.365 259.727 266.316 259.72C264.233 259.383 262.185 260.712 260.221 263.712C260.206 263.735 260.186 263.755 260.163 263.769C260.14 263.784 260.114 263.793 260.087 263.797V263.797Z" fill="black"/>
<path d="M268.831 283.273C268.796 283.274 268.761 283.264 268.731 283.247C268.701 283.229 268.677 283.202 268.661 283.171C268.646 283.14 268.639 283.105 268.643 283.07C268.647 283.035 268.66 283.002 268.682 282.975C268.712 282.935 271.752 278.774 272.858 276.899C272.886 276.864 272.926 276.839 272.971 276.831C273.016 276.822 273.062 276.83 273.101 276.853C273.141 276.876 273.17 276.913 273.185 276.956C273.199 276.999 273.198 277.046 273.18 277.088C272.064 278.978 269.014 283.149 268.984 283.193C268.967 283.218 268.944 283.238 268.918 283.252C268.891 283.266 268.861 283.273 268.831 283.273V283.273Z" fill="black"/>
<path d="M254.884 273.131C254.86 273.129 254.836 273.123 254.813 273.112C254.791 273.102 254.772 273.087 254.755 273.068C254.739 273.05 254.727 273.028 254.719 273.005C254.711 272.981 254.709 272.957 254.711 272.932C254.835 270.799 255.167 268.683 255.702 266.614C255.72 266.572 255.751 266.538 255.792 266.517C255.832 266.497 255.878 266.491 255.922 266.502C255.966 266.513 256.005 266.539 256.031 266.576C256.057 266.613 256.069 266.658 256.065 266.703C255.54 268.75 255.216 270.843 255.097 272.952C255.097 272.978 255.091 273.004 255.08 273.028C255.068 273.052 255.052 273.073 255.032 273.09C255.012 273.107 254.988 273.12 254.962 273.127C254.937 273.133 254.91 273.135 254.884 273.131Z" fill="black"/>
<path d="M288.406 325.871C288.365 325.868 288.326 325.851 288.295 325.824C288.264 325.796 288.243 325.759 288.235 325.719C288.227 325.678 288.233 325.636 288.251 325.599C288.27 325.562 288.3 325.532 288.337 325.514L293.415 323.53C293.459 323.52 293.505 323.527 293.544 323.548C293.584 323.57 293.614 323.604 293.63 323.646C293.646 323.688 293.647 323.734 293.632 323.776C293.617 323.819 293.588 323.854 293.549 323.877L288.471 325.861L288.406 325.871Z" fill="black"/>
<path d="M201.038 322.612C201.002 322.613 200.968 322.603 200.937 322.585C200.907 322.566 200.883 322.539 200.868 322.507C200.853 322.475 200.847 322.44 200.852 322.405C200.856 322.369 200.871 322.336 200.894 322.309C201.469 321.592 202.127 320.945 202.853 320.38C202.894 320.364 202.94 320.362 202.983 320.376C203.025 320.39 203.061 320.419 203.084 320.457C203.107 320.495 203.116 320.54 203.109 320.584C203.102 320.628 203.08 320.668 203.046 320.698C202.358 321.241 201.733 321.86 201.182 322.543C201.164 322.564 201.143 322.582 201.118 322.594C201.093 322.606 201.065 322.612 201.038 322.612V322.612Z" fill="black"/>
<path d="M199.501 331.386H199.446C199.399 331.371 199.36 331.338 199.337 331.294C199.313 331.251 199.308 331.2 199.322 331.153C200.185 328.296 202.501 324.259 204.738 322.721C204.779 322.703 204.824 322.7 204.867 322.712C204.91 322.724 204.947 322.751 204.972 322.787C204.997 322.824 205.008 322.869 205.003 322.913C204.998 322.957 204.978 322.998 204.946 323.029C203.012 324.358 200.656 328.048 199.664 331.252C199.654 331.288 199.633 331.321 199.604 331.345C199.574 331.369 199.538 331.383 199.501 331.386V331.386Z" fill="black"/>
<path d="M202.045 331.599C201.997 331.598 201.952 331.579 201.918 331.545C201.884 331.512 201.864 331.468 201.861 331.42C201.827 330.175 203.399 327.487 207.937 324.026C207.956 324.011 207.979 324 208.003 323.993C208.026 323.987 208.051 323.985 208.076 323.988C208.1 323.992 208.123 324 208.145 324.012C208.166 324.024 208.185 324.041 208.2 324.06C208.215 324.08 208.226 324.102 208.232 324.126C208.238 324.15 208.24 324.174 208.237 324.199C208.234 324.223 208.226 324.247 208.213 324.268C208.201 324.289 208.185 324.308 208.165 324.323C203.429 327.934 202.214 330.478 202.214 331.41C202.215 331.459 202.197 331.507 202.164 331.543C202.13 331.58 202.084 331.601 202.035 331.604L202.045 331.599Z" fill="black"/>
<path d="M306.355 144.281H270.686V195.414H306.355V144.281Z" fill="#E4D0C0"/>
<path d="M302.179 148.204H274.861V191.491H302.179V148.204Z" fill="#F6EEE8"/>
<path d="M295.433 158.891H281.601V180.808H295.433V158.891Z" fill="white"/>
<path d="M327.016 204.554H290.504V224.556H327.016V204.554Z" fill="#E4D0C0"/>
<path d="M323.569 207.912H293.951V221.204H323.569V207.912Z" fill="white"/>
<path d="M130.002 212.663C129.769 212.51 129.09 212.053 129.248 210.6C129.251 210.576 129.258 210.553 129.27 210.531C129.281 210.51 129.297 210.491 129.316 210.476C129.335 210.461 129.357 210.449 129.38 210.443C129.403 210.436 129.428 210.434 129.452 210.436C129.476 210.439 129.499 210.446 129.521 210.458C129.542 210.469 129.561 210.485 129.576 210.504C129.591 210.523 129.603 210.545 129.609 210.568C129.616 210.591 129.618 210.616 129.615 210.64C129.481 211.87 130.002 212.217 130.201 212.346L130.002 212.663Z" fill="black"/>
<path d="M134.005 206.826C133.956 206.825 133.91 206.805 133.876 206.771C133.842 206.737 133.822 206.691 133.821 206.642C133.827 206.511 133.799 206.381 133.74 206.263C133.681 206.146 133.593 206.046 133.484 205.973C133.285 205.873 133.066 205.821 132.844 205.821C132.622 205.821 132.403 205.873 132.204 205.973C132.182 205.982 132.158 205.987 132.133 205.987C132.109 205.987 132.085 205.983 132.062 205.974C132.04 205.964 132.019 205.951 132.002 205.934C131.984 205.916 131.971 205.896 131.961 205.874C131.952 205.851 131.947 205.827 131.947 205.803C131.947 205.778 131.951 205.754 131.961 205.732C131.97 205.709 131.983 205.688 132 205.671C132.018 205.654 132.038 205.64 132.06 205.631C132.316 205.509 132.597 205.451 132.88 205.46C133.163 205.47 133.44 205.547 133.687 205.685C133.849 205.793 133.979 205.942 134.066 206.115C134.153 206.289 134.194 206.483 134.183 206.677C134.183 206.726 134.164 206.773 134.13 206.809C134.095 206.844 134.049 206.864 134 206.866L134.005 206.826Z" fill="black"/>
<path d="M132.968 212.262C132.645 212.223 132.339 212.091 132.091 211.88C131.949 211.781 131.801 211.69 131.649 211.607C131.606 211.584 131.573 211.545 131.559 211.498C131.545 211.451 131.549 211.4 131.572 211.356C131.595 211.313 131.635 211.281 131.682 211.266C131.729 211.252 131.779 211.257 131.823 211.28C131.994 211.367 132.159 211.465 132.319 211.572C132.616 211.776 132.854 211.934 133.088 211.88C133.321 211.825 133.628 211.498 133.955 210.888C134.997 208.983 135.344 208.596 135.79 208.453C136.053 208.362 136.339 208.369 136.596 208.473C136.853 208.577 137.064 208.77 137.189 209.018C137.202 209.039 137.211 209.062 137.215 209.086C137.219 209.111 137.218 209.135 137.213 209.159C137.207 209.183 137.197 209.206 137.183 209.226C137.168 209.246 137.15 209.263 137.13 209.276C137.109 209.289 137.086 209.298 137.061 209.302C137.037 209.306 137.012 209.305 136.988 209.3C136.964 209.294 136.942 209.284 136.922 209.27C136.902 209.255 136.885 209.237 136.872 209.216C136.789 209.035 136.64 208.892 136.456 208.817C136.272 208.741 136.066 208.739 135.88 208.81C135.567 208.909 135.245 209.271 134.258 211.071C133.866 211.79 133.524 212.148 133.152 212.237C133.092 212.252 133.03 212.26 132.968 212.262V212.262Z" fill="black"/>
<path d="M127.587 205.556C127.543 205.556 127.501 205.54 127.467 205.512C127.434 205.484 127.411 205.445 127.403 205.402L127.14 203.914C127.132 203.889 127.129 203.861 127.131 203.834C127.134 203.807 127.143 203.781 127.157 203.758C127.171 203.735 127.189 203.715 127.212 203.699C127.234 203.684 127.259 203.673 127.286 203.669C127.313 203.664 127.34 203.665 127.367 203.672C127.393 203.679 127.417 203.691 127.438 203.709C127.459 203.726 127.476 203.747 127.488 203.772C127.5 203.796 127.507 203.823 127.507 203.85L127.77 205.338C127.777 205.386 127.765 205.436 127.737 205.476C127.708 205.516 127.665 205.543 127.616 205.551L127.587 205.556Z" fill="black"/>
<path d="M125.162 209.43C124.956 210.252 124.854 211.097 124.859 211.944C124.301 212.136 123.756 212.364 123.228 212.629C123.138 211.285 124.24 209.712 125.162 209.43Z" fill="black"/>
<path d="M173.914 271.667C173.878 271.667 173.843 271.657 173.813 271.638C173.783 271.618 173.76 271.59 173.745 271.558C172.922 269.979 171.862 268.535 170.601 267.278C170.567 267.242 170.548 267.195 170.549 267.145C170.55 267.096 170.57 267.049 170.606 267.015C170.641 266.981 170.689 266.962 170.738 266.963C170.788 266.964 170.834 266.984 170.869 267.02C172.158 268.306 173.242 269.783 174.082 271.399C174.093 271.421 174.1 271.445 174.101 271.47C174.102 271.494 174.099 271.519 174.09 271.542C174.082 271.565 174.069 271.586 174.052 271.604C174.036 271.623 174.016 271.637 173.993 271.647C173.969 271.66 173.941 271.666 173.914 271.667V271.667Z" fill="black"/>
<path d="M43.3085 335.308C37.7935 334.421 31.842 334.46 31.222 334.689L31.0584 334.758C30.3343 335.105 29.63 335.983 29.144 337.491C28.7626 338.611 28.5405 339.78 28.4843 340.962C28.4298 342.192 28.3554 342.51 29.6449 343.288C30.9344 344.067 31.2369 344.846 31.2369 344.846H23.6339C22.8503 344.846 21.0301 342.425 20.8714 341.657C20.7127 340.888 21.3326 333.518 21.9228 326.957C22.4188 321.749 22.7362 316.983 23.3462 316.487C24.2042 315.792 26.5352 316.457 30.5574 317.429C34.2719 318.351 38.0334 319.071 41.8256 319.587L42.3216 319.651C43.8094 324.318 43.3333 332.412 43.3085 335.308Z" fill="#FFDCAE"/>
<path d="M31.2369 344.821H23.6339C22.8503 344.821 21.0301 342.401 20.8714 341.632C20.7127 340.863 21.3326 333.493 21.9228 326.932C22.4188 321.724 22.7362 316.958 23.3462 316.462C24.2042 315.768 26.5352 316.432 30.5574 317.404C29.3721 318.818 27.056 321.62 26.927 322.002C26.7584 322.498 26.6047 325.97 26.4311 328.251C26.2376 331.078 26.5253 330.731 27.0659 331.326C27.6065 331.921 29.9871 330.701 30.1458 331.703C30.3523 332.746 30.6527 333.769 31.0435 334.758C30.3194 335.105 29.6151 335.983 29.1291 337.491C28.7477 338.611 28.5256 339.78 28.4695 340.963C28.4149 342.192 28.3405 342.51 29.63 343.289C30.9195 344.067 31.2369 344.821 31.2369 344.821Z" fill="#C15D31"/>
<path d="M260.364 334.902H260.295C257.319 333.747 253.793 330.969 251.288 327.83C250.266 326.55 248.957 324.854 247.385 322.727C247.355 322.687 247.343 322.637 247.35 322.589C247.357 322.54 247.383 322.496 247.422 322.466C247.462 322.437 247.511 322.424 247.56 322.431C247.609 322.438 247.653 322.464 247.682 322.503C249.25 324.606 250.559 326.322 251.576 327.602C254.055 330.692 257.527 333.424 260.424 334.545C260.461 334.563 260.491 334.593 260.509 334.631C260.528 334.668 260.533 334.71 260.525 334.75C260.518 334.791 260.496 334.828 260.466 334.855C260.435 334.883 260.395 334.899 260.354 334.902H260.364Z" fill="black"/>
<path d="M278.284 334.485C278.259 334.484 278.235 334.478 278.213 334.467C278.191 334.456 278.171 334.441 278.155 334.423C278.139 334.404 278.127 334.383 278.119 334.359C278.111 334.336 278.108 334.311 278.11 334.287C278.343 330.969 277.233 328.221 275.502 325.122C273.147 321.029 270.215 317.296 266.798 314.037C266.758 314.008 266.732 313.965 266.724 313.916C266.717 313.868 266.729 313.818 266.758 313.779C266.787 313.74 266.83 313.713 266.879 313.706C266.927 313.698 266.976 313.71 267.016 313.739C270.735 315.917 283.556 321.967 293.326 321.213C293.372 321.216 293.414 321.235 293.447 321.267C293.479 321.299 293.499 321.341 293.503 321.386C293.506 321.432 293.493 321.477 293.466 321.513C293.44 321.55 293.4 321.575 293.356 321.585C283.551 322.334 271.747 316.661 268.018 314.706C271.053 317.766 273.679 321.207 275.829 324.943C277.595 328.102 278.725 330.895 278.487 334.317C278.482 334.366 278.458 334.411 278.42 334.443C278.382 334.474 278.333 334.489 278.284 334.485V334.485Z" fill="black"/>
<path d="M196.446 309.201C195.072 309.792 193.837 308.706 194.214 307.57C194.298 307.324 194.406 307.086 194.536 306.861C194.545 307.009 194.588 307.153 194.66 307.282C195.072 307.857 196.039 307.679 196.703 305.943C196.887 305.447 197.046 305.001 197.199 304.584C198.276 304.212 199.134 304.336 199.272 305.006C199.352 305.492 198.176 308.458 196.446 309.201Z" fill="#C15D31"/>
<path d="M195.672 309.554C195.226 309.56 194.793 309.397 194.462 309.097C194.245 308.904 194.089 308.651 194.014 308.369C193.939 308.088 193.948 307.791 194.04 307.515C194.129 307.257 194.242 307.008 194.378 306.771C194.397 306.737 194.427 306.71 194.462 306.694C194.498 306.678 194.538 306.674 194.576 306.682C194.615 306.689 194.65 306.708 194.677 306.737C194.703 306.765 194.72 306.802 194.725 306.841C194.729 306.956 194.758 307.069 194.809 307.173C194.86 307.249 194.931 307.31 195.014 307.349C195.097 307.387 195.189 307.402 195.28 307.391C195.727 307.332 196.193 306.771 196.535 305.903C196.694 305.497 196.848 305.055 197.031 304.554C197.04 304.527 197.055 304.502 197.074 304.482C197.094 304.461 197.118 304.445 197.145 304.435C197.438 304.301 197.755 304.227 198.077 304.218C198.4 304.21 198.72 304.267 199.02 304.386C199.133 304.449 199.232 304.537 199.308 304.642C199.384 304.747 199.437 304.868 199.461 304.996C199.59 305.626 198.311 308.641 196.545 309.4C196.268 309.511 195.971 309.563 195.672 309.554V309.554ZM194.497 307.366C194.46 307.456 194.427 307.543 194.398 307.629C194.328 307.837 194.321 308.061 194.378 308.273C194.436 308.485 194.555 308.675 194.72 308.82C194.946 309.013 195.224 309.136 195.519 309.173C195.815 309.21 196.114 309.159 196.381 309.028C198.063 308.304 199.154 305.407 199.079 305.06C199.067 304.983 199.037 304.911 198.991 304.848C198.945 304.785 198.886 304.734 198.817 304.698C198.333 304.521 197.799 304.539 197.329 304.748C197.175 305.219 197.026 305.636 196.877 306.027C196.481 307.059 195.915 307.699 195.325 307.773C195.169 307.794 195.01 307.77 194.866 307.705C194.722 307.64 194.6 307.537 194.512 307.406L194.497 307.366Z" fill="black"/>
<path d="M195.2 307.763C195.062 307.763 194.926 307.729 194.805 307.664C194.683 307.599 194.578 307.505 194.501 307.391C194.409 307.241 194.355 307.071 194.342 306.895C194.213 305.953 194.288 303.796 194.466 300.388C194.468 300.364 194.474 300.341 194.484 300.319C194.494 300.297 194.509 300.277 194.527 300.261C194.545 300.245 194.566 300.233 194.589 300.225C194.611 300.217 194.636 300.213 194.66 300.215C194.684 300.216 194.707 300.222 194.729 300.232C194.751 300.243 194.77 300.257 194.787 300.275C194.803 300.293 194.815 300.314 194.823 300.337C194.831 300.36 194.835 300.384 194.833 300.408C194.66 303.796 194.58 305.933 194.709 306.856C194.714 306.971 194.742 307.084 194.794 307.188C194.844 307.264 194.915 307.325 194.998 307.364C195.082 307.402 195.174 307.417 195.265 307.406C195.711 307.347 196.177 306.786 196.52 305.918C196.678 305.512 196.832 305.07 197.015 304.569C197.368 303.483 197.551 302.69 197.551 302.68C197.563 302.632 197.594 302.591 197.635 302.566C197.68 302.548 197.73 302.548 197.774 302.566C198.697 302.718 199.645 302.565 200.472 302.129C201.498 301.555 202.458 300.87 203.334 300.086C203.37 300.052 203.418 300.034 203.467 300.036C203.517 300.038 203.563 300.059 203.597 300.096C203.63 300.132 203.648 300.18 203.646 300.229C203.644 300.278 203.623 300.325 203.587 300.359C202.689 301.168 201.702 301.873 200.646 302.461C199.794 302.906 198.827 303.08 197.874 302.957C197.799 303.25 197.63 303.9 197.378 304.703C197.214 305.199 197.06 305.655 196.882 306.072C196.485 307.104 195.919 307.743 195.329 307.818L195.2 307.763Z" fill="black"/>
<path d="M189.378 277.356C189.33 277.349 189.286 277.323 189.257 277.284C189.227 277.245 189.214 277.196 189.22 277.148L192.875 249.23C192.882 249.182 192.908 249.138 192.947 249.109C192.986 249.079 193.035 249.066 193.083 249.072L211.071 251.427C211.113 251.441 211.149 251.469 211.172 251.507C211.195 251.544 211.205 251.588 211.199 251.631C211.193 251.675 211.172 251.715 211.14 251.745C211.107 251.775 211.066 251.792 211.022 251.794L193.217 249.463L189.587 277.197C189.584 277.222 189.576 277.245 189.564 277.266C189.551 277.287 189.535 277.306 189.516 277.32C189.496 277.335 189.474 277.346 189.451 277.352C189.427 277.358 189.402 277.36 189.378 277.356V277.356Z" fill="#F6EEE8"/>
<path d="M222.479 216.125V215.728C222.588 215.728 222.702 215.758 222.821 215.763C222.668 215.84 222.547 215.968 222.479 216.125V216.125Z" fill="#E4D0C0"/>
<path d="M173.314 205.626V206.796C174.911 207.505 178.685 208.716 177.822 210.184C178.849 210.352 179.623 211.83 178.011 212.629C178.279 213.621 177.143 214.588 176.136 214.498C176.225 215.342 175.268 216.205 173.81 216.046C172.198 215.867 171.985 214.196 172.734 213.983C172.467 213.896 172.227 213.739 172.039 213.53C171.852 213.321 171.723 213.065 171.665 212.79C171.608 212.515 171.624 212.229 171.712 211.962C171.801 211.695 171.958 211.456 172.169 211.27C171.375 211.21 171.236 209.236 172.367 208.716C171.395 208.155 171.35 205.775 173.314 205.626Z" fill="#F88D7A"/>
<path d="M115.585 211.889C115.545 211.89 115.506 211.878 115.473 211.855C115.441 211.832 115.417 211.798 115.405 211.76C115.393 211.722 115.394 211.681 115.408 211.644C115.421 211.606 115.447 211.574 115.48 211.552C116.424 210.891 117.433 210.327 118.491 209.871C118.538 209.855 118.589 209.857 118.633 209.879C118.678 209.9 118.712 209.938 118.729 209.985C118.745 210.032 118.743 210.083 118.721 210.128C118.7 210.172 118.662 210.207 118.615 210.223C117.589 210.671 116.611 211.219 115.694 211.86C115.661 211.881 115.623 211.891 115.585 211.889V211.889Z" fill="black"/>
<path d="M116.805 213.511C116.768 213.51 116.732 213.497 116.702 213.475C116.671 213.453 116.649 213.422 116.636 213.387C116.623 213.352 116.621 213.314 116.63 213.278C116.639 213.242 116.658 213.209 116.686 213.184C117.474 212.509 119.374 211.582 119.592 211.627C119.619 211.632 119.644 211.643 119.667 211.66C119.689 211.676 119.707 211.697 119.721 211.721C119.745 211.764 119.75 211.814 119.738 211.861C119.725 211.909 119.694 211.949 119.652 211.974C119.625 211.98 119.598 211.98 119.572 211.974C118.629 212.353 117.738 212.853 116.924 213.462C116.891 213.492 116.849 213.51 116.805 213.511V213.511Z" fill="black"/>
<path d="M118.183 215.321C118.146 215.32 118.111 215.308 118.081 215.286C118.052 215.265 118.029 215.235 118.015 215.201C118.002 215.167 117.999 215.129 118.007 215.093C118.015 215.058 118.033 215.025 118.059 214.999C118.846 214.428 119.675 213.917 120.539 213.472C120.582 213.449 120.633 213.444 120.68 213.458C120.727 213.473 120.766 213.505 120.789 213.548C120.812 213.592 120.817 213.643 120.803 213.69C120.788 213.737 120.756 213.776 120.712 213.799C119.881 214.236 119.082 214.734 118.322 215.287C118.302 215.302 118.28 215.312 118.256 215.318C118.232 215.324 118.207 215.325 118.183 215.321V215.321Z" fill="black"/>
<path d="M114.856 218.789C114.807 218.788 114.761 218.769 114.727 218.734C113.782 217.835 112.545 217.306 111.242 217.245C109.94 217.184 108.659 217.595 107.634 218.402C107.616 218.422 107.593 218.438 107.568 218.449C107.543 218.46 107.515 218.465 107.488 218.464C107.46 218.463 107.433 218.456 107.408 218.444C107.384 218.431 107.362 218.413 107.346 218.392C107.329 218.37 107.317 218.345 107.31 218.318C107.304 218.291 107.304 218.263 107.31 218.236C107.316 218.209 107.327 218.184 107.344 218.162C107.361 218.14 107.382 218.122 107.406 218.109C108.502 217.247 109.872 216.808 111.265 216.875C112.658 216.941 113.981 217.508 114.989 218.471C115.016 218.497 115.035 218.53 115.043 218.566C115.051 218.602 115.048 218.64 115.034 218.674C115.02 218.709 114.996 218.738 114.965 218.758C114.934 218.779 114.898 218.789 114.86 218.789H114.856Z" fill="black"/>
<path d="M114.513 242.068C114.467 242.068 114.423 242.05 114.389 242.019C109.494 237.511 105.725 232.848 105.159 231.718C105.137 231.674 105.134 231.623 105.15 231.576C105.166 231.53 105.199 231.491 105.244 231.47C105.288 231.448 105.338 231.445 105.385 231.461C105.431 231.476 105.47 231.51 105.491 231.554C105.943 232.452 109.459 236.95 114.642 241.746C114.671 241.771 114.691 241.804 114.7 241.84C114.709 241.877 114.707 241.916 114.693 241.951C114.68 241.986 114.656 242.016 114.624 242.037C114.593 242.058 114.556 242.069 114.518 242.068H114.513Z" fill="black"/>
<path d="M162.071 262.661C162.038 262.661 162.005 262.653 161.977 262.636C160.489 261.729 157.513 259.621 157.463 259.601C157.433 259.569 157.415 259.528 157.411 259.485C157.408 259.441 157.42 259.397 157.445 259.362C157.47 259.326 157.507 259.3 157.55 259.288C157.592 259.277 157.637 259.28 157.677 259.298C157.706 259.298 160.652 261.416 162.17 262.319C162.204 262.34 162.23 262.372 162.244 262.41C162.259 262.447 162.261 262.488 162.25 262.527C162.24 262.566 162.217 262.6 162.186 262.625C162.155 262.65 162.116 262.664 162.076 262.666L162.071 262.661Z" fill="black"/>
<path d="M160.444 266.351C160.416 266.357 160.387 266.357 160.36 266.351C158.67 265.469 157.041 264.475 155.484 263.375C155.455 263.342 155.438 263.3 155.436 263.256C155.435 263.211 155.449 263.168 155.476 263.133C155.503 263.098 155.542 263.074 155.585 263.065C155.628 263.055 155.673 263.062 155.712 263.082C157.254 264.162 158.864 265.139 160.533 266.008C160.573 266.025 160.606 266.056 160.626 266.095C160.645 266.133 160.65 266.178 160.64 266.22C160.63 266.263 160.605 266.3 160.57 266.326C160.535 266.351 160.492 266.364 160.449 266.361L160.444 266.351Z" fill="black"/>
<path d="M158.748 269.689H158.683C157.691 269.341 155.281 268.404 153.724 267.179C153.685 267.149 153.66 267.104 153.654 267.055C153.648 267.007 153.661 266.957 153.692 266.919C153.722 266.88 153.766 266.855 153.815 266.849C153.864 266.843 153.913 266.856 153.952 266.886C155.457 267.928 157.099 268.754 158.832 269.341C158.872 269.358 158.904 269.387 158.925 269.425C158.945 269.463 158.952 269.506 158.945 269.548C158.937 269.59 158.916 269.629 158.883 269.657C158.851 269.685 158.81 269.702 158.768 269.703L158.748 269.689Z" fill="black"/>
<path d="M236.956 174.698C236.931 174.696 236.907 174.689 236.885 174.678C236.864 174.667 236.844 174.651 236.828 174.632C236.813 174.613 236.801 174.591 236.794 174.568C236.787 174.544 236.785 174.519 236.787 174.495V174.242C236.881 173.012 237.164 169.282 238.722 166.763C238.75 166.727 238.792 166.702 238.837 166.695C238.882 166.687 238.929 166.696 238.968 166.721C239.007 166.745 239.036 166.783 239.049 166.827C239.062 166.872 239.059 166.919 239.039 166.961C237.551 169.401 237.253 173.066 237.159 174.271V174.529C237.154 174.578 237.13 174.624 237.092 174.655C237.054 174.687 237.005 174.702 236.956 174.698V174.698Z" fill="black"/>
<path d="M244.345 203.3C244.296 203.3 244.249 203.28 244.214 203.245C244.179 203.21 244.159 203.163 244.159 203.114C244.159 203.064 244.179 203.017 244.214 202.982C244.249 202.947 244.296 202.928 244.345 202.928C244.42 202.928 251.913 202.432 255.286 202.784C255.334 202.79 255.378 202.815 255.409 202.853C255.439 202.89 255.454 202.939 255.45 202.987C255.442 203.035 255.417 203.078 255.38 203.108C255.342 203.139 255.295 203.154 255.246 203.151C251.904 202.789 244.444 203.29 244.37 203.295L244.345 203.3Z" fill="black"/>
<path d="M220.038 261.733C219.993 261.733 219.95 261.716 219.916 261.686C219.883 261.656 219.861 261.615 219.855 261.57L216.924 237.015L213.586 235.944C213.539 235.929 213.501 235.895 213.478 235.852C213.456 235.808 213.452 235.757 213.467 235.711C213.482 235.664 213.515 235.625 213.559 235.603C213.603 235.58 213.653 235.576 213.7 235.592L217.172 236.698C217.206 236.708 217.236 236.728 217.259 236.755C217.282 236.783 217.297 236.816 217.301 236.851L220.247 261.525C220.252 261.574 220.238 261.624 220.208 261.663C220.177 261.702 220.132 261.727 220.083 261.733H220.038Z" fill="black"/>
<path d="M176.701 210.431C175.084 210.388 173.522 209.834 172.238 208.849C172.213 208.836 172.192 208.818 172.175 208.796C172.159 208.774 172.147 208.749 172.141 208.722C172.136 208.695 172.136 208.667 172.142 208.641C172.148 208.614 172.16 208.588 172.177 208.567C172.194 208.545 172.215 208.527 172.24 208.515C172.265 208.502 172.292 208.495 172.319 208.494C172.347 208.493 172.374 208.498 172.399 208.509C172.425 208.52 172.447 208.536 172.466 208.557C173.687 209.484 175.169 210.005 176.701 210.045C176.746 210.052 176.786 210.074 176.815 210.109C176.843 210.143 176.859 210.186 176.859 210.231C176.859 210.275 176.843 210.318 176.815 210.353C176.786 210.387 176.746 210.409 176.701 210.417V210.431Z" fill="black"/>
<path d="M176.727 212.599C175.099 212.654 173.489 212.246 172.084 211.423C172.063 211.412 172.043 211.397 172.027 211.379C172.011 211.361 171.999 211.34 171.991 211.317C171.983 211.294 171.98 211.269 171.981 211.245C171.983 211.221 171.989 211.197 172 211.175C172.011 211.153 172.026 211.134 172.044 211.118C172.062 211.102 172.084 211.089 172.107 211.082C172.13 211.074 172.154 211.071 172.178 211.072C172.202 211.074 172.226 211.08 172.248 211.091C173.653 211.909 175.266 212.304 176.89 212.227C176.984 212.227 177.079 212.306 177.079 212.41C177.079 212.435 177.075 212.459 177.066 212.482C177.057 212.505 177.044 212.525 177.027 212.543C177.01 212.561 176.989 212.575 176.967 212.584C176.944 212.594 176.92 212.599 176.895 212.599H176.727Z" fill="black"/>
<path d="M176.141 214.672C174.977 214.634 173.822 214.46 172.699 214.151C172.652 214.139 172.611 214.108 172.587 214.065C172.562 214.023 172.555 213.973 172.568 213.925C172.58 213.878 172.611 213.838 172.653 213.813C172.696 213.788 172.746 213.781 172.793 213.794C173.892 214.091 175.023 214.258 176.161 214.29C176.205 214.297 176.245 214.32 176.274 214.354C176.303 214.388 176.319 214.431 176.319 214.476C176.319 214.521 176.303 214.564 176.274 214.598C176.245 214.632 176.205 214.655 176.161 214.662L176.141 214.672Z" fill="black"/>
<path d="M242.634 216.041C241.047 216.145 237.977 216.383 237.179 216.695C233.964 217.951 230.6 218.784 227.171 219.175C225.187 219.339 224.086 218.183 224.547 217.836H224.334C222.295 217.707 222.022 216.15 222.816 215.748C220.713 215.629 220.401 214.111 221.388 213.571C218.318 213.293 218.7 211.76 220.703 211.547C224.894 211.101 229.075 210.01 230.528 209.067C232.438 207.842 231.629 206.9 230.667 206.28C229.705 205.66 225.886 205.487 225.643 204.594C225.4 203.701 226.025 203.458 227.399 203.334C229.546 203.195 231.699 203.195 233.846 203.334C236.182 203.471 238.523 203.471 240.859 203.334C242.416 205.204 242.739 211.081 242.634 216.041Z" fill="#F88D7A"/>
<path d="M221.789 213.789C221.631 213.789 221.487 213.789 221.358 213.789C221.334 213.787 221.31 213.781 221.289 213.77C221.267 213.759 221.248 213.743 221.232 213.725C221.216 213.707 221.205 213.685 221.197 213.662C221.19 213.639 221.187 213.615 221.189 213.591C221.194 213.542 221.218 213.498 221.255 213.467C221.291 213.435 221.339 213.419 221.387 213.422C222.806 213.541 225.851 212.981 229.551 211.934C229.598 211.92 229.649 211.926 229.692 211.95C229.736 211.973 229.768 212.013 229.782 212.061C229.795 212.108 229.79 212.159 229.766 212.202C229.742 212.245 229.702 212.277 229.655 212.291C226.253 213.234 223.376 213.789 221.789 213.789Z" fill="black"/>
<path d="M223.078 215.957H222.795C222.746 215.953 222.701 215.93 222.668 215.893C222.636 215.856 222.619 215.807 222.622 215.758C222.623 215.734 222.629 215.71 222.64 215.687C222.651 215.665 222.666 215.646 222.684 215.629C222.703 215.613 222.724 215.601 222.748 215.593C222.771 215.585 222.796 215.583 222.82 215.585C223.996 215.654 228.678 215.178 230.731 213.943C230.752 213.93 230.775 213.922 230.799 213.918C230.823 213.914 230.848 213.915 230.871 213.921C230.895 213.927 230.917 213.937 230.937 213.952C230.957 213.966 230.974 213.984 230.986 214.005C230.999 214.026 231.007 214.049 231.011 214.073C231.015 214.097 231.014 214.122 231.008 214.145C231.002 214.169 230.992 214.192 230.978 214.211C230.963 214.231 230.945 214.248 230.924 214.26C228.926 215.466 224.64 215.957 223.078 215.957Z" fill="black"/>
<path d="M224.318 218.025C224.274 218.017 224.234 217.995 224.205 217.961C224.176 217.927 224.16 217.883 224.16 217.839C224.16 217.794 224.176 217.751 224.205 217.717C224.234 217.683 224.274 217.66 224.318 217.653C227.081 217.653 230.895 216.512 231.361 216.209C231.402 216.182 231.453 216.173 231.501 216.183C231.549 216.193 231.592 216.222 231.619 216.264C231.646 216.305 231.655 216.356 231.645 216.404C231.635 216.453 231.606 216.495 231.564 216.522C231.019 216.889 227.14 218.025 224.318 218.025Z" fill="black"/>
</svg>
