<svg width="15" height="16" viewBox="0 0 15 16" fill="none" xmlns="http://www.w3.org/2000/svg">
<path fill-rule="evenodd" clip-rule="evenodd" d="M7.70979 1.52991C7.57284 1.49003 7.42734 1.49003 7.29031 1.52991C7.25094 1.5414 7.18164 1.57012 7.03426 1.6817C6.87931 1.79904 6.68956 1.96698 6.39391 2.22979L2.46417 5.72287C1.98241 6.15111 1.84583 6.28027 1.75088 6.42307C1.65955 6.56047 1.59151 6.71197 1.5495 6.8715C1.50583 7.0374 1.50005 7.2252 1.50005 7.86982V11.6206C1.50005 12.2738 1.50066 12.7179 1.52914 13.0609C1.55689 13.3951 1.60715 13.5656 1.66894 13.6845C1.81125 13.9585 2.03463 14.1819 2.3086 14.3242C2.42752 14.386 2.59807 14.4362 2.93215 14.464C3.2752 14.4925 3.71929 14.4931 4.37255 14.4931H4.50005V12.2431C4.50005 10.5862 5.8432 9.24307 7.50009 9.24307C9.15691 9.24307 10.5001 10.5862 10.5001 12.2431V14.4931H10.6276C11.2808 14.4931 11.7249 14.4925 12.068 14.464C12.402 14.4362 12.5726 14.386 12.6915 14.3242C12.9655 14.1819 13.1888 13.9585 13.3312 13.6845C13.393 13.5656 13.4432 13.3951 13.471 13.0609C13.4994 12.7179 13.5001 12.2738 13.5001 11.6206V7.86982C13.5001 7.2252 13.4943 7.0374 13.4506 6.8715C13.4086 6.71197 13.3406 6.56047 13.2492 6.42307C13.1543 6.28027 13.0177 6.15111 12.536 5.72287L8.60619 2.22979C8.31054 1.96698 8.12079 1.79904 7.96584 1.6817C7.81846 1.57012 7.74916 1.5414 7.70979 1.52991ZM6.87091 0.0897412C7.28184 -0.0299138 7.71826 -0.0299138 8.12919 0.0897412C8.41426 0.172774 8.65066 0.318784 8.87124 0.485794C9.07899 0.643084 9.31299 0.851051 9.58239 1.09053L13.5325 4.60176C13.5538 4.62066 13.5747 4.63931 13.5955 4.65771C13.9868 5.00513 14.2823 5.26758 14.4984 5.59265C14.681 5.86744 14.8172 6.17048 14.9012 6.4896C15.0005 6.86707 15.0004 7.26232 15.0001 7.78552C15.0001 7.81327 15.0001 7.84132 15.0001 7.86982V11.6521C15.0001 12.2659 15.0001 12.7726 14.9658 13.1851C14.9303 13.6136 14.8538 14.0073 14.6623 14.376C14.3777 14.9239 13.9309 15.3706 13.383 15.6553C13.0142 15.8468 12.6206 15.9232 12.1921 15.9588C11.7796 15.9931 11.273 15.9931 10.659 15.9931H10.3538C10.348 15.9931 10.3421 15.9931 10.3361 15.9931C10.2453 15.9931 10.1369 15.9931 10.0413 15.9852C9.93054 15.976 9.77199 15.9524 9.60646 15.8664C9.40096 15.7597 9.23341 15.5921 9.12669 15.3867C9.04074 15.2211 9.01711 15.0625 9.00789 14.9518C8.99994 14.8563 9.00001 14.7478 9.00001 14.6569L9.00009 12.2431C9.00009 11.4146 8.32846 10.7431 7.50009 10.7431C6.67164 10.7431 6.00005 11.4146 6.00005 12.2431L6.00006 14.6569C6.00009 14.7478 6.00016 14.8563 5.99221 14.9518C5.983 15.0625 5.95938 15.2211 5.87339 15.3867C5.76666 15.5921 5.59912 15.7597 5.39365 15.8664C5.22811 15.9524 5.06956 15.976 4.95879 15.9852C4.86326 15.9931 4.75478 15.9931 4.66394 15.9931C4.65799 15.9931 4.6521 15.9931 4.6463 15.9931H4.34107C3.72717 15.9931 3.22051 15.9931 2.808 15.9588C2.37949 15.9232 1.98586 15.8468 1.61713 15.6553C1.0692 15.3706 0.622439 14.9239 0.337814 14.376C0.146279 14.0073 0.0698761 13.6136 0.0342886 13.1851C3.61316e-05 12.7726 4.37197e-05 12.2659 5.12197e-05 11.6521V7.86982C5.12197e-05 7.84132 3.61892e-05 7.81327 2.86892e-05 7.78552C-0.000248811 7.26232 -0.000451371 6.86707 0.0989386 6.4896C0.182961 6.17048 0.319049 5.86744 0.501719 5.59265C0.717809 5.26758 1.01338 5.00513 1.40463 4.65772C1.42536 4.63931 1.44635 4.62066 1.46762 4.60176L5.41774 1.09054C5.68714 0.851051 5.92109 0.643084 6.12886 0.485794C6.34944 0.318784 6.58584 0.172774 6.87091 0.0897412Z" fill="#008A93"/>
</svg>
