<svg width="631" height="612" viewBox="0 0 631 612" fill="none" xmlns="http://www.w3.org/2000/svg">
<ellipse cx="502.672" cy="342.5" rx="128" ry="122.5" fill="#E09B2D" fill-opacity="0.16"/>
<ellipse cx="257" cy="109" rx="113" ry="109" fill="#BAE6FF"/>
<ellipse cx="421" cy="167" rx="116" ry="111" fill="#69D4EC"/>
<path d="M444.995 611.31L405.013 610.432L401.499 579.848L388.043 462.59L381.772 567.666L349.168 570.037L350.828 379.85L418.443 383.785L441.323 579.848L444.995 611.31Z" fill="#B8C1D0"/>
<path d="M421.13 378.287C421.13 378.41 425.935 420.526 425.935 420.526L414.516 420.798C411.343 420.877 408.258 419.748 405.884 417.64C403.51 415.532 402.025 412.602 401.728 409.441L398.935 379.841L421.13 378.287Z" fill="#4B764A"/>
<path d="M427.797 389.925C423.405 389.925 421.982 385.015 422.949 380.904C423.915 376.794 431.302 379.147 431.302 379.147L427.797 389.925Z" fill="black"/>
<path d="M386.831 264.823C389.914 275.169 393.234 284.831 399.005 281.906C402.79 279.983 398.724 272.086 387.586 263.461L386.831 264.823Z" fill="black"/>
<path d="M450.273 386.121C439.733 388.519 427.797 389.916 427.797 389.916C428.464 380.684 428.587 364.391 424.933 360.14L431.161 359.701L423.651 346.069L399.584 346.491L365.619 347.079L336.537 347.58C336.537 347.58 342.194 315.415 343.564 307.94C344.934 300.466 351.267 292.13 360.902 290.479C364.486 289.847 367.393 289.478 369.624 289.249C370.775 289.144 371.75 289.065 372.54 289.021C373.77 288.959 374.587 288.951 374.982 288.951H375.263L389.659 287.291C390.696 287.413 391.706 287.528 392.689 287.624L396.106 287.984C416.001 290.013 422.834 289.741 430.159 297.576C438.214 306.236 440.489 313.386 445.161 324.339C449.834 335.292 457.774 353.649 460.286 361.528C462.799 369.407 460.849 383.732 450.273 386.121Z" fill="#4B764A"/>
<path d="M399.909 349.31C399.909 349.31 365.575 350.408 365.338 350.136C365.338 350.136 365.417 348.994 365.619 347.088C365.66 346.707 365.704 346.294 365.751 345.849L368.298 346.104L375.017 288.959H375.298L389.694 287.299L391.451 287.493L396.168 343.337C396.168 343.337 397.986 343.241 399.224 343.206L399.611 346.491L399.909 349.31Z" fill="#B7AD7A"/>
<path d="M401.271 339.464H401.218C401.176 339.455 401.136 339.437 401.1 339.412C401.065 339.387 401.035 339.355 401.012 339.318C400.989 339.281 400.974 339.24 400.967 339.198C400.96 339.155 400.962 339.111 400.972 339.069C402.466 332.622 405.215 320.624 405.619 318.867L398.733 314.098C398.689 314.068 398.654 314.028 398.629 313.981C398.604 313.934 398.592 313.882 398.592 313.83C398.592 313.777 398.604 313.725 398.629 313.678C398.654 313.632 398.689 313.592 398.733 313.562L404.986 309.082L397.881 292.789C397.859 292.712 397.867 292.629 397.901 292.556C397.936 292.484 397.996 292.426 398.069 292.394C398.143 292.362 398.226 292.358 398.302 292.382C398.379 292.406 398.445 292.457 398.487 292.526L405.698 309.065C405.727 309.134 405.732 309.211 405.711 309.283C405.69 309.355 405.645 309.417 405.584 309.46L399.488 313.852L406.155 318.489C406.208 318.526 406.25 318.579 406.273 318.64C406.297 318.701 406.301 318.768 406.286 318.832C406.286 318.832 403.195 332.244 401.587 339.218C401.57 339.289 401.529 339.351 401.471 339.396C401.414 339.44 401.344 339.464 401.271 339.464Z" fill="black"/>
<path d="M364.17 340.342C364.094 340.342 364.02 340.316 363.961 340.268C363.902 340.22 363.861 340.153 363.845 340.079L359.717 319.605C359.705 319.544 359.711 319.482 359.733 319.425C359.754 319.368 359.791 319.317 359.84 319.28L365.821 314.747L359.822 309.302C359.77 309.254 359.734 309.191 359.719 309.121C359.705 309.052 359.713 308.98 359.743 308.915L367.718 292.499C367.765 292.437 367.832 292.393 367.908 292.375C367.983 292.357 368.063 292.366 368.133 292.4C368.203 292.434 368.258 292.492 368.29 292.563C368.322 292.634 368.328 292.714 368.307 292.789L360.402 308.986L366.55 314.528C366.587 314.559 366.617 314.598 366.637 314.642C366.658 314.686 366.668 314.734 366.668 314.783C366.668 314.831 366.658 314.879 366.637 314.923C366.617 314.967 366.587 315.006 366.55 315.037L360.402 319.684L364.486 339.956C364.502 340.041 364.484 340.128 364.437 340.2C364.389 340.272 364.316 340.323 364.231 340.342H364.17Z" fill="black"/>
<path d="M389.694 287.317C389.229 288.09 381.069 297.602 381.069 297.602C379.804 296.127 376.677 289.39 376.677 289.39C376.677 288.995 376.3 286.474 375.904 284.234C375.571 282.319 375.254 280.615 375.254 280.615C369.308 281.037 365.153 277.664 365.294 265.578C365.355 259.922 366.234 255.214 367.929 251.841C369.888 248.003 372.962 245.868 377.178 245.991C385.083 246.219 388.5 254.95 388.227 263.444C389.036 264.463 388.763 267.835 386.594 268.766C386.682 268.758 387.771 281.388 389.694 287.317Z" fill="#F88D7A"/>
<path d="M368.321 263.534C368.408 262.983 368.221 262.496 367.905 262.446C367.589 262.397 367.262 262.803 367.176 263.354C367.089 263.905 367.275 264.392 367.592 264.442C367.908 264.492 368.235 264.085 368.321 263.534Z" fill="black"/>
<path d="M375.719 263.355C375.741 262.797 375.5 262.335 375.18 262.322C374.859 262.309 374.582 262.751 374.559 263.309C374.537 263.867 374.779 264.329 375.099 264.342C375.419 264.355 375.697 263.913 375.719 263.355Z" fill="black"/>
<path d="M388.316 263.435C386.559 261.467 384.934 262.495 384.934 262.495C383.177 261.186 380.744 257.805 380.999 257.515C384.512 253.483 380.446 251.2 380.446 251.2C375.017 253.747 371.17 253.571 368.017 251.832C369.976 247.994 373.05 245.859 377.266 245.982C385.197 246.211 388.588 254.941 388.316 263.435Z" fill="black"/>
<path d="M378.03 261.327C377.95 261.326 377.874 261.296 377.814 261.242C377.754 261.189 377.716 261.116 377.705 261.037C377.644 260.848 377.545 260.673 377.416 260.522C377.286 260.371 377.128 260.248 376.95 260.159C376.59 259.939 376.185 259.803 375.765 259.762C375.345 259.721 374.921 259.776 374.526 259.922C374.483 259.944 374.437 259.956 374.389 259.958C374.341 259.961 374.294 259.953 374.249 259.935C374.205 259.918 374.165 259.891 374.132 259.856C374.099 259.822 374.073 259.781 374.058 259.736C374.042 259.691 374.036 259.643 374.04 259.596C374.044 259.548 374.058 259.502 374.082 259.46C374.106 259.419 374.138 259.383 374.176 259.355C374.215 259.327 374.259 259.307 374.306 259.298C374.796 259.12 375.32 259.056 375.839 259.109C376.357 259.162 376.857 259.332 377.301 259.605C377.566 259.742 377.799 259.934 377.985 260.167C378.171 260.4 378.306 260.669 378.381 260.958C378.391 261.045 378.367 261.133 378.312 261.202C378.258 261.271 378.179 261.316 378.092 261.327H378.03Z" fill="black"/>
<path d="M385.206 265.956C385.131 265.961 385.057 265.939 384.996 265.896C384.935 265.852 384.891 265.789 384.871 265.716C384.852 265.644 384.858 265.567 384.888 265.499C384.919 265.43 384.972 265.374 385.039 265.341C385.689 264.963 386.638 264.287 386.647 264.278C386.718 264.227 386.806 264.206 386.893 264.22C386.979 264.234 387.056 264.282 387.108 264.353C387.159 264.424 387.18 264.512 387.166 264.599C387.152 264.685 387.104 264.763 387.033 264.814C387.033 264.814 386.049 265.516 385.373 265.912C385.322 265.941 385.265 265.956 385.206 265.956Z" fill="black"/>
<path d="M370.942 268.547H370.872C369.895 268.356 368.941 268.061 368.026 267.669C367.905 267.598 367.801 267.502 367.722 267.386C367.643 267.271 367.591 267.139 367.569 267.001C367.464 266.334 367.982 265.367 369.326 263.778C369.704 262.223 369.51 260.861 368.825 260.264C368.639 260.096 368.409 259.984 368.162 259.94C367.915 259.897 367.661 259.924 367.429 260.018C367.346 260.045 367.256 260.038 367.179 259.998C367.101 259.959 367.043 259.89 367.016 259.807C366.989 259.725 366.996 259.635 367.036 259.557C367.075 259.48 367.144 259.421 367.227 259.395C367.571 259.263 367.945 259.231 368.306 259.301C368.668 259.37 369.003 259.54 369.273 259.79C370.152 260.616 370.406 262.205 369.941 264.059C369.928 264.107 369.904 264.152 369.871 264.19C368.421 265.947 368.175 266.641 368.228 266.948C368.236 266.993 368.254 267.036 368.282 267.073C368.309 267.109 368.345 267.139 368.386 267.159C369.236 267.513 370.118 267.781 371.021 267.958C371.107 267.968 371.186 268.011 371.241 268.078C371.295 268.146 371.32 268.232 371.311 268.319C371.302 268.405 371.259 268.484 371.191 268.538C371.123 268.592 371.037 268.618 370.951 268.608L370.942 268.547Z" fill="black"/>
<path d="M371.925 271.691C371.847 271.679 371.776 271.638 371.725 271.578C371.674 271.518 371.646 271.441 371.646 271.362C371.646 271.283 371.674 271.206 371.725 271.146C371.776 271.086 371.847 271.045 371.925 271.033C373.814 271.033 374.235 270.339 374.288 269.276C374.295 269.19 374.334 269.109 374.397 269.051C374.461 268.992 374.544 268.959 374.631 268.96C374.674 268.961 374.717 268.971 374.756 268.989C374.796 269.007 374.832 269.032 374.861 269.064C374.891 269.096 374.913 269.134 374.928 269.175C374.943 269.215 374.949 269.259 374.947 269.302C374.868 271.445 373.173 271.691 371.925 271.691Z" fill="black"/>
<path d="M381.491 277.638C381.247 279.146 380.594 280.559 379.602 281.722C378.611 282.885 377.32 283.754 375.869 284.234C375.579 282.556 375.298 280.615 375.298 280.615C377.621 280.289 379.785 279.248 381.491 277.638Z" fill="black"/>
<path d="M225.647 241.696C91.8492 241.696 124.093 358.911 119.895 610.687H331.399C327.201 358.893 359.444 241.696 225.647 241.696Z" fill="white"/>
<path d="M225.655 611.126C225.539 611.126 225.427 611.08 225.345 610.997C225.263 610.915 225.216 610.803 225.216 610.687V241.696C225.216 241.58 225.263 241.468 225.345 241.385C225.427 241.303 225.539 241.257 225.655 241.257C225.772 241.257 225.884 241.303 225.966 241.385C226.048 241.468 226.095 241.58 226.095 241.696V610.687C226.095 610.803 226.048 610.915 225.966 610.997C225.884 611.08 225.772 611.126 225.655 611.126Z" fill="#F6EEE8"/>
<path d="M225.655 328.704H124.725C124.609 328.704 124.497 328.658 124.415 328.576C124.332 328.493 124.286 328.382 124.286 328.265C124.286 328.149 124.332 328.037 124.415 327.955C124.497 327.872 124.609 327.826 124.725 327.826H225.655C225.772 327.826 225.884 327.872 225.966 327.955C226.048 328.037 226.095 328.149 226.095 328.265C226.095 328.382 226.048 328.493 225.966 328.576C225.884 328.658 225.772 328.704 225.655 328.704Z" fill="#F6EEE8"/>
<path d="M225.655 465.936H119.552C119.435 465.936 119.324 465.89 119.241 465.808C119.159 465.725 119.113 465.614 119.113 465.497C119.113 465.381 119.159 465.269 119.241 465.186C119.324 465.104 119.435 465.058 119.552 465.058H225.655C225.772 465.058 225.884 465.104 225.966 465.186C226.048 465.269 226.095 465.381 226.095 465.497C226.095 465.614 226.048 465.725 225.966 465.808C225.884 465.89 225.772 465.936 225.655 465.936Z" fill="#F6EEE8"/>
<path d="M326.559 328.704H225.655C225.539 328.704 225.427 328.658 225.345 328.576C225.263 328.493 225.216 328.382 225.216 328.265C225.216 328.149 225.263 328.037 225.345 327.955C225.427 327.872 225.539 327.826 225.655 327.826H326.559C326.676 327.826 326.787 327.872 326.87 327.955C326.952 328.037 326.998 328.149 326.998 328.265C326.998 328.382 326.952 328.493 326.87 328.576C326.787 328.658 326.676 328.704 326.559 328.704Z" fill="#F6EEE8"/>
<path d="M331.75 465.936H225.655C225.539 465.936 225.427 465.89 225.345 465.808C225.263 465.725 225.216 465.614 225.216 465.497C225.216 465.381 225.263 465.269 225.345 465.186C225.427 465.104 225.539 465.058 225.655 465.058H331.759C331.875 465.058 331.987 465.104 332.07 465.186C332.152 465.269 332.198 465.381 332.198 465.497C332.198 465.614 332.152 465.725 332.07 465.808C331.987 465.89 331.875 465.936 331.759 465.936H331.75Z" fill="#F6EEE8"/>
<path d="M347.165 379.165V420.807H354.771C356.986 420.808 359.12 419.981 360.756 418.49C362.393 416.998 363.413 414.949 363.616 412.744L366.734 379.165H347.165Z" fill="#4B764A"/>
<path d="M424.565 391.673L392.435 391.796L305.479 392.129L305.286 342.275L316.898 342.204L329.651 342.152H339.902L352.655 342.099H362.914L375.668 342.055H385.83H392.215H398.583L424.345 341.958L424.415 360.333C420.443 360.558 416.46 360.558 412.488 360.333C408.685 360.087 404.871 360.087 401.069 360.333C398.636 360.553 397.556 360.983 397.96 362.564C398.364 364.145 405.153 364.453 406.857 365.551C408.561 366.649 409.993 368.317 406.611 370.487C404.398 371.91 398.61 373.535 392.312 374.457C391.284 374.615 390.248 374.747 389.212 374.861C385.698 375.239 384.987 377.953 390.424 378.445C388.772 379.323 389.176 381.791 392.347 382.239C392.54 382.239 392.742 382.292 392.953 382.301C392.683 382.437 392.468 382.664 392.347 382.942C392.264 383.138 392.222 383.348 392.222 383.561C392.222 383.774 392.264 383.984 392.347 384.18C392.699 385.059 393.849 385.99 396.01 386.016C395.193 386.675 397.143 388.651 400.656 388.388C406.73 387.695 412.687 386.219 418.381 383.996C419.763 383.625 421.178 383.39 422.606 383.293C422.513 384.313 422.633 385.34 422.958 386.311C423.283 387.282 423.806 388.174 424.494 388.932L424.565 391.673Z" fill="#E4D0C0"/>
<path d="M326.79 335.965L319.764 335.992C318.182 335.998 316.905 337.285 316.911 338.867L316.935 344.909C316.941 346.491 318.228 347.768 319.809 347.762L326.836 347.735C328.417 347.729 329.694 346.442 329.688 344.861L329.665 338.818C329.659 337.236 328.372 335.959 326.79 335.965Z" fill="#E4D0C0"/>
<path d="M349.793 335.877L342.767 335.904C341.185 335.91 339.908 337.197 339.914 338.778L339.938 344.821C339.944 346.402 341.23 347.68 342.812 347.673L349.839 347.646C351.42 347.64 352.697 346.354 352.691 344.772L352.668 338.729C352.662 337.148 351.375 335.871 349.793 335.877Z" fill="#E4D0C0"/>
<path d="M372.797 335.788L365.77 335.815C364.189 335.821 362.912 337.108 362.918 338.69L362.941 344.733C362.947 346.314 364.234 347.591 365.815 347.585L372.842 347.558C374.423 347.552 375.7 346.265 375.694 344.684L375.671 338.641C375.665 337.059 374.378 335.782 372.797 335.788Z" fill="#E4D0C0"/>
<path d="M395.721 335.701L388.694 335.728C387.113 335.734 385.835 337.02 385.842 338.602L385.865 344.645C385.871 346.226 387.158 347.503 388.739 347.497L395.766 347.47C397.347 347.464 398.624 346.177 398.618 344.596L398.595 338.553C398.589 336.972 397.302 335.694 395.721 335.701Z" fill="#E4D0C0"/>
<path d="M305.277 342.6C305.199 342.587 305.128 342.547 305.076 342.486C305.025 342.426 304.997 342.349 304.997 342.27C304.997 342.191 305.025 342.114 305.076 342.054C305.128 341.994 305.199 341.954 305.277 341.941L424.371 341.475C424.449 341.488 424.52 341.528 424.571 341.589C424.623 341.649 424.651 341.726 424.651 341.805C424.651 341.884 424.623 341.96 424.571 342.021C424.52 342.081 424.449 342.121 424.371 342.134L305.277 342.6Z" fill="#F6EEE8"/>
<path d="M392.364 391.787C392.279 391.784 392.198 391.75 392.137 391.689C392.077 391.629 392.042 391.547 392.039 391.462L391.917 341.932C391.916 341.845 391.95 341.761 392.011 341.699C392.072 341.637 392.155 341.601 392.242 341.598L424.371 341.475C424.449 341.488 424.52 341.528 424.572 341.589C424.623 341.649 424.651 341.726 424.651 341.805C424.651 341.884 424.623 341.96 424.572 342.021C424.52 342.081 424.449 342.121 424.371 342.134L392.567 342.257L392.689 391.444C392.689 391.531 392.656 391.615 392.595 391.677C392.534 391.739 392.451 391.776 392.364 391.778V391.787Z" fill="#F6EEE8"/>
<path d="M301.975 554.596H294.948C293.366 554.596 292.084 555.878 292.084 557.459V563.502C292.084 565.084 293.366 566.366 294.948 566.366H301.975C303.556 566.366 304.838 565.084 304.838 563.502V557.459C304.838 555.878 303.556 554.596 301.975 554.596Z" fill="#E4D0C0"/>
<path d="M324.978 554.596H317.951C316.37 554.596 315.088 555.878 315.088 557.459V563.502C315.088 565.084 316.37 566.366 317.951 566.366H324.978C326.559 566.366 327.841 565.084 327.841 563.502V557.459C327.841 555.878 326.559 554.596 324.978 554.596Z" fill="#E4D0C0"/>
<path d="M347.982 554.596H340.955C339.374 554.596 338.092 555.878 338.092 557.459V563.502C338.092 565.084 339.374 566.366 340.955 566.366H347.982C349.563 566.366 350.845 565.084 350.845 563.502V557.459C350.845 555.878 349.563 554.596 347.982 554.596Z" fill="#E4D0C0"/>
<path d="M399.523 560.823H280.429V610.687H399.523V560.823Z" fill="#E4D0C0"/>
<path d="M399.532 561.148H280.429C280.351 561.135 280.28 561.095 280.228 561.035C280.177 560.975 280.149 560.898 280.149 560.819C280.149 560.74 280.177 560.663 280.228 560.603C280.28 560.542 280.351 560.502 280.429 560.49H399.532C399.619 560.49 399.703 560.524 399.765 560.586C399.826 560.648 399.861 560.732 399.861 560.819C399.861 560.906 399.826 560.99 399.765 561.052C399.703 561.114 399.619 561.148 399.532 561.148Z" fill="#F6EEE8"/>
<path d="M399.532 560.823H367.402V610.687H399.532V560.823Z" fill="#E4D0C0"/>
<path d="M367.402 610.976C367.317 610.974 367.235 610.939 367.175 610.879C367.114 610.818 367.079 610.737 367.077 610.651V560.823C367.09 560.745 367.13 560.674 367.19 560.623C367.251 560.572 367.327 560.543 367.407 560.543C367.486 560.543 367.562 560.572 367.623 560.623C367.683 560.674 367.723 560.745 367.736 560.823V610.687C367.725 610.767 367.685 610.841 367.624 610.895C367.562 610.948 367.484 610.977 367.402 610.976Z" fill="#F6EEE8"/>
<path d="M77.9892 610.678C77.9892 610.678 91.4629 604.995 89.7063 578.645C89.2014 571.424 87.4387 564.346 84.4977 557.732C84.0234 556.651 83.5403 555.615 83.0397 554.631C81.9717 552.524 80.7992 550.472 79.5263 548.483C77.7363 545.618 75.6776 542.929 73.3779 540.455H42.3022C40.291 542.609 38.4745 544.937 36.8741 547.411C34.9375 550.312 33.2256 553.357 31.7534 556.519C29.3987 561.548 27.7126 566.863 26.738 572.33C26.3701 574.414 26.1151 576.516 25.9739 578.627C24.2172 604.977 37.691 610.66 37.691 610.66L77.9892 610.678Z" fill="white"/>
<path d="M52.6404 559.769C45.5323 559.876 38.449 558.908 31.6305 556.897C31.514 556.862 31.4162 556.782 31.3585 556.675C31.3009 556.568 31.2881 556.443 31.3231 556.326C31.358 556.21 31.4378 556.112 31.5448 556.054C31.6519 555.997 31.7775 555.984 31.894 556.019C38.3761 558.083 46.4129 559.049 55.1436 558.821C56.9003 558.821 58.657 558.68 60.5015 558.531C68.1091 557.896 75.6235 556.423 82.908 554.139C83.0245 554.104 83.15 554.117 83.2571 554.175C83.3642 554.232 83.444 554.33 83.4789 554.447C83.5138 554.563 83.5011 554.689 83.4434 554.796C83.3858 554.903 83.2879 554.983 83.1715 555.018C75.8227 557.308 68.2436 558.781 60.5718 559.409C58.7448 559.559 56.9267 559.655 55.1612 559.699C54.3121 559.746 53.4719 559.769 52.6404 559.769Z" fill="#F6EEE8"/>
<path d="M29.6804 572.822C28.6966 572.822 27.707 572.822 26.7116 572.822C26.6539 572.82 26.597 572.808 26.5442 572.785C26.4913 572.762 26.4436 572.728 26.4036 572.687C26.3636 572.645 26.3323 572.596 26.3113 572.542C26.2903 572.489 26.28 572.431 26.2812 572.374C26.2785 572.315 26.2884 572.256 26.3101 572.202C26.3319 572.147 26.3652 572.098 26.4076 572.057C26.45 572.016 26.5006 571.985 26.5561 571.965C26.6115 571.946 26.6706 571.938 26.7292 571.943C36.2339 572.198 45.7349 571.313 55.0293 569.308C56.8914 568.904 58.7007 568.43 60.3872 567.991C69.6185 565.461 77.8573 561.842 84.2165 557.451C84.3121 557.391 84.4269 557.371 84.5371 557.394C84.6473 557.416 84.7445 557.481 84.8087 557.573C84.8729 557.665 84.8993 557.779 84.8822 557.89C84.8652 558.001 84.8061 558.102 84.7172 558.171C78.2789 562.606 69.9435 566.304 60.6243 568.86C58.9203 569.334 57.111 569.739 55.2137 570.195C46.822 571.988 38.2612 572.868 29.6804 572.822Z" fill="#F6EEE8"/>
<path d="M92.6133 501.764C94.3699 503.52 103.926 497.539 99.9035 494.078C95.8807 490.618 90.2857 499.515 92.6133 501.764Z" fill="#4B764A"/>
<path d="M89.5921 507.122C91.463 504.487 90.2948 495.967 85.9382 498.022C81.1337 500.306 87.7212 509.774 89.5921 507.122Z" fill="#4B764A"/>
<path d="M82.644 516.994C85.1561 513.911 81.9589 505.154 78.6651 505.971C73.5181 507.271 80.3867 519.77 82.644 516.994Z" fill="#4B764A"/>
<path d="M51.5863 483.494C52.1835 481.606 45.1656 473.727 42.9346 475.949C38.7888 480.104 49.206 490.951 51.5863 483.494Z" fill="#4B764A"/>
<path d="M89.4865 507.332C90.9358 503.898 97.1193 500.675 98.8496 505.014C100.633 509.484 88.2568 510.231 89.4865 507.332Z" fill="#4B764A"/>
<path d="M83.6719 515.8C85.2002 512.927 94.7477 511.724 93.3336 516.028C92.2357 519.418 81.3882 520.103 83.6719 515.8Z" fill="#4B764A"/>
<path d="M77.9889 523.222C79.4382 520.306 90.3823 520.587 88.8979 524.873C87.071 530.073 76.3113 526.559 77.9889 523.222Z" fill="#4B764A"/>
<path d="M73.7204 529.44C76.1095 527.236 84.5591 532.391 81.6254 535.861C78.1121 540.077 70.9624 531.926 73.7204 529.44Z" fill="#4B764A"/>
<path d="M69.6186 538.636C71.1205 534.947 83.3558 539.322 80.6242 543.467C77.5939 548.07 68.2132 542.071 69.6186 538.636Z" fill="#4B764A"/>
<path d="M50.9274 466.226C51.1118 462.713 45.8154 456.09 42.5831 457.987C36.3996 461.659 50.6551 471.549 50.9274 466.226Z" fill="#4B764A"/>
<path d="M50.4444 454.105C51.7004 450.978 44.9284 440.552 42.3637 443.846C39.1402 447.974 49.1708 457.267 50.4444 454.105Z" fill="#4B764A"/>
<path d="M53.29 497.363C53.3427 494.561 45.7977 489.546 43.8127 491.022C37.919 495.413 53.1494 504.118 53.29 497.363Z" fill="#4B764A"/>
<path d="M55.3895 508.211C55.3944 508.231 55.3944 508.252 55.3895 508.272C55.2412 508.669 54.9865 509.017 54.6534 509.279C54.3204 509.541 53.9217 509.706 53.5011 509.757C49.7857 510.696 42.2408 508.22 44.8582 504.1C46.1933 502.001 50.1283 503.072 52.7633 504.812C53.7568 505.39 54.5948 506.2 55.2051 507.174C55.3896 507.486 55.4551 507.854 55.3895 508.211Z" fill="#4B764A"/>
<path d="M60.0181 486.516C59.6366 487.138 59.2016 487.726 58.7182 488.273C57.8663 489.248 56.8817 490.1 55.7933 490.802C54.2123 491.803 52.7718 492.085 52.3766 490.96C51.5773 488.694 54.3265 481.808 57.5676 481.079C58.0507 480.985 58.5501 481.023 59.0136 481.189C59.4771 481.354 59.8877 481.641 60.2026 482.019C61.3444 483.161 61.0106 484.856 60.0181 486.516Z" fill="#4B764A"/>
<path d="M64.2253 502.229C63.9228 503.609 63.191 504.857 62.1349 505.795C59.7546 508.193 56.127 509.853 55.3892 508.22C55.3892 508.158 55.3892 508.097 55.3277 508.026C55.2565 507.738 55.2095 507.444 55.1872 507.148C55.1061 505.735 55.4096 504.327 56.0655 503.073C56.496 502.188 57.0653 501.379 57.7519 500.675C57.9364 500.49 58.1209 500.315 58.3141 500.156C60.0181 498.734 62.0997 498.4 63.6983 500.262C63.9489 500.55 64.1213 500.898 64.199 501.272C64.2695 501.586 64.2785 501.912 64.2253 502.229Z" fill="#4B764A"/>
<path d="M51.2701 479.498C50.7255 473.35 55.3719 465.769 57.682 469.046C61.1953 474.026 51.5599 482.783 51.2701 479.498Z" fill="#4B764A"/>
<path d="M75.9514 525.918C74.5109 527.113 72.0428 525.365 70.7516 523.063C69.6273 521.078 69.3814 518.672 71.3928 517.398C71.6727 517.203 71.9967 517.081 72.3356 517.043C72.6745 517.005 73.0175 517.051 73.3339 517.179C76.0129 518.206 77.8486 524.337 75.9514 525.918Z" fill="#4B764A"/>
<path d="M59.2013 520.648C58.7709 524.82 46.7025 523.178 48.1166 517.135C48.6875 514.711 51.4367 514.623 54.063 515.598C56.4257 516.476 58.6918 518.233 59.131 519.866C59.2028 520.12 59.2266 520.385 59.2013 520.648Z" fill="#4B764A"/>
<path d="M69.7589 537.89C68.661 538.768 66.9131 537.829 65.6834 536.256C64.1815 534.333 63.4524 531.531 65.6219 530.108C67.1151 529.151 68.5732 530.354 69.4867 532.102C70.5582 534.183 70.9008 536.941 69.7589 537.89Z" fill="#4B764A"/>
<path d="M51.2082 414.782C52.921 410.794 47.2996 400.728 44.2254 402.986C38.8675 407 49.7238 418.225 51.2082 414.782Z" fill="#4B764A"/>
<path d="M50.128 437.408C51.5246 433.201 43.5932 426.358 41.2831 428.835C36.988 433.447 49.3551 439.7 50.128 437.408Z" fill="#4B764A"/>
<path d="M50.4883 425.067C51.1822 420.895 47.4931 413.754 44.5507 415.405C39.755 418.154 49.8822 428.589 50.4883 425.067Z" fill="#4B764A"/>
<path d="M51.2086 414.782C50.7431 411.585 56.4172 404.54 58.9293 407.702C61.4413 410.864 51.7971 418.84 51.2086 414.782Z" fill="#4B764A"/>
<path d="M50.4883 436.644C49.9086 433.376 55.7584 423.108 58.736 426.543C61.7135 429.977 51.639 442.985 50.4883 436.644Z" fill="#4B764A"/>
<path d="M50.4883 425.067C50.4883 421.554 55.0205 413.71 57.6643 417.013C61.0108 421.202 50.5322 429.52 50.4883 425.067Z" fill="#4B764A"/>
<path d="M50.6463 449.134C49.5923 445.427 58.5514 436.556 60.9668 441.72C63.2242 446.551 51.8672 453.385 50.6463 449.134Z" fill="#4B764A"/>
<path d="M51.0329 463.696C49.5925 460.824 53.6153 449.854 57.5502 454.035C60.2906 457.021 52.6227 466.876 51.0329 463.696Z" fill="#4B764A"/>
<path d="M69.4867 532.154C68.763 533.943 67.4103 535.405 65.6834 536.265C64.1815 534.341 63.4524 531.539 65.6219 530.117C67.1151 529.194 68.5732 530.398 69.4867 532.154Z" fill="black"/>
<path d="M70.7516 523.063C69.6273 521.078 69.3814 518.672 71.3928 517.398C71.6727 517.203 71.9967 517.081 72.3356 517.043C72.6745 517.005 73.0175 517.051 73.3339 517.179C73.8873 519.875 72.0779 521.948 70.7516 523.063Z" fill="black"/>
<path d="M59.1309 519.875L55.9601 522.264C55.9601 522.264 50.6901 519.445 54.0629 515.606C56.4257 516.485 58.6654 518.224 59.1309 519.875Z" fill="black"/>
<path d="M64.2253 502.229C61.9535 502.494 59.6607 501.956 57.7432 500.71C57.9276 500.525 58.1121 500.35 58.3053 500.191C60.0093 498.768 62.091 498.435 63.6895 500.297C63.9401 500.585 64.1125 500.933 64.1902 501.307C64.2592 501.609 64.2711 501.922 64.2253 502.229Z" fill="black"/>
<path d="M58.7184 488.273C57.6564 486.037 57.2571 483.543 57.5678 481.088C58.0509 480.994 58.5503 481.032 59.0138 481.197C59.4773 481.363 59.8879 481.649 60.2028 482.028C61.7487 483.565 60.5805 486.156 58.7184 488.273Z" fill="black"/>
<path d="M58.9292 520.622C58.8628 520.621 58.7981 520.601 58.7433 520.563C58.6886 520.526 58.6462 520.473 58.6218 520.411C53.3517 506.498 50.5586 483.96 50.5586 468.879C50.5586 464.786 50.4357 459.814 50.3127 454.562C49.9877 441.07 49.6188 425.77 50.8836 414.755C50.9023 414.675 50.9499 414.605 51.0172 414.558C51.0845 414.511 51.1668 414.49 51.2484 414.5C51.33 414.51 51.405 414.549 51.4593 414.611C51.5135 414.673 51.5431 414.752 51.5424 414.834C50.2776 425.805 50.664 441.079 50.9714 454.553C51.1032 459.823 51.2174 464.786 51.2174 468.887C51.2174 483.907 53.9754 506.349 59.2366 520.183C59.2653 520.264 59.2612 520.354 59.2252 520.432C59.1891 520.511 59.124 520.573 59.0434 520.604L58.9292 520.622Z" fill="black"/>
<path d="M62.0649 535.114C61.0021 537.468 58.5516 536.924 56.4172 535.395C54.2828 533.867 52.6667 531.61 52.6842 530.02C52.6787 529.626 52.8178 529.244 53.0753 528.946C53.3327 528.648 53.6905 528.455 54.0808 528.404C54.3424 528.34 54.6108 528.307 54.8801 528.307C56.4603 528.377 57.9861 528.905 59.2718 529.827C61.3622 531.206 62.8818 533.314 62.0649 535.114Z" fill="#8EBF8C"/>
<path d="M62.8904 523.371C62.9038 523.514 62.9038 523.658 62.8904 523.801C62.8404 524.24 62.703 524.664 62.4863 525.049C62.3434 525.304 62.1322 525.515 61.8762 525.658C61.6203 525.801 61.3298 525.869 61.0371 525.857C59.8862 525.765 58.7899 525.327 57.8926 524.601C57.1995 524.111 56.5632 523.545 55.9954 522.914C55.4376 522.31 54.9675 521.63 54.5988 520.894C53.7205 519.137 53.8698 517.451 55.9427 516.555C58.7095 515.352 62.9343 519.866 62.8904 523.371Z" fill="#8EBF8C"/>
<path d="M66.7202 486.814C67.8005 484.012 62.873 476.441 59.834 478.971C56.0308 482.159 65.4114 490.222 66.7202 486.814Z" fill="#8EBF8C"/>
<path d="M63.5403 519.093C64.8314 515.896 74.6161 513.375 73.606 518.057C72.798 521.737 61.6079 523.88 63.5403 519.093Z" fill="#8EBF8C"/>
<path d="M62.1789 532.189C62.6971 528.492 72.9034 523.028 73.0615 528.211C73.2108 532.286 61.4235 537.723 62.1789 532.189Z" fill="#8EBF8C"/>
<path d="M73.4305 445.954C75.8899 446.262 78.8675 436.073 75.3278 435.537C70.2773 434.764 70.5145 445.594 73.4305 445.954Z" fill="#8EBF8C"/>
<path d="M71.147 455.3C72.9037 452.752 70.6991 444.663 67.4668 445.963C63.0575 447.746 69.3552 457.838 71.147 455.3Z" fill="#8EBF8C"/>
<path d="M68.3889 467.702C70.9009 464.619 67.7038 455.862 64.41 456.679C59.2541 457.978 66.1228 470.442 68.3889 467.702Z" fill="#8EBF8C"/>
<path d="M67.5895 476.415C68.8455 473.288 64.12 466.753 61.6255 468.325C56.9879 471.189 66.3159 479.594 67.5895 476.415Z" fill="#8EBF8C"/>
<path d="M65.3934 500.236C66.4562 496.801 60.6767 491.162 57.7958 492.647C52.6048 495.317 64.0759 504.504 65.3934 500.236Z" fill="#8EBF8C"/>
<path d="M63.9357 513.481C64.9985 510.046 59.4298 503.415 56.4435 505.233C50.8836 508.624 62.627 517.758 63.9357 513.481Z" fill="#8EBF8C"/>
<path d="M72.5786 449.503C73.0617 446.314 79.3331 442.423 80.8262 446.182C82.3194 449.942 71.9638 453.56 72.5786 449.503Z" fill="#8EBF8C"/>
<path d="M69.9346 461.861C70.4616 458.233 76.8822 452.875 78.3754 456.591C79.8686 460.306 69.2846 466.27 69.9346 461.861Z" fill="#8EBF8C"/>
<path d="M66.8255 485.154C65.8154 482.282 73.1495 475.124 75.0468 478.909C77.3568 483.521 67.9849 488.448 66.8255 485.154Z" fill="#8EBF8C"/>
<path d="M68.4501 470.723C68.2042 467.851 76.6187 463.029 77.4619 466.955C78.4895 471.724 68.7312 474.017 68.4501 470.723Z" fill="#8EBF8C"/>
<path d="M66.0876 495.519C64.6647 492.594 72.0515 485.997 74.5285 489.783C77.5499 494.403 67.7213 498.874 66.0876 495.519Z" fill="#8EBF8C"/>
<path d="M64.6645 510.547C63.3382 507.815 70.2332 501.641 72.5695 505.189C75.3539 509.502 66.184 513.683 64.6645 510.547Z" fill="#8EBF8C"/>
<path d="M62.8554 523.793C62.8055 524.231 62.6681 524.655 62.4514 525.04C62.3084 525.296 62.0972 525.507 61.8413 525.649C61.5854 525.792 61.2948 525.861 61.0021 525.848C59.8512 525.756 58.755 525.318 57.8577 524.592C57.1646 524.102 56.5282 523.536 55.9604 522.905C57.3043 521.667 60.1326 520.771 62.8554 523.793Z" fill="black"/>
<path d="M59.2981 529.818C59.1312 531.785 57.6644 533.911 56.4172 535.387C54.397 533.937 52.6666 531.601 52.6842 530.011C53.3753 529.39 54.1091 528.817 54.8801 528.298C56.4694 528.363 58.005 528.892 59.2981 529.818Z" fill="black"/>
<path d="M44.6121 522.414C41.7575 518.119 29.5134 516.52 27.9236 521.105C25.8156 527.253 46.6322 525.391 44.6121 522.414Z" fill="#8EBF8C"/>
<path d="M27.2999 501.614C25.8945 498.979 15.0734 499.858 14.1248 505.365C13.1235 511.408 29.8734 506.454 27.2999 501.614Z" fill="#8EBF8C"/>
<path d="M51.9462 539.69C53.8785 534.868 66.5003 535.553 64.4977 540.665C62.495 545.777 50.9361 542.203 51.9462 539.69Z" fill="#8EBF8C"/>
<path d="M35.5918 511.048C33.9668 507.534 20.8356 508.474 18.2621 513.735C13.8089 522.826 36.8741 513.806 35.5918 511.048Z" fill="#8EBF8C"/>
<path d="M19.4564 492.137C18.6572 488.396 8.70556 489.248 6.5712 493.253C2.2849 501.281 20.2294 495.8 19.4564 492.137Z" fill="#8EBF8C"/>
<path d="M28.9603 503.538C25.6753 499.691 31.0507 483.626 36.4613 487.631C41.8719 491.637 30.6116 505.47 28.9603 503.538Z" fill="#8EBF8C"/>
<path d="M36.0396 511.566C34.1951 506.296 41.863 496.239 45.3412 500.596C48.1255 504.109 37.199 514.86 36.0396 511.566Z" fill="#8EBF8C"/>
<path d="M46.2459 524.899C43.5142 522.009 46.5006 509.326 50.822 511.285C55.5211 513.384 48.6437 527.402 46.2459 524.899Z" fill="#8EBF8C"/>
<path d="M13.2816 481.518C12.3066 478.496 4.29618 478.259 2.10911 480.798C-2.08057 485.672 14.643 485.708 13.2816 481.518Z" fill="#8EBF8C"/>
<path d="M9.25894 472.199C9.12719 470.012 2.91732 463.907 1.00254 465.014C-3.69658 467.807 9.67176 479.076 9.25894 472.199Z" fill="#8EBF8C"/>
<path d="M8.03823 464.996C10.48 463.626 10.3219 451.707 6.56262 452.375C1.40676 453.288 3.93638 467.298 8.03823 464.996Z" fill="#8EBF8C"/>
<path d="M14.6693 484.074C12.5613 481.36 17.3043 469.485 21.0109 472.919C24.5067 476.134 17.6117 487.877 14.6693 484.074Z" fill="#8EBF8C"/>
<path d="M10.2954 474.474C7.72188 471.505 11.367 462.37 14.0284 464.294C18.262 467.412 12.3595 476.854 10.2954 474.474Z" fill="#8EBF8C"/>
<path d="M19.9397 492.287C18.0601 487.983 24.9287 478.453 27.6867 481.808C31.0156 485.857 21.1958 495.168 19.9397 492.287Z" fill="#8EBF8C"/>
<path d="M50.7606 534.657C49.0566 526.656 60.5277 520.261 61.9418 524.838C63.312 529.238 51.2173 536.739 50.7606 534.657Z" fill="#8EBF8C"/>
<path d="M51.5159 537.442C51.1118 533.595 41.5555 528.29 39.0259 531.294C34.3267 536.968 51.8848 540.911 51.5159 537.442Z" fill="#8EBF8C"/>
<path d="M69.1179 540.709H69.0388C68.9541 540.687 68.8818 540.632 68.8374 540.556C68.7931 540.48 68.7802 540.39 68.8016 540.305C71.0502 531.522 75.4068 525.909 80.4572 519.41C84.3922 514.342 88.8542 508.606 92.9121 500.411C92.9588 500.349 93.0258 500.305 93.1014 500.287C93.1771 500.269 93.2567 500.278 93.3265 500.312C93.3963 500.347 93.4519 500.404 93.4837 500.475C93.5155 500.546 93.5214 500.626 93.5006 500.701C89.4075 508.958 84.928 514.755 80.9754 519.814C75.9689 526.252 71.6563 531.821 69.4341 540.464C69.4164 540.534 69.3757 540.596 69.3184 540.641C69.261 540.686 69.1905 540.71 69.1179 540.709Z" fill="black"/>
<path d="M62.012 537.196C61.925 537.194 61.8424 537.157 61.7816 537.095C61.7209 537.033 61.687 536.949 61.687 536.862C61.8978 529.089 62.8288 520.797 63.918 511.206C64.8754 502.721 65.9645 493.112 66.7902 481.773C68.0111 464.944 74.0804 441.896 74.1419 441.668C74.164 441.584 74.2185 441.512 74.2935 441.469C74.3684 441.425 74.4577 441.413 74.5415 441.435C74.6254 441.457 74.697 441.512 74.7407 441.587C74.7843 441.661 74.7964 441.751 74.7743 441.835C74.7128 442.063 68.6259 465.058 67.4489 481.825C66.6233 493.174 65.5341 502.8 64.5767 511.285C63.4964 520.868 62.5566 529.142 62.3545 536.889C62.3478 536.974 62.3085 537.053 62.2447 537.111C62.181 537.168 62.0976 537.198 62.012 537.196Z" fill="black"/>
<path d="M52.0516 540.709C51.973 540.708 51.8973 540.679 51.8378 540.628C51.7784 540.577 51.739 540.506 51.7266 540.428C49.9699 527.71 41.4851 518.127 32.4734 507.982C21.5732 495.686 9.2149 481.782 6.23733 459.41C6.23156 459.368 6.23426 459.324 6.24526 459.282C6.25627 459.241 6.27537 459.202 6.30147 459.168C6.32757 459.133 6.36015 459.104 6.39737 459.083C6.4346 459.061 6.47572 459.047 6.5184 459.041C6.56107 459.036 6.60447 459.038 6.64611 459.049C6.68774 459.06 6.72681 459.079 6.76106 459.105C6.79532 459.132 6.8241 459.164 6.84576 459.201C6.86742 459.239 6.88154 459.28 6.8873 459.322C9.82974 481.5 22.1177 495.334 32.9564 507.552C42.0297 517.776 50.6023 527.429 52.3678 540.349C52.3739 540.392 52.3715 540.436 52.3607 540.477C52.3498 540.519 52.3308 540.558 52.3046 540.593C52.2785 540.627 52.2457 540.656 52.2083 540.677C52.1709 540.699 52.1295 540.713 52.0867 540.718L52.0516 540.709Z" fill="black"/>
<path d="M455.35 430.355C455.719 435.229 461.92 435.133 462.614 431.892C464.573 434.966 469 433.104 468.824 429.678C470.633 431.005 473.988 428.976 471.626 426.56C477.774 423.504 472.917 412.445 467.357 414.501C467.752 408.704 457.01 408.414 457.59 414.685C456.712 410.364 450.291 412.972 452.627 416.846L455.35 430.355Z" fill="black"/>
<path d="M339.506 539.532C338.681 539.77 334.069 543.669 331.25 546.269C326.068 551.048 324.61 548.193 326.463 545.821C330.978 540.033 337.1 532.023 346.507 524.741C349.3 522.572 357.925 517.662 365.971 514.201C399.901 499.796 401.377 499.129 408.298 493.613C412.619 490.17 427.226 475.87 427.226 475.87L429.615 475.519L446.19 488.791L436.528 502.124L411.495 521.061C411.495 521.061 394.262 527.35 384.135 532.225C374.008 537.099 370.16 538.663 370.16 538.663C370.16 538.663 362.396 544.583 358.847 546.946C355.299 549.308 350.398 550.389 349.467 549.756C344.53 546.41 342.387 544.715 342.387 544.715C339.937 544.759 338.259 543.432 339.506 539.532Z" fill="#C15D31"/>
<path d="M346.357 547.2C345.426 549.932 347.385 551.188 349.818 550.143C352.883 548.825 355.553 544.495 355.088 543.046C354.622 541.597 352.04 541.79 349.413 543.23C347.953 544.146 346.868 545.554 346.357 547.2Z" fill="#C15D31"/>
<path d="M348.193 550.837C347.566 550.861 346.953 550.644 346.48 550.231C345.742 549.545 345.602 548.474 346.041 547.095C346.579 545.374 347.712 543.901 349.238 542.94C351.241 541.842 353.208 541.447 354.368 541.895C354.604 541.98 354.819 542.118 354.995 542.297C355.172 542.477 355.305 542.693 355.387 542.932C355.958 544.688 353.015 549.08 349.95 550.433C349.397 550.685 348.8 550.822 348.193 550.837ZM346.665 547.323C346.296 548.395 346.392 549.264 346.928 549.765C347.334 550.034 347.807 550.186 348.294 550.203C348.78 550.22 349.262 550.102 349.686 549.862C352.734 548.553 355.149 544.346 354.763 543.169C354.712 543.021 354.628 542.887 354.517 542.777C354.406 542.667 354.27 542.585 354.122 542.536C353.156 542.159 351.364 542.536 349.554 543.546C348.173 544.426 347.148 545.767 346.665 547.332V547.323Z" fill="black"/>
<path d="M356.247 586.945C356.353 587.982 358.004 588.623 359.954 586.787C364.398 582.711 370.398 579.637 373.191 578.293C375.984 576.95 380.217 575.658 386.893 572.523C393.568 569.387 426.629 553.603 426.989 553.603C427.349 553.603 418.513 529.01 418.513 529.01C411.486 533.401 396.37 542.036 371.513 553.946C368.597 555.342 354.693 557.617 349.906 558.338C347.06 558.786 346.709 559.655 346.788 560.683L357.89 560.788C354.313 563.264 351.012 566.118 348.044 569.299C342.247 575.263 339.945 580.041 341.017 581.113C342.089 582.184 345.066 578.864 348.105 576.054C351.144 573.243 353.375 571.662 353.709 571.776C353.858 571.838 352.392 574.139 351.786 575.43C350.24 578.697 348.948 581.174 348.632 584.828C348.316 588.482 351.013 587.744 351.742 586.523C352.172 588.315 354.298 589.29 356.247 586.945Z" fill="#C15D31"/>
<path d="M528.648 607.964C528.42 608.173 528.177 608.364 527.919 608.535C525.284 610.292 520.567 610.845 513.04 610.098C513.799 608.651 514.962 607.455 516.387 606.655L517.019 606.286C519.074 605.136 520.629 601.016 521.252 598.381C521.387 597.829 521.484 597.269 521.542 596.704C521.692 594.648 522.263 589.247 519.83 586.164C518.705 584.741 514.437 584.565 514.437 584.565L513.295 564.512L524.924 561.93C526.61 562.009 528.648 562.194 530.739 562.475C536.307 563.213 542.271 564.644 543.035 566.743C544.3 570.485 531.09 605.768 528.648 607.964Z" fill="#C15D31"/>
<path d="M528.648 607.964C528.42 608.173 528.176 608.364 527.919 608.535C525.284 610.353 520.514 611.17 512.908 610.423C512.945 610.312 512.989 610.204 513.039 610.098C513.799 608.651 514.961 607.455 516.386 606.655L517.018 606.286C519.074 605.136 520.628 601.016 521.252 598.381C523.5 597.995 526.522 597.345 528.165 596.396C528.165 596.396 532.17 583.88 532.17 582.597C532.17 581.561 530.8 567.973 530.738 562.492C536.307 563.23 542.271 564.662 543.035 566.761C544.3 570.485 531.089 605.768 528.648 607.964Z" fill="#F09400"/>
<path d="M517.625 565.768C518.126 571.232 518.819 581.376 518.126 584.942C517.432 588.509 511.766 597.749 481.481 603.853C451.196 609.958 439.128 610.687 439.128 610.687C439.128 610.687 420.401 614.376 413.858 603.853C407.059 592.909 408.649 579.549 437.757 564.495C465.724 550.037 487.638 544.521 487.638 544.521L517.625 565.768Z" fill="#5B77C9"/>
<path d="M448.341 485.602L472.583 508.123L456.914 522.932C456.914 522.932 429.088 499.427 429.483 499.427C429.878 499.427 448.341 485.602 448.341 485.602Z" fill="#C15D31"/>
<path d="M436.571 502.458C436.511 502.456 436.452 502.438 436.401 502.406C436.35 502.373 436.308 502.327 436.281 502.273C436.254 502.219 436.242 502.159 436.247 502.098C436.252 502.038 436.273 501.98 436.308 501.931L444.731 490.363C444.787 490.305 444.862 490.27 444.941 490.263C445.021 490.255 445.101 490.277 445.166 490.324C445.231 490.371 445.277 490.44 445.296 490.518C445.314 490.596 445.304 490.678 445.267 490.749L436.844 502.317C436.813 502.361 436.772 502.396 436.725 502.42C436.677 502.445 436.625 502.458 436.571 502.458Z" fill="black"/>
<path d="M533.646 561.544C518.872 580.665 476.132 558.838 471.117 555.905C477.205 561.694 482.421 568.336 486.602 575.624C493.058 587.165 491.547 591.328 491.266 592.04L460.216 592.918C460.216 592.918 452.97 591.987 443.721 580.375C434.472 568.764 412.883 538.417 408.869 531.469C408.394 530.644 407.85 529.563 407.252 528.299C405.578 524.736 404.833 520.808 405.084 516.88C405.336 512.952 406.577 509.152 408.692 505.832C410.808 502.513 413.728 499.782 417.182 497.895C420.636 496.007 424.511 495.024 428.447 495.036C437.167 495.005 445.855 496.098 454.296 498.286L427.173 475.87C427.173 475.87 445.03 459.182 454.709 446.007H461.112C465.969 449.38 481.744 460.561 493.005 470.75C502.667 479.533 517.414 494.465 526.97 508.088C528.226 509.845 529.403 511.672 530.484 513.411C530.747 513.838 531.002 514.269 531.248 514.702C532.792 517.347 534.19 520.073 535.437 522.87C541.234 535.905 542.789 549.721 533.646 561.544Z" fill="#8EBF8C"/>
<path d="M451.547 472.26C451.785 468.685 453.822 454.878 453.822 454.878L447.121 448.466L443.379 444.882L443.194 444.707L452.18 435.923C454.815 441.026 461.165 446.086 461.165 446.086L451.547 472.26Z" fill="#C15D31"/>
<path d="M449.825 439.841C449.318 442.822 448.408 445.721 447.12 448.457L443.378 444.882L449.825 439.841Z" fill="black"/>
<path d="M456.114 430.838C455.168 433.046 453.99 435.148 452.601 437.109C452.346 437.478 452.092 437.829 451.828 438.181C449.983 440.719 447.829 443.017 445.416 445.023C440.146 448.888 431.363 445.322 432.513 435.098C433.207 429.02 435.851 422.107 439.874 418.067C442.403 415.528 445.469 414.123 448.938 414.747C450.442 415.046 451.875 415.627 453.163 416.459C458.565 419.981 458.38 425.515 456.114 430.838Z" fill="#C15D31"/>
<path d="M535.464 522.906L525.064 528.255L516.887 523.784L505.741 518.004C505.741 518.004 517.51 511.592 526.997 508.123C528.253 509.88 529.43 511.707 530.51 513.446C530.773 513.873 531.028 514.304 531.274 514.737C532.818 517.382 534.217 520.109 535.464 522.906Z" fill="#4B764A"/>
<path d="M533.646 561.543C518.872 580.665 476.132 558.838 471.117 555.904C477.205 561.694 482.421 568.336 486.602 575.623C493.058 587.165 491.547 591.328 491.266 592.039L460.216 592.918C460.216 592.918 452.97 591.987 443.721 580.375C434.472 568.763 412.883 538.417 408.869 531.469C408.394 530.643 407.85 529.563 407.252 528.298C405.578 524.736 404.833 520.808 405.084 516.88C405.336 512.952 406.577 509.152 408.692 505.832C410.808 502.513 413.728 499.782 417.182 497.894C420.636 496.007 424.511 495.023 428.447 495.036C437.167 495.005 445.855 496.097 454.296 498.285H454.349C500.471 509.203 519.794 517.556 519.794 517.556L530.51 513.481C530.773 513.908 531.028 514.339 531.274 514.772C540.093 529.941 544.73 547.191 533.646 561.543Z" fill="#5B77C9"/>
<path d="M179.244 565.909C179.244 566.128 146.139 610.704 146.139 610.704C137.189 611.258 99.315 610.845 86.7635 610.985C74.212 611.126 69.671 610.704 69.671 610.704C76.2936 608.271 75.1255 593.858 75.1255 593.858C65.3583 592.285 54.8182 592.356 53.7203 592.76L53.4304 592.883C52.1481 593.498 50.9008 595.052 50.0401 597.722C49.3646 599.707 48.9714 601.777 48.8719 603.871C48.7752 606.049 48.6435 606.611 50.9272 607.99C53.2109 609.369 53.7466 610.748 53.7466 610.748H40.2817C38.8939 610.748 35.6704 606.462 35.3893 605.1C35.1083 603.739 36.2062 590.687 37.2514 579.066C38.1298 569.844 38.6919 561.403 39.7723 560.525C41.2918 559.295 45.42 560.472 52.5433 562.193C59.1216 563.825 65.7833 565.101 72.4992 566.014L73.3776 566.128C92.2443 568.535 133.315 571.065 133.315 571.065C133.315 571.065 137.066 525.734 137.488 503.757C138.067 473.56 140.325 465.33 142.248 456.696L180.526 496.942C181.334 505.725 179.244 565.689 179.244 565.909Z" fill="#F09400"/>
<path d="M210.671 610.678H146.14C148.634 605.267 151.506 599.857 154.414 594.771C159.936 585.22 165.965 575.969 172.472 567.06C185.955 556.045 207 576.221 207 576.221C206.763 576.572 194.115 591.091 189.846 597.248C187.079 601.209 201.958 607.121 206.227 607.463C209.082 607.692 210.68 608.034 210.671 610.678Z" fill="#FFDCAE"/>
<path d="M187.843 455.888C187.843 455.888 191.119 461.053 192.331 461.808C192.884 462.159 241.132 472.304 260.543 476.959C282.572 482.229 291.926 499.796 267.675 526.419C257.197 537.907 230.785 566.374 215.229 589.967C214.457 586.98 209.362 584.741 203.17 580.7C193.508 574.42 180.333 566.199 172.481 567.024C172.481 567.024 188.589 544.328 219.806 510.978C219.806 510.978 181.08 504.97 167.984 503.125C152.911 501 139.306 492.77 140.632 469.748C141.122 461.492 142.597 453.324 145.024 445.418L187.843 455.888Z" fill="#F09400"/>
<path d="M167.992 503.45H167.948C161.941 502.572 142.09 497.996 138.796 474.289C138.79 474.247 138.793 474.203 138.803 474.161C138.814 474.119 138.833 474.08 138.859 474.046C138.886 474.011 138.918 473.983 138.956 473.961C138.993 473.94 139.035 473.926 139.077 473.92C139.12 473.914 139.164 473.917 139.205 473.927C139.247 473.938 139.286 473.957 139.321 473.983C139.355 474.01 139.384 474.042 139.405 474.08C139.427 474.117 139.441 474.159 139.446 474.201C142.679 497.451 162.151 501.975 168.045 502.8C168.132 502.806 168.214 502.846 168.272 502.912C168.329 502.978 168.358 503.064 168.352 503.151C168.347 503.239 168.306 503.32 168.24 503.378C168.175 503.436 168.088 503.465 168.001 503.459L167.992 503.45Z" fill="black"/>
<path d="M208.695 384.189C208.695 384.189 216.776 397.768 226.842 407.386C236.907 417.004 253.192 430.689 258.567 433.912L256.758 443.398C256.758 443.398 226.631 420.561 206.051 395.089C206.051 395.072 206.482 384.866 208.695 384.189Z" fill="#EA4338"/>
<path d="M276.224 426.755L269.257 425.842C267.689 425.637 266.251 426.742 266.046 428.31L265.261 434.301C265.056 435.869 266.16 437.307 267.729 437.512L274.696 438.425C276.264 438.63 277.701 437.525 277.907 435.957L278.691 429.965C278.897 428.397 277.792 426.96 276.224 426.755Z" fill="#E4D0C0"/>
<path d="M299.042 429.744L292.075 428.831C290.507 428.626 289.069 429.731 288.864 431.299L288.079 437.29C287.874 438.858 288.979 440.296 290.547 440.501L297.514 441.414C299.082 441.619 300.52 440.514 300.725 438.946L301.51 432.954C301.715 431.386 300.61 429.949 299.042 429.744Z" fill="#E4D0C0"/>
<path d="M321.851 432.733L314.884 431.82C313.316 431.615 311.878 432.72 311.673 434.288L310.889 440.279C310.683 441.848 311.788 443.285 313.356 443.49L320.323 444.403C321.891 444.608 323.329 443.503 323.534 441.935L324.319 435.943C324.524 434.375 323.419 432.938 321.851 432.733Z" fill="#E4D0C0"/>
<path d="M344.575 435.71L337.608 434.798C336.04 434.593 334.602 435.697 334.397 437.265L333.612 443.257C333.407 444.825 334.512 446.263 336.08 446.468L343.047 447.38C344.615 447.586 346.052 446.481 346.258 444.913L347.042 438.921C347.248 437.353 346.143 435.916 344.575 435.71Z" fill="#E4D0C0"/>
<path d="M372.147 445.598L254.061 430.135L247.587 479.577L365.673 495.039L372.147 445.598Z" fill="#E4D0C0"/>
<path d="M372.154 445.928L254.017 430.46C253.944 430.435 253.881 430.386 253.84 430.32C253.798 430.254 253.782 430.176 253.792 430.099C253.802 430.022 253.839 429.951 253.897 429.898C253.954 429.845 254.028 429.814 254.105 429.81L372.233 445.278C372.311 445.29 372.382 445.331 372.434 445.391C372.485 445.451 372.513 445.528 372.513 445.607C372.513 445.686 372.485 445.763 372.434 445.823C372.382 445.883 372.311 445.924 372.233 445.936L372.154 445.928Z" fill="#F6EEE8"/>
<path d="M293.525 488.193C295.519 489.774 297.688 489.599 298.47 488.105C298.672 487.719 300.165 489.546 301.816 489.177C303.933 488.711 300.587 483.907 301.307 483.652C302.572 483.143 305.549 489.528 307.815 489.08C310.319 488.589 306.428 480.789 306.428 480.789C306.699 479.35 306.643 477.869 306.265 476.455C305.886 475.041 305.194 473.731 304.241 472.62C299.928 467.35 288.43 461.448 283.837 460.007L275.203 479.902C279.206 481.523 282.893 483.836 286.094 486.735C291.628 491.663 293.182 488.887 293.525 488.193Z" fill="#FFDCAE"/>
<path d="M243.512 362.055C243.337 368.581 237.54 377.865 231.066 380.974C224.391 384.198 219.551 379.148 219.551 375.362C218.562 375.701 217.597 376.106 216.661 376.574C213.491 378.094 209.951 380.245 209.951 380.245L203.495 371.743C209.529 369.055 220.711 363.337 220.711 363.337C220.825 361.414 222.063 359.631 223.776 359.508C223.776 359.508 227.641 352.428 235.748 353.28C243.855 354.132 243.512 362.055 243.512 362.055Z" fill="#FFDCAE"/>
<path d="M145.015 445.392C153.456 409.485 174.475 388.783 186.341 380.588C195.23 374.44 206.894 369.407 206.894 369.407L213.403 380.755C213.403 380.755 209.064 383.768 208.695 384.198C208.326 384.628 208.326 393.157 208.572 393.86C208.818 394.562 223.231 410.785 234.457 420.79C245.682 430.794 268.712 447.79 275.493 450.846C280.701 453.192 285.304 456.995 287.025 460.842C287.025 460.842 282.3 473.604 277.153 481.263C277.153 481.263 271.997 483.284 266.112 479.182C260.227 475.08 238.005 460.253 229.678 454.035C219.867 446.692 209.617 435.915 201.229 428.361C201.229 428.361 189.442 453.42 187.659 456.187C186.201 455.862 145.015 445.392 145.015 445.392Z" fill="#EA4338"/>
<path d="M301.808 489.511C301.722 489.52 301.635 489.495 301.568 489.441C301.5 489.386 301.457 489.307 301.448 489.221C301.438 489.135 301.464 489.049 301.518 488.981C301.572 488.913 301.651 488.87 301.737 488.861C301.815 488.851 301.888 488.822 301.953 488.778C302.017 488.734 302.069 488.675 302.106 488.606C302.414 488.018 301.825 486.577 301.395 485.532C300.965 484.487 300.762 483.96 300.912 483.608C300.937 483.551 300.973 483.498 301.018 483.455C301.063 483.411 301.117 483.377 301.175 483.354C301.966 483.029 302.835 484.135 304.039 485.655C305.242 487.175 306.674 488.975 307.745 488.764C307.84 488.75 307.93 488.711 308.007 488.653C308.084 488.595 308.145 488.518 308.184 488.431C308.87 487.034 306.937 482.554 306.129 480.947C306.102 480.873 306.102 480.792 306.129 480.719C306.385 479.326 306.327 477.894 305.959 476.526C305.592 475.159 304.923 473.89 304.004 472.814C300.648 468.729 292.726 464.03 286.788 461.483C286.709 461.45 286.647 461.387 286.614 461.308C286.581 461.229 286.58 461.141 286.612 461.061L286.691 460.851C285.031 457.249 280.71 453.543 275.378 451.145C268.246 447.93 245.137 430.724 234.263 421.036C223.39 411.347 208.616 394.949 208.282 393.965C208.27 393.887 208.285 393.807 208.326 393.74C208.367 393.672 208.43 393.621 208.505 393.596C208.579 393.571 208.661 393.573 208.734 393.602C208.808 393.631 208.868 393.685 208.906 393.754C209.354 394.633 223.627 410.68 234.694 420.544C246.226 430.82 269.195 447.64 275.642 450.548C281.176 453.033 285.655 456.933 287.341 460.71C287.373 460.789 287.373 460.877 287.341 460.956V461C293.314 463.635 301.14 468.29 304.513 472.418C305.488 473.552 306.198 474.887 306.593 476.329C306.988 477.771 307.058 479.282 306.797 480.754C307.28 481.738 309.713 486.902 308.799 488.72C308.718 488.897 308.596 489.052 308.443 489.172C308.29 489.293 308.112 489.376 307.921 489.414C306.472 489.695 304.926 487.772 303.529 486.068C302.888 485.26 301.957 484.083 301.535 483.969C301.66 484.422 301.818 484.865 302.01 485.295C302.537 486.595 303.143 488.062 302.695 488.922C302.612 489.076 302.495 489.208 302.354 489.31C302.212 489.412 302.05 489.481 301.878 489.511H301.808Z" fill="black"/>
<path d="M254.342 437.065C254.273 437.065 254.205 437.044 254.149 437.004C246.358 431.198 239.103 425.383 234.246 421.053C223.381 411.391 208.598 394.966 208.264 393.983C208.068 391.907 208.012 389.821 208.097 387.738C208.09 387.69 208.092 387.641 208.105 387.594C208.118 387.548 208.141 387.504 208.172 387.468C208.204 387.431 208.243 387.401 208.287 387.381C208.331 387.36 208.378 387.35 208.427 387.35C208.475 387.35 208.523 387.36 208.567 387.381C208.611 387.401 208.65 387.431 208.681 387.468C208.713 387.504 208.735 387.548 208.748 387.594C208.761 387.641 208.764 387.69 208.756 387.738C208.677 389.747 208.724 391.759 208.897 393.763C209.345 394.641 223.618 410.689 234.685 420.552C239.524 424.865 246.771 430.671 254.544 436.468C254.598 436.51 254.638 436.568 254.658 436.633C254.679 436.699 254.678 436.769 254.657 436.834C254.636 436.9 254.595 436.957 254.54 436.998C254.486 437.039 254.419 437.063 254.351 437.065H254.342Z" fill="black"/>
<path d="M252.313 363.425C248.8 360.904 246.516 354.642 245.576 351.128C244.698 347.817 239.674 346.965 237.539 349.143C228.923 344.62 224.32 354.826 223.776 359.464C226.077 359.279 227.5 360.834 227.035 363.162C231.426 362.819 234.263 360.325 236.494 355.555C236.494 355.555 236.731 359.736 238.716 362.397C241.202 365.77 245.989 365.243 252.313 363.425Z" fill="#C15D31"/>
<path d="M456.114 430.838C455.168 433.046 453.99 435.148 452.601 437.109C455.236 432.876 451.837 430.495 450.028 431.716C447.647 430.284 447.463 425.752 449.615 424.039C446.98 424.593 445.223 422.45 446.83 419.419C443.695 420.807 440.946 420.403 439.804 418.146C442.333 415.607 445.399 414.202 448.868 414.826C450.372 415.125 451.805 415.706 453.093 416.538C458.565 419.982 458.381 425.515 456.114 430.838Z" fill="black"/>
<path d="M449.263 435.238C449.221 435.244 449.177 435.24 449.136 435.229C449.095 435.217 449.056 435.198 449.022 435.171C448.988 435.145 448.96 435.112 448.939 435.074C448.918 435.037 448.904 434.996 448.899 434.953C448.894 434.91 448.897 434.867 448.909 434.826C448.92 434.784 448.94 434.745 448.966 434.712C448.993 434.678 449.026 434.649 449.063 434.628C449.1 434.607 449.142 434.594 449.184 434.588L451.819 433.912C451.904 433.89 451.995 433.902 452.071 433.947C452.146 433.991 452.201 434.064 452.223 434.149C452.246 434.234 452.233 434.325 452.189 434.4C452.144 434.476 452.071 434.531 451.986 434.553L449.351 435.23L449.263 435.238Z" fill="black"/>
<path d="M456.114 430.838C456.993 422.054 453.813 417.048 448.833 414.826C450.337 415.125 451.77 415.706 453.058 416.538C458.565 419.982 458.381 425.515 456.114 430.838Z" fill="#F09400"/>
<path d="M445.583 429.31C445.512 429.31 445.442 429.287 445.385 429.245C445.328 429.202 445.286 429.141 445.267 429.072C445.007 428.61 444.598 428.249 444.107 428.048C443.616 427.847 443.071 427.818 442.562 427.966C442.481 427.97 442.402 427.945 442.338 427.895C442.275 427.845 442.231 427.774 442.216 427.694C442.201 427.615 442.216 427.533 442.256 427.463C442.297 427.394 442.362 427.341 442.439 427.316C443.107 427.138 443.817 427.196 444.447 427.481C445.078 427.766 445.591 428.26 445.899 428.879C445.924 428.963 445.915 429.053 445.874 429.13C445.833 429.208 445.763 429.266 445.68 429.292L445.583 429.31Z" fill="black"/>
<path d="M435.851 435.019C435.768 435.017 435.689 434.984 435.629 434.928C435.569 434.871 435.533 434.794 435.526 434.711C435.468 434.188 435.247 433.696 434.894 433.306C434.632 433.023 434.433 432.688 434.307 432.324C434.182 431.96 434.133 431.573 434.165 431.189C434.27 430.179 435.333 429.714 436.36 429.266C437.255 429.013 438.035 428.457 438.565 427.693C438.683 427.43 438.717 427.137 438.662 426.854C438.607 426.571 438.466 426.312 438.258 426.112C437.967 425.787 437.595 425.544 437.18 425.408C436.765 425.272 436.322 425.249 435.895 425.339C435.812 425.369 435.721 425.364 435.642 425.326C435.563 425.288 435.502 425.22 435.473 425.137C435.444 425.055 435.449 424.964 435.487 424.885C435.525 424.806 435.593 424.745 435.675 424.716C436.224 424.583 436.799 424.601 437.339 424.768C437.878 424.935 438.363 425.245 438.741 425.664C439.038 425.959 439.237 426.337 439.313 426.749C439.388 427.16 439.336 427.585 439.162 427.966C438.714 428.958 437.599 429.441 436.624 429.872C435.649 430.302 434.867 430.636 434.815 431.259C434.793 431.561 434.835 431.864 434.938 432.149C435.041 432.433 435.202 432.693 435.412 432.911C435.845 433.402 436.112 434.016 436.176 434.667C436.18 434.711 436.174 434.755 436.161 434.796C436.147 434.837 436.125 434.875 436.097 434.908C436.068 434.941 436.033 434.968 435.994 434.987C435.955 435.006 435.912 435.017 435.869 435.019H435.851Z" fill="black"/>
<path d="M442.427 430.078C442.674 429.578 442.641 429.057 442.354 428.916C442.067 428.774 441.634 429.064 441.387 429.565C441.14 430.065 441.173 430.585 441.46 430.727C441.747 430.869 442.18 430.578 442.427 430.078Z" fill="black"/>
<path d="M233.988 368.972C234.292 368.504 234.32 367.983 234.051 367.809C233.782 367.635 233.318 367.874 233.015 368.342C232.712 368.81 232.684 369.331 232.953 369.505C233.222 369.679 233.685 369.44 233.988 368.972Z" fill="black"/>
<path d="M238.929 372.727C239.263 372.28 239.326 371.763 239.069 371.571C238.812 371.38 238.334 371.587 238 372.034C237.667 372.481 237.604 372.999 237.861 373.19C238.117 373.382 238.596 373.174 238.929 372.727Z" fill="black"/>
<path d="M437.498 427.639C437.745 427.139 437.712 426.618 437.425 426.477C437.138 426.335 436.705 426.626 436.458 427.126C436.211 427.626 436.244 428.147 436.531 428.288C436.818 428.43 437.251 428.139 437.498 427.639Z" fill="black"/>
<path d="M436.272 438.11C437.983 438.235 439.703 438.126 441.384 437.785C440.691 440.64 436.887 442.643 436.272 438.11Z" fill="white"/>
<path d="M471.117 556.239C471.039 556.238 470.965 556.21 470.906 556.159C470.827 556.089 462.72 549.3 459.382 546.05C459.351 546.02 459.326 545.984 459.309 545.944C459.291 545.905 459.282 545.862 459.281 545.819C459.28 545.776 459.288 545.733 459.304 545.692C459.32 545.652 459.343 545.615 459.373 545.584C459.403 545.553 459.439 545.528 459.479 545.511C459.518 545.494 459.561 545.484 459.604 545.483C459.647 545.483 459.69 545.49 459.731 545.506C459.771 545.522 459.808 545.545 459.839 545.575C463.159 548.808 471.257 555.58 471.328 555.65C471.381 555.692 471.42 555.751 471.439 555.816C471.457 555.882 471.455 555.952 471.431 556.016C471.408 556.08 471.365 556.135 471.309 556.174C471.252 556.212 471.185 556.232 471.117 556.23V556.239Z" fill="black"/>
<path d="M444.995 490.89C444.929 490.891 444.865 490.873 444.81 490.837C444.739 490.788 444.69 490.712 444.673 490.627C444.657 490.541 444.675 490.453 444.722 490.381C444.81 490.258 453.277 477.776 454.639 475.37C454.655 475.324 454.681 475.282 454.715 475.247C454.75 475.212 454.791 475.185 454.837 475.168C454.883 475.151 454.932 475.144 454.98 475.148C455.029 475.152 455.076 475.166 455.119 475.191C455.161 475.215 455.198 475.248 455.226 475.288C455.254 475.328 455.273 475.373 455.282 475.421C455.291 475.469 455.289 475.519 455.276 475.566C455.264 475.613 455.241 475.657 455.21 475.695C453.831 478.128 445.609 490.24 445.258 490.749C445.229 490.792 445.189 490.827 445.143 490.852C445.098 490.876 445.047 490.889 444.995 490.89Z" fill="black"/>
<path d="M459.039 467.184C458.974 467.185 458.909 467.167 458.855 467.131C458.782 467.082 458.731 467.008 458.713 466.922C458.695 466.837 458.711 466.748 458.758 466.674C462.386 461.149 466.242 458.672 470.177 459.314C470.219 459.32 470.261 459.335 470.298 459.357C470.335 459.38 470.367 459.41 470.392 459.445C470.418 459.48 470.436 459.52 470.445 459.562C470.455 459.605 470.456 459.649 470.449 459.691C470.434 459.777 470.386 459.853 470.315 459.904C470.245 459.955 470.157 459.976 470.071 459.964C466.382 459.366 462.755 461.72 459.276 467.034C459.25 467.075 459.215 467.109 459.174 467.135C459.133 467.161 459.087 467.177 459.039 467.184Z" fill="black"/>
<path d="M474.524 501.676C474.463 501.678 474.401 501.662 474.348 501.63C474.295 501.598 474.252 501.552 474.225 501.496C474.197 501.441 474.186 501.379 474.192 501.317C474.199 501.256 474.222 501.197 474.261 501.149C474.314 501.079 479.698 493.709 481.657 490.389C481.706 490.326 481.777 490.282 481.857 490.267C481.936 490.252 482.018 490.266 482.088 490.307C482.157 490.348 482.21 490.412 482.235 490.489C482.261 490.565 482.258 490.648 482.227 490.723C480.251 494.069 474.849 501.456 474.797 501.535C474.766 501.579 474.726 501.615 474.678 501.64C474.631 501.664 474.578 501.677 474.524 501.676Z" fill="black"/>
<path d="M449.826 483.714C449.782 483.712 449.74 483.701 449.7 483.682C449.661 483.663 449.626 483.636 449.597 483.603C449.569 483.571 449.547 483.532 449.533 483.491C449.52 483.45 449.515 483.406 449.518 483.363C449.739 479.584 450.327 475.837 451.275 472.173C451.305 472.098 451.361 472.038 451.433 472.001C451.504 471.965 451.586 471.956 451.664 471.975C451.741 471.994 451.81 472.04 451.856 472.106C451.902 472.171 451.924 472.251 451.916 472.331C450.987 475.955 450.414 479.662 450.203 483.398C450.203 483.444 450.192 483.491 450.172 483.533C450.152 483.575 450.123 483.612 450.087 483.642C450.051 483.672 450.009 483.694 449.964 483.707C449.919 483.719 449.872 483.721 449.826 483.714Z" fill="black"/>
<path d="M509.193 577.117C509.12 577.111 509.05 577.082 508.996 577.033C508.941 576.985 508.903 576.919 508.889 576.847C508.875 576.775 508.886 576.701 508.918 576.635C508.951 576.57 509.004 576.517 509.07 576.484L518.064 572.971C518.142 572.954 518.222 572.966 518.292 573.004C518.362 573.042 518.416 573.103 518.444 573.177C518.473 573.251 518.474 573.333 518.448 573.408C518.422 573.483 518.37 573.546 518.301 573.586L509.307 577.099L509.193 577.117Z" fill="black"/>
<path d="M354.464 571.346C354.402 571.347 354.34 571.33 354.286 571.298C354.233 571.265 354.19 571.217 354.163 571.16C354.136 571.104 354.126 571.041 354.135 570.978C354.143 570.916 354.169 570.858 354.21 570.81C355.229 569.539 356.393 568.393 357.679 567.393C357.752 567.364 357.834 567.362 357.908 567.386C357.983 567.411 358.047 567.462 358.088 567.529C358.129 567.597 358.145 567.677 358.133 567.755C358.121 567.833 358.081 567.904 358.022 567.955C356.802 568.918 355.695 570.014 354.719 571.223C354.689 571.261 354.65 571.292 354.606 571.313C354.562 571.335 354.513 571.346 354.464 571.346Z" fill="black"/>
<path d="M351.742 586.884H351.645C351.561 586.857 351.492 586.799 351.451 586.722C351.41 586.645 351.401 586.555 351.425 586.471C352.954 581.412 357.055 574.262 361.017 571.539C361.088 571.507 361.169 571.501 361.245 571.522C361.321 571.544 361.386 571.591 361.43 571.656C361.475 571.721 361.494 571.8 361.486 571.878C361.478 571.956 361.442 572.029 361.386 572.084C357.96 574.438 353.788 580.972 352.031 586.647C352.013 586.711 351.976 586.769 351.924 586.811C351.872 586.854 351.808 586.879 351.742 586.884Z" fill="black"/>
<path d="M356.247 587.261C356.163 587.259 356.083 587.225 356.023 587.167C355.963 587.108 355.927 587.029 355.922 586.945C355.861 584.74 358.645 579.98 366.682 573.849C366.717 573.823 366.756 573.803 366.798 573.792C366.84 573.781 366.884 573.778 366.928 573.783C366.971 573.789 367.012 573.803 367.05 573.825C367.088 573.847 367.121 573.876 367.148 573.911C367.174 573.945 367.194 573.985 367.205 574.027C367.216 574.069 367.219 574.113 367.213 574.156C367.208 574.199 367.193 574.241 367.172 574.279C367.15 574.316 367.121 574.35 367.086 574.376C358.698 580.77 356.546 585.276 356.546 586.928C356.548 587.015 356.517 587.099 356.458 587.163C356.399 587.227 356.317 587.266 356.23 587.27L356.247 587.261Z" fill="black"/>
<path d="M540.98 255.521H477.81V346.078H540.98V255.521Z" fill="#E4D0C0"/>
<path d="M533.584 262.469H485.205V339.13H533.584V262.469Z" fill="#F6EEE8"/>
<path d="M521.638 281.397H497.142V320.211H521.638V281.397Z" fill="white"/>
<path d="M577.571 362.266H512.908V397.689H577.571V362.266Z" fill="#E4D0C0"/>
<path d="M571.467 368.212H519.013V391.752H571.467V368.212Z" fill="white"/>
<path d="M228.659 376.627C228.247 376.354 227.043 375.546 227.324 372.973C227.329 372.93 227.342 372.889 227.362 372.851C227.383 372.813 227.41 372.78 227.444 372.753C227.477 372.726 227.516 372.706 227.557 372.694C227.598 372.682 227.642 372.678 227.684 372.683C227.727 372.687 227.769 372.7 227.806 372.721C227.844 372.741 227.878 372.769 227.905 372.803C227.932 372.836 227.952 372.875 227.964 372.916C227.976 372.957 227.979 373 227.974 373.043C227.737 375.221 228.659 375.836 229.011 376.065L228.659 376.627Z" fill="black"/>
<path d="M235.748 366.288C235.662 366.286 235.581 366.251 235.521 366.191C235.46 366.13 235.425 366.049 235.423 365.964C235.434 365.731 235.384 365.5 235.28 365.292C235.175 365.085 235.019 364.907 234.826 364.778C234.474 364.601 234.086 364.509 233.693 364.509C233.299 364.509 232.911 364.601 232.56 364.778C232.52 364.794 232.477 364.803 232.434 364.803C232.391 364.804 232.348 364.795 232.308 364.779C232.268 364.763 232.232 364.739 232.201 364.708C232.17 364.678 232.146 364.642 232.129 364.602C232.112 364.562 232.104 364.52 232.104 364.476C232.103 364.433 232.112 364.39 232.128 364.35C232.144 364.311 232.168 364.274 232.199 364.243C232.229 364.213 232.265 364.188 232.305 364.172C232.758 363.957 233.256 363.854 233.757 363.87C234.258 363.887 234.748 364.024 235.186 364.268C235.472 364.46 235.703 364.722 235.857 365.03C236.011 365.338 236.083 365.681 236.064 366.025C236.064 366.112 236.03 366.196 235.97 366.258C235.909 366.32 235.826 366.356 235.739 366.359L235.748 366.288Z" fill="black"/>
<path d="M233.912 375.915C233.339 375.848 232.798 375.612 232.357 375.239C232.106 375.063 231.845 374.902 231.576 374.756C231.499 374.715 231.441 374.645 231.416 374.562C231.39 374.479 231.399 374.389 231.44 374.312C231.48 374.235 231.55 374.178 231.633 374.152C231.716 374.127 231.806 374.135 231.883 374.176C232.186 374.332 232.479 374.505 232.761 374.694C233.289 375.054 233.71 375.336 234.123 375.239C234.536 375.142 235.08 374.563 235.66 373.482C237.505 370.109 238.119 369.424 238.91 369.17C239.374 369.008 239.881 369.021 240.336 369.205C240.792 369.389 241.165 369.732 241.387 370.171C241.41 370.208 241.425 370.249 241.433 370.292C241.44 370.335 241.438 370.379 241.429 370.421C241.419 370.463 241.401 370.504 241.376 370.539C241.35 370.574 241.318 370.605 241.281 370.628C241.244 370.651 241.203 370.666 241.16 370.673C241.118 370.681 241.074 370.679 241.031 370.67C240.989 370.66 240.949 370.642 240.913 370.616C240.878 370.591 240.848 370.559 240.825 370.522C240.678 370.201 240.415 369.948 240.089 369.815C239.762 369.681 239.398 369.676 239.068 369.802C238.515 369.978 237.944 370.619 236.196 373.807C235.502 375.081 234.896 375.713 234.237 375.871C234.131 375.899 234.022 375.913 233.912 375.915Z" fill="black"/>
<path d="M224.382 364.04C224.305 364.039 224.23 364.012 224.171 363.962C224.112 363.912 224.071 363.844 224.057 363.768L223.592 361.133C223.576 361.087 223.571 361.039 223.576 360.991C223.581 360.943 223.596 360.897 223.621 360.856C223.646 360.814 223.679 360.779 223.718 360.752C223.758 360.724 223.803 360.706 223.85 360.697C223.898 360.689 223.946 360.691 223.993 360.703C224.039 360.716 224.083 360.738 224.12 360.768C224.157 360.799 224.187 360.837 224.208 360.88C224.229 360.923 224.241 360.97 224.242 361.019L224.707 363.654C224.72 363.74 224.699 363.827 224.648 363.898C224.597 363.968 224.521 364.016 224.435 364.031L224.382 364.04Z" fill="black"/>
<path d="M220.087 370.9C219.721 372.356 219.541 373.852 219.551 375.353C218.562 375.692 217.597 376.097 216.661 376.565C216.503 374.185 218.453 371.401 220.087 370.9Z" fill="black"/>
<path d="M306.428 481.123C306.364 481.123 306.303 481.105 306.25 481.071C306.197 481.036 306.155 480.987 306.129 480.929C304.671 478.133 302.793 475.576 300.56 473.349C300.5 473.286 300.467 473.202 300.468 473.115C300.47 473.027 300.506 472.944 300.569 472.884C300.632 472.823 300.716 472.79 300.804 472.792C300.891 472.793 300.974 472.83 301.035 472.893C303.319 475.17 305.239 477.786 306.726 480.648C306.745 480.687 306.757 480.73 306.759 480.773C306.761 480.817 306.755 480.86 306.74 480.901C306.725 480.942 306.703 480.98 306.673 481.012C306.644 481.044 306.608 481.07 306.568 481.088C306.525 481.11 306.477 481.122 306.428 481.123Z" fill="black"/>
<path d="M75.1255 593.831C65.3583 592.259 54.8182 592.329 53.7203 592.733L53.4304 592.856C52.1481 593.471 50.9008 595.026 50.0401 597.696C49.3646 599.681 48.9714 601.75 48.8719 603.844C48.7752 606.023 48.6435 606.585 50.9272 607.964C53.2109 609.343 53.7466 610.722 53.7466 610.722H40.2817C38.8939 610.722 35.6704 606.436 35.3893 605.074C35.1083 603.713 36.2062 590.661 37.2514 579.04C38.1298 569.818 38.6919 561.377 39.7723 560.498C41.2918 559.269 45.42 560.446 52.5433 562.167C59.1216 563.799 65.7833 565.075 72.4992 565.988L73.3776 566.102C76.0126 574.367 75.1694 588.702 75.1255 593.831Z" fill="#FFDCAE"/>
<path d="M53.7466 610.678H40.2817C38.8939 610.678 35.6704 606.392 35.3893 605.03C35.1083 603.669 36.2062 590.617 37.2514 578.996C38.1298 569.774 38.6919 561.333 39.7723 560.454C41.2918 559.225 45.42 560.402 52.5433 562.123C50.4441 564.626 46.3422 569.589 46.1139 570.265C45.8152 571.144 45.543 577.292 45.2355 581.332C44.893 586.339 45.4024 585.724 46.3598 586.778C47.3172 587.832 51.5332 585.671 51.8143 587.446C52.18 589.294 52.7121 591.104 53.4041 592.856C52.1217 593.471 50.8745 595.026 50.0137 597.696C49.3383 599.681 48.945 601.75 48.8455 603.844C48.7489 606.023 48.6172 606.585 50.9008 607.964C53.1845 609.343 53.7466 610.678 53.7466 610.678Z" fill="#C15D31"/>
<path d="M459.531 593.111H459.408C454.138 591.065 447.893 586.146 443.457 580.586C441.648 578.32 439.329 575.316 436.545 571.548C436.492 571.478 436.47 571.39 436.482 571.304C436.495 571.217 436.541 571.139 436.611 571.087C436.681 571.034 436.769 571.012 436.855 571.024C436.941 571.037 437.02 571.083 437.072 571.153C439.847 574.877 442.166 577.916 443.967 580.182C448.359 585.654 454.507 590.494 459.636 592.479C459.702 592.511 459.756 592.564 459.788 592.63C459.821 592.696 459.831 592.77 459.817 592.842C459.803 592.914 459.766 592.979 459.711 593.028C459.656 593.077 459.587 593.106 459.513 593.111H459.531Z" fill="black"/>
<path d="M491.266 592.373C491.222 592.371 491.18 592.36 491.141 592.341C491.101 592.322 491.067 592.296 491.038 592.263C491.009 592.23 490.987 592.192 490.974 592.15C490.96 592.109 490.955 592.065 490.959 592.022C491.371 586.146 489.404 581.28 486.338 575.79C482.168 568.542 476.976 561.93 470.924 556.159C470.854 556.108 470.807 556.031 470.794 555.946C470.781 555.86 470.802 555.773 470.853 555.703C470.905 555.633 470.981 555.586 471.067 555.573C471.153 555.56 471.24 555.581 471.31 555.632C477.898 559.488 500.603 570.204 517.906 568.869C517.986 568.874 518.062 568.908 518.119 568.964C518.177 569.02 518.212 569.095 518.218 569.175C518.225 569.256 518.202 569.335 518.154 569.4C518.106 569.465 518.037 569.51 517.959 569.528C500.594 570.854 479.689 560.806 473.084 557.345C478.46 562.764 483.11 568.858 486.918 575.474C490.045 581.069 492.048 586.014 491.626 592.075C491.617 592.162 491.574 592.242 491.507 592.298C491.44 592.354 491.353 592.381 491.266 592.373Z" fill="black"/>
<path d="M346.331 547.596C343.898 548.641 341.711 546.717 342.378 544.706C342.528 544.27 342.719 543.849 342.949 543.45C342.966 543.712 343.041 543.967 343.169 544.196C343.898 545.215 345.611 544.899 346.788 541.825C347.113 540.947 347.394 540.156 347.666 539.418C349.572 538.76 351.092 538.979 351.338 540.165C351.478 541.026 349.396 546.278 346.331 547.596Z" fill="#C15D31"/>
<path d="M344.96 548.219C344.17 548.231 343.404 547.942 342.817 547.411C342.432 547.068 342.157 546.62 342.024 546.122C341.891 545.624 341.907 545.098 342.071 544.609C342.227 544.152 342.427 543.711 342.668 543.292C342.702 543.231 342.754 543.183 342.818 543.155C342.881 543.126 342.951 543.119 343.019 543.134C343.087 543.146 343.15 543.18 343.197 543.231C343.245 543.281 343.275 543.346 343.283 543.415C343.291 543.619 343.342 543.82 343.432 544.003C343.522 544.138 343.647 544.246 343.795 544.314C343.942 544.382 344.105 544.409 344.267 544.39C345.057 544.284 345.883 543.292 346.489 541.755C346.77 541.034 347.042 540.253 347.367 539.365C347.383 539.317 347.409 539.273 347.444 539.237C347.479 539.2 347.522 539.172 347.569 539.155C348.088 538.916 348.649 538.785 349.22 538.77C349.791 538.755 350.359 538.856 350.889 539.067C351.09 539.179 351.265 539.334 351.4 539.521C351.535 539.707 351.627 539.921 351.671 540.147C351.899 541.263 349.633 546.603 346.506 547.947C346.015 548.144 345.489 548.236 344.96 548.219ZM342.879 544.346C342.814 544.504 342.756 544.659 342.703 544.811C342.579 545.18 342.568 545.577 342.669 545.952C342.771 546.327 342.981 546.664 343.274 546.919C343.675 547.262 344.167 547.479 344.69 547.544C345.213 547.61 345.744 547.521 346.216 547.288C349.194 546.006 351.126 540.876 350.995 540.261C350.973 540.125 350.919 539.997 350.838 539.885C350.757 539.774 350.651 539.683 350.529 539.62C349.673 539.306 348.728 539.338 347.894 539.708C347.622 540.542 347.358 541.28 347.095 541.974C346.392 543.801 345.391 544.934 344.346 545.066C344.069 545.102 343.787 545.06 343.533 544.946C343.278 544.831 343.061 544.647 342.905 544.416L342.879 544.346Z" fill="black"/>
<path d="M344.126 545.048C343.882 545.048 343.641 544.987 343.425 544.872C343.21 544.758 343.025 544.592 342.888 544.39C342.725 544.124 342.628 543.822 342.607 543.511C342.378 541.842 342.51 538.022 342.826 531.987C342.829 531.945 342.839 531.903 342.858 531.864C342.876 531.826 342.902 531.791 342.934 531.763C342.966 531.734 343.003 531.712 343.043 531.698C343.083 531.684 343.126 531.678 343.169 531.68C343.212 531.682 343.253 531.693 343.292 531.711C343.331 531.73 343.365 531.756 343.394 531.787C343.422 531.819 343.444 531.856 343.458 531.897C343.473 531.937 343.479 531.98 343.476 532.023C343.169 538.022 343.028 541.807 343.257 543.441C343.265 543.645 343.315 543.846 343.406 544.029C343.496 544.165 343.621 544.272 343.769 544.341C343.916 544.409 344.079 544.435 344.24 544.416C345.031 544.311 345.857 543.318 346.463 541.781C346.744 541.061 347.016 540.279 347.341 539.392C347.965 537.468 348.29 536.063 348.29 536.045C348.311 535.961 348.365 535.889 348.439 535.843C348.518 535.812 348.606 535.812 348.685 535.843C350.319 536.113 351.997 535.842 353.463 535.07C355.28 534.054 356.979 532.84 358.531 531.452C358.595 531.392 358.68 531.361 358.767 531.364C358.855 531.367 358.937 531.405 358.997 531.469C359.056 531.533 359.087 531.618 359.084 531.706C359.081 531.793 359.043 531.875 358.979 531.935C357.388 533.368 355.641 534.617 353.77 535.659C352.262 536.447 350.548 536.754 348.86 536.537C348.729 537.055 348.43 538.206 347.982 539.629C347.692 540.507 347.42 541.315 347.104 542.053C346.401 543.88 345.4 545.013 344.355 545.145L344.126 545.048Z" fill="black"/>
<path d="M333.815 491.197C333.729 491.184 333.652 491.138 333.6 491.07C333.547 491.001 333.523 490.914 333.534 490.828L340.007 441.387C340.02 441.301 340.066 441.224 340.135 441.172C340.203 441.119 340.29 441.095 340.376 441.106L372.233 445.278C372.307 445.302 372.37 445.352 372.411 445.418C372.452 445.484 372.469 445.562 372.458 445.639C372.448 445.716 372.411 445.787 372.354 445.84C372.297 445.892 372.223 445.924 372.145 445.928L340.613 441.799L334.183 490.916C334.178 490.959 334.164 491 334.143 491.038C334.121 491.075 334.092 491.108 334.058 491.134C334.024 491.16 333.984 491.179 333.943 491.19C333.901 491.201 333.857 491.203 333.815 491.197Z" fill="#F6EEE8"/>
<path d="M392.435 382.757V382.055C392.628 382.055 392.83 382.107 393.041 382.116C392.771 382.253 392.556 382.48 392.435 382.757Z" fill="#E4D0C0"/>
<path d="M305.365 364.163V366.236C308.193 367.492 314.877 369.635 313.349 372.235C315.167 372.534 316.537 375.151 313.683 376.565C314.157 378.322 312.146 380.035 310.363 379.877C310.521 381.37 308.826 382.898 306.243 382.617C303.389 382.301 303.011 379.341 304.337 378.963C303.864 378.809 303.439 378.532 303.107 378.161C302.775 377.791 302.546 377.339 302.445 376.851C302.343 376.363 302.372 375.858 302.528 375.385C302.685 374.912 302.964 374.489 303.336 374.159C301.931 374.053 301.685 370.557 303.687 369.635C301.966 368.643 301.887 364.427 305.365 364.163Z" fill="#F88D7A"/>
<path d="M203.126 375.256C203.055 375.258 202.986 375.236 202.929 375.195C202.872 375.154 202.829 375.095 202.808 375.027C202.788 374.96 202.789 374.887 202.813 374.821C202.837 374.755 202.882 374.698 202.942 374.659C204.613 373.487 206.399 372.49 208.273 371.682C208.356 371.652 208.447 371.657 208.526 371.695C208.605 371.733 208.666 371.801 208.695 371.884C208.724 371.966 208.719 372.057 208.681 372.136C208.643 372.215 208.575 372.276 208.493 372.305C206.677 373.098 204.944 374.069 203.319 375.204C203.262 375.241 203.194 375.26 203.126 375.256Z" fill="black"/>
<path d="M205.287 378.129C205.221 378.126 205.157 378.103 205.104 378.064C205.051 378.025 205.01 377.971 204.988 377.909C204.965 377.847 204.962 377.78 204.977 377.716C204.993 377.651 205.028 377.593 205.076 377.549C206.473 376.354 209.837 374.712 210.223 374.791C210.271 374.801 210.316 374.821 210.356 374.85C210.395 374.878 210.428 374.915 210.452 374.958C210.493 375.034 210.504 375.123 210.481 375.207C210.458 375.29 210.403 375.362 210.329 375.406C210.282 375.416 210.234 375.416 210.188 375.406C208.517 376.077 206.941 376.963 205.498 378.041C205.441 378.095 205.366 378.126 205.287 378.129Z" fill="black"/>
<path d="M207.728 381.334C207.664 381.332 207.601 381.31 207.548 381.272C207.496 381.234 207.455 381.181 207.432 381.121C207.409 381.06 207.403 380.994 207.417 380.931C207.431 380.867 207.463 380.809 207.509 380.764C208.902 379.751 210.37 378.847 211.901 378.058C211.977 378.017 212.067 378.009 212.151 378.034C212.234 378.06 212.303 378.118 212.344 378.194C212.385 378.271 212.394 378.361 212.368 378.444C212.342 378.528 212.285 378.597 212.208 378.638C210.735 379.413 209.32 380.293 207.974 381.273C207.94 381.299 207.9 381.318 207.858 381.329C207.815 381.339 207.772 381.341 207.728 381.334Z" fill="black"/>
<path d="M201.835 387.474C201.749 387.473 201.667 387.439 201.607 387.377C199.934 385.785 197.743 384.849 195.436 384.741C193.129 384.633 190.861 385.36 189.046 386.789C189.014 386.825 188.974 386.854 188.929 386.873C188.884 386.892 188.835 386.901 188.787 386.9C188.738 386.898 188.69 386.886 188.646 386.863C188.603 386.841 188.565 386.81 188.535 386.771C188.505 386.733 188.484 386.688 188.473 386.641C188.462 386.593 188.462 386.544 188.472 386.496C188.482 386.448 188.503 386.403 188.532 386.364C188.562 386.325 188.599 386.294 188.642 386.271C190.583 384.743 193.01 383.967 195.477 384.085C197.944 384.202 200.286 385.206 202.072 386.912C202.12 386.957 202.153 387.015 202.168 387.079C202.182 387.144 202.176 387.211 202.151 387.271C202.126 387.332 202.084 387.384 202.029 387.42C201.974 387.457 201.91 387.475 201.844 387.474H201.835Z" fill="black"/>
<path d="M201.229 428.703C201.147 428.703 201.069 428.671 201.01 428.615C192.34 420.631 185.665 412.375 184.664 410.372C184.625 410.294 184.619 410.204 184.647 410.122C184.675 410.039 184.735 409.972 184.813 409.933C184.891 409.895 184.981 409.889 185.063 409.917C185.146 409.945 185.214 410.004 185.252 410.082C186.051 411.672 192.279 419.639 201.457 428.132C201.508 428.176 201.544 428.234 201.56 428.299C201.577 428.364 201.572 428.433 201.548 428.495C201.524 428.558 201.482 428.611 201.426 428.648C201.371 428.686 201.305 428.705 201.238 428.703H201.229Z" fill="black"/>
<path d="M285.453 465.172C285.394 465.172 285.337 465.157 285.286 465.128C282.651 463.521 277.381 459.788 277.293 459.753C277.239 459.697 277.207 459.624 277.201 459.547C277.195 459.469 277.216 459.392 277.261 459.329C277.305 459.266 277.371 459.22 277.446 459.199C277.52 459.179 277.6 459.185 277.671 459.217C277.724 459.217 282.941 462.968 285.629 464.566C285.689 464.604 285.735 464.661 285.76 464.727C285.786 464.794 285.79 464.866 285.771 464.935C285.752 465.004 285.712 465.064 285.657 465.109C285.601 465.153 285.533 465.178 285.462 465.181L285.453 465.172Z" fill="black"/>
<path d="M282.572 471.707C282.523 471.719 282.472 471.719 282.423 471.707C279.43 470.146 276.545 468.385 273.789 466.437C273.736 466.379 273.706 466.304 273.703 466.225C273.701 466.147 273.725 466.07 273.774 466.009C273.822 465.947 273.89 465.904 273.967 465.888C274.043 465.871 274.123 465.882 274.193 465.919C276.922 467.831 279.774 469.562 282.73 471.101C282.801 471.131 282.859 471.185 282.894 471.254C282.929 471.322 282.938 471.401 282.92 471.476C282.902 471.551 282.858 471.617 282.796 471.662C282.734 471.708 282.658 471.73 282.581 471.724L282.572 471.707Z" fill="black"/>
<path d="M279.568 477.618H279.454C277.697 477.003 273.428 475.343 270.67 473.174C270.602 473.12 270.557 473.042 270.546 472.955C270.536 472.869 270.56 472.781 270.613 472.713C270.667 472.644 270.746 472.599 270.832 472.589C270.919 472.578 271.006 472.602 271.075 472.656C273.739 474.5 276.648 475.963 279.717 477.003C279.787 477.033 279.845 477.085 279.881 477.152C279.918 477.218 279.93 477.295 279.917 477.37C279.904 477.444 279.865 477.512 279.808 477.562C279.751 477.612 279.679 477.641 279.603 477.645L279.568 477.618Z" fill="black"/>
<path d="M418.074 309.39C418.03 309.386 417.988 309.374 417.949 309.354C417.91 309.334 417.876 309.307 417.848 309.273C417.82 309.239 417.799 309.201 417.787 309.159C417.774 309.117 417.77 309.073 417.775 309.03V308.582C417.942 306.403 418.443 299.798 421.201 295.336C421.252 295.272 421.324 295.23 421.405 295.216C421.486 295.202 421.568 295.219 421.638 295.262C421.707 295.305 421.758 295.373 421.781 295.451C421.804 295.53 421.798 295.614 421.763 295.688C419.128 300.009 418.601 306.5 418.434 308.634V309.091C418.425 309.178 418.382 309.258 418.315 309.314C418.247 309.37 418.161 309.397 418.074 309.39Z" fill="black"/>
<path d="M431.161 360.044C431.074 360.044 430.99 360.009 430.928 359.947C430.866 359.885 430.832 359.802 430.832 359.714C430.832 359.627 430.866 359.543 430.928 359.481C430.99 359.42 431.074 359.385 431.161 359.385C431.293 359.385 444.564 358.507 450.537 359.13C450.623 359.141 450.7 359.185 450.754 359.252C450.808 359.319 450.834 359.404 450.827 359.49C450.814 359.575 450.77 359.651 450.703 359.705C450.636 359.759 450.552 359.786 450.467 359.78C444.547 359.139 431.337 360.026 431.205 360.035L431.161 360.044Z" fill="black"/>
<path d="M388.113 463.53C388.034 463.528 387.957 463.498 387.897 463.445C387.838 463.392 387.799 463.319 387.788 463.24L382.597 419.753L376.686 417.856C376.604 417.829 376.535 417.771 376.495 417.693C376.456 417.616 376.449 417.526 376.475 417.443C376.502 417.36 376.561 417.292 376.638 417.252C376.716 417.213 376.806 417.205 376.888 417.232L383.037 419.191C383.097 419.209 383.151 419.245 383.191 419.293C383.232 419.341 383.257 419.401 383.265 419.463L388.482 463.161C388.492 463.248 388.467 463.336 388.413 463.405C388.359 463.474 388.28 463.519 388.192 463.53H388.113Z" fill="black"/>
<path d="M311.364 372.674C308.499 372.597 305.733 371.616 303.459 369.872C303.416 369.849 303.378 369.817 303.349 369.779C303.319 369.74 303.298 369.695 303.288 369.647C303.278 369.599 303.278 369.55 303.289 369.502C303.3 369.455 303.321 369.41 303.351 369.372C303.381 369.333 303.419 369.302 303.463 369.28C303.506 369.257 303.554 369.245 303.603 369.243C303.652 369.242 303.7 369.251 303.745 369.27C303.79 369.289 303.83 369.318 303.863 369.354C306.025 370.997 308.649 371.918 311.364 371.989C311.442 372.002 311.513 372.042 311.564 372.102C311.616 372.163 311.644 372.239 311.644 372.318C311.644 372.398 311.616 372.474 311.564 372.534C311.513 372.595 311.442 372.635 311.364 372.648V372.674Z" fill="black"/>
<path d="M311.408 376.512C308.526 376.61 305.675 375.889 303.187 374.431C303.148 374.412 303.113 374.385 303.085 374.353C303.057 374.321 303.035 374.283 303.021 374.242C303.007 374.201 303.001 374.158 303.004 374.115C303.007 374.072 303.018 374.03 303.037 373.992C303.056 373.953 303.083 373.919 303.115 373.89C303.147 373.862 303.185 373.84 303.226 373.826C303.267 373.812 303.31 373.806 303.353 373.809C303.396 373.812 303.438 373.823 303.476 373.842C305.965 375.292 308.821 375.99 311.698 375.854C311.864 375.854 312.031 375.994 312.031 376.179C312.033 376.222 312.025 376.265 312.009 376.306C311.993 376.346 311.97 376.383 311.939 376.414C311.909 376.445 311.873 376.47 311.833 376.487C311.793 376.504 311.75 376.513 311.706 376.512H311.408Z" fill="black"/>
<path d="M310.372 380.184C308.31 380.118 306.264 379.808 304.276 379.262C304.192 379.24 304.12 379.185 304.077 379.11C304.033 379.035 304.021 378.946 304.043 378.862C304.065 378.778 304.12 378.706 304.195 378.663C304.27 378.619 304.359 378.607 304.443 378.629C306.389 379.156 308.391 379.451 310.407 379.508C310.485 379.52 310.556 379.561 310.607 379.621C310.658 379.681 310.686 379.758 310.686 379.837C310.686 379.916 310.658 379.993 310.607 380.053C310.556 380.113 310.485 380.154 310.407 380.166L310.372 380.184Z" fill="black"/>
<path d="M428.131 382.608C425.32 382.793 419.883 383.214 418.469 383.768C412.775 385.991 406.817 387.467 400.744 388.159C397.231 388.449 395.281 386.403 396.098 385.788H395.72C392.11 385.559 391.627 382.801 393.032 382.09C389.308 381.879 388.755 379.191 390.503 378.234C385.066 377.742 385.742 375.028 389.29 374.65C396.712 373.86 404.117 371.928 406.69 370.259C410.072 368.089 408.64 366.42 406.936 365.322C405.232 364.225 398.469 363.917 398.039 362.336C397.608 360.755 398.715 360.325 401.148 360.105C404.95 359.859 408.764 359.859 412.566 360.105C416.703 360.347 420.85 360.347 424.986 360.105C427.744 363.416 428.315 373.825 428.131 382.608Z" fill="#F88D7A"/>
<path d="M391.214 378.62C390.933 378.62 390.678 378.62 390.45 378.62C390.407 378.617 390.365 378.605 390.327 378.586C390.289 378.566 390.255 378.54 390.227 378.507C390.199 378.474 390.178 378.436 390.165 378.396C390.152 378.355 390.147 378.312 390.151 378.269C390.16 378.184 390.201 378.105 390.267 378.049C390.332 377.994 390.417 377.965 390.502 377.97C393.014 378.181 398.407 377.189 404.96 375.335C405.044 375.311 405.134 375.321 405.21 375.363C405.287 375.405 405.344 375.476 405.368 375.559C405.393 375.643 405.383 375.733 405.341 375.81C405.299 375.887 405.228 375.943 405.144 375.968C399.119 377.637 394.025 378.62 391.214 378.62Z" fill="black"/>
<path d="M393.498 382.459H392.997C392.91 382.452 392.829 382.412 392.772 382.346C392.714 382.28 392.685 382.195 392.689 382.108C392.692 382.064 392.703 382.021 392.722 381.982C392.741 381.943 392.767 381.908 392.8 381.879C392.833 381.851 392.871 381.829 392.912 381.815C392.954 381.802 392.997 381.797 393.041 381.8C395.123 381.923 403.414 381.08 407.05 378.893C407.087 378.87 407.128 378.855 407.171 378.849C407.214 378.842 407.257 378.844 407.299 378.854C407.341 378.864 407.381 378.883 407.416 378.908C407.451 378.934 407.48 378.966 407.503 379.003C407.525 379.04 407.54 379.08 407.547 379.123C407.554 379.166 407.552 379.209 407.541 379.252C407.531 379.294 407.513 379.333 407.487 379.368C407.462 379.403 407.43 379.432 407.393 379.455C403.853 381.589 396.264 382.459 393.498 382.459Z" fill="black"/>
<path d="M395.693 386.121C395.615 386.109 395.544 386.068 395.493 386.008C395.442 385.948 395.414 385.871 395.414 385.792C395.414 385.713 395.442 385.636 395.493 385.576C395.544 385.516 395.615 385.475 395.693 385.463C400.586 385.463 407.34 383.442 408.166 382.907C408.239 382.859 408.329 382.842 408.414 382.86C408.5 382.879 408.575 382.93 408.623 383.003C408.67 383.077 408.687 383.166 408.669 383.252C408.651 383.337 408.599 383.412 408.526 383.46C407.56 384.11 400.691 386.121 395.693 386.121Z" fill="black"/>
</svg>
