<svg width="14" height="14" viewBox="0 0 14 14" fill="none" xmlns="http://www.w3.org/2000/svg">
<path fill-rule="evenodd" clip-rule="evenodd" d="M12.6891 1.26111C12.4824 1.05432 12.3039 0.875894 12.1462 0.738294C11.9801 0.593421 11.8012 0.461241 11.584 0.371234C11.0939 0.168247 10.5432 0.168247 10.0532 0.371234C9.83591 0.461241 9.65704 0.593421 9.49097 0.738294C9.33324 0.875894 9.15484 1.05431 8.94804 1.2611L4.95831 5.25081C4.68164 5.52723 4.47252 5.73617 4.31446 5.98471C4.18071 6.19497 4.0771 6.42297 4.00665 6.66197C3.9234 6.94451 3.90353 7.23944 3.87725 7.62964L3.78944 8.92511C3.7832 9.01651 3.77594 9.12304 3.77774 9.21644C3.7798 9.32257 3.79305 9.48024 3.8733 9.64517C3.97122 9.84651 4.13386 10.0092 4.33518 10.1071C4.50016 10.1873 4.65783 10.2006 4.76396 10.2026C4.85732 10.2044 4.96387 10.1972 5.05529 10.1909L6.3507 10.1031C6.7409 10.0768 7.0359 10.057 7.31837 9.97371C7.55744 9.90331 7.78544 9.79964 7.9957 9.66591C8.24424 9.50784 8.45317 9.29871 8.72957 9.02204L12.7193 5.03234C12.926 4.82557 13.1045 4.64715 13.2421 4.48941C13.387 4.32331 13.5192 4.14445 13.6092 3.92717C13.8121 3.43711 13.8121 2.88649 13.6092 2.39643C13.5192 2.17915 13.387 2.00029 13.2421 1.8342C13.1045 1.67647 12.9261 1.49807 12.7193 1.29131L12.6891 1.26111ZM11.0737 1.60307C11.1014 1.61457 11.1549 1.64295 11.2697 1.74309C11.389 1.84719 11.5353 1.99289 11.7614 2.21899C11.9875 2.44509 12.1332 2.59131 12.2373 2.71065C12.3374 2.82546 12.3658 2.87894 12.3773 2.90668C12.445 3.07003 12.445 3.25357 12.3773 3.41693C12.3658 3.44467 12.3374 3.49815 12.2373 3.61296C12.1654 3.69529 12.0738 3.79043 11.9496 3.91577L10.0646 2.03072C10.19 1.90655 10.2851 1.81491 10.3674 1.74309C10.4822 1.64295 10.5357 1.61457 10.5634 1.60307C10.7268 1.53541 10.9104 1.53541 11.0737 1.60307ZM9.1215 2.97324L11.0071 4.85886L7.83097 8.03504C7.49104 8.37497 7.38944 8.47137 7.28011 8.54084C7.17497 8.60777 7.06097 8.65957 6.94144 8.69477C6.81717 8.73137 6.67777 8.74457 6.19817 8.77704L5.13096 8.84944L5.20332 7.78217C5.23584 7.30257 5.24898 7.16317 5.2856 7.03891C5.32082 6.91937 5.37263 6.80537 5.4395 6.70024C5.50903 6.59091 5.60541 6.48937 5.9453 6.14944L9.1215 2.97324Z" fill="#E09B2D"/>
<path d="M6.33704 0.333252C5.41303 0.333245 4.67818 0.333245 4.08563 0.382452C3.47878 0.432845 2.96173 0.538285 2.48947 0.783599C1.75891 1.16311 1.16322 1.75879 0.783721 2.48936C0.538407 2.96161 0.432968 3.47866 0.382574 4.08552C0.333368 4.67806 0.333368 5.41291 0.333374 6.33692V7.66292C0.333368 8.58692 0.333368 9.32178 0.382574 9.91432C0.432968 10.5212 0.538407 11.0383 0.783721 11.5105C1.16322 12.2411 1.75891 12.8367 2.48947 13.2163C2.96173 13.4616 3.47878 13.567 4.08563 13.6174C4.67817 13.6666 5.41301 13.6666 6.33697 13.6666H7.69591C8.60457 13.6666 9.32731 13.6666 9.91031 13.619C10.5074 13.5702 11.0165 13.4681 11.4826 13.2306C12.2353 12.8471 12.8472 12.2352 13.2307 11.4825C13.4682 11.0164 13.5703 10.5073 13.6191 9.91018C13.6667 9.32718 13.6667 8.60452 13.6667 7.69585V7.66658C13.6667 7.29838 13.3682 6.99992 13 6.99992C12.6318 6.99992 12.3334 7.29838 12.3334 7.66658C12.3334 8.61098 12.3328 9.27925 12.2902 9.80165C12.2481 10.3163 12.1685 10.6304 12.0427 10.8773C11.787 11.379 11.3791 11.7869 10.8774 12.0426C10.6305 12.1684 10.3164 12.248 9.80177 12.2901C9.27937 12.3327 8.61111 12.3333 7.66671 12.3333H6.36671C5.40637 12.3333 4.72687 12.3327 4.19598 12.2887C3.67307 12.2452 3.35432 12.163 3.10411 12.0331C2.61706 11.7801 2.21994 11.3829 1.96694 10.8959C1.83696 10.6457 1.75476 10.3269 1.71133 9.80398C1.66724 9.27305 1.66671 8.59359 1.66671 7.63325V6.36659C1.66671 5.40625 1.66724 4.72676 1.71133 4.19587C1.75476 3.67295 1.83696 3.3542 1.96694 3.10399C2.21994 2.61694 2.61706 2.21982 3.10411 1.96682C3.35432 1.83685 3.67307 1.75464 4.19598 1.71121C4.72687 1.66713 5.40637 1.66659 6.36671 1.66659H7.00004C7.36824 1.66659 7.66671 1.36811 7.66671 0.999919C7.66671 0.631732 7.36824 0.333252 7.00004 0.333252H6.33704Z" fill="#E09B2D"/>
</svg>
