<svg width="106" height="38" viewBox="0 0 106 38" fill="none" xmlns="http://www.w3.org/2000/svg">
<circle cx="19.0001" cy="5.36826" r="5.36826" fill="black"/>
<circle cx="19.0001" cy="32.5111" r="5.36826" fill="black"/>
<circle cx="5.36826" cy="19.0001" r="5.36826" fill="black"/>
<circle cx="32.6319" cy="19.0001" r="5.36826" fill="black"/>
<circle cx="19" cy="19" r="6.81588" fill="black"/>
<circle cx="28.8922" cy="9.22859" r="3.31746" fill="#A62BF2"/>
<circle cx="28.8922" cy="28.7716" r="3.31746" fill="#008A93"/>
<circle cx="9.10799" cy="9.22859" r="3.31746" fill="#E09B2D"/>
<circle cx="9.10799" cy="28.7716" r="3.31746" fill="#4C96FF"/>
<path d="M54.24 26.16C53.6 26.16 52.98 26.1067 52.38 26C51.78 25.8933 51.22 25.7333 50.7 25.52C50.1933 25.2933 49.7333 25.02 49.32 24.7C49.1867 24.6067 49.0933 24.5 49.04 24.38C49 24.2467 48.9933 24.1267 49.02 24.02C49.06 23.9 49.12 23.8 49.2 23.72C49.2933 23.64 49.4 23.6 49.52 23.6C49.64 23.5867 49.7667 23.6267 49.9 23.72C50.5133 24.1733 51.16 24.5067 51.84 24.72C52.5333 24.9333 53.3333 25.04 54.24 25.04C55.5067 25.04 56.4533 24.7933 57.08 24.3C57.72 23.8067 58.04 23.16 58.04 22.36C58.04 21.6933 57.8067 21.1733 57.34 20.8C56.8867 20.4267 56.1333 20.1333 55.08 19.92L53.06 19.5C51.7933 19.2467 50.8533 18.82 50.24 18.22C49.6267 17.62 49.32 16.82 49.32 15.82C49.32 15.2067 49.44 14.6533 49.68 14.16C49.92 13.6533 50.26 13.22 50.7 12.86C51.14 12.5 51.66 12.2267 52.26 12.04C52.8733 11.84 53.5467 11.74 54.28 11.74C55.1467 11.74 55.94 11.86 56.66 12.1C57.3933 12.34 58.06 12.72 58.66 13.24C58.78 13.3333 58.86 13.4467 58.9 13.58C58.94 13.7 58.94 13.82 58.9 13.94C58.86 14.0467 58.8 14.1333 58.72 14.2C58.64 14.2667 58.54 14.3067 58.42 14.32C58.3 14.32 58.1733 14.2667 58.04 14.16C57.48 13.7067 56.8933 13.38 56.28 13.18C55.68 12.9667 55.0133 12.86 54.28 12.86C53.5333 12.86 52.88 12.98 52.32 13.22C51.7733 13.46 51.3467 13.8 51.04 14.24C50.7333 14.68 50.58 15.2 50.58 15.8C50.58 16.4933 50.7933 17.0467 51.22 17.46C51.6467 17.8733 52.3333 18.1733 53.28 18.36L55.32 18.78C56.6667 19.06 57.6667 19.48 58.32 20.04C58.9733 20.5867 59.3 21.34 59.3 22.3C59.3 22.8733 59.18 23.4 58.94 23.88C58.7133 24.3467 58.38 24.7533 57.94 25.1C57.5 25.4467 56.9667 25.7133 56.34 25.9C55.7267 26.0733 55.0267 26.16 54.24 26.16ZM67.7284 26.16C66.4484 26.16 65.3351 25.8667 64.3884 25.28C63.4418 24.6933 62.7084 23.86 62.1884 22.78C61.6818 21.7 61.4284 20.42 61.4284 18.94C61.4284 17.82 61.5684 16.82 61.8484 15.94C62.1418 15.0467 62.5618 14.2933 63.1084 13.68C63.6551 13.0533 64.3151 12.5733 65.0884 12.24C65.8751 11.9067 66.7551 11.74 67.7284 11.74C69.0351 11.74 70.1618 12.0333 71.1084 12.62C72.0551 13.1933 72.7818 14.02 73.2884 15.1C73.7951 16.1667 74.0484 17.44 74.0484 18.92C74.0484 20.04 73.9018 21.0467 73.6084 21.94C73.3151 22.8333 72.8951 23.5933 72.3484 24.22C71.8018 24.8467 71.1351 25.3267 70.3484 25.66C69.5751 25.9933 68.7018 26.16 67.7284 26.16ZM67.7284 25.04C68.7951 25.04 69.7018 24.8 70.4484 24.32C71.1951 23.84 71.7618 23.1467 72.1484 22.24C72.5484 21.3333 72.7484 20.2333 72.7484 18.94C72.7484 17.0067 72.3084 15.5133 71.4284 14.46C70.5618 13.3933 69.3284 12.86 67.7284 12.86C66.6751 12.86 65.7751 13.1 65.0284 13.58C64.2818 14.06 63.7084 14.7533 63.3084 15.66C62.9218 16.5667 62.7284 17.66 62.7284 18.94C62.7284 20.86 63.1684 22.36 64.0484 23.44C64.9284 24.5067 66.1551 25.04 67.7284 25.04ZM77.7842 26C77.5976 26 77.4442 25.9467 77.3242 25.84C77.2176 25.72 77.1642 25.56 77.1642 25.36V12.44C77.1642 12.2267 77.2176 12.0667 77.3242 11.96C77.4309 11.8533 77.5776 11.8 77.7642 11.8C77.9642 11.8 78.1176 11.8533 78.2242 11.96C78.3309 12.0667 78.3842 12.2267 78.3842 12.44V24.9H85.2642C85.4642 24.9 85.6109 24.9467 85.7042 25.04C85.8109 25.1333 85.8642 25.2667 85.8642 25.44C85.8642 25.6267 85.8109 25.7667 85.7042 25.86C85.6109 25.9533 85.4642 26 85.2642 26H77.7842ZM88.4673 26.12C88.2807 26.12 88.134 26.0667 88.0273 25.96C87.9207 25.84 87.8673 25.68 87.8673 25.48V12.42C87.8673 12.2067 87.9207 12.0467 88.0273 11.94C88.134 11.8333 88.2807 11.78 88.4673 11.78C88.6673 11.78 88.8207 11.8333 88.9273 11.94C89.034 12.0467 89.0873 12.2067 89.0873 12.42V25.48C89.0873 25.68 89.034 25.84 88.9273 25.96C88.834 26.0667 88.6807 26.12 88.4673 26.12ZM93.4497 26C93.2364 26 93.0697 25.94 92.9497 25.82C92.8297 25.7 92.7697 25.5267 92.7697 25.3V12.6C92.7697 12.3733 92.8297 12.2 92.9497 12.08C93.0697 11.96 93.2364 11.9 93.4497 11.9H97.3097C99.5497 11.9 101.276 12.5 102.49 13.7C103.716 14.9 104.33 16.6467 104.33 18.94C104.33 20.0867 104.17 21.1 103.85 21.98C103.543 22.86 103.09 23.6 102.49 24.2C101.89 24.7867 101.156 25.2333 100.29 25.54C99.423 25.8467 98.4297 26 97.3097 26H93.4497ZM93.9897 24.92H97.2097C98.183 24.92 99.0297 24.7933 99.7497 24.54C100.483 24.2867 101.09 23.9133 101.57 23.42C102.05 22.9267 102.41 22.3067 102.65 21.56C102.89 20.8 103.01 19.9267 103.01 18.94C103.01 16.9533 102.523 15.4667 101.55 14.48C100.59 13.48 99.143 12.98 97.2097 12.98H93.9897V24.92Z" fill="black"/>
</svg>
