<svg width="14" height="12" viewBox="0 0 14 12" fill="none" xmlns="http://www.w3.org/2000/svg">
<path fill-rule="evenodd" clip-rule="evenodd" d="M14 1C14 0.734783 13.8946 0.48043 13.7071 0.292893C13.5196 0.105357 13.2652 0 13 0L0.999999 0C0.734782 0 0.480428 0.105357 0.292892 0.292893C0.105355 0.48043 -2.38419e-07 0.734783 -2.38419e-07 1C-2.38419e-07 1.26522 0.105355 1.51957 0.292892 1.70711C0.480428 1.89464 0.734782 2 0.999999 2L13 2C13.2652 2 13.5196 1.89464 13.7071 1.70711C13.8946 1.51957 14 1.26522 14 1ZM14 6C14 5.73478 13.8946 5.48043 13.7071 5.29289C13.5196 5.10536 13.2652 5 13 5L0.999999 5C0.734782 5 0.480428 5.10536 0.292892 5.29289C0.105355 5.48043 -2.38419e-07 5.73478 -2.38419e-07 6C-2.38419e-07 6.26522 0.105355 6.51957 0.292892 6.70711C0.480428 6.89464 0.734782 7 0.999999 7L13 7C13.2652 7 13.5196 6.89464 13.7071 6.70711C13.8946 6.51957 14 6.26522 14 6ZM14 11C14 10.7348 13.8946 10.4804 13.7071 10.2929C13.5196 10.1054 13.2652 10 13 10H7C6.73478 10 6.48043 10.1054 6.29289 10.2929C6.10536 10.4804 6 10.7348 6 11C6 11.2652 6.10536 11.5196 6.29289 11.7071C6.48043 11.8946 6.73478 12 7 12H13C13.2652 12 13.5196 11.8946 13.7071 11.7071C13.8946 11.5196 14 11.2652 14 11Z" fill="white"/>
</svg>
