<svg width="62" height="56" viewBox="0 0 62 56" fill="none" xmlns="http://www.w3.org/2000/svg">
<path d="M34.1442 3.31931C34.1442 3.31931 28.9969 15.2222 15.3849 12.4954C1.77282 9.7687 -6.4284 28.9524 6.44064 35.9472C19.3097 42.9419 10.3911 50.9773 18.9739 55.0818C28.7288 59.7466 32.3664 44.1479 39.553 45.5967C55.4139 48.7942 65.2251 43.3104 60.8869 35.9308C53.2716 22.9769 47.7422 23.4538 49.9893 15.0884C52.2363 6.72311 39.5464 -6.11908 34.1442 3.31931Z" fill="#DEE9FF"/>
<path d="M31.6597 30.4856C30.4637 32.8472 30.1619 34.1023 26.5339 36.4457C26.5057 36.4646 26.4846 36.4928 26.474 36.5257C25.8943 38.3771 24.9132 40.0682 23.6048 41.4708C23.5872 41.4895 23.5748 41.5127 23.569 41.5381C23.5631 41.5634 23.564 41.5899 23.5716 41.6148C23.9776 43.0071 24.4171 45.5174 23.1943 47.575C21.397 50.6043 20.0657 48.7752 20.343 48.0894C20.5804 47.5018 22.6085 46.2398 22.1403 43.0871C22.1364 43.0619 22.1262 43.0382 22.1108 43.0182C22.0954 42.9982 22.0752 42.9826 22.0522 42.9729C22.0293 42.9633 22.0043 42.9599 21.9797 42.9631C21.9551 42.9663 21.9317 42.9759 21.9118 42.9911C20.4417 44.0904 18.7544 44.8422 16.9701 45.1928C16.9503 45.1962 16.9314 45.2039 16.9147 45.2153C16.898 45.2267 16.8838 45.2417 16.8731 45.2592C16.8624 45.2767 16.8554 45.2963 16.8526 45.3168C16.8499 45.3373 16.8513 45.3582 16.857 45.378C17.3119 47.0561 17.5271 49.6785 15.6277 52.0904C14.6136 53.3478 13.2689 51.5096 14.6136 50.2569C15.4479 49.4819 15.3836 47.2528 14.993 45.5359C14.9856 45.5026 14.9671 45.4729 14.9408 45.4521C14.9145 45.4313 14.882 45.4205 14.8488 45.4216C14.7711 45.4239 14.6912 45.4239 14.6136 45.4239C11.869 45.4281 9.20059 44.4936 7.02694 42.7671C7.00706 42.7511 6.98347 42.7407 6.9585 42.7369C6.93354 42.7331 6.90805 42.7361 6.88454 42.7456C6.86103 42.755 6.84032 42.7706 6.82444 42.7908C6.80855 42.811 6.79805 42.8351 6.79395 42.8608C6.27247 46.4089 8.34287 47.6367 8.63789 48.5466C8.96632 49.564 8.21185 50.4693 7.28211 50.2133C7.26195 50.2071 7.24313 50.197 7.22665 50.1835C4.19554 47.8379 4.45959 42.9225 4.79243 40.5563C4.79547 40.537 4.79447 40.5172 4.7895 40.4982C4.78452 40.4793 4.77568 40.4617 4.76356 40.4466C3.06851 38.1992 2.15083 35.4328 2.15627 32.5866C2.15627 27.3672 5.18074 22.8747 9.52328 20.8697C9.52357 20.8697 9.52386 20.8697 9.52413 20.8696C9.5244 20.8695 9.52465 20.8693 9.52486 20.8691C9.52507 20.8689 9.52523 20.8686 9.52534 20.8684C9.52546 20.8681 9.52551 20.8678 9.5255 20.8675C10.1934 19.9963 11.0078 18.7642 11.1321 17.9C11.1362 17.8707 11.1486 17.8433 11.1679 17.8214C11.1872 17.7995 11.2123 17.784 11.2402 17.7768C11.2681 17.7697 11.2974 17.7713 11.3243 17.7814C11.3513 17.7916 11.3748 17.8097 11.3917 17.8336C11.7112 18.2772 12.2061 19.1231 12.0973 20.0147C12.0929 20.0444 12.0907 20.0741 12.0862 20.1038C12.0773 20.1542 12.0663 20.2022 12.0552 20.2525C12.0441 20.2913 12.0352 20.3302 12.0219 20.3691C12.1771 20.2357 12.3251 20.0937 12.4654 19.9438C12.7916 19.5986 13.2044 19.0796 13.3819 18.5241C13.3903 18.4945 13.4074 18.4682 13.4309 18.449C13.4543 18.4298 13.483 18.4186 13.5129 18.4168C13.5428 18.4151 13.5725 18.423 13.5979 18.4393C13.6233 18.4557 13.6432 18.4798 13.6548 18.5083C13.7701 18.8009 13.9055 19.2101 13.9521 19.6285C13.9561 19.666 13.9736 19.7006 14.0011 19.7256C14.0286 19.7505 14.0641 19.764 14.1008 19.7634C14.2716 19.7565 14.4425 19.752 14.6134 19.752C21.4944 19.752 27.0729 25.4995 27.0729 32.5867C27.0729 32.7491 27.0707 32.9091 27.064 33.0691C27.063 33.0935 27.0678 33.1178 27.078 33.1399C27.0882 33.162 27.1035 33.1812 27.1225 33.1958C27.1415 33.2105 27.1637 33.2201 27.1871 33.2239C27.2106 33.2277 27.2346 33.2256 27.257 33.2177C27.9982 32.9502 28.9324 32.3055 29.496 30.7715C30.55 27.9137 30.661 27.1136 30.3281 24.8845C29.9953 22.6554 31.6041 22.7699 31.9368 23.5128C32.2695 24.2556 32.991 27.8564 31.6597 30.4856Z" fill="#008A93"/>
<path d="M9.74732 33.7127C9.70488 33.7127 9.66365 33.6982 9.63006 33.6715C9.59648 33.6447 9.57242 33.6073 9.56164 33.565C9.47797 33.1885 9.45999 32.7997 9.50856 32.4167C9.61783 31.5842 10.0575 30.9723 10.7801 30.6471C11.2523 30.4346 11.6987 30.4223 12.1068 30.6108C12.9433 30.9971 13.2994 32.0923 13.3141 32.1387C13.3284 32.1881 13.3234 32.2414 13.3002 32.2871C13.277 32.3328 13.2374 32.3673 13.1898 32.3834C13.1422 32.3994 13.0904 32.3957 13.0454 32.373C13.0004 32.3503 12.9659 32.3104 12.949 32.2619C12.946 32.2524 12.6292 31.2848 11.9485 30.9716C11.6437 30.8313 11.3024 30.8442 10.9341 31.01C10.3362 31.2793 9.98527 31.7664 9.89118 32.4579C9.84819 32.7936 9.86258 33.1344 9.93369 33.465C9.94648 33.5158 9.93918 33.5698 9.91338 33.6151C9.88758 33.6604 9.8454 33.6932 9.79609 33.7065C9.78015 33.7107 9.76376 33.7128 9.74732 33.7127Z" fill="white"/>
<path d="M15.5402 31.8994C15.4999 31.8994 15.4607 31.8863 15.428 31.8621C15.3953 31.8378 15.3708 31.8036 15.3581 31.7643C15.2508 31.3958 15.2084 31.0105 15.2328 30.6265C15.2895 29.792 15.6898 29.1545 16.3905 28.7829C16.8493 28.5398 17.2946 28.4978 17.7143 28.659C18.5714 28.9877 18.995 30.0498 19.0126 30.0948C19.0311 30.1434 19.0302 30.1976 19.0102 30.2455C18.9901 30.2934 18.9525 30.3312 18.9055 30.3507C18.8585 30.3702 18.806 30.3698 18.7593 30.3496C18.7126 30.3294 18.6755 30.291 18.6561 30.2428C18.6523 30.2336 18.2764 29.2961 17.5788 29.0296C17.265 28.9097 16.9245 28.9452 16.5664 29.1351C15.9868 29.4424 15.6674 29.9494 15.6171 30.6423C15.5954 30.9783 15.6311 31.3157 15.7227 31.639C15.7323 31.6688 15.7348 31.7004 15.7302 31.7314C15.7255 31.7624 15.7138 31.7918 15.696 31.8172C15.6782 31.8426 15.6548 31.8633 15.6277 31.8776C15.6006 31.8919 15.5707 31.8994 15.5402 31.8994H15.5402Z" fill="white"/>
<path d="M15.0511 36.0418C13.7432 36.0418 12.7459 35.1449 12.6959 35.0994C12.6771 35.0821 12.6617 35.0612 12.6506 35.0378C12.6396 35.0144 12.6332 34.989 12.6317 34.963C12.6302 34.9371 12.6337 34.9111 12.6419 34.8865C12.6502 34.8619 12.6631 34.8393 12.6798 34.8198C12.6966 34.8004 12.7169 34.7845 12.7396 34.7732C12.7623 34.7618 12.7869 34.7552 12.8121 34.7536C12.8373 34.7521 12.8626 34.7557 12.8864 34.7642C12.9103 34.7727 12.9323 34.786 12.9511 34.8032C12.9642 34.8151 14.2812 35.9945 15.7641 35.5391C17.2399 35.086 17.6447 33.1552 17.6487 33.1358C17.6594 33.0849 17.6893 33.0404 17.7317 33.012C17.7741 32.9836 17.8256 32.9735 17.8752 32.984C17.9247 32.9946 17.9682 33.0248 17.9963 33.0681C18.0244 33.1115 18.0347 33.1645 18.0251 33.2157C17.9337 33.6156 17.7906 34.001 17.5996 34.3617C17.1776 35.1632 16.5811 35.7015 15.8739 35.9186C15.6069 36.0006 15.3297 36.0421 15.0511 36.0418V36.0418Z" fill="white"/>
<path d="M56.477 27.2289C56.4605 27.6588 56.4181 28.0872 56.35 28.5117C55.4235 34.3509 50.0806 38.3089 44.4132 37.3542C38.7479 36.4001 34.9041 30.8949 35.8307 25.0557C35.8898 24.6834 35.9678 24.3191 36.0602 23.9638C31.8568 21.0228 32.1023 15.3515 32.9081 14.7227C33.7219 14.086 34.6103 14.6225 34.5175 16.3837C34.422 18.9413 35.9503 21.0564 36.798 21.9777C38.7826 17.9012 43.1688 15.4385 47.7675 16.213C52.2306 16.9647 55.5599 20.5393 56.3223 24.8745C57.1542 24.5629 58.6234 23.6637 59.8137 21.1074C59.98 20.598 60.0259 20.2235 60.0347 19.998C60.0407 19.7872 60.1206 19.5859 60.2595 19.4312C60.5199 19.1507 60.9808 18.8531 61.5761 19.3101C61.7115 19.4144 61.8206 19.5506 61.8944 19.7073C61.9681 19.8641 62.0042 20.0367 61.9998 20.2108C61.9625 21.5923 60.8896 24.9536 56.477 27.2289Z" fill="#A62BF2"/>
<path d="M50.2943 29.1226C50.0319 30.7765 47.8242 31.7807 45.365 31.3665C42.9035 30.952 41.1211 29.2757 41.3835 27.6219C41.4335 27.3139 41.5503 27.0215 41.7252 26.7665C41.773 26.6975 41.8447 26.65 41.9255 26.6338C42.0063 26.6176 42.0901 26.6339 42.1595 26.6794C43.0407 27.2478 44.4353 27.749 46.0444 28.02C47.5253 28.2695 48.8957 28.2732 49.893 28.0783C49.9742 28.0622 50.0583 28.079 50.1278 28.1251C50.1974 28.1712 50.247 28.2431 50.2665 28.3258C50.3266 28.587 50.336 28.8577 50.2943 29.1226Z" fill="white"/>
<path d="M45.6279 25.8412C45.6001 25.8412 45.5725 25.835 45.5472 25.823C45.5219 25.8109 45.4994 25.7934 45.4813 25.7715C45.4633 25.7496 45.45 25.7239 45.4426 25.6963C45.4351 25.6686 45.4335 25.6396 45.438 25.6112C45.5025 25.2047 45.4076 24.7884 45.1742 24.4539C44.9408 24.1194 44.588 23.8942 44.1934 23.8277C43.7988 23.7613 43.3948 23.8591 43.0701 24.0995C42.7455 24.34 42.5269 24.7035 42.4624 25.1101C42.4542 25.1619 42.4263 25.2082 42.3849 25.2389C42.3435 25.2696 42.292 25.282 42.2417 25.2735C42.1914 25.2651 42.1465 25.2363 42.1167 25.1937C42.087 25.1511 42.0749 25.098 42.0831 25.0462C42.164 24.536 42.4384 24.0798 42.8458 23.778C43.2532 23.4762 43.7602 23.3535 44.2554 23.4369C44.7506 23.5203 45.1934 23.803 45.4863 24.2227C45.7792 24.6425 45.8983 25.1649 45.8174 25.6751C45.81 25.7214 45.7869 25.7635 45.7522 25.794C45.7176 25.8244 45.6735 25.8411 45.6279 25.8412V25.8412Z" fill="white"/>
<path d="M50.2378 26.6176C50.21 26.6176 50.1825 26.6114 50.1572 26.5993C50.1319 26.5872 50.1094 26.5697 50.0914 26.5478C50.0733 26.5259 50.0601 26.5003 50.0526 26.4726C50.0451 26.445 50.0435 26.416 50.048 26.3877C50.1109 25.9818 50.0151 25.5669 49.7817 25.2337C49.5482 24.9004 49.1961 24.6761 48.8025 24.6098C48.4088 24.5435 48.0057 24.6407 47.6814 24.88C47.3572 25.1193 47.1382 25.4812 47.0724 25.8865C47.0684 25.9123 47.0595 25.9369 47.0462 25.9591C47.0329 25.9813 47.0156 26.0005 46.995 26.0158C46.9745 26.031 46.9513 26.042 46.9267 26.0479C46.9021 26.0539 46.8766 26.0548 46.8516 26.0506C46.8266 26.0464 46.8027 26.0372 46.7813 26.0234C46.7598 26.0097 46.7411 25.9917 46.7264 25.9706C46.7117 25.9494 46.7011 25.9254 46.6954 25.9C46.6897 25.8746 46.6889 25.8484 46.693 25.8227C46.7754 25.3138 47.0501 24.8592 47.4572 24.5587C47.8642 24.2582 48.3702 24.1362 48.8644 24.2194C49.3586 24.3026 49.8006 24.5843 50.0936 25.0027C50.3865 25.4211 50.5065 25.9421 50.4273 26.4516C50.4199 26.4979 50.3969 26.54 50.3622 26.5704C50.3275 26.6009 50.2834 26.6176 50.2378 26.6176Z" fill="white"/>
</svg>
