<svg width="15" height="16" viewBox="0 0 15 16" fill="none" xmlns="http://www.w3.org/2000/svg">
<path d="M0.7335 11.2513C0.416453 10.7031 0.169999 10.1169 0 9.50683C0.369981 9.31866 0.680696 9.0318 0.897772 8.678C1.11485 8.3242 1.22982 7.91725 1.22998 7.50217C1.23013 7.08708 1.11546 6.68004 0.898652 6.32608C0.68184 5.97212 0.37134 5.68503 0.00150007 5.49658C0.340527 4.2707 0.986047 3.1513 1.87725 2.24383C2.22532 2.47013 2.62921 2.5957 3.04423 2.60667C3.45925 2.61763 3.86921 2.51356 4.22875 2.30596C4.58828 2.09836 4.88337 1.79533 5.08135 1.43041C5.27933 1.06549 5.37248 0.652914 5.3505 0.238332C6.58208 -0.0799514 7.87442 -0.0794351 9.10575 0.239832C9.08397 0.654406 9.1773 1.06692 9.37543 1.43174C9.57357 1.79655 9.86877 2.09944 10.2284 2.30688C10.588 2.51432 10.998 2.61822 11.413 2.6071C11.828 2.59597 12.2318 2.47024 12.5798 2.24383C13.014 2.68633 13.3995 3.18958 13.7235 3.75133C14.0483 4.31308 14.2913 4.89883 14.457 5.49583C14.087 5.68401 13.7763 5.97086 13.5592 6.32466C13.3422 6.67846 13.2272 7.08541 13.227 7.5005C13.2269 7.91558 13.3415 8.32262 13.5583 8.67658C13.7752 9.03054 14.0857 9.31763 14.4555 9.50608C14.1165 10.732 13.471 11.8514 12.5798 12.7588C12.2317 12.5325 11.8278 12.407 11.4128 12.396C10.9977 12.385 10.5878 12.4891 10.2283 12.6967C9.86872 12.9043 9.57364 13.2073 9.37566 13.5723C9.17768 13.9372 9.08452 14.3497 9.1065 14.7643C7.87492 15.0826 6.58258 15.0821 5.35125 14.7628C5.37304 14.3483 5.2797 13.9357 5.08157 13.5709C4.88343 13.2061 4.58823 12.9032 4.22863 12.6958C3.86903 12.4883 3.45904 12.3844 3.04404 12.3956C2.62905 12.4067 2.22522 12.5324 1.87725 12.7588C1.43399 12.3065 1.0497 11.8 0.7335 11.2513V11.2513ZM4.9785 11.3983C5.77772 11.8593 6.37863 12.5991 6.666 13.4758C7.04025 13.5111 7.416 13.5118 7.79025 13.4766C8.0778 12.5997 8.679 11.8599 9.4785 11.3991C10.2774 10.9368 11.2189 10.7859 12.1223 10.9753C12.3398 10.6693 12.5273 10.3431 12.6833 10.0018C12.0678 9.31441 11.7278 8.42399 11.7285 7.50133C11.7285 6.55633 12.081 5.67358 12.6833 5.00083C12.5261 4.65969 12.3378 4.33381 12.1208 4.02733C11.218 4.21656 10.2771 4.06594 9.4785 3.60433C8.67928 3.14336 8.07837 2.40357 7.791 1.52683C7.41675 1.49158 7.041 1.49083 6.66675 1.52608C6.3792 2.40294 5.778 3.14275 4.9785 3.60358C4.17959 4.06582 3.23811 4.21672 2.33475 4.02733C2.11767 4.33355 1.92985 4.65948 1.77375 5.00083C2.38918 5.68825 2.72916 6.57867 2.7285 7.50133C2.7285 8.44633 2.376 9.32908 1.77375 10.0018C1.93085 10.343 2.11915 10.6689 2.33625 10.9753C3.23904 10.7861 4.17991 10.9367 4.9785 11.3983ZM7.2285 9.75133C6.63176 9.75133 6.05947 9.51428 5.63751 9.09232C5.21555 8.67037 4.9785 8.09807 4.9785 7.50133C4.9785 6.90459 5.21555 6.3323 5.63751 5.91034C6.05947 5.48838 6.63176 5.25133 7.2285 5.25133C7.82524 5.25133 8.39753 5.48838 8.81949 5.91034C9.24145 6.3323 9.4785 6.90459 9.4785 7.50133C9.4785 8.09807 9.24145 8.67037 8.81949 9.09232C8.39753 9.51428 7.82524 9.75133 7.2285 9.75133ZM7.2285 8.25133C7.42741 8.25133 7.61818 8.17231 7.75883 8.03166C7.89948 7.89101 7.9785 7.70024 7.9785 7.50133C7.9785 7.30242 7.89948 7.11165 7.75883 6.971C7.61818 6.83035 7.42741 6.75133 7.2285 6.75133C7.02959 6.75133 6.83882 6.83035 6.69817 6.971C6.55752 7.11165 6.4785 7.30242 6.4785 7.50133C6.4785 7.70024 6.55752 7.89101 6.69817 8.03166C6.83882 8.17231 7.02959 8.25133 7.2285 8.25133V8.25133Z" fill="#767676"/>
</svg>
