<svg width="557" height="418" viewBox="0 0 557 418" fill="none" xmlns="http://www.w3.org/2000/svg">
<path d="M190.828 384.038C190.76 384.036 190.696 384.008 190.648 383.96C190.6 383.912 190.572 383.848 190.571 383.78V281.182C190.581 281.12 190.613 281.063 190.66 281.023C190.708 280.982 190.769 280.96 190.832 280.96C190.894 280.96 190.955 280.982 191.003 281.023C191.051 281.063 191.083 281.12 191.093 281.182V383.773C191.093 383.843 191.065 383.91 191.015 383.96C190.966 384.01 190.898 384.038 190.828 384.038Z" fill="black"/>
<path d="M158.007 278.437C157.949 278.437 157.893 278.418 157.848 278.383C157.803 278.347 157.77 278.298 157.756 278.242L147.814 240.19C147.797 240.122 147.807 240.051 147.842 239.991C147.877 239.931 147.935 239.887 148.002 239.869C148.069 239.852 148.141 239.863 148.2 239.898C148.26 239.933 148.304 239.99 148.322 240.057L158.258 278.109C158.275 278.177 158.264 278.248 158.229 278.308C158.194 278.368 158.137 278.412 158.07 278.43L158.007 278.437Z" fill="black"/>
<path d="M227.221 278.172H158.007C156.569 278.172 155.403 279.337 155.403 280.774C155.403 282.211 156.569 283.376 158.007 283.376H227.221C228.659 283.376 229.825 282.211 229.825 280.774C229.825 279.337 228.659 278.172 227.221 278.172Z" fill="#E4D0C0"/>
<path d="M143.503 209.963C143.024 208.101 141.126 206.981 139.265 207.46C137.403 207.94 136.284 209.839 136.763 211.702L147.762 254.403C148.242 256.266 150.14 257.386 152.001 256.906C153.862 256.426 154.982 254.528 154.502 252.665L143.503 209.963Z" fill="#E4D0C0"/>
<path d="M116.65 290.357C116.135 286.999 115.988 285.696 116.169 285.571C116.504 285.341 121.043 287.995 121.043 287.995C121.043 287.995 119.755 290.942 116.65 290.357Z" fill="black"/>
<path d="M194.915 65.5772H74.4569C72.1459 65.5772 70.2725 67.4518 70.2725 69.7642V157.551C70.2725 159.864 72.1459 161.738 74.4569 161.738H194.915C197.226 161.738 199.1 159.864 199.1 157.551V69.7642C199.1 67.4518 197.226 65.5772 194.915 65.5772Z" fill="white"/>
<path d="M188.579 84.861H137.725V122.425H188.579V84.861Z" fill="#F6EEE8"/>
<path d="M188.579 95.2622H180.106V122.425H188.579V95.2622Z" fill="#E4D0C0"/>
<path d="M180.106 95.2622H171.633V122.425H180.106V95.2622Z" fill="#E4D0C0"/>
<path d="M171.626 95.2622H163.152V122.425H171.626V95.2622Z" fill="#E4D0C0"/>
<path d="M163.152 95.2622H154.679V122.425H163.152V95.2622Z" fill="#E4D0C0"/>
<path d="M154.679 95.2622H146.206V122.425H154.679V95.2622Z" fill="#E4D0C0"/>
<path d="M146.199 95.2622H137.725V122.425H146.199V95.2622Z" fill="#E4D0C0"/>
<path d="M188.579 102.055H137.725V108.847H188.579V102.055Z" fill="#E4D0C0"/>
<path d="M188.579 108.847H137.725V115.64H188.579V108.847Z" fill="#E4D0C0"/>
<path d="M180.106 122.774C180.014 122.774 179.925 122.737 179.86 122.672C179.794 122.606 179.758 122.518 179.758 122.425V95.2553C179.758 95.1629 179.794 95.0743 179.86 95.009C179.925 94.9436 180.014 94.9069 180.106 94.9069C180.198 94.9069 180.287 94.9436 180.352 95.009C180.417 95.0743 180.454 95.1629 180.454 95.2553V122.425C180.454 122.518 180.417 122.606 180.352 122.672C180.287 122.737 180.198 122.774 180.106 122.774Z" fill="#F6EEE8"/>
<path d="M180.106 122.774C180.014 122.774 179.925 122.737 179.86 122.672C179.794 122.606 179.758 122.518 179.758 122.425V95.2553C179.758 95.1629 179.794 95.0743 179.86 95.009C179.925 94.9436 180.014 94.9069 180.106 94.9069C180.198 94.9069 180.287 94.9436 180.352 95.009C180.417 95.0743 180.454 95.1629 180.454 95.2553V122.425C180.454 122.518 180.417 122.606 180.352 122.672C180.287 122.737 180.198 122.774 180.106 122.774Z" fill="#F6EEE8"/>
<path d="M171.633 122.774C171.54 122.774 171.452 122.737 171.386 122.672C171.321 122.606 171.284 122.518 171.284 122.425V95.2553C171.284 95.1629 171.321 95.0743 171.386 95.009C171.452 94.9436 171.54 94.9069 171.633 94.9069C171.725 94.9069 171.813 94.9436 171.879 95.009C171.944 95.0743 171.981 95.1629 171.981 95.2553V122.425C171.981 122.518 171.944 122.606 171.879 122.672C171.813 122.737 171.725 122.774 171.633 122.774Z" fill="#F6EEE8"/>
<path d="M171.633 122.774C171.54 122.774 171.452 122.737 171.386 122.672C171.321 122.606 171.284 122.518 171.284 122.425V95.2553C171.284 95.1629 171.321 95.0743 171.386 95.009C171.452 94.9436 171.54 94.9069 171.633 94.9069C171.725 94.9069 171.813 94.9436 171.879 95.009C171.944 95.0743 171.981 95.1629 171.981 95.2553V122.425C171.981 122.518 171.944 122.606 171.879 122.672C171.813 122.737 171.725 122.774 171.633 122.774Z" fill="#F6EEE8"/>
<path d="M163.152 122.774C163.06 122.774 162.971 122.737 162.906 122.672C162.841 122.606 162.804 122.518 162.804 122.425V95.2553C162.804 95.1629 162.841 95.0743 162.906 95.009C162.971 94.9436 163.06 94.9069 163.152 94.9069C163.245 94.9069 163.333 94.9436 163.398 95.009C163.464 95.0743 163.5 95.1629 163.5 95.2553V122.425C163.5 122.518 163.464 122.606 163.398 122.672C163.333 122.737 163.245 122.774 163.152 122.774Z" fill="#F6EEE8"/>
<path d="M154.679 122.774C154.587 122.774 154.498 122.737 154.433 122.672C154.367 122.606 154.331 122.518 154.331 122.425V95.2553C154.331 95.1629 154.367 95.0743 154.433 95.009C154.498 94.9436 154.587 94.9069 154.679 94.9069C154.771 94.9069 154.86 94.9436 154.925 95.009C154.99 95.0743 155.027 95.1629 155.027 95.2553V122.425C155.027 122.518 154.99 122.606 154.925 122.672C154.86 122.737 154.771 122.774 154.679 122.774Z" fill="#F6EEE8"/>
<path d="M163.152 122.774C163.06 122.774 162.971 122.737 162.906 122.672C162.841 122.606 162.804 122.518 162.804 122.425V95.2553C162.804 95.1629 162.841 95.0743 162.906 95.009C162.971 94.9436 163.06 94.9069 163.152 94.9069C163.245 94.9069 163.333 94.9436 163.398 95.009C163.464 95.0743 163.5 95.1629 163.5 95.2553V122.425C163.5 122.518 163.464 122.606 163.398 122.672C163.333 122.737 163.245 122.774 163.152 122.774Z" fill="#F6EEE8"/>
<path d="M146.213 122.774C146.12 122.774 146.032 122.737 145.966 122.672C145.901 122.606 145.864 122.518 145.864 122.425V95.2553C145.864 95.1629 145.901 95.0743 145.966 95.009C146.032 94.9436 146.12 94.9069 146.213 94.9069C146.305 94.9069 146.393 94.9436 146.459 95.009C146.524 95.0743 146.561 95.1629 146.561 95.2553V122.425C146.561 122.518 146.524 122.606 146.459 122.672C146.393 122.737 146.305 122.774 146.213 122.774Z" fill="#F6EEE8"/>
<path d="M154.679 122.774C154.587 122.774 154.498 122.737 154.433 122.672C154.367 122.606 154.331 122.518 154.331 122.425V95.2553C154.331 95.1629 154.367 95.0743 154.433 95.009C154.498 94.9436 154.587 94.9069 154.679 94.9069C154.771 94.9069 154.86 94.9436 154.925 95.009C154.99 95.0743 155.027 95.1629 155.027 95.2553V122.425C155.027 122.518 154.99 122.606 154.925 122.672C154.86 122.737 154.771 122.774 154.679 122.774Z" fill="#F6EEE8"/>
<path d="M146.213 122.774C146.12 122.774 146.032 122.737 145.966 122.672C145.901 122.606 145.864 122.518 145.864 122.425V95.2553C145.864 95.1629 145.901 95.0743 145.966 95.009C146.032 94.9436 146.12 94.9069 146.213 94.9069C146.305 94.9069 146.393 94.9436 146.459 95.009C146.524 95.0743 146.561 95.1629 146.561 95.2553V122.425C146.561 122.518 146.524 122.606 146.459 122.672C146.393 122.737 146.305 122.774 146.213 122.774Z" fill="#F6EEE8"/>
<path d="M188.579 102.41H137.753C137.661 102.41 137.572 102.373 137.507 102.308C137.442 102.243 137.405 102.154 137.405 102.062C137.405 101.969 137.442 101.881 137.507 101.815C137.572 101.75 137.661 101.713 137.753 101.713H188.579C188.672 101.713 188.76 101.75 188.825 101.815C188.891 101.881 188.927 101.969 188.927 102.062C188.927 102.154 188.891 102.243 188.825 102.308C188.76 102.373 188.672 102.41 188.579 102.41Z" fill="#F6EEE8"/>
<path d="M188.579 109.196H137.753C137.661 109.196 137.572 109.159 137.507 109.094C137.442 109.028 137.405 108.94 137.405 108.847C137.405 108.755 137.442 108.666 137.507 108.601C137.572 108.536 137.661 108.499 137.753 108.499H188.579C188.672 108.499 188.76 108.536 188.825 108.601C188.891 108.666 188.927 108.755 188.927 108.847C188.927 108.94 188.891 109.028 188.825 109.094C188.76 109.159 188.672 109.196 188.579 109.196Z" fill="#F6EEE8"/>
<path d="M188.579 109.196H137.753C137.661 109.196 137.572 109.159 137.507 109.094C137.442 109.028 137.405 108.94 137.405 108.847C137.405 108.755 137.442 108.666 137.507 108.601C137.572 108.536 137.661 108.499 137.753 108.499H188.579C188.672 108.499 188.76 108.536 188.825 108.601C188.891 108.666 188.927 108.755 188.927 108.847C188.927 108.94 188.891 109.028 188.825 109.094C188.76 109.159 188.672 109.196 188.579 109.196Z" fill="#F6EEE8"/>
<path d="M188.579 115.981H137.753C137.661 115.981 137.572 115.944 137.507 115.879C137.442 115.814 137.405 115.725 137.405 115.633C137.405 115.54 137.442 115.452 137.507 115.386C137.572 115.321 137.661 115.284 137.753 115.284H188.579C188.672 115.284 188.76 115.321 188.825 115.386C188.891 115.452 188.927 115.54 188.927 115.633C188.927 115.725 188.891 115.814 188.825 115.879C188.76 115.944 188.672 115.981 188.579 115.981Z" fill="#F6EEE8"/>
<path d="M135.177 175.637C134.244 175.943 132.998 175.246 133.088 173.547C133.179 171.847 133.193 168.196 132.427 167.277C132.427 167.277 136.075 165.974 138.853 166.489C138.853 166.489 139.549 174.153 135.372 175.602" fill="black"/>
<path d="M83.9051 144.969C82.4012 142.559 85.5482 139.563 87.1218 136.484C87.9366 134.719 88.4744 132.839 88.7162 130.911L93.8893 142.273C93.8893 142.273 86.9129 149.783 83.9051 144.969Z" fill="black"/>
<path d="M116.469 110.526C115.376 111.111 108.023 114.964 102.411 117.911L95.8596 121.345C94.4671 119.437 92.9493 116.977 91.3479 114.288C85.5551 104.535 79.1636 91.8346 79.1636 91.8346C79.1636 91.8346 90.1991 86.108 100.309 81.4961C108.476 97.603 116.469 110.526 116.469 110.526Z" fill="#EA4338"/>
<path d="M99.8422 133.063C98.0724 137.549 95.8368 141.836 93.1722 145.854C89.6491 137.982 83.5917 121.784 82.979 119.457C82.0739 116.072 82.6657 113.034 85.3045 107.266C87.1565 103.211 87.8598 103.051 91.5151 101.191C95.1704 99.3307 98.018 97.9653 98.2757 98.3484C98.8327 99.1635 98.1851 100.508 92.4132 104.207C94.6845 103.763 96.992 103.53 99.3061 103.511C101.095 103.441 99.508 105.496 98.2409 105.705C99.7517 106.193 98.1503 108.157 96.6255 108.61C98.2757 108.791 97.7395 110.199 95.7761 111.397C94.676 112.052 92.9076 113.208 92.1696 113.696H92.093L91.348 114.337C92.9493 117.026 94.502 119.485 95.8597 121.394L99.5846 119.443L100.497 121.533C101.468 125.353 101.24 129.379 99.8422 133.063Z" fill="#FFC36C"/>
<path d="M122.805 120.293C123.264 116.427 125.464 115.34 127.462 115.828C130.053 116.462 128.855 110.505 136.737 113.424L136.124 120.44L122.805 120.293Z" fill="#C15D31"/>
<path d="M144.737 98.9964C142.119 96.0216 136.751 96.0077 133.854 99.6025C131.306 102.758 131.974 107.656 134.209 111.502C134.202 111.502 148.914 103.741 144.737 98.9964Z" fill="#C15D31"/>
<path d="M139.341 118.183C152.959 118.496 160.005 117.702 164.169 126.278C168.332 134.854 177.3 157.37 174.661 162.7C172.023 168.029 138.707 175.644 135.177 175.644C135.177 175.644 137.447 173.665 137.663 171.756C137.969 168.97 138.839 162.825 134.69 153.204L123.758 161.738H114.958V153.713C114.958 153.713 112.57 159.53 110.001 162.073C107.961 164.065 100.552 164.023 97.3706 161.007C94.1888 157.99 84.678 146.948 83.9121 144.983C83.9121 144.983 85.6806 145.75 88.396 144.51C91.1113 143.27 101.562 126.556 100.497 121.471L104.514 133.697C104.514 133.697 107.877 127.295 109.492 124.898C111.929 121.283 117.339 118.691 124.357 118.426C131.591 118.148 132.914 118.036 139.341 118.183Z" fill="#B7AD7A"/>
<path d="M137.955 167.709C134.251 167.757 131.689 168.614 130.916 169.868C129.539 172.485 128.352 175.197 127.365 177.984C126.557 180.318 125.68 183.662 124.19 182.986C123.738 184.874 122.101 185.028 121.927 182.478C121.927 182.478 120.66 184.206 119.79 183.871C118.335 183.279 118.397 176.361 118.397 176.361C118.397 176.361 116.615 178.981 115.863 178.793C115.111 178.604 114.422 177.991 117.172 170.858C118.332 167.74 119.687 164.698 121.231 161.752C122.24 159.752 123.571 157.933 125.172 156.367C128.389 153.448 131.515 153.58 134.683 153.218C137.419 159.537 137.983 164.351 137.955 167.709Z" fill="#FFC36C"/>
<path d="M143.727 118.712C143.727 118.712 143.351 120.502 143.079 122.425C143.038 122.676 143.003 122.92 142.975 123.171C142.648 125.86 139.953 127.058 137.266 126.173C134.578 125.289 133.784 123.519 134.188 122.056C134.592 120.593 135.657 113.647 135.657 113.647C131.556 113.647 132.308 107.74 135.49 109.53C135.894 108.994 136.114 108.341 136.117 107.67C135.553 103.978 136.59 100.703 137.732 100.703C138.387 100.703 140.559 101.811 142.648 100.703C144.736 99.5955 144.736 98.9963 144.736 98.9963C144.736 98.9963 147.111 101.26 148.789 107.76C150.467 114.26 149.144 118.942 143.727 118.712Z" fill="#FFC36C"/>
<path d="M143.727 118.712C143.727 118.712 143.351 120.502 143.079 122.425C141.019 121.085 139.53 119.027 138.902 116.65C140.319 117.719 141.975 118.426 143.727 118.712V118.712Z" fill="black"/>
<path d="M145.015 112.902C144.154 112.902 143.305 112.699 142.536 112.31C142.487 112.273 142.452 112.219 142.438 112.159C142.423 112.099 142.431 112.036 142.458 111.981C142.485 111.926 142.531 111.882 142.587 111.856C142.643 111.831 142.707 111.826 142.766 111.843C143.649 112.289 144.645 112.464 145.628 112.344C145.697 112.338 145.766 112.359 145.819 112.404C145.873 112.448 145.907 112.512 145.913 112.581C145.92 112.651 145.898 112.72 145.854 112.773C145.809 112.827 145.746 112.861 145.676 112.867C145.474 112.86 145.259 112.902 145.015 112.902Z" fill="black"/>
<path d="M135.685 111.766C135.653 111.773 135.62 111.773 135.588 111.766L134.112 111.146C134.048 111.119 133.997 111.068 133.971 111.004C133.945 110.94 133.946 110.869 133.972 110.805C133.999 110.741 134.05 110.691 134.114 110.664C134.178 110.638 134.25 110.639 134.314 110.666L135.79 111.286C135.849 111.305 135.899 111.346 135.93 111.4C135.961 111.454 135.972 111.518 135.96 111.579C135.948 111.64 135.915 111.695 135.865 111.734C135.816 111.772 135.754 111.791 135.692 111.787L135.685 111.766Z" fill="black"/>
<path d="M140.253 106.646C140.216 106.654 140.178 106.654 140.141 106.646C140.079 106.616 140.031 106.562 140.008 106.497C139.984 106.432 139.987 106.36 140.016 106.297C140.712 104.807 141.847 104.061 142.564 104.117C142.632 104.124 142.694 104.157 142.738 104.209C142.782 104.261 142.805 104.327 142.801 104.395C142.798 104.429 142.789 104.462 142.774 104.493C142.758 104.523 142.737 104.55 142.711 104.572C142.685 104.594 142.655 104.611 142.623 104.621C142.59 104.631 142.556 104.635 142.522 104.632C142.084 104.584 141.13 105.169 140.482 106.513C140.459 106.554 140.426 106.587 140.385 106.61C140.345 106.634 140.299 106.646 140.253 106.646Z" fill="black"/>
<path d="M146.783 111.146C146.732 111.144 146.682 111.127 146.641 111.097C146.599 111.066 146.567 111.025 146.548 110.977C146.53 110.929 146.526 110.876 146.537 110.826C146.547 110.776 146.573 110.73 146.609 110.693C146.776 110.533 147.243 109.997 147.152 109.627C147.007 109.366 146.819 109.13 146.595 108.931C145.673 108.13 145.04 107.048 144.792 105.852C144.7 105.128 144.895 104.398 145.335 103.817C145.55 103.526 145.821 103.281 146.132 103.095C146.443 102.91 146.787 102.788 147.145 102.737C147.214 102.728 147.283 102.747 147.338 102.788C147.393 102.83 147.429 102.892 147.438 102.96C147.447 103.029 147.429 103.098 147.387 103.153C147.345 103.208 147.283 103.244 147.215 103.253C146.924 103.294 146.645 103.393 146.392 103.544C146.14 103.695 145.92 103.894 145.746 104.131C145.385 104.601 145.225 105.194 145.3 105.782C145.533 106.869 146.118 107.848 146.964 108.569C147.266 108.813 147.505 109.126 147.661 109.481C147.849 110.227 147.055 110.979 146.964 111.063C146.941 111.088 146.913 111.108 146.882 111.123C146.851 111.137 146.818 111.145 146.783 111.146V111.146Z" fill="black"/>
<path d="M143.007 108.341C143.235 108.23 143.263 107.817 143.07 107.419C142.877 107.021 142.535 106.788 142.307 106.899C142.079 107.01 142.05 107.423 142.244 107.821C142.437 108.219 142.778 108.452 143.007 108.341Z" fill="black"/>
<path d="M147.111 107.101C147.339 106.99 147.367 106.578 147.174 106.179C146.981 105.781 146.639 105.549 146.411 105.66C146.183 105.771 146.154 106.183 146.347 106.581C146.541 106.979 146.882 107.212 147.111 107.101Z" fill="black"/>
<path d="M114.958 153.963C114.919 153.972 114.878 153.972 114.839 153.963C114.778 153.932 114.732 153.878 114.71 153.813C114.688 153.748 114.692 153.677 114.721 153.615C116.698 149.602 121.168 140.176 121.21 140.079C121.245 140.026 121.298 139.988 121.359 139.971C121.42 139.954 121.485 139.959 121.543 139.986C121.6 140.013 121.646 140.06 121.672 140.118C121.697 140.176 121.702 140.241 121.684 140.302C121.642 140.399 117.165 149.825 115.188 153.845C115.163 153.883 115.128 153.913 115.088 153.934C115.048 153.955 115.003 153.965 114.958 153.963V153.963Z" fill="black"/>
<path d="M106.464 139.103C106.414 139.103 106.365 139.088 106.323 139.061C106.281 139.034 106.248 138.995 106.227 138.95C106.227 138.95 105.398 137.083 104.27 133.774C104.261 133.712 104.273 133.649 104.305 133.595C104.337 133.542 104.388 133.501 104.447 133.481C104.506 133.461 104.571 133.463 104.629 133.486C104.687 133.509 104.735 133.552 104.765 133.607C105.886 136.895 106.7 138.72 106.707 138.741C106.736 138.805 106.738 138.877 106.713 138.943C106.688 139.008 106.639 139.061 106.575 139.09C106.539 139.102 106.501 139.107 106.464 139.103V139.103Z" fill="black"/>
<path d="M134.683 153.462C134.613 153.462 134.547 153.434 134.498 153.385C134.449 153.336 134.422 153.27 134.422 153.2C134.422 153.131 134.449 153.065 134.498 153.016C134.547 152.967 134.613 152.939 134.683 152.939C137.628 152.598 141.499 152.243 145.245 151.95C151.038 151.455 157.603 150.898 158.237 150.445C158.265 150.425 158.296 150.411 158.33 150.403C158.363 150.395 158.398 150.394 158.432 150.399C158.466 150.404 158.498 150.417 158.527 150.435C158.557 150.453 158.582 150.476 158.602 150.504C158.622 150.532 158.637 150.564 158.645 150.597C158.653 150.631 158.654 150.666 158.648 150.699C158.643 150.733 158.631 150.766 158.613 150.795C158.595 150.825 158.571 150.85 158.543 150.87C157.847 151.379 153.043 151.811 145.314 152.465C141.575 152.786 137.704 153.113 134.766 153.448L134.683 153.462Z" fill="black"/>
<path d="M154.317 151.636H154.254C154.187 151.618 154.13 151.575 154.095 151.515C154.059 151.455 154.049 151.383 154.066 151.316C156.928 139.842 157.547 136.749 157.547 134.763C157.541 134.725 157.543 134.687 157.554 134.65C157.564 134.613 157.582 134.578 157.607 134.549C157.632 134.52 157.663 134.496 157.697 134.48C157.732 134.464 157.77 134.456 157.808 134.456C157.847 134.456 157.885 134.464 157.92 134.48C157.954 134.496 157.985 134.52 158.01 134.549C158.035 134.578 158.053 134.613 158.063 134.65C158.074 134.687 158.076 134.725 158.07 134.763C158.125 136.853 157.506 139.793 154.588 151.483C154.566 151.535 154.527 151.578 154.478 151.606C154.429 151.633 154.373 151.644 154.317 151.636V151.636Z" fill="black"/>
<path d="M124.19 183.223C123.898 183.223 123.292 183.154 123.946 171.944C123.947 171.91 123.955 171.875 123.97 171.844C123.985 171.812 124.006 171.784 124.032 171.761C124.058 171.738 124.089 171.721 124.122 171.71C124.155 171.7 124.19 171.697 124.225 171.701C124.259 171.702 124.293 171.711 124.324 171.726C124.355 171.741 124.383 171.762 124.406 171.788C124.428 171.814 124.446 171.845 124.456 171.877C124.467 171.91 124.471 171.945 124.469 171.979C124.19 176.751 124.058 182.088 124.343 182.75C124.388 182.781 124.422 182.826 124.44 182.878C124.459 182.93 124.46 182.987 124.445 183.04C124.429 183.093 124.398 183.139 124.355 183.174C124.312 183.208 124.259 183.228 124.204 183.23L124.19 183.223Z" fill="black"/>
<path d="M121.927 182.743C121.865 182.742 121.805 182.719 121.758 182.678C121.711 182.637 121.679 182.581 121.67 182.52C121.12 178.695 120.932 172.982 121.67 169.917C121.686 169.85 121.729 169.791 121.788 169.756C121.848 169.72 121.919 169.709 121.986 169.725C122.054 169.742 122.112 169.785 122.148 169.844C122.184 169.904 122.195 169.975 122.178 170.042C121.482 173.045 121.635 178.674 122.178 182.45C122.183 182.484 122.181 182.518 122.172 182.552C122.164 182.585 122.149 182.616 122.128 182.643C122.107 182.67 122.081 182.693 122.051 182.71C122.022 182.727 121.989 182.738 121.955 182.743H121.927Z" fill="black"/>
<path d="M118.397 176.605C118.363 176.605 118.33 176.598 118.299 176.585C118.267 176.572 118.239 176.553 118.215 176.529C118.191 176.506 118.172 176.477 118.159 176.446C118.146 176.415 118.14 176.381 118.14 176.347C118.14 173.163 118.919 168.893 119.623 167.207C119.636 167.175 119.655 167.147 119.68 167.123C119.704 167.099 119.733 167.08 119.764 167.067C119.796 167.054 119.83 167.047 119.864 167.047C119.898 167.047 119.932 167.054 119.964 167.068C119.995 167.081 120.024 167.1 120.048 167.125C120.072 167.149 120.091 167.178 120.104 167.209C120.117 167.241 120.124 167.275 120.123 167.309C120.123 167.344 120.116 167.377 120.103 167.409C119.165 170.296 118.679 173.311 118.662 176.347C118.663 176.382 118.657 176.416 118.644 176.448C118.632 176.48 118.613 176.509 118.589 176.534C118.565 176.559 118.536 176.578 118.504 176.592C118.473 176.605 118.439 176.612 118.404 176.612L118.397 176.605Z" fill="black"/>
<path d="M88.6535 106.074C88.5942 106.078 88.5353 106.062 88.4869 106.027C88.4385 105.992 88.4036 105.942 88.388 105.885C88.3724 105.827 88.3772 105.766 88.4015 105.712C88.4258 105.658 88.4681 105.613 88.5212 105.587C89.7288 104.891 91.0204 104.352 92.3645 103.984C92.3984 103.979 92.433 103.979 92.4666 103.987C92.5001 103.994 92.5318 104.008 92.56 104.028C92.5881 104.048 92.612 104.073 92.6305 104.102C92.6489 104.131 92.6615 104.163 92.6674 104.197C92.6733 104.231 92.6726 104.266 92.6651 104.299C92.6577 104.333 92.6437 104.364 92.624 104.392C92.6042 104.421 92.5792 104.445 92.5502 104.463C92.5212 104.482 92.4889 104.494 92.455 104.5C91.1708 104.862 89.936 105.382 88.7788 106.047C88.7401 106.066 88.697 106.076 88.6535 106.074V106.074Z" fill="black"/>
<path d="M88.932 109.189C88.8679 109.197 88.8028 109.182 88.7496 109.145C88.6965 109.108 88.6592 109.052 88.6452 108.989C88.6311 108.926 88.6414 108.86 88.6739 108.804C88.7064 108.748 88.7587 108.706 88.8206 108.687C89.1269 108.548 96.4236 105.204 98.2687 105.447C98.3032 105.451 98.3368 105.461 98.3672 105.478C98.3977 105.495 98.4245 105.517 98.4459 105.545C98.4674 105.572 98.4831 105.603 98.4921 105.637C98.5011 105.671 98.5033 105.706 98.4984 105.74C98.4897 105.809 98.4541 105.872 98.3994 105.915C98.3447 105.958 98.2752 105.978 98.206 105.97C96.8135 105.782 91.1112 108.22 89.0364 109.168C89.0034 109.182 88.9678 109.189 88.932 109.189V109.189Z" fill="black"/>
<path d="M89.1618 112.163C89.1025 112.167 89.0436 112.151 88.9952 112.116C88.9469 112.081 88.9119 112.031 88.8963 111.974C88.8807 111.916 88.8855 111.855 88.9098 111.801C88.9341 111.747 88.9764 111.702 89.0295 111.676C91.9329 110.032 95.1496 108.297 96.6326 108.36C96.7015 108.363 96.7663 108.394 96.8132 108.444C96.86 108.495 96.8851 108.562 96.8832 108.631C96.8824 108.666 96.8746 108.7 96.8604 108.731C96.8461 108.762 96.8258 108.791 96.8004 108.814C96.7751 108.837 96.7454 108.856 96.713 108.867C96.6805 108.879 96.6461 108.884 96.6117 108.882C95.1774 108.798 91.3341 110.972 89.2872 112.136C89.2484 112.155 89.2053 112.165 89.1618 112.163V112.163Z" fill="black"/>
<path d="M91.8354 125.4C91.7897 125.4 91.7447 125.388 91.7051 125.366C91.6655 125.343 91.6326 125.31 91.61 125.27C91.5873 125.23 91.5756 125.185 91.576 125.14C91.5765 125.094 91.5891 125.049 91.6126 125.01C93.0051 122.565 91.6126 119.527 90.798 117.897L90.6448 117.576C89.8371 115.849 90.0878 114.915 91.6822 113.71C91.7378 113.681 91.802 113.673 91.8632 113.686C91.9244 113.7 91.9786 113.736 92.0163 113.786C92.054 113.836 92.0725 113.898 92.0687 113.961C92.0649 114.023 92.039 114.083 91.9955 114.128C90.4986 115.257 90.4638 115.953 91.1182 117.353L91.2714 117.674C92.093 119.395 93.6247 122.592 92.0651 125.275C92.0415 125.314 92.0078 125.347 91.9674 125.369C91.9269 125.391 91.8814 125.402 91.8354 125.4V125.4Z" fill="black"/>
<path d="M199.1 129.998H179.347V143.827H199.1V129.998Z" fill="#E4D0C0"/>
<path d="M178.01 169.241C175.149 171.756 174.856 173.797 175.086 174.947C175.316 176.096 178.637 177.908 178.205 180.667C177.773 183.425 171.333 199.477 171.333 199.477C171.333 199.477 160.458 200.87 160.325 195.102C160.325 193.708 161.718 196.321 163.911 195.554C166.104 194.788 165.443 193.701 163.285 192.454C161.126 191.207 160.708 189.702 163.285 187.87C166.473 185.62 168.973 184.7 168.472 182.826C167.97 180.952 161.683 180.959 160.674 177.309C159.887 174.473 161.76 169.395 166.383 165.424C170.86 161.585 175.121 160.003 176.827 162.525L178.01 169.241Z" fill="black"/>
<path d="M178.693 170.927C175.692 169.457 174.675 166.051 175.908 161.613C176.813 158.401 179.208 155.796 182.424 155.398C185.126 155.064 189.004 154.702 191.058 155.203C193.662 155.796 194.135 157.461 193.091 158.736C192.256 159.753 192.471 160.93 194.163 161.738C195.855 162.546 197.352 164.525 192.423 168.475C187.765 172.223 178.693 170.927 178.693 170.927Z" fill="black"/>
<path d="M149.603 330.276C149.736 340.928 145.781 349.532 143.428 355.586C143.428 355.586 143.936 358.714 142.529 368.404C141.123 378.095 139.918 383.034 139.744 384.79C139.57 386.546 139.299 388.74 139.619 389.06C139.939 389.381 141.165 390.266 141.102 390.962C141.039 391.659 140.782 392.356 138.902 392.356C137.022 392.356 134.954 391.924 134.634 390.503C134.314 389.081 134.14 378.172 134.14 377.823C134.14 377.823 130.818 388.392 130.951 389.256C131.006 389.632 133.158 391.561 130.951 392.042C128.744 392.523 127.47 392.237 127.121 392.042C126.7 391.663 126.371 391.192 126.16 390.665C125.948 390.139 125.861 389.571 125.903 389.005C126.021 387.465 127.386 380.728 127.734 376.98C128.082 373.232 128.166 367.749 127.351 364.963C126.792 363.292 126.441 361.558 126.307 359.8C126.307 359.8 124.977 358.728 124.51 359.598C124.044 360.469 121.802 365.443 114.269 372.25C105.482 380.199 96.7649 383.794 91.6962 380.61C89.9904 379.53 88.2149 376.716 99.4454 372.71C107.515 369.839 112.249 365.806 118.014 359.18C123.779 352.555 129.767 341.29 131.355 334.421C132.573 329.168 130.338 319.672 127.644 312.768C125.852 308.227 123.679 303.846 121.148 299.671C120.507 298.57 118.418 296.62 116.594 293.345C114.77 290.071 113.732 288.169 113.983 287.911C114.505 287.375 118.648 288.942 118.648 288.942C120.82 286.657 124.998 283.369 129.175 284.344C129.485 284.415 129.79 284.505 130.087 284.616C130.7 284.822 131.264 285.152 131.744 285.585C133.137 286.873 132.852 288.671 132.441 289.82C131.877 291.43 132.817 292.67 133.938 293.408C135.059 294.147 139.153 294.397 140.622 293.603C142.091 292.809 145.119 290.301 148.051 284.965C150.982 279.628 152.138 277.399 153.488 277.998C153.878 277.218 156.176 277.029 156.169 282.436C156.169 288.706 153.384 301.991 145.795 310.581C148.148 316.889 149.435 323.545 149.603 330.276V330.276Z" fill="#B8C1D0"/>
<path d="M240.728 234.338C245.303 233 244.043 228.172 242.204 216.385L234.964 221.059C234.964 221.059 236.105 235.689 240.728 234.338Z" fill="black"/>
<path d="M235.117 198.257C239.35 196.864 236.864 186.219 237.15 182.394L230.793 185.181C230.793 185.181 229.393 200.117 235.117 198.257Z" fill="black"/>
<path d="M233.306 361.034C232.561 363.507 224.882 361.73 217.989 354.701L224.025 347.581C224.025 347.581 235.465 353.872 233.306 361.034Z" fill="black"/>
<path d="M260.112 361.34C260.941 365.52 270.96 361.647 278.166 363.716L275.625 351.622C275.625 351.622 258.552 353.489 260.112 361.34Z" fill="black"/>
<path d="M312.226 392.349H278.396C277.549 390.262 277.041 388.054 276.892 385.807C276.892 385.807 276.892 385.73 276.892 385.696C276.314 380.281 275.456 374.9 274.322 369.575C273.626 366.502 271.342 356.129 271.342 356.129C266.977 357.244 259.889 358.337 260.098 361.34C259.854 359.055 256.874 330.624 255.44 315.806C253.943 300.361 253.101 289.632 253.101 289.632C250.26 299.532 239.176 338.956 236.669 347.978C234.163 357 233.292 361.034 233.292 361.034C233.48 356.617 223.997 351.642 223.997 351.642C223.997 351.642 220.899 355.864 216.199 364.698C211.5 373.532 211.416 382.644 211.604 383.585C211.675 383.868 211.776 384.144 211.904 384.407C212.57 385.875 213.432 387.246 214.466 388.482C215.239 389.179 219.298 391.192 218.734 391.659C218.17 392.126 211.695 392.223 210.1 391.192C208.506 390.161 193.759 378.13 191.225 375.97C188.691 373.81 187.744 372.612 192.325 365.367L192.45 365.165C197.143 357.745 201.648 346.564 203.242 342.621C203.305 342.46 203.409 342.203 203.542 341.854C206.626 333.794 226.908 278.172 226.908 278.172H190.584C181.102 278.172 174.341 276.389 170.769 271.505C167.518 267.046 164.343 256.178 163.953 237.368C163.953 236.288 163.953 235.181 163.953 234.045C163.953 233.272 163.953 232.485 163.953 231.69C163.953 231.37 163.953 231.043 163.953 230.722C164.322 208.909 170.915 194.837 170.915 194.837C175.49 191.312 184.047 188.344 187.368 189.8C190.689 191.256 193.857 196.899 199.392 205.203C204.927 213.507 210.156 222.32 211.368 222.174C212.579 222.028 223.844 213.563 228.676 210.191C230.974 208.589 234.706 206.248 238.479 203.921C242.566 201.413 246.709 198.94 249.118 197.477L249.25 197.394C253.832 194.607 256.547 193.973 260.175 196C263.802 198.027 273.055 204.311 276.321 206.074C279.586 207.837 281.807 208.861 281.891 209.557C281.974 210.254 280.387 210.818 278.173 210.254C275.959 209.69 267.652 205.426 267.353 205.426C268.319 206.504 269.344 207.527 270.423 208.491C271.983 209.885 272.387 212.671 269.414 213.995C269.176 214.387 268.845 214.714 268.45 214.948C268.055 215.181 267.609 215.313 267.151 215.333C267.151 215.333 267.353 217.053 263.426 217.207C259.499 217.36 258.295 217.207 258.246 216.447C258.197 215.688 261.727 214.887 263.816 214.434C263.816 214.434 261.553 212.17 261.149 211.815C260.746 211.459 256.874 209.251 255.461 209.028C254.048 208.805 252.495 209.78 250.782 211.292C250.58 211.466 250.246 211.773 249.807 212.177C246.514 215.2 237.505 223.623 237.505 223.623C237.505 223.623 237.755 229.893 238.305 231.628C238.855 233.362 239.816 234.247 240.721 234.352C240.721 234.352 234.455 236.261 227.388 238.88C220.321 241.499 213.811 243.583 208.924 243.158C203.674 242.705 201.209 240.872 192.569 229.566C192.569 229.566 192.464 230.018 192.311 230.715C192.311 230.827 192.262 230.945 192.235 231.063C192.179 231.3 192.123 231.565 192.061 231.837L191.866 232.694L191.698 233.474C191.629 233.815 191.552 234.171 191.49 234.477C191.427 234.784 191.399 234.909 191.357 235.118C191.288 235.466 191.225 235.815 191.176 236.079L191.114 236.435C191.114 236.553 191.072 236.665 191.058 236.762C191.044 236.86 191.058 236.922 191.058 236.992C191.055 237.034 191.055 237.076 191.058 237.117C191.055 237.155 191.055 237.192 191.058 237.229C191.055 237.259 191.055 237.289 191.058 237.319C191.055 237.333 191.055 237.348 191.058 237.361C191.288 238.56 200.429 248.125 200.805 248.257C201.181 248.39 212.823 247.909 226.469 247.909C240.116 247.909 243.437 248.041 248.582 248.041C255.064 248.041 259.854 253.099 260.286 256.687C269.497 256.074 274.907 257.969 278.57 269.039C281.006 276.444 282.838 293.338 284.613 302.932C286.388 312.525 290.615 338.726 291.652 345.122C291.917 346.752 292.293 349.225 292.731 352.088C294.026 360.407 295.837 371.929 296.832 374.925C297.911 378.158 300.613 383.285 303.648 386.26C304.315 386.937 305.075 387.516 305.904 387.981C309.72 390.015 312.178 390.537 312.226 392.349Z" fill="#F09400"/>
<path d="M218.748 391.659C218.184 392.133 211.709 392.223 210.114 391.192C208.52 390.161 193.773 378.13 191.239 375.97C188.705 373.81 187.758 372.612 192.339 365.367L192.464 365.165C197.157 357.745 201.662 346.564 203.256 342.621C203.319 342.46 203.423 342.203 203.556 341.854C210.052 342.3 219.757 348.891 224.011 351.608C224.011 351.608 220.913 355.829 216.213 364.663C211.514 373.497 211.43 382.609 211.618 383.55C211.689 383.833 211.79 384.109 211.918 384.372C212.584 385.84 213.446 387.211 214.48 388.447C215.253 389.2 219.319 391.192 218.748 391.659Z" fill="#C15D31"/>
<path d="M312.226 392.349H278.396C277.549 390.262 277.041 388.054 276.892 385.807C276.892 385.807 276.892 385.73 276.892 385.696C276.314 380.281 275.456 374.9 274.322 369.575C273.626 366.502 271.343 356.129 271.343 356.129C275.959 354.973 282.483 352.708 292.641 352.053C293.936 360.372 295.746 371.895 296.742 374.89C297.821 378.123 300.522 383.25 303.558 386.225C304.225 386.902 304.984 387.482 305.814 387.946C309.72 390.015 312.178 390.537 312.226 392.349Z" fill="#C15D31"/>
<path d="M274.852 158.373C274.852 158.373 269.581 160.881 267.555 161.662C267.005 161.871 266.33 163.055 258.274 169.388C250.218 175.72 247.517 177.65 231.997 186.31C231.997 186.31 231.566 192.308 231.879 194.384C232.192 196.46 233.209 198.606 235.124 198.257C235.124 198.257 235.082 198.996 221.199 199.7C207.315 200.403 180.816 198.216 180.816 197.944C180.816 197.672 182.271 181.537 182.271 181.537C191.796 184.854 216.241 176.312 232.589 167.904C247.907 160.024 252.196 154.026 254.716 151.783C257.237 149.54 258.734 149.533 263.496 148.508C268.258 147.484 270.904 145.938 271.287 146.523C271.879 147.436 270.173 148.71 268.683 149.533C267.193 150.355 264.784 151.623 264.686 153.308L274.852 158.373Z" fill="#F88D7A"/>
<path d="M186.706 177.511L186.595 177.469C186.435 178.068 186.163 179.427 185.899 181.057C185.161 185.118 184.235 190.873 184.235 190.873L170.922 194.816C174.042 186.992 177.105 181.433 180.12 172.188C179.488 172.262 178.849 172.117 178.311 171.778C177.772 171.438 177.366 170.924 177.161 170.321C176.388 167.911 179.152 165.312 181.603 168.113C181.603 168.113 183.831 161.487 181.916 158.673C181.916 158.673 186.602 157.279 189.826 160.763C195.02 166.503 195.89 181.133 186.706 177.511Z" fill="#C15D31"/>
<path d="M240.728 234.338C240.728 234.338 234.462 236.247 227.395 238.866C220.328 241.486 213.818 243.569 208.931 243.144C203.681 242.691 201.216 240.859 192.576 229.552C192.576 229.552 192.471 230.005 192.318 230.701C192.123 231.579 191.831 232.833 191.622 234.024H163.918C163.918 233.251 163.918 232.464 163.918 231.67C163.918 231.349 163.918 231.022 163.918 230.701C164.287 208.889 170.881 194.816 170.881 194.816C175.455 191.291 184.012 188.323 187.333 189.779C190.654 191.235 193.822 196.878 199.357 205.182C204.892 213.487 210.121 222.299 211.333 222.153C212.544 222.007 223.81 213.542 228.642 210.17C230.939 208.568 234.671 206.227 238.445 203.9C242.532 201.392 246.674 198.919 249.083 197.456L249.78 212.156C246.486 215.179 237.477 223.602 237.477 223.602C237.477 223.602 237.728 229.872 238.278 231.607C238.828 233.342 239.823 234.233 240.728 234.338Z" fill="#F88D7A"/>
<path d="M195.416 199.428C195.374 199.427 195.331 199.416 195.294 199.395C195.256 199.375 195.224 199.345 195.201 199.309C192.067 194.544 189.631 191.082 187.242 190.016C187.211 190.002 187.182 189.982 187.158 189.958C187.135 189.933 187.116 189.904 187.103 189.872C187.091 189.84 187.084 189.805 187.085 189.771C187.086 189.737 187.093 189.703 187.107 189.671C187.12 189.639 187.14 189.611 187.165 189.587C187.19 189.563 187.219 189.544 187.251 189.532C187.283 189.519 187.317 189.513 187.351 189.513C187.386 189.514 187.42 189.521 187.451 189.535C190.007 190.657 192.457 194.175 195.639 199.017C195.676 199.075 195.689 199.146 195.675 199.214C195.66 199.281 195.62 199.341 195.563 199.379C195.52 199.41 195.469 199.427 195.416 199.428V199.428Z" fill="black"/>
<path d="M281.884 209.564C281.988 210.261 280.38 210.825 278.166 210.261C275.952 209.697 267.645 205.433 267.346 205.433C268.312 206.511 269.337 207.534 270.417 208.498C271.976 209.892 272.38 212.678 269.407 214.002C269.169 214.394 268.838 214.721 268.443 214.955C268.048 215.188 267.602 215.32 267.144 215.34C267.144 215.34 267.346 217.06 263.419 217.214C259.492 217.367 258.288 217.214 258.239 216.454C258.19 215.695 261.72 214.894 263.809 214.441C263.809 214.441 261.546 212.177 261.142 211.821C260.739 211.466 256.867 209.258 255.454 209.035C254.041 208.812 252.488 209.787 250.775 211.299C249.063 212.811 237.512 223.63 237.512 223.63C237.143 217.834 237.86 209.446 238.459 203.928C242.636 201.371 246.814 198.856 249.23 197.4C253.811 194.614 256.526 193.98 260.154 196.007C263.781 198.034 273.034 204.318 276.3 206.081C279.565 207.843 281.786 208.861 281.884 209.564Z" fill="#C15D31"/>
<path d="M274.852 158.373C274.852 158.373 269.581 160.881 267.555 161.662C267.005 161.871 266.33 163.055 258.274 169.388C250.218 175.72 247.517 177.65 231.997 186.31C232.199 180.736 231.942 169.527 232.61 167.904C247.928 160.024 252.217 154.026 254.737 151.783C257.257 149.54 258.754 149.533 263.517 148.508C268.279 147.484 270.925 145.938 271.308 146.523C271.9 147.436 270.194 148.71 268.704 149.533C267.214 150.355 264.805 151.623 264.707 153.308L274.852 158.373Z" fill="#C15D31"/>
<path d="M265.738 147.965L277.379 156.29C276.483 157.325 275.374 158.155 274.128 158.722L259.541 151.755L265.738 147.965Z" fill="#C15D31"/>
<path d="M431.257 88.9783H321.145C318.834 88.9783 316.961 90.8528 316.961 93.1652V176.055C316.961 178.367 318.834 180.242 321.145 180.242H431.257C433.568 180.242 435.442 178.367 435.442 176.055V93.1652C435.442 90.8528 433.568 88.9783 431.257 88.9783Z" fill="white"/>
<path d="M435.435 136.575H409.388V163.501H435.435V136.575Z" fill="#E4D0C0"/>
<path d="M435.435 157.523H409.388V163.494H435.435V157.523Z" fill="#F6EEE8"/>
<path d="M435.435 163.849H409.395C409.303 163.849 409.214 163.812 409.149 163.747C409.084 163.682 409.047 163.593 409.047 163.501V157.53C409.047 157.438 409.084 157.349 409.149 157.284C409.214 157.219 409.303 157.182 409.395 157.182H435.435C435.527 157.182 435.616 157.219 435.681 157.284C435.746 157.349 435.783 157.438 435.783 157.53V163.501C435.783 163.593 435.746 163.682 435.681 163.747C435.616 163.812 435.527 163.849 435.435 163.849ZM409.736 163.152H435.087V157.879H409.736V163.152Z" fill="#E4D0C0"/>
<path d="M324.849 124.062C324.757 124.062 324.668 124.026 324.603 123.96C324.538 123.895 324.501 123.806 324.501 123.714V102.229C324.501 102.137 324.538 102.048 324.603 101.983C324.668 101.917 324.757 101.881 324.849 101.881C324.942 101.881 325.03 101.917 325.096 101.983C325.161 102.048 325.197 102.137 325.197 102.229V123.714C325.197 123.806 325.161 123.895 325.096 123.96C325.03 124.026 324.942 124.062 324.849 124.062Z" fill="#E4D0C0"/>
<path d="M331.645 124.703C331.552 124.703 331.464 124.667 331.399 124.601C331.333 124.536 331.297 124.447 331.297 124.355V102.229C331.297 102.137 331.333 102.048 331.399 101.983C331.464 101.917 331.552 101.881 331.645 101.881C331.737 101.881 331.826 101.917 331.891 101.983C331.956 102.048 331.993 102.137 331.993 102.229V124.327C331.997 124.375 331.991 124.423 331.975 124.469C331.959 124.515 331.934 124.556 331.901 124.592C331.869 124.627 331.829 124.655 331.785 124.674C331.741 124.694 331.693 124.704 331.645 124.703Z" fill="#E4D0C0"/>
<path d="M340.306 124.062C340.217 124.063 340.132 124.029 340.067 123.968C340.002 123.907 339.963 123.824 339.958 123.735L338.74 102.25C338.737 102.204 338.743 102.158 338.758 102.115C338.773 102.071 338.796 102.031 338.827 101.997C338.857 101.963 338.894 101.935 338.935 101.915C338.976 101.895 339.021 101.883 339.067 101.881C339.113 101.875 339.16 101.879 339.205 101.892C339.25 101.906 339.291 101.929 339.326 101.96C339.361 101.991 339.389 102.029 339.408 102.072C339.427 102.115 339.436 102.161 339.436 102.208L340.654 123.693C340.657 123.739 340.651 123.785 340.636 123.828C340.621 123.872 340.598 123.911 340.567 123.946C340.537 123.98 340.5 124.008 340.459 124.028C340.418 124.048 340.373 124.06 340.327 124.062H340.306Z" fill="#E4D0C0"/>
<path d="M347.171 123.693C347.079 123.693 346.99 123.656 346.925 123.591C346.86 123.526 346.823 123.437 346.823 123.345V102.229C346.823 102.137 346.86 102.048 346.925 101.983C346.99 101.917 347.079 101.881 347.171 101.881C347.263 101.881 347.352 101.917 347.417 101.983C347.483 102.048 347.519 102.137 347.519 102.229V123.345C347.519 123.437 347.483 123.526 347.417 123.591C347.352 123.656 347.263 123.693 347.171 123.693Z" fill="#E4D0C0"/>
<path d="M351.982 124.703C351.89 124.703 351.801 124.667 351.736 124.601C351.671 124.536 351.634 124.447 351.634 124.355V102.229C351.634 102.137 351.671 102.048 351.736 101.983C351.801 101.917 351.89 101.881 351.982 101.881C352.074 101.881 352.163 101.917 352.228 101.983C352.294 102.048 352.33 102.137 352.33 102.229V124.327C352.334 124.375 352.328 124.423 352.312 124.469C352.296 124.515 352.271 124.556 352.239 124.592C352.206 124.627 352.166 124.655 352.122 124.674C352.078 124.694 352.03 124.704 351.982 124.703Z" fill="#E4D0C0"/>
<path d="M350.123 146.941C350.031 146.941 349.942 146.904 349.877 146.839C349.812 146.774 349.775 146.685 349.775 146.593V123.714C349.775 123.622 349.812 123.533 349.877 123.468C349.942 123.402 350.031 123.366 350.123 123.366C350.216 123.366 350.304 123.402 350.369 123.468C350.435 123.533 350.471 123.622 350.471 123.714V146.6C350.47 146.691 350.432 146.778 350.367 146.841C350.302 146.905 350.214 146.941 350.123 146.941V146.941Z" fill="#E4D0C0"/>
<path d="M343.063 143.931C342.971 143.931 342.882 143.895 342.817 143.829C342.752 143.764 342.715 143.675 342.715 143.583V124.167C342.715 124.074 342.752 123.986 342.817 123.921C342.882 123.855 342.971 123.819 343.063 123.819C343.156 123.819 343.244 123.855 343.309 123.921C343.375 123.986 343.411 124.074 343.411 124.167V143.583C343.411 143.675 343.375 143.764 343.309 143.829C343.244 143.895 343.156 143.931 343.063 143.931Z" fill="#E4D0C0"/>
<path d="M334.729 146.6C334.683 146.599 334.638 146.589 334.596 146.57C334.555 146.552 334.517 146.526 334.485 146.493C334.453 146.46 334.428 146.421 334.412 146.378C334.395 146.335 334.387 146.29 334.388 146.244L334.966 123.707C334.966 123.615 335.003 123.526 335.068 123.461C335.133 123.395 335.222 123.359 335.314 123.359C335.406 123.359 335.495 123.395 335.56 123.461C335.625 123.526 335.662 123.615 335.662 123.707L335.084 146.244C335.085 146.291 335.077 146.338 335.059 146.381C335.042 146.425 335.016 146.464 334.982 146.498C334.949 146.531 334.91 146.557 334.866 146.574C334.823 146.592 334.776 146.601 334.729 146.6Z" fill="#E4D0C0"/>
<path d="M328.63 146.941C328.538 146.941 328.449 146.904 328.384 146.839C328.319 146.774 328.282 146.685 328.282 146.593V123.714C328.282 123.622 328.319 123.533 328.384 123.468C328.449 123.402 328.538 123.366 328.63 123.366C328.722 123.366 328.811 123.402 328.876 123.468C328.941 123.533 328.978 123.622 328.978 123.714V146.6C328.976 146.691 328.939 146.778 328.874 146.841C328.809 146.905 328.721 146.941 328.63 146.941V146.941Z" fill="#E4D0C0"/>
<path d="M321.382 146.202C321.291 146.202 321.203 146.167 321.138 146.103C321.073 146.039 321.036 145.952 321.034 145.861L320.776 124.613C320.775 124.567 320.783 124.522 320.8 124.479C320.817 124.436 320.842 124.397 320.873 124.364C320.905 124.331 320.943 124.305 320.985 124.287C321.027 124.268 321.072 124.258 321.117 124.257C321.208 124.262 321.293 124.299 321.359 124.362C321.424 124.425 321.464 124.509 321.473 124.599L321.73 145.847C321.731 145.893 321.723 145.938 321.706 145.981C321.69 146.024 321.665 146.063 321.633 146.096C321.601 146.129 321.564 146.155 321.522 146.173C321.48 146.192 321.435 146.202 321.389 146.202H321.382Z" fill="#E4D0C0"/>
<path d="M316.961 100.431V104.611H358.151V121.617H316.961V125.797H358.151V144.154H316.961V148.334H358.151V166.691H316.961V170.871H358.151V180.242H362.328V100.431H316.961Z" fill="#E4D0C0"/>
<path d="M406.304 116.58C410.803 116.58 414.45 112.931 414.45 108.429C414.45 103.928 410.803 100.278 406.304 100.278C401.805 100.278 398.157 103.928 398.157 108.429C398.157 112.931 401.805 116.58 406.304 116.58Z" fill="#F6EEE8"/>
<path d="M411.525 108.68H406.304C406.236 108.681 406.172 108.656 406.123 108.61L403.47 106.061C403.438 106.039 403.412 106.01 403.392 105.977C403.372 105.944 403.36 105.907 403.356 105.869C403.352 105.831 403.357 105.792 403.369 105.756C403.382 105.719 403.402 105.686 403.429 105.659C403.456 105.631 403.488 105.609 403.524 105.595C403.56 105.582 403.598 105.576 403.636 105.578C403.675 105.58 403.712 105.591 403.746 105.61C403.78 105.628 403.809 105.653 403.832 105.684L406.408 108.157H411.525C411.587 108.168 411.644 108.199 411.684 108.247C411.725 108.295 411.747 108.356 411.747 108.419C411.747 108.482 411.725 108.542 411.684 108.59C411.644 108.638 411.587 108.67 411.525 108.68V108.68Z" fill="black"/>
<path d="M426.85 163.849C426.758 163.849 426.669 163.812 426.604 163.747C426.539 163.682 426.502 163.593 426.502 163.501V157.53C426.502 157.438 426.539 157.349 426.604 157.284C426.669 157.219 426.758 157.182 426.85 157.182C426.942 157.182 427.031 157.219 427.096 157.284C427.161 157.349 427.198 157.438 427.198 157.53V163.501C427.198 163.593 427.161 163.682 427.096 163.747C427.031 163.812 426.942 163.849 426.85 163.849Z" fill="#E4D0C0"/>
<path d="M432.239 150.529C428.507 150.529 427.073 148.815 426.53 147.624C425.467 148.265 424.247 148.6 423.006 148.59C421.764 148.58 420.55 148.226 419.498 147.568C418.59 147.015 417.823 146.259 417.256 145.359C416.932 145.541 416.597 145.701 416.253 145.84C412.681 147.289 407.063 145.638 403.686 143.2C403.658 143.18 403.634 143.155 403.615 143.127C403.597 143.098 403.584 143.066 403.578 143.032C403.573 142.998 403.574 142.964 403.581 142.93C403.589 142.897 403.603 142.865 403.623 142.838C403.664 142.782 403.724 142.745 403.791 142.733C403.859 142.721 403.928 142.736 403.985 142.775C407.181 145.081 412.702 146.718 416.051 145.352C416.386 145.219 416.712 145.063 417.026 144.886C416.854 144.483 416.774 144.048 416.791 143.61C416.808 143.173 416.921 142.745 417.123 142.357C417.576 141.493 418.432 140.922 418.954 141.124C419.162 141.228 419.333 141.391 419.446 141.594C419.559 141.796 419.608 142.028 419.588 142.259C419.588 143.088 419.073 144.168 417.701 145.081C418.226 145.919 418.942 146.621 419.79 147.129C420.773 147.745 421.91 148.071 423.069 148.071C424.229 148.071 425.365 147.745 426.349 147.129C425.91 145.736 426.216 144.273 426.857 143.771C427.001 143.647 427.185 143.578 427.376 143.578C427.566 143.578 427.75 143.647 427.894 143.771C428.674 144.405 428.73 145.346 428.027 146.3C427.732 146.69 427.377 147.031 426.975 147.31L427.017 147.408C427.637 148.752 429.551 150.835 435.372 149.665C435.405 149.658 435.44 149.657 435.473 149.664C435.507 149.67 435.539 149.683 435.567 149.702C435.596 149.721 435.62 149.745 435.64 149.773C435.659 149.802 435.672 149.833 435.678 149.867C435.686 149.9 435.686 149.935 435.68 149.968C435.673 150.002 435.66 150.034 435.642 150.062C435.623 150.091 435.598 150.115 435.57 150.135C435.542 150.154 435.51 150.167 435.476 150.173C434.412 150.398 433.327 150.517 432.239 150.529V150.529ZM427.365 144.092C427.299 144.093 427.235 144.118 427.184 144.161C426.773 144.482 426.488 145.61 426.808 146.802C427.114 146.572 427.386 146.299 427.616 145.993C427.738 145.875 427.835 145.733 427.899 145.575C427.964 145.418 427.995 145.249 427.991 145.079C427.987 144.908 427.948 144.741 427.876 144.587C427.805 144.432 427.702 144.295 427.574 144.182C427.512 144.124 427.43 144.091 427.344 144.092H427.365ZM418.725 141.577C418.475 141.649 418.245 141.776 418.05 141.949C417.855 142.121 417.7 142.334 417.597 142.573C417.439 142.88 417.348 143.217 417.33 143.561C417.312 143.906 417.367 144.251 417.492 144.572C418.648 143.778 419.08 142.872 419.08 142.231C419.094 142.105 419.074 141.978 419.021 141.862C418.968 141.747 418.885 141.648 418.78 141.577H418.725Z" fill="black"/>
<path d="M312.992 177.956C315.311 178.054 317.81 177.511 316.675 170.544L308.272 166.503C308.272 166.503 308.481 177.768 312.992 177.956Z" fill="black"/>
<path d="M406.77 169.185C399.111 173.581 391.696 163.8 391.696 163.8L398.436 182.45H365.406L361.354 170.028C359.578 168.684 356.682 166.336 355.505 164.225C354.329 162.114 354.203 158.708 354.203 158.708C349.74 162.888 344.539 166.789 337.298 171.491C330.057 176.194 327.029 177.894 320.978 178.089C318.312 178.226 315.639 178.181 312.978 177.957C314.016 177.908 315.965 176.563 315.93 175.609C315.889 174.536 315.728 172.46 315.728 172.46C310.367 169.864 305.364 166.586 300.843 162.706C299.784 161.815 298.761 160.911 297.772 159.996C293.285 155.81 289.14 151.269 285.379 146.418C285.379 146.418 280.025 139.333 281.898 137.829C283.771 136.324 292.341 133.649 292.341 133.649C294.73 134.011 295.558 134.812 300.808 139.737C301.852 140.713 302.945 141.786 304.08 142.893C304.916 143.708 305.765 144.544 306.642 145.387C307.52 146.23 308.348 147.018 309.226 147.826C312.477 150.821 315.923 153.657 319.405 155.489C325.328 152.972 331.03 149.962 336.449 146.488C341.838 142.886 348.981 137.863 355.944 134.589C358.835 133.38 361.826 132.427 364.884 131.74C369.811 130.463 374.953 130.242 379.971 131.092C382.617 131.593 384.65 132.415 385.799 133.335C386.238 133.69 387.526 134.868 388.709 135.961C388.981 136.205 389.239 136.449 389.482 136.658L391.021 138.086C390.805 137.355 390.603 136.693 390.408 135.996L390.241 135.446C389.879 134.241 389.545 133.182 389.266 132.248C386.878 124.543 386.753 125.282 386.14 124.125C385.539 122.987 384.597 122.067 383.446 121.492C382.511 120.943 381.489 120.562 380.424 120.363C380.01 120.256 379.648 120.002 379.407 119.648C379.167 119.295 379.063 118.865 379.115 118.44C378.939 118.362 378.785 118.243 378.663 118.094C378.542 117.944 378.458 117.768 378.418 117.58C378.378 117.392 378.383 117.197 378.433 117.011C378.483 116.825 378.576 116.654 378.704 116.511C378.489 116.433 378.297 116.301 378.148 116.127C377.999 115.953 377.898 115.743 377.855 115.517C377.812 115.292 377.829 115.06 377.903 114.843C377.978 114.626 378.107 114.432 378.28 114.281C377.43 113.16 379.756 111.07 383.39 110.324C387.978 109.391 389.461 110.185 392.859 114.887C394.948 117.765 396.716 121.485 399.125 127.065L400.26 129.684L401.458 132.471C402.46 134.784 403.547 137.348 404.828 140.225C411.031 154.305 414.422 164.79 406.77 169.185Z" fill="#5B77C9"/>
<path d="M384.943 140.246C384.147 140.265 383.36 140.084 382.653 139.719C381.946 139.353 381.342 138.816 380.898 138.156C380.823 138.057 380.753 137.955 380.689 137.849C380.099 138.073 379.448 138.073 378.858 137.849C376.692 137.013 377.374 133.621 378.161 129.691C378.259 129.225 378.349 128.744 378.447 128.263C378.467 128.203 378.509 128.151 378.564 128.119C378.619 128.086 378.684 128.075 378.747 128.087C378.81 128.099 378.866 128.133 378.906 128.183C378.945 128.234 378.965 128.297 378.962 128.361C378.871 128.842 378.774 129.322 378.676 129.796C377.931 133.488 377.284 136.679 379.045 137.362C379.496 137.521 379.987 137.521 380.438 137.362C379.916 136.205 380.027 134.958 380.584 134.415C380.671 134.327 380.775 134.258 380.889 134.211C381.003 134.163 381.126 134.139 381.249 134.139C381.373 134.139 381.495 134.163 381.609 134.211C381.723 134.258 381.827 134.327 381.914 134.415C382.223 134.669 382.425 135.031 382.478 135.428C382.531 135.825 382.431 136.227 382.2 136.554C381.947 136.978 381.59 137.331 381.162 137.578L381.308 137.787C382.548 139.396 384.539 140.72 389.914 138.316C389.976 138.295 390.044 138.298 390.104 138.324C390.165 138.351 390.213 138.399 390.24 138.459C390.267 138.519 390.27 138.586 390.25 138.649C390.23 138.712 390.187 138.764 390.13 138.797C388.52 139.634 386.753 140.127 384.943 140.246V140.246ZM381.197 134.728C381.15 134.729 381.103 134.739 381.06 134.758C381.017 134.777 380.978 134.805 380.946 134.84C380.584 135.195 380.459 136.233 380.911 137.202C381.256 137.001 381.543 136.715 381.747 136.372C381.909 136.152 381.982 135.878 381.953 135.606C381.923 135.334 381.793 135.083 381.587 134.903C381.481 134.801 381.343 134.74 381.197 134.728V134.728Z" fill="black"/>
<path d="M386.043 111.578C386.802 107.071 383.585 105.865 381.371 106.158C378.913 106.486 378.774 111.035 379.282 112.867C379.282 112.867 381.782 114.26 381.329 118.12C380.877 121.979 380.139 123.08 377.514 122.92C375.94 122.829 374.84 128.277 376.191 128.946C377.542 129.615 382.172 129.719 382.993 126.856C383.891 123.721 386.043 111.578 386.043 111.578Z" fill="#EA4338"/>
<path d="M315.742 172.46C310.381 169.864 305.378 166.586 300.857 162.706C299.798 161.815 298.775 160.911 297.786 159.996C299.875 154.319 302.472 147.213 304.052 142.914C304.888 143.729 305.737 144.565 306.615 145.408C307.492 146.251 308.32 147.038 309.198 147.847C312.174 155.819 314.366 164.062 315.742 172.46V172.46Z" fill="#8EBF8C"/>
<path d="M300.857 162.686C295.16 157.798 289.979 152.34 285.393 146.398C285.393 146.398 280.039 139.312 281.912 137.808C283.785 136.303 292.355 133.628 292.355 133.628C294.744 133.99 295.572 134.791 300.822 139.716C302.625 141.409 304.588 143.374 306.656 145.366C306.97 151.476 305.34 155.419 300.857 162.686Z" fill="#F88D7A"/>
<path d="M301.476 144.907C293.379 149.86 276.495 159.237 276.495 159.237L274.824 158.394L270.688 156.304L264.714 153.267C264.847 151.588 267.144 150.396 268.704 149.533C270.263 148.669 271.9 147.443 271.308 146.523C270.925 145.938 268.279 147.491 263.517 148.508C261.598 148.838 259.701 149.282 257.835 149.839C251.165 146.565 244.321 143.353 237.644 140.65C247.016 134.972 256.666 131.774 263.008 128.417C280.693 136.804 301.476 144.907 301.476 144.907Z" fill="white"/>
<path d="M401.493 132.52C400.462 134.464 397.935 137.842 391.982 141.235C391.286 141.625 390.589 142.009 389.803 142.399C385.381 144.614 385.388 139.793 389.482 136.693C389.779 136.465 390.088 136.253 390.408 136.059C389.977 134.624 389.601 133.384 389.267 132.311C392.785 131.043 396.114 129.299 399.16 127.128C399.87 128.758 400.643 130.541 401.493 132.52Z" fill="#8EBF8C"/>
<path d="M400.295 129.747C397.092 132.938 392.678 134.7 390.241 135.509C389.879 134.303 389.545 133.244 389.266 132.311C386.878 124.606 386.753 125.344 386.14 124.188C385.539 123.05 384.597 122.129 383.446 121.554C382.511 121.006 381.489 120.624 380.424 120.426C380.01 120.319 379.648 120.065 379.407 119.711C379.167 119.357 379.063 118.928 379.115 118.503C378.939 118.425 378.785 118.306 378.663 118.157C378.542 118.007 378.458 117.831 378.418 117.643C378.378 117.455 378.383 117.26 378.433 117.074C378.483 116.888 378.576 116.716 378.704 116.573C378.489 116.496 378.297 116.364 378.148 116.19C377.999 116.015 377.898 115.805 377.855 115.58C377.812 115.355 377.829 115.122 377.903 114.906C377.978 114.689 378.107 114.495 378.28 114.344C377.43 113.222 379.756 111.132 383.39 110.387C387.978 109.453 389.461 110.247 392.859 114.95C394.948 117.827 396.716 121.547 399.125 127.128L400.295 129.747Z" fill="#F88D7A"/>
<path d="M371.679 126.424L365.977 128.883C365.907 128.674 365.838 128.458 365.775 128.187C365.402 126.643 365.169 125.069 365.079 123.484C364.974 121.896 364.981 120.697 364.981 120.697L371.999 118.768C371.623 119.527 371.47 124.007 371.679 126.424Z" fill="#F88D7A"/>
<path d="M369.59 123.045C369.674 126.166 366.757 127.762 365.775 128.208C365.402 126.664 365.169 125.09 365.079 123.505C366.826 122.174 369.521 120.523 369.59 123.045Z" fill="black"/>
<path d="M367.78 149.533C372.765 134.464 373.399 130.604 373.399 130.604C372.062 129.866 371.679 126.424 371.679 126.424C369.161 126.446 366.676 127.004 364.389 128.061C364.534 129.254 364.767 130.435 365.086 131.593C364.487 132.311 364.139 134.944 367.78 149.533Z" fill="#8EBF8C"/>
<path d="M369.876 106.479C367.209 105.656 366.283 103.775 367.014 101.546C367.711 99.4561 370.885 98.2997 373.65 100.041C378.76 103.246 373.552 107.614 369.876 106.479Z" fill="#FFC36C"/>
<path d="M376.302 116.051C376.255 116.405 376.132 116.746 375.942 117.048C375.751 117.351 375.497 117.609 375.198 117.804C374.898 117.999 374.56 118.127 374.206 118.179C373.852 118.232 373.491 118.206 373.148 118.106C373.148 118.106 371.185 125.491 365.301 125.63C359.418 125.769 359.961 117.925 360.657 114.344C361.004 112.456 361.713 110.653 362.746 109.035C364.139 106.945 366.367 105.385 369.59 106.116C373.97 107.106 374.757 111.272 374.464 114.03C374.436 114.03 376.546 114.086 376.302 116.051Z" fill="#F88D7A"/>
<path d="M188.93 166.564C189.158 166.453 189.187 166.041 188.994 165.643C188.801 165.245 188.459 165.012 188.231 165.123C188.002 165.234 187.974 165.646 188.167 166.044C188.36 166.442 188.702 166.675 188.93 166.564Z" fill="black"/>
<path d="M127.309 287.353C127.538 287.242 127.566 286.83 127.373 286.432C127.18 286.034 126.838 285.801 126.61 285.912C126.382 286.023 126.353 286.435 126.546 286.833C126.739 287.231 127.081 287.464 127.309 287.353Z" fill="black"/>
<path d="M366.983 114.552C367.057 114.116 366.913 113.728 366.663 113.686C366.413 113.644 366.151 113.963 366.077 114.4C366.004 114.836 366.147 115.224 366.397 115.266C366.648 115.308 366.91 114.989 366.983 114.552Z" fill="black"/>
<path d="M362.468 114.552C362.542 114.116 362.398 113.728 362.148 113.686C361.898 113.644 361.635 113.964 361.562 114.4C361.489 114.836 361.632 115.224 361.882 115.266C362.133 115.308 362.395 114.989 362.468 114.552Z" fill="black"/>
<path d="M413.865 310.943C403.56 314.538 396.306 291.646 399.585 279.76C399.757 279.132 399.969 278.516 400.218 277.914C400.795 276.442 401.757 275.152 403.003 274.18C406.624 271.498 413.949 282.972 416.928 293.861L417.075 294.404C419.08 301.998 418.92 309.181 413.865 310.943Z" fill="#8EBF8C"/>
<path d="M420.827 338.692C420.771 338.692 420.716 338.674 420.67 338.64C420.625 338.606 420.592 338.558 420.577 338.503C420.479 338.176 410.788 305.468 407.933 295.31C407.927 295.249 407.944 295.187 407.979 295.136C408.014 295.085 408.066 295.048 408.126 295.032C408.185 295.015 408.249 295.02 408.305 295.046C408.361 295.071 408.407 295.115 408.434 295.171C411.282 305.328 420.967 338.037 421.071 338.364C421.082 338.397 421.086 338.432 421.083 338.466C421.08 338.501 421.07 338.534 421.054 338.565C421.037 338.595 421.015 338.622 420.988 338.644C420.961 338.666 420.93 338.682 420.897 338.692H420.827Z" fill="black"/>
<path d="M417.054 294.404C410.363 297.087 404.215 286.379 400.198 277.914C400.774 276.442 401.736 275.152 402.983 274.18C406.603 271.498 413.928 282.972 416.908 293.861L417.054 294.404Z" fill="black"/>
<path d="M429.266 342.453C429.199 342.453 429.134 342.427 429.086 342.38C429.038 342.334 429.01 342.27 429.008 342.203C429.008 341.826 427.094 304.513 427.553 284.971C427.551 284.936 427.556 284.901 427.569 284.869C427.582 284.836 427.601 284.806 427.626 284.782C427.651 284.757 427.682 284.739 427.715 284.727C427.748 284.715 427.783 284.711 427.818 284.714C427.887 284.716 427.952 284.744 428 284.794C428.048 284.843 428.075 284.909 428.075 284.978C427.616 304.485 429.51 341.792 429.53 342.168C429.532 342.237 429.507 342.304 429.46 342.355C429.414 342.405 429.349 342.436 429.28 342.44L429.266 342.453Z" fill="black"/>
<path d="M415.23 296.299C422.791 293.178 418.405 231.217 407.202 233.042C393.256 235.32 403.957 300.96 415.23 296.299Z" fill="#8EBF8C"/>
<path d="M439.591 317.06L439.501 317.004C438.018 316.147 437.238 314.454 437.036 312.26C436.124 302.43 446.651 282.45 456.266 281.244C457.821 281.039 459.399 281.381 460.729 282.213C461.379 282.615 461.975 283.097 462.505 283.648C470.505 291.834 447.334 321.31 439.591 317.06Z" fill="#8EBF8C"/>
<path d="M456.266 281.244C443.859 289.834 440.949 304.137 437.036 312.26C436.124 302.43 446.651 282.45 456.266 281.244Z" fill="black"/>
<path d="M433.611 330.715H433.527C433.462 330.691 433.409 330.643 433.379 330.58C433.349 330.518 433.345 330.446 433.367 330.38C438.937 314.273 449.443 298.034 452.006 295.073C452.026 295.041 452.053 295.013 452.085 294.993C452.117 294.972 452.153 294.958 452.19 294.952C452.228 294.947 452.266 294.949 452.303 294.96C452.339 294.97 452.373 294.989 452.402 295.013C452.431 295.038 452.454 295.069 452.47 295.104C452.486 295.138 452.494 295.176 452.494 295.214C452.494 295.252 452.486 295.29 452.47 295.324C452.454 295.359 452.431 295.39 452.402 295.415C449.854 298.354 439.438 314.51 433.861 330.547C433.842 330.598 433.808 330.641 433.763 330.672C433.718 330.702 433.665 330.717 433.611 330.715V330.715Z" fill="black"/>
<path d="M443.63 204.897C443.23 208.854 442.715 213.092 442.084 217.611C439.02 239.361 436.423 252.744 434.056 260.762C431.313 270.084 428.876 272.16 426.397 271.714C425.416 271.533 424.469 270.551 423.612 268.927C418.857 260.073 415.856 232.095 418.906 207.189C422.22 180.158 432.768 167.806 439.689 170.377C439.901 170.454 440.104 170.555 440.295 170.676C444.486 173.24 445.53 185.592 443.63 204.897Z" fill="#4B764A"/>
<path d="M428.605 267.604C428.54 267.602 428.478 267.577 428.431 267.534C428.384 267.49 428.354 267.431 428.347 267.367C426.049 243.492 428.848 205.238 434.105 188.643C434.115 188.611 434.132 188.581 434.154 188.555C434.177 188.529 434.204 188.507 434.234 188.492C434.264 188.476 434.297 188.467 434.331 188.464C434.366 188.462 434.4 188.466 434.432 188.476C434.465 188.487 434.495 188.503 434.521 188.526C434.547 188.548 434.568 188.575 434.584 188.605C434.599 188.636 434.608 188.669 434.611 188.703C434.614 188.737 434.61 188.771 434.599 188.804C429.357 205.335 426.572 243.485 428.862 267.304C428.866 267.338 428.863 267.373 428.853 267.406C428.843 267.44 428.827 267.47 428.804 267.497C428.782 267.524 428.755 267.546 428.724 267.562C428.694 267.577 428.66 267.587 428.625 267.59L428.605 267.604Z" fill="black"/>
<path d="M443.63 204.897C443.23 208.854 442.715 213.092 442.084 217.611C439.02 239.361 436.423 252.744 434.056 260.762L429.28 260.498C429.057 241.806 431.327 218.572 443.63 204.897Z" fill="black"/>
<path d="M436.667 307.711C434.766 309.578 433.06 310.01 431.605 309.243C427.609 307.153 425.43 296.153 425.875 281.377C426.85 248.926 436.465 219.018 446.519 214.19C447.396 213.728 448.376 213.494 449.368 213.51C450.359 213.525 451.331 213.791 452.193 214.281C458.829 217.903 454.54 290.148 436.667 307.711Z" fill="#4B764A"/>
<path d="M432.288 337.006C432.221 337.004 432.158 336.977 432.11 336.931C432.062 336.884 432.034 336.821 432.03 336.755C430.84 295.763 440.232 236.435 444.563 223.951C444.586 223.885 444.634 223.831 444.697 223.801C444.759 223.771 444.831 223.767 444.897 223.79C444.962 223.813 445.016 223.862 445.046 223.924C445.076 223.987 445.08 224.059 445.057 224.125C440.705 236.581 431.341 295.798 432.524 336.741C432.526 336.81 432.501 336.877 432.454 336.928C432.408 336.978 432.343 337.009 432.274 337.013L432.288 337.006Z" fill="black"/>
<path d="M425.409 341.729C425.348 341.729 425.29 341.708 425.243 341.67C425.196 341.632 425.164 341.579 425.151 341.52C425.026 340.928 412.556 281.607 407.926 248.362C407.921 248.328 407.923 248.293 407.932 248.26C407.94 248.227 407.955 248.196 407.976 248.169C407.997 248.141 408.023 248.118 408.052 248.101C408.082 248.084 408.115 248.073 408.149 248.069C408.183 248.063 408.218 248.064 408.251 248.072C408.285 248.081 408.316 248.096 408.344 248.117C408.371 248.138 408.394 248.164 408.411 248.194C408.427 248.224 408.438 248.258 408.441 248.292C413.064 281.537 425.534 340.816 425.659 341.415C425.672 341.483 425.658 341.552 425.62 341.609C425.583 341.667 425.524 341.707 425.458 341.722L425.409 341.729Z" fill="black"/>
<path d="M400.72 326.576H454.54L441.75 392.697H412.995L400.72 326.576Z" fill="#E4D0C0"/>
<path d="M450.223 349.232H450.133C449.889 349.162 425.819 342.593 403.623 342.551C403.531 342.551 403.442 342.514 403.377 342.449C403.312 342.384 403.275 342.295 403.275 342.203C403.275 342.11 403.312 342.022 403.377 341.956C403.442 341.891 403.531 341.854 403.623 341.854C425.903 341.896 450.077 348.494 450.321 348.556C450.413 348.568 450.497 348.617 450.553 348.69C450.61 348.764 450.635 348.858 450.623 348.95C450.611 349.042 450.563 349.126 450.489 349.183C450.416 349.24 450.322 349.265 450.23 349.253L450.223 349.232Z" fill="#F6EEE8"/>
<path d="M410.14 357.913C408.817 357.913 407.578 357.913 406.45 357.836C406.404 357.834 406.359 357.823 406.318 357.804C406.276 357.785 406.239 357.758 406.208 357.724C406.177 357.691 406.152 357.651 406.137 357.608C406.121 357.565 406.114 357.519 406.116 357.474C406.116 357.428 406.127 357.382 406.145 357.34C406.164 357.298 406.191 357.26 406.225 357.229C406.259 357.198 406.299 357.174 406.342 357.158C406.386 357.143 406.432 357.136 406.478 357.139C419.783 357.745 448.754 354.443 449.046 354.408C449.137 354.4 449.228 354.428 449.299 354.485C449.37 354.542 449.417 354.624 449.429 354.715C449.439 354.806 449.412 354.898 449.355 354.97C449.298 355.041 449.214 355.088 449.123 355.098C448.858 355.133 424.497 357.913 410.14 357.913Z" fill="#F6EEE8"/>
<path d="M442.411 365.227C427.852 365.227 407.348 361.744 407.118 361.695C407.026 361.68 406.944 361.628 406.889 361.551C406.835 361.475 406.814 361.38 406.829 361.288C406.845 361.195 406.897 361.113 406.973 361.059C407.049 361.005 407.144 360.983 407.237 360.999C407.494 361.04 432.907 365.374 447.132 364.371C447.177 364.367 447.223 364.373 447.267 364.388C447.31 364.402 447.35 364.425 447.385 364.455C447.42 364.485 447.448 364.522 447.468 364.563C447.489 364.604 447.501 364.649 447.504 364.694C447.507 364.74 447.501 364.786 447.487 364.83C447.472 364.873 447.449 364.913 447.419 364.948C447.389 364.983 447.353 365.011 447.312 365.031C447.271 365.052 447.226 365.064 447.18 365.067C445.697 365.186 444.096 365.227 442.411 365.227Z" fill="#F6EEE8"/>
<path d="M273.508 78.1939C273.44 78.1921 273.376 78.1644 273.328 78.1164C273.28 78.0684 273.252 78.0039 273.25 77.9361V25.3029C273.26 25.241 273.292 25.1846 273.34 25.144C273.388 25.1033 273.449 25.081 273.511 25.081C273.574 25.081 273.635 25.1033 273.683 25.144C273.73 25.1846 273.762 25.241 273.772 25.3029V77.9361C273.771 78.0051 273.742 78.0706 273.693 78.1188C273.643 78.1669 273.577 78.1939 273.508 78.1939V78.1939Z" fill="black"/>
<path d="M273.508 92.8378C276.657 92.8378 279.21 91.4342 279.21 89.7028C279.21 87.9714 276.657 86.5678 273.508 86.5678C270.359 86.5678 267.806 87.9714 267.806 89.7028C267.806 91.4342 270.359 92.8378 273.508 92.8378Z" fill="white"/>
<path d="M289.452 82.7083C279.287 80.0261 275.395 77.9849 273.508 74.9822C271.621 77.9779 267.729 80.0191 257.564 82.7083C247.03 85.4949 245.56 89.6749 245.533 89.6749H301.476C301.476 89.6749 299.979 85.488 289.452 82.7083Z" fill="#F09400"/>
<path d="M204.892 387.11C195.932 385.236 192.499 383.808 190.835 381.711C189.171 383.801 185.739 385.236 176.778 387.11C167.49 389.053 166.188 391.986 166.167 391.986H215.503C215.503 391.986 214.18 389.053 204.892 387.11Z" fill="#E4D0C0"/>
<path d="M279.057 137.989C279.621 139.382 284.94 138.379 288.846 138.184C288.846 138.184 294.082 134.004 292.78 133.725C291.234 133.47 289.654 133.525 288.129 133.885C287.739 134.073 284.195 135.223 281.557 135.906C280.025 136.303 278.66 136.999 279.057 137.989Z" fill="#F88D7A"/>
<path d="M281.591 138.978C280.129 138.978 279.085 138.769 278.806 138.093C278.788 138.06 278.777 138.024 278.774 137.987C278.771 137.949 278.776 137.911 278.788 137.876C278.801 137.841 278.821 137.808 278.847 137.781C278.873 137.754 278.905 137.733 278.939 137.719C278.974 137.705 279.012 137.699 279.049 137.7C279.087 137.702 279.124 137.711 279.157 137.728C279.191 137.745 279.22 137.769 279.244 137.799C279.267 137.828 279.284 137.862 279.294 137.898C279.635 138.748 282.963 138.435 285.637 138.184C286.709 138.086 287.823 137.982 288.825 137.926C288.894 137.924 288.961 137.949 289.012 137.996C289.063 138.043 289.093 138.108 289.097 138.177C289.099 138.246 289.074 138.313 289.027 138.364C288.98 138.414 288.915 138.445 288.846 138.449C287.851 138.497 286.758 138.602 285.678 138.699C284.181 138.839 282.754 138.978 281.591 138.978Z" fill="black"/>
<path d="M291.179 141.019C291.138 141.02 291.098 141.01 291.062 140.992C291.025 140.974 290.994 140.947 290.97 140.915C290.359 139.995 289.626 139.163 288.791 138.442C288.723 138.424 288.666 138.38 288.631 138.32C288.596 138.26 288.586 138.189 288.603 138.121C288.619 138.056 288.66 138 288.718 137.965C288.775 137.93 288.843 137.918 288.909 137.933C289.466 138.065 290.831 139.842 291.388 140.601C291.408 140.629 291.422 140.66 291.431 140.693C291.439 140.726 291.44 140.76 291.435 140.794C291.43 140.828 291.418 140.86 291.4 140.889C291.383 140.918 291.359 140.944 291.332 140.964C291.288 140.998 291.234 141.018 291.179 141.019V141.019Z" fill="black"/>
<path d="M323.206 158.067C323.16 158.067 323.114 158.055 323.074 158.032L319.258 155.726C319.211 155.685 319.18 155.629 319.17 155.567C319.161 155.505 319.173 155.442 319.206 155.388C319.238 155.335 319.289 155.294 319.348 155.275C319.407 155.255 319.472 155.257 319.53 155.28L323.345 157.586C323.393 157.616 323.429 157.661 323.45 157.714C323.47 157.766 323.473 157.824 323.458 157.878C323.444 157.933 323.412 157.981 323.368 158.016C323.324 158.051 323.269 158.072 323.213 158.074L323.206 158.067Z" fill="black"/>
<path d="M354.217 158.972C354.148 158.969 354.083 158.938 354.037 158.888C353.99 158.837 353.965 158.77 353.967 158.701C354.224 152.619 353.967 151.469 353.967 151.427C353.96 151.364 353.977 151.301 354.014 151.249C354.051 151.197 354.105 151.16 354.167 151.145C354.228 151.13 354.293 151.138 354.35 151.166C354.406 151.195 354.451 151.243 354.475 151.302C354.475 151.351 354.746 152.486 354.475 158.722C354.471 158.788 354.443 158.851 354.395 158.897C354.347 158.944 354.284 158.971 354.217 158.972V158.972Z" fill="black"/>
<path d="M367.975 156.248C368.529 156.248 368.978 155.799 368.978 155.245C368.978 154.691 368.529 154.242 367.975 154.242C367.421 154.242 366.973 154.691 366.973 155.245C366.973 155.799 367.421 156.248 367.975 156.248Z" fill="white"/>
<path d="M368.393 161.055C368.947 161.055 369.395 160.606 369.395 160.052C369.395 159.498 368.947 159.049 368.393 159.049C367.839 159.049 367.39 159.498 367.39 160.052C367.39 160.606 367.839 161.055 368.393 161.055Z" fill="white"/>
<path d="M391.989 141.235C391.292 141.625 390.596 142.009 389.809 142.399C385.388 144.614 385.395 139.793 389.489 136.693C389.786 136.465 390.095 136.253 390.415 136.059L391.989 141.235Z" fill="black"/>
<path d="M394.906 159.314C394.854 159.315 394.803 159.3 394.759 159.271C394.716 159.243 394.682 159.202 394.662 159.154C394.14 157.886 392.407 154.395 390.568 150.703C389.176 147.916 387.783 145.053 386.656 142.747C386.641 142.716 386.633 142.682 386.631 142.648C386.629 142.614 386.634 142.579 386.646 142.547C386.658 142.515 386.676 142.485 386.699 142.459C386.722 142.434 386.75 142.413 386.781 142.399C386.812 142.384 386.846 142.376 386.88 142.374C386.914 142.372 386.949 142.378 386.981 142.389C387.013 142.401 387.043 142.419 387.068 142.442C387.094 142.465 387.114 142.493 387.129 142.524C388.229 144.83 389.663 147.7 391.042 150.473C392.887 154.172 394.621 157.67 395.15 158.958C395.163 158.99 395.171 159.024 395.171 159.058C395.171 159.093 395.165 159.127 395.152 159.158C395.139 159.19 395.12 159.219 395.096 159.243C395.071 159.268 395.042 159.287 395.011 159.3C394.977 159.312 394.941 159.316 394.906 159.314V159.314Z" fill="black"/>
<path d="M364.25 119.604C365.193 119.312 366.103 118.922 366.966 118.44C366.966 118.44 367.335 120.53 366.033 121.06C364.731 121.589 364.348 120.384 364.25 119.604Z" fill="white"/>
<path d="M372.974 116.643C372.915 116.639 372.858 116.615 372.814 116.575C372.77 116.534 372.741 116.481 372.731 116.422C372.721 116.363 372.732 116.302 372.761 116.25C372.79 116.198 372.835 116.157 372.891 116.134L374.889 115.438C374.923 115.419 374.96 115.409 374.998 115.407C375.037 115.404 375.075 115.411 375.111 115.425C375.147 115.439 375.179 115.461 375.206 115.488C375.232 115.516 375.252 115.55 375.265 115.586C375.277 115.623 375.281 115.661 375.277 115.7C375.273 115.738 375.26 115.775 375.24 115.808C375.221 115.841 375.194 115.869 375.162 115.89C375.13 115.912 375.094 115.926 375.056 115.932L373.058 116.629L372.974 116.643Z" fill="black"/>
<path d="M363.582 118.635H363.512C363.247 118.6 362.992 118.51 362.764 118.369C362.536 118.229 362.34 118.042 362.189 117.82C362.095 117.574 362.055 117.31 362.071 117.047C362.088 116.783 362.162 116.527 362.287 116.295C362.756 115.228 362.993 114.074 362.983 112.909C362.976 112.8 362.939 112.695 362.878 112.604C362.817 112.514 362.733 112.441 362.635 112.393C362.411 112.312 362.171 112.287 361.935 112.321C361.699 112.355 361.476 112.447 361.284 112.588C361.226 112.612 361.162 112.613 361.102 112.594C361.043 112.574 360.992 112.534 360.96 112.48C360.927 112.427 360.915 112.364 360.924 112.302C360.934 112.24 360.965 112.183 361.013 112.142C361.279 111.952 361.589 111.832 361.914 111.795C362.239 111.757 362.569 111.802 362.872 111.926C363.049 112.014 363.201 112.146 363.312 112.309C363.423 112.473 363.489 112.663 363.505 112.86C363.533 114.103 363.296 115.338 362.809 116.483C362.716 116.647 362.658 116.829 362.637 117.017C362.617 117.205 362.635 117.396 362.691 117.576C362.809 117.806 363.101 117.974 363.679 118.12C363.748 118.129 363.809 118.165 363.851 118.22C363.893 118.275 363.911 118.344 363.902 118.412C363.893 118.481 363.857 118.543 363.802 118.584C363.747 118.626 363.678 118.645 363.61 118.635H363.582Z" fill="black"/>
<path d="M368.894 112.721C368.851 112.732 368.805 112.732 368.762 112.721C367.995 112.327 367.111 112.228 366.276 112.442C366.242 112.459 366.204 112.467 366.165 112.468C366.127 112.468 366.089 112.461 366.054 112.445C366.019 112.429 365.988 112.406 365.963 112.377C365.937 112.348 365.919 112.314 365.908 112.277C365.897 112.24 365.895 112.202 365.9 112.164C365.906 112.126 365.92 112.09 365.941 112.057C365.962 112.025 365.99 111.998 366.023 111.978C366.055 111.958 366.092 111.945 366.13 111.94C367.1 111.683 368.132 111.799 369.019 112.268C369.067 112.298 369.104 112.343 369.124 112.396C369.144 112.448 369.147 112.506 369.132 112.56C369.118 112.615 369.086 112.663 369.042 112.698C368.998 112.733 368.943 112.753 368.887 112.755L368.894 112.721Z" fill="black"/>
<path d="M374.436 114.03C369.98 115.779 368.866 110.547 370.837 108.826C369.61 109.103 368.434 109.573 367.355 110.22C365.831 110.993 363.603 111.07 362.711 109.007C364.104 106.917 366.332 105.357 369.556 106.088C373.935 107.106 374.722 111.272 374.436 114.03Z" fill="#FFC36C"/>
<path d="M192.318 230.701C192.318 230.813 192.269 230.931 192.242 231.05C192.186 231.286 192.123 231.551 192.067 231.823L191.873 232.68L191.705 233.46C191.636 233.801 191.559 234.157 191.497 234.463C191.434 234.77 191.406 234.895 191.364 235.104C191.295 235.452 191.232 235.801 191.183 236.066L191.121 236.421C191.121 236.539 191.079 236.651 191.065 236.748C191.051 236.846 191.065 236.908 191.065 236.978C191.062 237.02 191.062 237.062 191.065 237.104C191.062 237.141 191.062 237.178 191.065 237.215C191.062 237.245 191.062 237.275 191.065 237.306C191.062 237.319 191.062 237.334 191.065 237.347H163.953C163.953 236.268 163.953 235.16 163.953 234.024C163.953 233.251 163.953 232.464 163.953 231.67C163.953 231.349 163.953 231.022 163.953 230.701H192.318Z" fill="#C15D31"/>
<path d="M261.365 159.209C261.308 159.208 261.253 159.189 261.208 159.155C261.163 159.12 261.13 159.072 261.114 159.017C261.099 158.962 261.101 158.904 261.121 158.851C261.141 158.798 261.178 158.752 261.226 158.722C262.514 157.941 264.046 156.632 264.443 153.274C264.446 153.239 264.457 153.205 264.473 153.175C264.49 153.144 264.513 153.118 264.54 153.096C264.567 153.075 264.599 153.059 264.632 153.05C264.666 153.041 264.701 153.039 264.735 153.044C264.77 153.047 264.803 153.057 264.834 153.074C264.864 153.091 264.891 153.114 264.912 153.141C264.934 153.168 264.95 153.2 264.959 153.233C264.968 153.267 264.97 153.302 264.965 153.336C264.638 156.123 263.572 157.913 261.484 159.167C261.448 159.191 261.408 159.205 261.365 159.209V159.209Z" fill="black"/>
<path d="M264.707 153.573C264.673 153.571 264.639 153.563 264.608 153.548C264.577 153.533 264.549 153.512 264.527 153.486C264.504 153.46 264.487 153.429 264.476 153.396C264.465 153.364 264.461 153.329 264.464 153.295C264.568 151.525 266.768 150.306 268.384 149.421L268.592 149.303C270.055 148.495 271.015 147.659 271.162 147.066C271.182 146.999 271.188 146.928 271.179 146.858C271.169 146.788 271.144 146.721 271.106 146.662C271.068 146.604 271.055 146.533 271.069 146.465C271.084 146.397 271.124 146.338 271.182 146.3C271.241 146.262 271.311 146.249 271.379 146.263C271.447 146.278 271.507 146.318 271.545 146.377C271.622 146.496 271.674 146.63 271.695 146.771C271.717 146.911 271.708 147.055 271.67 147.192C271.412 148.209 269.79 149.233 268.843 149.755L268.627 149.874C267.123 150.703 265.062 151.839 264.979 153.322C264.975 153.391 264.945 153.456 264.894 153.503C264.843 153.55 264.776 153.575 264.707 153.573Z" fill="black"/>
<path d="M218.748 391.659C218.184 392.133 211.709 392.223 210.114 391.192C208.52 390.161 193.773 378.13 191.239 375.97C188.705 373.81 187.758 372.612 192.339 365.367C194.783 374.751 207.531 384.288 207.928 384.455C208.513 384.713 210.525 384.553 211.918 384.407C212.584 385.875 213.446 387.246 214.48 388.482C215.253 389.2 219.319 391.192 218.748 391.659Z" fill="#8EBF8C"/>
<path d="M312.226 392.349H278.396C277.549 390.262 277.041 388.054 276.892 385.807C284.3 387.068 297.967 388.19 298.545 387.967C300.15 387.199 301.836 386.615 303.572 386.225C304.239 386.902 304.998 387.482 305.828 387.946C309.72 390.015 312.178 390.537 312.226 392.349Z" fill="#8EBF8C"/>
<path d="M253.115 289.897H253.045C253.012 289.888 252.981 289.873 252.954 289.852C252.927 289.831 252.904 289.805 252.887 289.775C252.87 289.745 252.86 289.712 252.856 289.678C252.852 289.644 252.855 289.609 252.864 289.576C259.534 266.252 260.767 261.71 259.952 256.729C259.94 256.692 259.935 256.654 259.94 256.615C259.944 256.577 259.956 256.54 259.976 256.507C259.996 256.474 260.022 256.446 260.054 256.425C260.086 256.403 260.122 256.389 260.16 256.383C260.198 256.376 260.237 256.379 260.274 256.389C260.311 256.399 260.345 256.418 260.374 256.443C260.404 256.468 260.427 256.499 260.443 256.534C260.459 256.569 260.467 256.607 260.467 256.645C261.303 261.731 260.063 266.301 253.365 289.716C253.348 289.768 253.314 289.814 253.269 289.847C253.224 289.879 253.17 289.897 253.115 289.897V289.897Z" fill="black"/>
<path d="M267.228 205.572L266.385 204.82C265.41 203.97 265.153 203.74 265.153 203.427H265.501C265.501 203.587 265.849 203.893 266.615 204.562L267.457 205.308L267.228 205.572Z" fill="#845959"/>
<path d="M269.574 214.051L269.24 213.967C269.609 212.497 267.847 209.982 263.419 205.816L263.656 205.565C268.216 209.885 269.985 212.421 269.574 214.051Z" fill="#845959"/>
<path d="M266.963 215.361C266.914 213.967 265.404 211.724 262.089 208.164L262.34 207.927C265.821 211.599 267.283 213.814 267.339 215.347L266.963 215.361Z" fill="#845959"/>
<path d="M192.576 229.816C192.535 229.816 192.495 229.807 192.459 229.789C192.423 229.77 192.391 229.744 192.367 229.712C190.473 227.239 187.841 223.735 185.725 220.913C183.81 218.356 182.153 216.155 181.993 215.981C181.561 215.514 180.746 215.772 180.739 215.772C180.678 215.779 180.617 215.765 180.565 215.732C180.513 215.699 180.474 215.649 180.455 215.59C180.436 215.532 180.438 215.469 180.461 215.411C180.484 215.354 180.525 215.307 180.579 215.277C180.885 215.172 181.212 215.149 181.529 215.212C181.845 215.274 182.14 215.419 182.383 215.632C182.55 215.813 183.859 217.555 186.149 220.607C188.238 223.393 190.898 226.932 192.792 229.405C192.822 229.444 192.841 229.49 192.846 229.539C192.851 229.588 192.842 229.637 192.82 229.681C192.798 229.725 192.764 229.762 192.722 229.787C192.68 229.812 192.632 229.825 192.583 229.823L192.576 229.816Z" fill="black"/>
<path d="M180.747 169.987C180.712 169.993 180.677 169.993 180.642 169.987L178.595 169.074C178.538 169.041 178.495 168.989 178.475 168.926C178.454 168.864 178.458 168.796 178.485 168.736C178.512 168.676 178.56 168.628 178.621 168.602C178.681 168.575 178.749 168.572 178.811 168.593L180.858 169.506C180.91 169.532 180.953 169.575 180.978 169.627C181.004 169.68 181.011 169.74 180.999 169.797C180.987 169.855 180.957 169.906 180.912 169.944C180.868 169.982 180.812 170.005 180.753 170.008L180.747 169.987Z" fill="black"/>
<path d="M192.074 168.593C192.027 168.594 191.981 168.582 191.94 168.558C191.899 168.534 191.866 168.499 191.844 168.457C191.821 168.415 191.811 168.368 191.814 168.321C191.816 168.274 191.832 168.228 191.859 168.189C192.416 167.36 192.207 167.088 191.643 166.378L191.357 166.009C190.738 165.173 189.401 163.076 190.334 161.627C190.376 161.579 190.434 161.548 190.496 161.54C190.559 161.531 190.623 161.546 190.676 161.58C190.729 161.615 190.768 161.667 190.786 161.728C190.804 161.789 190.799 161.855 190.773 161.912C189.993 163.124 191.343 165.124 191.775 165.702L192.054 166.064C192.638 166.81 193.056 167.346 192.29 168.489C192.266 168.522 192.233 168.55 192.195 168.568C192.158 168.586 192.116 168.595 192.074 168.593V168.593Z" fill="black"/>
<path d="M185.648 165.11C185.58 165.1 185.519 165.063 185.478 165.009C185.436 164.954 185.417 164.886 185.425 164.817C185.641 163.194 186.574 162.518 187.375 162.428C187.442 162.424 187.509 162.445 187.562 162.487C187.615 162.53 187.65 162.591 187.66 162.658C187.668 162.727 187.648 162.796 187.605 162.851C187.562 162.906 187.5 162.942 187.43 162.95C187.138 162.95 186.156 163.222 185.94 164.887C185.936 164.921 185.925 164.954 185.908 164.983C185.891 165.013 185.868 165.039 185.841 165.06C185.814 165.081 185.783 165.096 185.75 165.104C185.716 165.113 185.682 165.115 185.648 165.11V165.11Z" fill="black"/>
<path d="M190.564 172.007C190.157 171.968 189.765 171.839 189.415 171.627C189.066 171.416 188.768 171.129 188.545 170.788C188.502 170.733 188.483 170.664 188.491 170.596C188.5 170.527 188.535 170.465 188.59 170.422C188.644 170.38 188.713 170.36 188.782 170.369C188.851 170.377 188.913 170.413 188.955 170.467C189.652 171.387 190.487 171.714 191.121 171.324C191.179 171.301 191.243 171.299 191.303 171.319C191.362 171.339 191.412 171.379 191.445 171.432C191.477 171.486 191.49 171.549 191.48 171.611C191.471 171.673 191.44 171.729 191.392 171.77C191.143 171.925 190.857 172.007 190.564 172.007V172.007Z" fill="black"/>
<path d="M186.595 177.469C186.435 178.068 186.163 179.426 185.899 181.057C183.357 178.646 183.524 174.947 183.524 174.947C184.323 176.03 185.378 176.897 186.595 177.469V177.469Z" fill="black"/>
<path d="M378.384 114.476L378.161 114.205C379.992 112.7 384.427 111.843 386.927 112.512L386.837 112.846C384.421 112.212 380.153 113.034 378.384 114.476Z" fill="#845959"/>
<path d="M378.76 116.74L378.635 116.42C381.208 115.352 384.083 115.263 386.718 116.169L386.586 116.49C384.034 115.617 381.251 115.706 378.76 116.74V116.74Z" fill="#845959"/>
<path d="M386.774 120.022C384.56 118.099 381.364 117.932 379.171 118.67L379.066 118.343C381.35 117.597 384.692 117.751 387.004 119.736L386.774 120.022Z" fill="#845959"/>
<path d="M333.406 233.265C333.35 233.264 333.295 233.246 333.25 233.212C333.205 233.178 333.172 233.131 333.156 233.077L326.604 210.254C326.263 209.055 325.543 208 324.551 207.246C323.559 206.492 322.349 206.081 321.104 206.074H317.699C317.661 206.08 317.622 206.078 317.585 206.068C317.548 206.058 317.514 206.039 317.485 206.014C317.456 205.99 317.432 205.959 317.416 205.924C317.4 205.889 317.391 205.851 317.391 205.813C317.391 205.774 317.4 205.736 317.416 205.702C317.432 205.667 317.456 205.636 317.485 205.611C317.514 205.586 317.548 205.568 317.585 205.558C317.622 205.547 317.661 205.545 317.699 205.551H321.104C322.459 205.555 323.776 205.999 324.858 206.815C325.94 207.632 326.729 208.777 327.105 210.08L333.657 232.903C333.666 232.936 333.669 232.97 333.665 233.004C333.661 233.038 333.65 233.071 333.634 233.101C333.617 233.131 333.594 233.157 333.567 233.178C333.54 233.199 333.509 233.214 333.476 233.223L333.406 233.265Z" fill="black"/>
<path d="M323.547 233.265C323.503 233.266 323.46 233.255 323.421 233.234C323.383 233.214 323.35 233.183 323.326 233.146C323.302 233.109 323.288 233.067 323.286 233.023C323.283 232.979 323.292 232.935 323.311 232.896L329.271 219.318C329.284 219.286 329.304 219.258 329.329 219.234C329.354 219.21 329.383 219.191 329.415 219.178C329.447 219.166 329.481 219.159 329.515 219.16C329.55 219.161 329.584 219.168 329.615 219.182C329.647 219.195 329.675 219.215 329.699 219.24C329.723 219.265 329.742 219.294 329.754 219.326C329.767 219.358 329.773 219.392 329.773 219.427C329.772 219.461 329.765 219.495 329.751 219.527L323.756 233.112C323.738 233.153 323.709 233.189 323.672 233.216C323.636 233.243 323.593 233.26 323.547 233.265V233.265Z" fill="black"/>
<path d="M130.491 285.48C130.454 285.488 130.416 285.488 130.38 285.48C130.348 285.466 130.32 285.445 130.297 285.42C130.273 285.395 130.255 285.365 130.243 285.332C130.232 285.3 130.227 285.265 130.229 285.231C130.23 285.196 130.239 285.163 130.254 285.132C130.324 284.971 132.065 281.237 133.77 279.489C133.818 279.439 133.884 279.41 133.954 279.409C134.023 279.407 134.09 279.434 134.139 279.482C134.189 279.53 134.218 279.596 134.219 279.665C134.221 279.734 134.194 279.801 134.146 279.851C132.503 281.537 130.749 285.306 130.728 285.348C130.705 285.39 130.67 285.424 130.628 285.448C130.587 285.471 130.539 285.482 130.491 285.48V285.48Z" fill="black"/>
<path d="M131.006 285.48C130.955 285.478 130.905 285.46 130.864 285.43C130.822 285.4 130.79 285.359 130.771 285.311C130.753 285.263 130.749 285.21 130.76 285.16C130.77 285.109 130.796 285.063 130.832 285.027C132.97 283.097 134.724 281.885 135.901 281.544C135.964 281.534 136.029 281.547 136.083 281.581C136.137 281.614 136.177 281.667 136.196 281.728C136.215 281.789 136.211 281.855 136.185 281.913C136.158 281.972 136.112 282.019 136.054 282.045C135.288 282.275 133.819 283.056 131.18 285.431C131.13 285.467 131.068 285.485 131.006 285.48V285.48Z" fill="black"/>
<path d="M126.418 291.694C126.374 291.693 126.33 291.681 126.292 291.658C126.253 291.636 126.221 291.604 126.198 291.566C126.175 291.528 126.162 291.484 126.161 291.44C126.159 291.395 126.168 291.351 126.188 291.311C127.135 289.801 128.272 288.419 129.572 287.201C129.623 287.164 129.685 287.147 129.748 287.153C129.81 287.158 129.869 287.185 129.913 287.229C129.957 287.273 129.984 287.332 129.989 287.394C129.995 287.457 129.978 287.519 129.941 287.57C128.681 288.757 127.574 290.098 126.648 291.562C126.625 291.603 126.592 291.637 126.551 291.66C126.511 291.683 126.465 291.695 126.418 291.694V291.694Z" fill="black"/>
<path d="M128.653 294.997H128.59C128.557 294.988 128.525 294.974 128.497 294.953C128.469 294.932 128.446 294.906 128.428 294.876C128.411 294.846 128.399 294.813 128.395 294.779C128.391 294.744 128.393 294.71 128.402 294.676C128.402 294.634 129.405 290.803 129.976 287.709C129.989 287.641 130.028 287.581 130.086 287.541C130.143 287.502 130.214 287.487 130.282 287.5C130.351 287.513 130.411 287.553 130.45 287.61C130.489 287.668 130.504 287.739 130.491 287.807C129.92 290.886 128.925 294.739 128.911 294.774C128.902 294.836 128.871 294.893 128.824 294.934C128.777 294.975 128.716 294.997 128.653 294.997V294.997Z" fill="black"/>
<path d="M131.758 285.585C131.258 285.894 130.688 286.071 130.101 286.1C129.76 286.1 129.739 285.557 130.101 284.616C130.714 284.822 131.278 285.152 131.758 285.585Z" fill="black"/>
<path d="M138.449 297.351C137.874 297.35 137.3 297.312 136.73 297.24C136.696 297.236 136.663 297.225 136.633 297.208C136.604 297.191 136.578 297.169 136.557 297.142C136.536 297.115 136.52 297.085 136.511 297.052C136.502 297.019 136.499 296.985 136.503 296.951C136.507 296.917 136.518 296.884 136.535 296.854C136.552 296.825 136.574 296.799 136.601 296.778C136.628 296.757 136.658 296.741 136.691 296.732C136.724 296.723 136.758 296.72 136.792 296.724C147.48 298.048 150.766 286.274 152.339 280.652C152.549 279.691 152.867 278.756 153.286 277.866C153.325 277.808 153.385 277.769 153.453 277.756C153.521 277.743 153.591 277.757 153.648 277.796C153.706 277.835 153.745 277.895 153.758 277.963C153.771 278.031 153.757 278.101 153.718 278.158C153.337 279.009 153.043 279.896 152.841 280.805C151.316 286.267 148.211 297.351 138.449 297.351Z" fill="black"/>
<path d="M134.126 378.074C134.058 378.072 133.993 378.045 133.945 377.997C133.897 377.949 133.87 377.884 133.868 377.816C133.59 367.659 128.89 361.793 126.154 359.968C126.125 359.948 126.101 359.924 126.082 359.895C126.063 359.867 126.05 359.835 126.044 359.801C126.037 359.767 126.038 359.733 126.044 359.699C126.051 359.666 126.065 359.634 126.084 359.605C126.103 359.577 126.128 359.553 126.156 359.534C126.185 359.515 126.217 359.502 126.251 359.496C126.284 359.489 126.319 359.489 126.352 359.496C126.386 359.503 126.418 359.517 126.446 359.536C129.231 361.438 134.105 367.429 134.397 377.802C134.397 377.87 134.371 377.936 134.325 377.985C134.278 378.034 134.214 378.063 134.146 378.067L134.126 378.074Z" fill="black"/>
<path d="M361.187 223.63C361.187 229.273 355.902 233.843 349.35 233.843C342.799 233.843 337.514 229.273 337.514 223.63C337.515 222.883 337.608 222.139 337.793 221.415H360.839C361.047 222.136 361.164 222.88 361.187 223.63V223.63Z" fill="white"/>
<path d="M370.349 237.87C369.033 240.538 375.223 243.833 375.223 241.806C375.279 239.138 371.101 236.281 370.349 237.87Z" fill="#4B764A"/>
<path d="M363.443 217.039C361.855 215.11 357.176 218.725 358.729 219.422C360.783 220.349 364.396 218.189 363.443 217.039Z" fill="#4B764A"/>
<path d="M345.194 219.596C344.498 217.2 338.767 218.725 339.923 219.966C341.448 221.61 345.619 221.024 345.194 219.596Z" fill="#8EBF8C"/>
<path d="M347.429 217.235C347.074 215.012 341.796 215.695 342.68 216.949C343.857 218.593 347.652 218.558 347.429 217.235Z" fill="#8EBF8C"/>
<path d="M341.364 214.448C339.902 212.044 334.193 214.831 335.794 215.918C337.918 217.36 342.235 215.876 341.364 214.448Z" fill="#4B764A"/>
<path d="M369.221 211.292C367.404 209.084 362.057 213.222 363.832 214.023C366.165 215.075 370.301 212.609 369.221 211.292Z" fill="#8EBF8C"/>
<path d="M350.729 212.915C348.327 212.219 346.503 217.834 348.174 217.541C350.381 217.158 352.149 213.333 350.729 212.915Z" fill="#4B764A"/>
<path d="M365.531 239.2C368.316 240.245 370.976 233.739 368.971 233.941C366.346 234.205 363.909 238.58 365.531 239.2Z" fill="#8EBF8C"/>
<path d="M368.254 219.269C370.482 217.451 367.007 213.459 366.297 214.852C365.357 216.663 367.195 220.147 368.254 219.269Z" fill="#4B764A"/>
<path d="M354.468 224.654C355.568 227.441 359.912 219.192 357.907 219.394C355.255 219.659 353.932 223.296 354.468 224.654Z" fill="#8EBF8C"/>
<path d="M362.412 225.859C364.703 223.957 360.372 218.419 359.55 220.286C358.464 222.703 361.054 226.988 362.412 225.859Z" fill="#8EBF8C"/>
<path d="M370.106 259.857C372.849 259.947 373.26 253.475 371.561 254.242C369.319 255.28 368.476 259.822 370.106 259.857Z" fill="#4B764A"/>
<path d="M369.214 227.984C366.429 229.057 373.733 234.254 374.088 232.297C374.492 229.663 370.447 227.51 369.214 227.984Z" fill="#8EBF8C"/>
<path d="M364.445 220.606C362.419 222.446 370.656 224.285 370.266 222.494C369.757 220.147 365.336 219.784 364.445 220.606Z" fill="#8EBF8C"/>
<path d="M356.988 215.368C358.235 218.551 362.148 209.223 360.323 209C357.914 208.7 356.431 213.953 356.988 215.368Z" fill="#4B764A"/>
<path d="M370.203 215.27C368.518 216.803 375.376 218.335 375.077 216.844C374.631 214.873 370.948 214.573 370.203 215.27Z" fill="#4B764A"/>
<path d="M370.405 243.875C369.131 241.186 364.459 248.849 366.471 249.03C369.103 249.26 370.948 245.066 370.405 243.875Z" fill="#8EBF8C"/>
<path d="M371.366 247.491C368.72 248.884 375.697 253.949 376.351 251.392C377.005 248.835 372.494 246.906 371.366 247.491Z" fill="#8EBF8C"/>
<path d="M364.285 231.119C365.253 233.906 368.316 225.748 366.777 224.849C364.473 223.505 363.554 228.987 364.285 231.119Z" fill="#4B764A"/>
<path d="M352.56 220C352.508 219.999 352.458 219.983 352.415 219.953C352.372 219.924 352.339 219.882 352.32 219.834C352.3 219.786 352.296 219.733 352.306 219.682C352.317 219.631 352.342 219.584 352.379 219.548C356.557 215.514 361.98 213.368 366.193 214.079C367.487 214.292 368.71 214.818 369.756 215.611C370.801 216.403 371.638 217.439 372.194 218.628C372.226 218.69 372.231 218.762 372.21 218.828C372.188 218.894 372.141 218.948 372.08 218.98C372.018 219.011 371.946 219.017 371.88 218.995C371.814 218.974 371.759 218.927 371.728 218.865C371.214 217.745 370.431 216.769 369.45 216.024C368.469 215.279 367.319 214.788 366.102 214.594C362.113 213.898 356.745 216.064 352.741 219.924C352.693 219.972 352.628 220 352.56 220V220Z" fill="black"/>
<path d="M375.864 260.135C375.822 260.145 375.779 260.145 375.738 260.135C372.452 258.31 370.509 250.521 370.231 245.826C370.168 244.746 370.133 243.694 370.106 242.684C370.081 237.917 369.409 233.176 368.107 228.59C365.963 220.753 361.075 220.077 354.308 219.136L353.611 219.039C353.577 219.035 353.545 219.024 353.515 219.007C353.485 218.989 353.459 218.967 353.439 218.939C353.418 218.912 353.403 218.881 353.394 218.848C353.386 218.815 353.384 218.78 353.389 218.746C353.393 218.712 353.404 218.68 353.421 218.65C353.438 218.62 353.461 218.594 353.488 218.573C353.515 218.553 353.546 218.538 353.58 218.529C353.613 218.52 353.647 218.519 353.681 218.523L354.377 218.621C361.34 219.582 366.374 220.279 368.609 228.451C369.923 233.075 370.603 237.856 370.628 242.663C370.628 243.673 370.69 244.753 370.753 245.791C371.08 251.246 373.176 258.108 375.996 259.669C376.043 259.699 376.08 259.743 376.1 259.795C376.121 259.847 376.124 259.904 376.11 259.958C376.096 260.012 376.066 260.06 376.023 260.096C375.98 260.132 375.926 260.153 375.871 260.156L375.864 260.135Z" fill="black"/>
<path d="M342.033 226.479H341.956C341.89 226.459 341.835 226.413 341.802 226.351C341.77 226.29 341.763 226.218 341.782 226.152C343.042 222.104 344.477 219.882 346.169 219.457C346.619 219.355 347.087 219.357 347.537 219.462C347.986 219.567 348.407 219.772 348.766 220.063C347.881 217.597 345.326 214.316 342.499 212.065C342.445 212.023 342.409 211.96 342.401 211.892C342.393 211.823 342.412 211.754 342.454 211.7C342.497 211.645 342.559 211.61 342.627 211.601C342.696 211.593 342.765 211.612 342.82 211.654C346.064 214.218 348.94 218.119 349.524 220.711C349.538 220.766 349.533 220.823 349.51 220.875C349.487 220.927 349.448 220.969 349.399 220.997C349.355 221.029 349.301 221.047 349.246 221.047C349.191 221.047 349.137 221.029 349.093 220.997C348.104 220.091 347.171 219.75 346.308 219.973C344.825 220.377 343.474 222.508 342.283 226.319C342.263 226.368 342.228 226.409 342.183 226.438C342.138 226.466 342.086 226.481 342.033 226.479V226.479Z" fill="black"/>
<path d="M350.367 220.69C348.779 218.76 344.101 222.376 345.653 223.073C347.693 223.999 351.307 221.84 350.367 220.69Z" fill="#4B764A"/>
<path d="M341.476 228.813C344.442 228.472 344.317 223.094 342.715 223.679C340.466 224.494 339.568 229.036 341.476 228.813Z" fill="#8EBF8C"/>
<path d="M353.242 214.908C350.771 215.27 351.446 221.143 352.846 220.174C354.691 218.907 354.712 214.692 353.242 214.908Z" fill="#8EBF8C"/>
<path d="M341.789 210.651C340.132 212.86 345.612 215.695 345.591 214.19C345.556 212.212 343.321 208.61 341.789 210.651Z" fill="#8EBF8C"/>
<path d="M379.15 262.009C380.619 259.425 373.496 256.157 373.58 258.178C373.803 261.431 378.119 263.821 379.15 262.009Z" fill="#8EBF8C"/>
<path d="M372.118 218.259C369.214 217.625 372.424 226.006 373.789 224.529C375.599 222.557 373.406 218.537 372.118 218.259Z" fill="#8EBF8C"/>
<path d="M390.102 392.962C390.041 392.963 389.982 392.943 389.935 392.904C389.888 392.866 389.856 392.812 389.844 392.753L361.159 241.367C360.901 240.012 360.18 238.79 359.119 237.91C358.058 237.03 356.723 236.548 355.345 236.546H280.06C278.681 236.546 277.346 237.028 276.285 237.908C275.223 238.789 274.502 240.012 274.246 241.367L245.56 392.753C245.54 392.814 245.499 392.865 245.443 392.897C245.388 392.93 245.323 392.941 245.26 392.929C245.197 392.917 245.141 392.883 245.101 392.833C245.062 392.782 245.042 392.719 245.045 392.655L273.731 241.27C274.012 239.796 274.798 238.467 275.953 237.511C277.108 236.555 278.56 236.031 280.06 236.031H355.338C356.837 236.031 358.289 236.555 359.444 237.511C360.599 238.467 361.385 239.796 361.667 241.27L390.353 392.655C390.36 392.689 390.36 392.724 390.353 392.758C390.346 392.792 390.333 392.824 390.313 392.853C390.294 392.881 390.269 392.906 390.239 392.925C390.21 392.943 390.178 392.956 390.144 392.962H390.102Z" fill="black"/>
<path d="M499.253 393.045H57.7469C57.6546 393.045 57.5661 393.009 57.5008 392.943C57.4355 392.878 57.3988 392.789 57.3988 392.697C57.3988 392.605 57.4355 392.516 57.5008 392.451C57.5661 392.385 57.6546 392.349 57.7469 392.349H499.253C499.345 392.349 499.434 392.385 499.499 392.451C499.564 392.516 499.601 392.605 499.601 392.697C499.601 392.789 499.564 392.878 499.499 392.943C499.434 393.009 499.345 393.045 499.253 393.045Z" fill="#E4D0C0"/>
<path d="M323.553 174.725C324.364 174.917 325.065 175.423 325.502 176.132C325.94 176.841 326.078 177.695 325.886 178.506L316.036 220.166C315.845 220.977 315.339 221.679 314.63 222.117C313.922 222.554 313.068 222.692 312.258 222.501V222.501L323.553 174.725Z" fill="#E4D0C0"/>
<path d="M363.213 233.007H272.192C271.054 233.007 270.131 233.93 270.131 235.069V235.076C270.131 236.215 271.054 237.138 272.192 237.138H363.213C364.351 237.138 365.274 236.215 365.274 235.076V235.069C365.274 233.93 364.351 233.007 363.213 233.007Z" fill="#E4D0C0"/>
</svg>
