<svg width="557" height="418" viewBox="0 0 557 418" fill="none" xmlns="http://www.w3.org/2000/svg">
<path d="M402.321 355.565L370.628 354.868L367.843 330.61L357.176 237.605L352.205 320.947L326.36 322.828L327.676 171.979L381.273 175.1L399.411 330.61L402.321 355.565Z" fill="#B8C1D0"/>
<path d="M383.404 170.739C383.404 170.837 387.212 204.242 387.212 204.242L378.161 204.458C375.646 204.52 373.2 203.625 371.318 201.953C369.437 200.281 368.259 197.957 368.024 195.45L365.81 171.972L383.404 170.739Z" fill="#4B764A"/>
<path d="M388.689 179.97C385.207 179.97 384.079 176.076 384.845 172.815C385.611 169.555 391.467 171.422 391.467 171.422L388.689 179.97Z" fill="black"/>
<path d="M356.215 80.7437C358.659 88.9504 361.291 96.6137 365.865 94.2938C368.866 92.7681 365.643 86.5051 356.814 79.6638L356.215 80.7437Z" fill="black"/>
<path d="M406.506 176.953C398.151 178.855 388.689 179.963 388.689 179.963C389.218 172.641 389.315 159.718 386.419 156.346L391.355 155.998L385.402 145.185L366.325 145.52L339.401 145.987L316.348 146.384C316.348 146.384 320.832 120.872 321.918 114.943C323.004 109.014 328.024 102.403 335.662 101.093C338.503 100.592 340.807 100.299 342.576 100.118C343.488 100.034 344.261 99.9717 344.887 99.9368C345.862 99.8881 346.51 99.8811 346.823 99.8811H347.046L358.457 98.5644C359.279 98.6619 360.08 98.7525 360.859 98.8291L363.568 99.1148C379.338 100.724 384.755 100.508 390.561 106.722C396.946 113.591 398.749 119.262 402.453 127.95C406.157 136.637 412.452 151.198 414.443 157.447C416.434 163.696 414.888 175.058 406.506 176.953Z" fill="#4B764A"/>
<path d="M366.583 147.756C366.583 147.756 339.366 148.627 339.178 148.411C339.178 148.411 339.241 147.505 339.401 145.993C339.433 145.692 339.468 145.364 339.505 145.011L341.525 145.213L346.851 99.888H347.074L358.485 98.5714L359.878 98.7246L363.617 143.019C363.617 143.019 365.058 142.942 366.04 142.914L366.346 145.52L366.583 147.756Z" fill="#B7AD7A"/>
<path d="M367.662 139.946H367.62C367.586 139.939 367.555 139.925 367.527 139.905C367.498 139.885 367.475 139.86 367.456 139.831C367.438 139.802 367.426 139.769 367.421 139.735C367.415 139.701 367.417 139.666 367.425 139.633C368.609 134.519 370.788 125.003 371.108 123.61L365.65 119.827C365.615 119.803 365.587 119.771 365.568 119.734C365.548 119.697 365.538 119.656 365.538 119.614C365.538 119.572 365.548 119.531 365.568 119.494C365.587 119.457 365.615 119.425 365.65 119.402L370.607 115.849L364.974 102.926C364.957 102.864 364.963 102.799 364.991 102.741C365.018 102.684 365.065 102.638 365.124 102.613C365.182 102.587 365.248 102.584 365.309 102.603C365.369 102.622 365.421 102.662 365.455 102.717L371.171 115.835C371.194 115.889 371.198 115.951 371.182 116.008C371.165 116.065 371.129 116.115 371.08 116.148L366.248 119.632L371.533 123.31C371.576 123.34 371.609 123.381 371.627 123.43C371.646 123.478 371.649 123.531 371.637 123.582C371.637 123.582 369.187 134.22 367.912 139.751C367.898 139.807 367.866 139.857 367.821 139.892C367.775 139.927 367.719 139.947 367.662 139.946V139.946Z" fill="black"/>
<path d="M338.252 140.643C338.192 140.643 338.133 140.622 338.087 140.584C338.04 140.546 338.007 140.493 337.995 140.434L334.722 124.195C334.713 124.147 334.718 124.098 334.735 124.052C334.752 124.007 334.781 123.967 334.82 123.937L339.561 120.342L334.806 116.023C334.764 115.985 334.736 115.935 334.724 115.88C334.713 115.825 334.72 115.767 334.743 115.716L341.065 102.696C341.102 102.646 341.155 102.611 341.215 102.597C341.275 102.583 341.338 102.59 341.394 102.617C341.449 102.644 341.493 102.69 341.518 102.746C341.543 102.803 341.548 102.866 341.532 102.926L335.265 115.772L340.139 120.168C340.168 120.193 340.192 120.224 340.208 120.259C340.224 120.294 340.233 120.332 340.233 120.37C340.233 120.409 340.224 120.447 340.208 120.481C340.192 120.516 340.168 120.547 340.139 120.572L335.265 124.257L338.503 140.337C338.515 140.404 338.501 140.473 338.464 140.531C338.426 140.588 338.368 140.628 338.301 140.643H338.252Z" fill="black"/>
<path d="M358.485 98.5853C358.116 99.1984 351.648 106.743 351.648 106.743C350.645 105.573 348.167 100.229 348.167 100.229C348.167 99.916 347.867 97.9165 347.554 96.14C347.29 94.6213 347.039 93.2698 347.039 93.2698C342.325 93.6042 339.032 90.929 339.143 81.3428C339.192 76.8563 339.888 73.1222 341.232 70.447C342.785 67.4025 345.222 65.7096 348.564 65.8072C354.83 65.9883 357.538 72.9132 357.322 79.6499C357.963 80.4581 357.747 83.1333 356.027 83.8717C356.097 83.8648 356.96 93.8828 358.485 98.5853Z" fill="#F88D7A"/>
<path d="M341.543 79.7215C341.611 79.2844 341.464 78.8981 341.213 78.8588C340.962 78.8194 340.704 79.1418 340.635 79.5789C340.566 80.0161 340.714 80.4023 340.965 80.4417C341.215 80.4811 341.474 80.1587 341.543 79.7215Z" fill="black"/>
<path d="M347.407 79.5797C347.425 79.1372 347.233 78.7703 346.98 78.7601C346.726 78.75 346.506 79.1004 346.488 79.5429C346.47 79.9854 346.662 80.3523 346.915 80.3624C347.169 80.3726 347.389 80.0221 347.407 79.5797Z" fill="black"/>
<path d="M357.392 79.6429C356 78.0824 354.712 78.8975 354.712 78.8975C353.319 77.8594 351.39 75.1773 351.592 74.9474C354.377 71.7497 351.154 69.9383 351.154 69.9383C346.851 71.9587 343.801 71.8193 341.302 70.4399C342.854 67.3955 345.291 65.7026 348.633 65.8001C354.92 65.9813 357.608 72.9061 357.392 79.6429Z" fill="black"/>
<path d="M349.239 77.9709C349.176 77.9698 349.115 77.946 349.068 77.9038C349.02 77.8616 348.99 77.8039 348.981 77.741C348.933 77.591 348.855 77.4522 348.752 77.3326C348.649 77.213 348.524 77.1151 348.383 77.0444C348.097 76.8699 347.776 76.7623 347.443 76.7297C347.111 76.6971 346.775 76.7404 346.461 76.8563C346.427 76.8737 346.39 76.8836 346.353 76.8855C346.315 76.8874 346.277 76.8811 346.242 76.8672C346.207 76.8532 346.175 76.8319 346.149 76.8046C346.123 76.7773 346.103 76.7447 346.09 76.709C346.077 76.6733 346.073 76.6353 346.076 76.5976C346.079 76.5599 346.091 76.5234 346.109 76.4905C346.128 76.4575 346.154 76.429 346.184 76.4068C346.215 76.3846 346.25 76.3692 346.287 76.3616C346.675 76.2207 347.091 76.1695 347.502 76.2117C347.913 76.2539 348.309 76.3885 348.661 76.6055C348.871 76.7142 349.056 76.8659 349.203 77.0507C349.351 77.2356 349.458 77.4494 349.517 77.6783C349.525 77.7476 349.506 77.8171 349.463 77.8719C349.42 77.9266 349.357 77.9622 349.288 77.9709H349.239Z" fill="black"/>
<path d="M354.927 81.6424C354.868 81.6463 354.809 81.6295 354.761 81.5949C354.712 81.5603 354.677 81.5101 354.662 81.4527C354.646 81.3952 354.651 81.3342 354.675 81.2799C354.7 81.2256 354.742 81.1813 354.795 81.1547C355.31 80.8551 356.062 80.3187 356.069 80.3117C356.126 80.2711 356.196 80.2545 356.264 80.2656C356.333 80.2767 356.394 80.3146 356.435 80.3709C356.475 80.4273 356.492 80.4975 356.481 80.5661C356.47 80.6347 356.432 80.696 356.376 80.7367C356.376 80.7367 355.596 81.294 355.06 81.6075C355.02 81.6308 354.974 81.6429 354.927 81.6424V81.6424Z" fill="black"/>
<path d="M343.62 83.6976H343.565C342.79 83.5459 342.034 83.3124 341.309 83.0009C341.213 82.9452 341.13 82.8687 341.068 82.7771C341.005 82.6855 340.964 82.5811 340.947 82.4714C340.863 81.942 341.274 81.1756 342.339 79.9147C342.639 78.6816 342.485 77.6017 341.942 77.128C341.795 76.9947 341.613 76.9057 341.417 76.8712C341.221 76.8367 341.019 76.8581 340.835 76.9329C340.77 76.9542 340.698 76.9485 340.637 76.9171C340.576 76.8858 340.529 76.8313 340.508 76.7657C340.487 76.7001 340.492 76.6288 340.524 76.5674C340.555 76.506 340.61 76.4595 340.675 76.4383C340.948 76.3341 341.244 76.3083 341.531 76.3636C341.818 76.419 342.083 76.5535 342.297 76.7518C342.994 77.4067 343.196 78.6676 342.827 80.1376C342.816 80.1763 342.797 80.2121 342.771 80.2421C341.622 81.6354 341.427 82.1858 341.469 82.4296C341.475 82.4654 341.49 82.4992 341.511 82.5283C341.533 82.5574 341.562 82.5808 341.594 82.5968C342.267 82.8776 342.967 83.09 343.683 83.2308C343.751 83.2382 343.814 83.2724 343.857 83.326C343.9 83.3796 343.92 83.4481 343.913 83.5164C343.905 83.5848 343.871 83.6474 343.818 83.6905C343.764 83.7336 343.696 83.7537 343.627 83.7463L343.62 83.6976Z" fill="black"/>
<path d="M344.4 86.1916C344.338 86.1814 344.282 86.1496 344.241 86.1017C344.201 86.0539 344.178 85.9931 344.178 85.9303C344.178 85.8676 344.201 85.8068 344.241 85.759C344.282 85.7111 344.338 85.6793 344.4 85.6691C345.897 85.6691 346.231 85.1187 346.273 84.2758C346.278 84.2074 346.309 84.1435 346.36 84.097C346.41 84.0505 346.476 84.0248 346.545 84.025C346.579 84.0258 346.613 84.0336 346.644 84.0479C346.676 84.0621 346.704 84.0825 346.727 84.1078C346.751 84.1331 346.769 84.1629 346.78 84.1953C346.792 84.2278 346.797 84.2622 346.795 84.2967C346.733 85.9965 345.389 86.1916 344.4 86.1916Z" fill="black"/>
<path d="M351.982 90.908C351.789 92.1045 351.271 93.225 350.485 94.1475C349.7 95.07 348.676 95.7592 347.526 96.14C347.296 94.8093 347.074 93.2697 347.074 93.2697C348.915 93.0107 350.63 92.1854 351.982 90.908V90.908Z" fill="black"/>
<path d="M228.447 62.4005C122.387 62.4005 147.946 155.371 144.618 355.07H312.275C308.947 155.357 334.506 62.4005 228.447 62.4005Z" fill="white"/>
<path d="M228.454 355.418C228.361 355.418 228.273 355.382 228.207 355.316C228.142 355.251 228.105 355.163 228.105 355.07V62.4005C228.105 62.3081 228.142 62.2195 228.207 62.1541C228.273 62.0888 228.361 62.0521 228.454 62.0521C228.546 62.0521 228.634 62.0888 228.7 62.1541C228.765 62.2195 228.802 62.3081 228.802 62.4005V355.07C228.802 355.163 228.765 355.251 228.7 355.316C228.634 355.382 228.546 355.418 228.454 355.418Z" fill="#F6EEE8"/>
<path d="M228.454 131.412H148.447C148.355 131.412 148.267 131.376 148.201 131.31C148.136 131.245 148.099 131.156 148.099 131.064C148.099 130.972 148.136 130.883 148.201 130.818C148.267 130.752 148.355 130.716 148.447 130.716H228.454C228.546 130.716 228.634 130.752 228.7 130.818C228.765 130.883 228.802 130.972 228.802 131.064C228.802 131.156 228.765 131.245 228.7 131.31C228.634 131.376 228.546 131.412 228.454 131.412Z" fill="#F6EEE8"/>
<path d="M228.454 240.259H144.347C144.254 240.259 144.166 240.223 144.1 240.157C144.035 240.092 143.998 240.003 143.998 239.911C143.998 239.819 144.035 239.73 144.1 239.665C144.166 239.599 144.254 239.563 144.347 239.563H228.454C228.546 239.563 228.634 239.599 228.7 239.665C228.765 239.73 228.802 239.819 228.802 239.911C228.802 240.003 228.765 240.092 228.7 240.157C228.634 240.223 228.546 240.259 228.454 240.259Z" fill="#F6EEE8"/>
<path d="M308.439 131.412H228.454C228.361 131.412 228.273 131.376 228.207 131.31C228.142 131.245 228.105 131.156 228.105 131.064C228.105 130.972 228.142 130.883 228.207 130.818C228.273 130.752 228.361 130.716 228.454 130.716H308.439C308.531 130.716 308.62 130.752 308.685 130.818C308.75 130.883 308.787 130.972 308.787 131.064C308.787 131.156 308.75 131.245 308.685 131.31C308.62 131.376 308.531 131.412 308.439 131.412Z" fill="#F6EEE8"/>
<path d="M312.554 240.259H228.454C228.361 240.259 228.273 240.223 228.207 240.157C228.142 240.092 228.105 240.003 228.105 239.911C228.105 239.819 228.142 239.73 228.207 239.665C228.273 239.599 228.361 239.563 228.454 239.563H312.561C312.653 239.563 312.741 239.599 312.807 239.665C312.872 239.73 312.909 239.819 312.909 239.911C312.909 240.003 312.872 240.092 312.807 240.157C312.741 240.223 312.653 240.259 312.561 240.259H312.554Z" fill="#F6EEE8"/>
<path d="M324.773 171.436V204.465H330.802C332.557 204.465 334.249 203.81 335.546 202.627C336.844 201.443 337.652 199.818 337.814 198.069L340.285 171.436H324.773Z" fill="#4B764A"/>
<path d="M402.321 355.565L370.628 354.868L369.751 347.24L369.625 346.118L367.843 330.61H399.411L401.221 346.118L401.917 352.116L402.321 355.565Z" fill="#F88D7A"/>
<path d="M402.321 355.565L370.628 354.868L369.751 347.24L401.917 352.116L402.321 355.565Z" fill="black"/>
<path d="M386.126 181.356L360.657 181.454L291.729 181.719L291.576 142.176L300.78 142.12L310.89 142.078H319.015L329.124 142.036H337.257L347.366 142.002H355.422H360.483H365.531L385.952 141.925L386.008 156.499C382.859 156.677 379.702 156.677 376.553 156.499C373.539 156.304 370.516 156.304 367.502 156.499C365.573 156.673 364.717 157.015 365.037 158.269C365.357 159.523 370.739 159.767 372.09 160.637C373.441 161.508 374.576 162.832 371.895 164.553C370.14 165.681 365.552 166.97 360.56 167.702C359.745 167.827 358.924 167.931 358.102 168.022C355.317 168.322 354.753 170.474 359.063 170.864C357.754 171.561 358.074 173.519 360.588 173.874C360.741 173.874 360.901 173.916 361.068 173.923C360.854 174.031 360.684 174.211 360.588 174.431C360.522 174.587 360.488 174.754 360.488 174.923C360.488 175.091 360.522 175.258 360.588 175.414C360.866 176.11 361.778 176.849 363.491 176.87C362.844 177.392 364.389 178.96 367.174 178.751C371.989 178.202 376.711 177.031 381.225 175.267C382.32 174.974 383.442 174.787 384.574 174.71C384.5 175.519 384.595 176.334 384.852 177.104C385.11 177.874 385.525 178.582 386.071 179.183L386.126 181.356Z" fill="#E4D0C0"/>
<path d="M308.622 137.171L303.052 137.193C301.798 137.197 300.786 138.218 300.791 139.472L300.809 144.265C300.814 145.52 301.834 146.533 303.088 146.528L308.658 146.506C309.911 146.502 310.923 145.481 310.919 144.227L310.9 139.434C310.895 138.179 309.875 137.166 308.622 137.171Z" fill="#E4D0C0"/>
<path d="M326.856 137.101L321.286 137.123C320.033 137.127 319.02 138.148 319.025 139.402L319.043 144.195C319.048 145.45 320.068 146.463 321.322 146.458L326.892 146.436C328.145 146.432 329.158 145.411 329.153 144.157L329.135 139.363C329.13 138.109 328.11 137.096 326.856 137.101Z" fill="#E4D0C0"/>
<path d="M345.09 137.031L339.521 137.052C338.267 137.057 337.255 138.078 337.259 139.332L337.278 144.125C337.283 145.38 338.303 146.393 339.556 146.388L345.126 146.366C346.38 146.361 347.392 145.341 347.387 144.086L347.369 139.293C347.364 138.039 346.344 137.026 345.09 137.031Z" fill="#E4D0C0"/>
<path d="M363.262 136.961L357.692 136.983C356.439 136.987 355.426 138.008 355.431 139.262L355.45 144.055C355.454 145.31 356.475 146.323 357.728 146.318L363.298 146.296C364.552 146.292 365.564 145.271 365.559 144.017L365.541 139.224C365.536 137.969 364.516 136.956 363.262 136.961Z" fill="#E4D0C0"/>
<path d="M291.569 142.433C291.507 142.423 291.45 142.391 291.41 142.344C291.369 142.296 291.347 142.235 291.347 142.172C291.347 142.109 291.369 142.049 291.41 142.001C291.45 141.953 291.507 141.921 291.569 141.911L385.973 141.542C386.035 141.552 386.091 141.584 386.132 141.632C386.173 141.679 386.195 141.74 386.195 141.803C386.195 141.866 386.173 141.927 386.132 141.974C386.091 142.022 386.035 142.054 385.973 142.064L291.569 142.433Z" fill="#F6EEE8"/>
<path d="M360.602 181.447C360.534 181.445 360.47 181.417 360.422 181.369C360.374 181.321 360.346 181.257 360.344 181.189L360.247 141.904C360.247 141.835 360.274 141.769 360.322 141.719C360.37 141.67 360.435 141.641 360.504 141.639L385.973 141.542C386.035 141.552 386.091 141.584 386.132 141.632C386.173 141.679 386.195 141.74 386.195 141.803C386.195 141.866 386.173 141.927 386.132 141.974C386.091 142.022 386.035 142.054 385.973 142.064L360.762 142.162L360.859 181.175C360.859 181.244 360.832 181.31 360.784 181.36C360.736 181.409 360.671 181.438 360.602 181.44V181.447Z" fill="#F6EEE8"/>
<path d="M288.951 310.581H283.381C282.127 310.581 281.111 311.598 281.111 312.852V317.645C281.111 318.899 282.127 319.916 283.381 319.916H288.951C290.204 319.916 291.221 318.899 291.221 317.645V312.852C291.221 311.598 290.204 310.581 288.951 310.581Z" fill="#E4D0C0"/>
<path d="M307.185 310.581H301.615C300.362 310.581 299.346 311.598 299.346 312.852V317.645C299.346 318.899 300.362 319.916 301.615 319.916H307.185C308.439 319.916 309.455 318.899 309.455 317.645V312.852C309.455 311.598 308.439 310.581 307.185 310.581Z" fill="#E4D0C0"/>
<path d="M325.42 310.581H319.85C318.597 310.581 317.581 311.598 317.581 312.852V317.645C317.581 318.899 318.597 319.916 319.85 319.916H325.42C326.674 319.916 327.69 318.899 327.69 317.645V312.852C327.69 311.598 326.674 310.581 325.42 310.581Z" fill="#E4D0C0"/>
<path d="M366.276 315.52H271.872V355.07H366.276V315.52Z" fill="#E4D0C0"/>
<path d="M366.283 315.778H271.872C271.81 315.768 271.753 315.736 271.713 315.688C271.672 315.64 271.65 315.58 271.65 315.517C271.65 315.454 271.672 315.393 271.713 315.345C271.753 315.298 271.81 315.266 271.872 315.256H366.283C366.352 315.256 366.419 315.283 366.468 315.332C366.517 315.381 366.544 315.448 366.544 315.517C366.544 315.586 366.517 315.653 366.468 315.702C366.419 315.751 366.352 315.778 366.283 315.778V315.778Z" fill="#F6EEE8"/>
<path d="M366.283 315.52H340.814V355.07H366.283V315.52Z" fill="#E4D0C0"/>
<path d="M340.815 355.3C340.747 355.298 340.682 355.27 340.634 355.222C340.586 355.175 340.559 355.11 340.557 355.042V315.52C340.567 315.458 340.599 315.402 340.647 315.361C340.695 315.321 340.755 315.298 340.818 315.298C340.881 315.298 340.942 315.321 340.99 315.361C341.038 315.402 341.07 315.458 341.08 315.52V355.07C341.071 355.134 341.04 355.193 340.991 355.235C340.942 355.277 340.879 355.3 340.815 355.3V355.3Z" fill="#F6EEE8"/>
<path d="M111.4 355.063C111.4 355.063 122.08 350.556 120.688 329.656C120.288 323.928 118.891 318.314 116.559 313.068C116.183 312.211 115.8 311.389 115.403 310.609C114.557 308.938 113.627 307.31 112.618 305.732C111.2 303.46 109.568 301.328 107.745 299.365H83.1114C81.5171 301.073 80.0772 302.92 78.8085 304.882V304.882C77.2735 307.183 75.9164 309.599 74.7494 312.107C72.8829 316.095 71.5463 320.311 70.7738 324.647C70.4822 326.3 70.28 327.967 70.1681 329.642C68.7756 350.542 79.456 355.049 79.456 355.049L111.4 355.063Z" fill="white"/>
<path d="M91.3062 314.684C85.6718 314.769 80.0569 314.001 74.6519 312.406C74.5596 312.379 74.4821 312.315 74.4364 312.23C74.3907 312.145 74.3805 312.046 74.4082 311.953C74.4359 311.861 74.4992 311.783 74.5841 311.738C74.6689 311.692 74.7685 311.682 74.8608 311.71C79.9991 313.347 86.3698 314.113 93.2905 313.932C94.683 313.932 96.0755 313.82 97.5377 313.702C103.568 313.198 109.525 312.03 115.299 310.219C115.391 310.191 115.491 310.201 115.576 310.247C115.661 310.293 115.724 310.37 115.752 310.463C115.779 310.555 115.769 310.655 115.723 310.739C115.678 310.824 115.6 310.888 115.508 310.915C109.683 312.732 103.675 313.9 97.5934 314.399C96.1452 314.517 94.7039 314.594 93.3045 314.629C92.6314 314.666 91.9653 314.684 91.3062 314.684Z" fill="#F6EEE8"/>
<path d="M73.1062 325.037C72.3264 325.037 71.542 325.037 70.7529 325.037C70.7072 325.036 70.6621 325.026 70.6202 325.008C70.5783 324.989 70.5405 324.963 70.5088 324.93C70.4771 324.897 70.4522 324.858 70.4356 324.815C70.4189 324.773 70.4108 324.727 70.4118 324.681C70.4096 324.635 70.4174 324.588 70.4347 324.545C70.452 324.502 70.4783 324.463 70.5119 324.43C70.5455 324.398 70.5857 324.373 70.6297 324.358C70.6736 324.342 70.7204 324.336 70.7668 324.34C78.3011 324.542 85.8325 323.84 93.2 322.25C94.6761 321.93 96.1104 321.553 97.4472 321.205C104.765 319.199 111.296 316.328 116.336 312.845C116.412 312.798 116.503 312.782 116.591 312.8C116.678 312.818 116.755 312.869 116.806 312.942C116.857 313.016 116.878 313.106 116.864 313.194C116.851 313.282 116.804 313.362 116.733 313.416C111.63 316.935 105.022 319.867 97.6351 321.895C96.2844 322.271 94.8501 322.591 93.3462 322.954C86.6942 324.375 79.9082 325.074 73.1062 325.037V325.037Z" fill="#F6EEE8"/>
<path d="M122.993 268.676C124.385 270.07 131.96 265.325 128.771 262.581C125.583 259.836 121.148 266.893 122.993 268.676Z" fill="#4B764A"/>
<path d="M120.597 272.926C122.08 270.836 121.154 264.079 117.701 265.709C113.893 267.52 119.114 275.03 120.597 272.926Z" fill="#4B764A"/>
<path d="M115.09 280.757C117.081 278.311 114.547 271.366 111.936 272.014C107.856 273.045 113.301 282.958 115.09 280.757Z" fill="#4B764A"/>
<path d="M90.4707 254.186C90.9442 252.688 85.3811 246.439 83.6127 248.201C80.3264 251.497 88.5839 260.1 90.4707 254.186Z" fill="#4B764A"/>
<path d="M120.514 273.093C121.663 270.369 126.564 267.813 127.936 271.254C129.349 274.8 119.539 275.392 120.514 273.093Z" fill="#4B764A"/>
<path d="M115.905 279.809C117.116 277.531 124.684 276.577 123.563 279.99C122.693 282.679 114.094 283.223 115.905 279.809Z" fill="#4B764A"/>
<path d="M111.4 285.696C112.549 283.383 121.224 283.606 120.047 287.006C118.599 291.13 110.07 288.343 111.4 285.696Z" fill="#4B764A"/>
<path d="M108.016 290.628C109.91 288.88 116.608 292.969 114.282 295.721C111.497 299.065 105.83 292.6 108.016 290.628Z" fill="#4B764A"/>
<path d="M104.765 297.922C105.955 294.996 115.654 298.466 113.489 301.754C111.087 305.405 103.651 300.646 104.765 297.922Z" fill="#4B764A"/>
<path d="M89.9485 240.489C90.0948 237.703 85.8964 232.45 83.3342 233.955C78.4326 236.867 89.7327 244.711 89.9485 240.489Z" fill="#4B764A"/>
<path d="M89.5656 230.875C90.5612 228.395 85.1932 220.126 83.1601 222.738C80.6049 226.013 88.556 233.383 89.5656 230.875Z" fill="#4B764A"/>
<path d="M91.8215 265.186C91.8632 262.964 85.8824 258.986 84.3089 260.156C79.6371 263.64 91.7101 270.544 91.8215 265.186Z" fill="#4B764A"/>
<path d="M93.4855 273.79C93.4893 273.806 93.4893 273.823 93.4855 273.839C93.3679 274.154 93.166 274.43 92.902 274.637C92.638 274.845 92.322 274.976 91.9886 275.016C89.0434 275.762 83.0626 273.797 85.1375 270.53C86.1958 268.865 89.315 269.715 91.4037 271.094C92.1912 271.552 92.8555 272.196 93.3393 272.968C93.4855 273.215 93.5375 273.507 93.4855 273.79Z" fill="#4B764A"/>
<path d="M97.1547 256.582C96.8523 257.076 96.5075 257.542 96.1243 257.976C95.449 258.75 94.6686 259.425 93.8058 259.982C92.5525 260.776 91.4107 260.999 91.0973 260.107C90.4638 258.31 92.643 252.848 95.2122 252.27C95.5952 252.196 95.991 252.226 96.3584 252.357C96.7258 252.488 97.0513 252.715 97.3009 253.015C98.2061 253.921 97.9415 255.266 97.1547 256.582Z" fill="#4B764A"/>
<path d="M100.49 269.046C100.25 270.14 99.6698 271.13 98.8327 271.874C96.9458 273.776 94.0703 275.093 93.4855 273.797C93.4855 273.748 93.4855 273.699 93.4367 273.644C93.3803 273.415 93.343 273.182 93.3253 272.947C93.261 271.826 93.5017 270.709 94.0216 269.714C94.3628 269.013 94.8141 268.371 95.3584 267.813C95.5046 267.666 95.6508 267.527 95.804 267.402C97.1547 266.273 98.8048 266.008 100.072 267.485C100.271 267.714 100.407 267.99 100.469 268.286C100.525 268.536 100.532 268.794 100.49 269.046V269.046Z" fill="#4B764A"/>
<path d="M90.2201 251.016C89.7884 246.139 93.4716 240.127 95.3027 242.726C98.0877 246.676 90.4498 253.621 90.2201 251.016Z" fill="#4B764A"/>
<path d="M109.785 287.835C108.643 288.782 106.686 287.396 105.663 285.571C104.772 283.996 104.577 282.087 106.171 281.077C106.393 280.923 106.65 280.826 106.919 280.795C107.187 280.765 107.459 280.802 107.71 280.903C109.833 281.718 111.289 286.581 109.785 287.835Z" fill="#4B764A"/>
<path d="M96.5072 283.655C96.166 286.964 86.5996 285.661 87.7205 280.868C88.1731 278.945 90.3524 278.876 92.4341 279.649C94.3071 280.346 96.1034 281.739 96.4515 283.035C96.5084 283.236 96.5273 283.447 96.5072 283.655Z" fill="#4B764A"/>
<path d="M104.876 297.33C104.006 298.027 102.62 297.282 101.646 296.035C100.455 294.509 99.8771 292.287 101.597 291.158C102.78 290.399 103.936 291.353 104.66 292.739C105.51 294.39 105.781 296.578 104.876 297.33Z" fill="#4B764A"/>
<path d="M90.1713 199.686C91.529 196.523 87.073 188.539 84.6361 190.329C80.389 193.513 88.9947 202.416 90.1713 199.686Z" fill="#4B764A"/>
<path d="M89.3149 217.632C90.422 214.295 84.1348 208.868 82.3037 210.832C78.899 214.49 88.7022 219.45 89.3149 217.632Z" fill="#4B764A"/>
<path d="M89.6004 207.844C90.1505 204.534 87.2262 198.87 84.8938 200.18C81.0922 202.361 89.12 210.637 89.6004 207.844Z" fill="#4B764A"/>
<path d="M90.1713 199.686C89.8023 197.15 94.3001 191.562 96.2914 194.07C98.2826 196.578 90.6378 202.904 90.1713 199.686Z" fill="#4B764A"/>
<path d="M89.6004 217.026C89.1409 214.434 93.7779 206.29 96.1382 209.014C98.4985 211.738 90.5125 222.056 89.6004 217.026Z" fill="#4B764A"/>
<path d="M89.6004 207.843C89.6004 205.057 93.1931 198.836 95.2888 201.455C97.9415 204.778 89.6352 211.376 89.6004 207.843Z" fill="#4B764A"/>
<path d="M89.7257 226.932C88.8902 223.992 95.992 216.956 97.9067 221.052C99.696 224.884 90.6935 230.304 89.7257 226.932Z" fill="#4B764A"/>
<path d="M90.0321 238.483C88.8902 236.205 92.0791 227.503 95.1983 230.82C97.3706 233.188 91.2923 241.005 90.0321 238.483Z" fill="#4B764A"/>
<path d="M104.66 292.781C104.087 294.2 103.014 295.359 101.646 296.042C100.455 294.516 99.8771 292.293 101.597 291.165C102.78 290.433 103.936 291.388 104.66 292.781Z" fill="black"/>
<path d="M105.663 285.571C104.772 283.996 104.577 282.087 106.171 281.077C106.393 280.923 106.65 280.826 106.919 280.795C107.187 280.765 107.459 280.802 107.71 280.903C108.149 283.042 106.714 284.686 105.663 285.571Z" fill="black"/>
<path d="M96.4515 283.042L93.938 284.937C93.938 284.937 89.7605 282.7 92.4341 279.656C94.3071 280.353 96.0825 281.732 96.4515 283.042Z" fill="black"/>
<path d="M100.49 269.046C98.689 269.255 96.8715 268.829 95.3514 267.84C95.4977 267.694 95.6439 267.555 95.797 267.429C97.1478 266.301 98.7979 266.036 100.065 267.513C100.264 267.742 100.4 268.018 100.462 268.314C100.517 268.554 100.526 268.802 100.49 269.046V269.046Z" fill="black"/>
<path d="M96.1243 257.976C95.2824 256.202 94.9659 254.225 95.2122 252.277C95.5952 252.203 95.991 252.233 96.3584 252.364C96.7258 252.495 97.0513 252.722 97.3009 253.022C98.5263 254.242 97.6003 256.297 96.1243 257.976Z" fill="black"/>
<path d="M96.2914 283.634C96.2387 283.633 96.1874 283.617 96.144 283.588C96.1006 283.558 96.0671 283.516 96.0477 283.467C91.8702 272.432 89.6561 254.555 89.6561 242.593C89.6561 239.347 89.5586 235.404 89.4612 231.238C89.2036 220.537 88.9111 208.401 89.9137 199.665C89.9286 199.601 89.9663 199.545 90.0196 199.508C90.073 199.471 90.1382 199.454 90.2029 199.462C90.2675 199.47 90.3271 199.501 90.3701 199.55C90.4131 199.599 90.4365 199.662 90.4359 199.727C89.4333 208.429 89.7397 220.544 89.9834 231.231C90.0878 235.411 90.1783 239.347 90.1783 242.6C90.1783 254.513 92.3645 272.313 96.5351 283.286C96.5578 283.35 96.5546 283.421 96.526 283.484C96.4974 283.546 96.4458 283.595 96.3819 283.62L96.2914 283.634Z" fill="black"/>
<path d="M98.777 295.129C97.9345 296.996 95.992 296.564 94.3001 295.352C92.6082 294.14 91.3271 292.349 91.341 291.088C91.3366 290.776 91.4469 290.473 91.651 290.237C91.855 290 92.1387 289.847 92.4481 289.806C92.6555 289.756 92.8682 289.73 93.0817 289.73C94.3343 289.785 95.5438 290.204 96.5629 290.935C98.22 292.029 99.4245 293.701 98.777 295.129Z" fill="#8EBF8C"/>
<path d="M99.4315 285.815C99.4421 285.928 99.4421 286.042 99.4315 286.156C99.3918 286.504 99.2829 286.84 99.1112 287.145C98.9979 287.348 98.8304 287.515 98.6276 287.629C98.4247 287.742 98.1944 287.796 97.9624 287.786C97.05 287.713 96.1811 287.366 95.4698 286.79C94.9204 286.401 94.416 285.953 93.9659 285.452C93.5237 284.973 93.1511 284.433 92.8589 283.85C92.1626 282.457 92.281 281.119 93.9241 280.408C96.1173 279.454 99.4663 283.035 99.4315 285.815Z" fill="#8EBF8C"/>
<path d="M102.467 256.819C103.324 254.597 99.4175 248.592 97.0085 250.598C93.9938 253.127 101.43 259.522 102.467 256.819Z" fill="#8EBF8C"/>
<path d="M99.9467 282.422C100.97 279.886 108.726 277.886 107.926 281.6C107.285 284.519 98.4149 286.219 99.9467 282.422Z" fill="#8EBF8C"/>
<path d="M98.8675 292.809C99.2783 289.876 107.369 285.543 107.494 289.653C107.612 292.886 98.2687 297.198 98.8675 292.809Z" fill="#8EBF8C"/>
<path d="M107.786 224.41C109.736 224.654 112.096 216.573 109.29 216.148C105.287 215.535 105.475 224.125 107.786 224.41Z" fill="#8EBF8C"/>
<path d="M105.976 231.823C107.369 229.803 105.621 223.386 103.059 224.417C99.5638 225.831 104.556 233.836 105.976 231.823Z" fill="#8EBF8C"/>
<path d="M103.79 241.66C105.781 239.214 103.247 232.269 100.636 232.917C96.549 233.948 101.994 243.833 103.79 241.66Z" fill="#8EBF8C"/>
<path d="M103.156 248.571C104.152 246.09 100.406 240.907 98.4289 242.154C94.7527 244.425 102.147 251.093 103.156 248.571Z" fill="#8EBF8C"/>
<path d="M101.416 267.464C102.258 264.74 97.6769 260.268 95.3932 261.445C91.2784 263.563 100.371 270.85 101.416 267.464Z" fill="#8EBF8C"/>
<path d="M100.26 277.97C101.102 275.246 96.6882 269.986 94.321 271.428C89.9137 274.117 99.2226 281.363 100.26 277.97Z" fill="#8EBF8C"/>
<path d="M107.111 227.225C107.494 224.696 112.465 221.61 113.649 224.591C114.833 227.573 106.624 230.443 107.111 227.225Z" fill="#8EBF8C"/>
<path d="M105.015 237.027C105.433 234.15 110.523 229.9 111.706 232.847C112.89 235.794 104.5 240.524 105.015 237.027Z" fill="#8EBF8C"/>
<path d="M102.551 255.503C101.75 253.224 107.564 247.547 109.068 250.549C110.899 254.207 103.47 258.115 102.551 255.503Z" fill="#8EBF8C"/>
<path d="M103.839 244.056C103.644 241.778 110.314 237.953 110.982 241.068C111.797 244.85 104.062 246.669 103.839 244.056Z" fill="#8EBF8C"/>
<path d="M101.966 263.723C100.838 261.403 106.693 256.171 108.657 259.174C111.052 262.838 103.261 266.384 101.966 263.723Z" fill="#8EBF8C"/>
<path d="M100.838 275.643C99.7866 273.476 105.252 268.579 107.104 271.393C109.311 274.814 102.042 278.13 100.838 275.643Z" fill="#8EBF8C"/>
<path d="M99.4036 286.149C99.364 286.497 99.2551 286.833 99.0833 287.138C98.97 287.341 98.8026 287.508 98.5997 287.622C98.3969 287.735 98.1666 287.789 97.9345 287.779C97.0222 287.706 96.1532 287.359 95.442 286.783C94.8925 286.394 94.3881 285.946 93.938 285.445C95.0033 284.463 97.2452 283.752 99.4036 286.149Z" fill="black"/>
<path d="M96.5838 290.928C96.4515 292.489 95.2888 294.174 94.3001 295.345C92.6987 294.195 91.3271 292.342 91.341 291.081C91.8889 290.588 92.4705 290.134 93.0817 289.723C94.3415 289.774 95.5588 290.193 96.5838 290.928V290.928Z" fill="black"/>
<path d="M84.9425 285.055C82.6797 281.648 72.974 280.381 71.7137 284.017C70.0427 288.894 86.5439 287.417 84.9425 285.055Z" fill="#8EBF8C"/>
<path d="M71.2194 268.558C70.1054 266.468 61.5276 267.165 60.7757 271.533C59.9819 276.326 73.2594 272.397 71.2194 268.558Z" fill="#8EBF8C"/>
<path d="M90.7562 298.759C92.2879 294.934 102.293 295.477 100.706 299.532C99.1181 303.586 89.9555 300.751 90.7562 298.759Z" fill="#8EBF8C"/>
<path d="M77.792 276.04C76.504 273.254 66.095 273.999 64.055 278.172C60.525 285.383 78.8085 278.228 77.792 276.04Z" fill="#8EBF8C"/>
<path d="M65.0019 261.041C64.3683 258.073 56.4798 258.749 54.7879 261.926C51.3902 268.293 65.6146 263.946 65.0019 261.041Z" fill="#8EBF8C"/>
<path d="M72.5353 270.084C69.9314 267.032 74.1924 254.29 78.4813 257.467C82.7702 260.644 73.8443 271.616 72.5353 270.084Z" fill="#8EBF8C"/>
<path d="M78.1471 276.451C76.685 272.271 82.7632 264.294 85.5204 267.75C87.7275 270.537 79.0661 279.064 78.1471 276.451Z" fill="#8EBF8C"/>
<path d="M86.2375 287.027C84.0722 284.735 86.4394 274.675 89.865 276.228C93.5899 277.893 88.1383 289.012 86.2375 287.027Z" fill="#8EBF8C"/>
<path d="M60.1073 252.618C59.3344 250.222 52.9846 250.034 51.251 252.047C47.9299 255.914 61.1865 255.941 60.1073 252.618Z" fill="#8EBF8C"/>
<path d="M56.9184 245.227C56.814 243.492 51.8915 238.65 50.3737 239.528C46.6487 241.743 57.2457 250.682 56.9184 245.227Z" fill="#8EBF8C"/>
<path d="M55.9506 239.514C57.8862 238.427 57.7609 228.973 54.7809 229.503C50.694 230.227 52.6992 241.339 55.9506 239.514Z" fill="#8EBF8C"/>
<path d="M61.2073 254.646C59.5363 252.493 63.2961 243.074 66.2343 245.798C69.0053 248.348 63.5398 257.662 61.2073 254.646Z" fill="#8EBF8C"/>
<path d="M57.74 247.031C55.7 244.676 58.5894 237.431 60.6991 238.957C64.055 241.43 59.3762 248.919 57.74 247.031Z" fill="#8EBF8C"/>
<path d="M65.3848 261.159C63.8949 257.746 69.3395 250.187 71.5258 252.848C74.1646 256.06 66.3805 263.444 65.3848 261.159Z" fill="#8EBF8C"/>
<path d="M89.8162 294.767C88.4655 288.42 97.5585 283.348 98.6795 286.978C99.7657 290.468 90.1783 296.418 89.8162 294.767Z" fill="#8EBF8C"/>
<path d="M90.415 296.975C90.0947 293.924 82.5195 289.716 80.5143 292.098C76.7894 296.599 90.7074 299.727 90.415 296.975Z" fill="#8EBF8C"/>
<path d="M104.368 299.567H104.305C104.238 299.549 104.181 299.505 104.146 299.445C104.11 299.385 104.1 299.314 104.117 299.246C105.9 292.28 109.353 287.828 113.356 282.673C116.476 278.653 120.013 274.104 123.229 267.604C123.266 267.554 123.319 267.519 123.379 267.505C123.439 267.491 123.502 267.498 123.558 267.525C123.613 267.552 123.657 267.598 123.682 267.654C123.708 267.711 123.712 267.774 123.696 267.834C120.451 274.382 116.9 278.98 113.767 282.993C109.799 288.1 106.38 292.516 104.619 299.372C104.605 299.427 104.572 299.477 104.527 299.512C104.481 299.548 104.425 299.567 104.368 299.567V299.567Z" fill="black"/>
<path d="M98.7352 296.78C98.6663 296.778 98.6007 296.75 98.5526 296.7C98.5045 296.651 98.4776 296.584 98.4776 296.515C98.6447 290.35 99.3827 283.773 100.246 276.166C101.005 269.436 101.868 261.814 102.523 252.82C103.491 239.472 108.302 221.192 108.35 221.011C108.368 220.944 108.411 220.887 108.471 220.853C108.53 220.818 108.601 220.808 108.667 220.826C108.734 220.844 108.79 220.887 108.825 220.946C108.86 221.006 108.869 221.076 108.852 221.143C108.803 221.324 103.978 239.563 103.045 252.862C102.391 261.863 101.527 269.499 100.768 276.228C99.9119 283.829 99.1669 290.392 99.0067 296.536C99.0014 296.604 98.9703 296.667 98.9197 296.712C98.8692 296.758 98.8031 296.782 98.7352 296.78Z" fill="black"/>
<path d="M90.8397 299.567C90.7774 299.566 90.7174 299.543 90.6703 299.502C90.6232 299.461 90.592 299.405 90.5821 299.344C89.1896 289.256 82.4639 281.655 75.3203 273.609C66.6799 263.855 56.8836 252.827 54.5233 235.083C54.5188 235.049 54.5209 235.015 54.5296 234.982C54.5383 234.949 54.5535 234.918 54.5742 234.891C54.5949 234.864 54.6207 234.841 54.6502 234.824C54.6797 234.806 54.7123 234.795 54.7461 234.791C54.78 234.786 54.8144 234.788 54.8474 234.797C54.8804 234.806 54.9113 234.821 54.9385 234.841C54.9656 234.862 54.9885 234.888 55.0056 234.917C55.0228 234.947 55.034 234.98 55.0386 235.013C57.371 252.604 67.1115 263.577 75.7033 273.267C82.8955 281.377 89.6909 289.033 91.0904 299.281C91.0953 299.315 91.0934 299.349 91.0848 299.383C91.0762 299.416 91.0611 299.447 91.0403 299.474C91.0196 299.501 90.9936 299.524 90.964 299.541C90.9343 299.558 90.9015 299.569 90.8676 299.574L90.8397 299.567Z" fill="black"/>
<path d="M104.807 355.063C102.022 355.063 101.082 352.848 101.541 348.988C102.001 345.129 102.293 339.932 102.001 338.678C101.708 337.424 111.887 337.633 111.887 337.633C111.887 337.633 113.489 355.063 104.807 355.063Z" fill="black"/>
<path d="M410.53 212.037C410.822 215.904 415.738 215.827 416.288 213.257C417.841 215.695 421.35 214.218 421.21 211.501C422.645 212.553 425.304 210.944 423.431 209.028C428.305 206.604 424.455 197.832 420.048 199.463C420.361 194.865 411.846 194.635 412.305 199.609C411.609 196.181 406.52 198.25 408.372 201.323L410.53 212.037Z" fill="black"/>
<path d="M318.701 298.633C318.047 298.821 314.392 301.914 312.157 303.977C308.049 307.766 306.893 305.502 308.362 303.621C311.941 299.03 316.794 292.677 324.251 286.901C326.465 285.181 333.302 281.286 339.679 278.541C366.576 267.116 367.745 266.587 373.232 262.211C376.657 259.481 388.236 248.139 388.236 248.139L390.13 247.86L403.268 258.387L395.609 268.962L375.766 283.982C375.766 283.982 362.106 288.97 354.078 292.837C346.05 296.703 343.001 297.943 343.001 297.943C343.001 297.943 336.846 302.639 334.033 304.513C331.22 306.387 327.335 307.244 326.597 306.742C322.684 304.088 320.985 302.744 320.985 302.744C319.043 302.778 317.713 301.726 318.701 298.633Z" fill="#C15D31"/>
<path d="M324.132 304.715C323.394 306.882 324.947 307.878 326.875 307.049C329.305 306.004 331.422 302.569 331.053 301.42C330.684 300.27 328.637 300.424 326.555 301.566C325.397 302.292 324.538 303.409 324.132 304.715V304.715Z" fill="#C15D31"/>
<path d="M325.587 307.599C325.09 307.618 324.604 307.446 324.23 307.119C323.645 306.575 323.533 305.725 323.882 304.632C324.308 303.266 325.206 302.098 326.416 301.336C328.003 300.465 329.563 300.152 330.482 300.507C330.67 300.575 330.84 300.684 330.979 300.826C331.119 300.969 331.225 301.14 331.29 301.329C331.742 302.723 329.41 306.206 326.98 307.279C326.542 307.479 326.068 307.588 325.587 307.599V307.599ZM324.376 304.813C324.083 305.663 324.16 306.352 324.585 306.749C324.906 306.963 325.281 307.083 325.667 307.097C326.053 307.11 326.435 307.017 326.771 306.826C329.187 305.788 331.102 302.451 330.795 301.517C330.755 301.4 330.688 301.294 330.6 301.207C330.512 301.12 330.405 301.054 330.287 301.016C329.521 300.716 328.101 301.016 326.667 301.817C325.571 302.514 324.759 303.579 324.376 304.82V304.813Z" fill="black"/>
<path d="M331.972 336.239C332.056 337.061 333.365 337.57 334.91 336.114C338.433 332.881 343.189 330.443 345.403 329.377C347.617 328.311 350.973 327.287 356.264 324.8C361.556 322.313 387.763 309.794 388.048 309.794C388.333 309.794 381.329 290.287 381.329 290.287C375.759 293.77 363.777 300.619 344.073 310.065C341.761 311.173 330.74 312.978 326.945 313.549C324.689 313.904 324.411 314.594 324.473 315.409L333.274 315.493C330.438 317.457 327.822 319.72 325.469 322.243C320.874 326.974 319.05 330.763 319.899 331.613C320.748 332.463 323.109 329.83 325.518 327.601C327.927 325.371 329.695 324.117 329.96 324.208C330.078 324.257 328.915 326.082 328.435 327.106C327.21 329.698 326.186 331.662 325.936 334.56C325.685 337.458 327.822 336.873 328.4 335.905C328.741 337.326 330.426 338.099 331.972 336.239Z" fill="#C15D31"/>
<path d="M468.632 352.91C468.451 353.076 468.258 353.228 468.054 353.363C465.965 354.757 462.226 355.196 456.26 354.603C456.861 353.456 457.783 352.507 458.912 351.872L459.414 351.58C461.043 350.667 462.275 347.4 462.77 345.31C462.876 344.872 462.953 344.427 462.999 343.979C463.118 342.349 463.57 338.065 461.642 335.619C460.75 334.491 457.367 334.351 457.367 334.351L456.461 318.446L465.68 316.398C467.017 316.461 468.632 316.607 470.289 316.83C474.703 317.415 479.431 318.551 480.037 320.216C481.039 323.184 470.568 351.169 468.632 352.91Z" fill="#C15D31"/>
<path d="M468.632 352.91C468.451 353.076 468.258 353.227 468.054 353.363C465.965 354.805 462.185 355.453 456.155 354.861C456.185 354.773 456.22 354.687 456.26 354.603C456.861 353.456 457.783 352.507 458.912 351.872L459.414 351.58C461.043 350.667 462.275 347.4 462.769 345.31C464.552 345.003 466.947 344.488 468.249 343.735C468.249 343.735 471.424 333.808 471.424 332.791C471.424 331.969 470.338 321.191 470.289 316.844C474.703 317.429 479.431 318.565 480.037 320.23C481.039 323.184 470.568 351.169 468.632 352.91Z" fill="#F09400"/>
<path d="M459.894 319.443C460.291 323.776 460.841 331.822 460.291 334.651C459.741 337.479 455.25 344.808 431.243 349.65C407.237 354.492 397.67 355.07 397.67 355.07C397.67 355.07 382.826 357.996 377.639 349.65C372.25 340.97 373.51 330.373 396.584 318.432C418.753 306.965 436.124 302.59 436.124 302.59L459.894 319.443Z" fill="#5B77C9"/>
<path d="M445.12 355.063H397.775C398.067 354.304 399.355 352.82 404.647 351.225L405.287 351.036C409.465 349.845 412.347 348.946 414.338 348.117C416.636 347.184 417.729 346.383 418.14 345.428C418.418 344.78 414.401 340.942 409.089 337.194L436.549 335.187L439.027 340.28C440.231 341.435 441.255 342.764 442.063 344.223C442.335 344.704 442.578 345.191 442.808 345.679C444.128 348.645 444.91 351.823 445.12 355.063Z" fill="#C15D31"/>
<path d="M404.974 255.858L424.19 273.72L411.769 285.466C411.769 285.466 389.712 266.823 390.025 266.823C390.339 266.823 404.974 255.858 404.974 255.858Z" fill="#C15D31"/>
<path d="M395.644 269.227C395.596 269.226 395.549 269.211 395.509 269.186C395.468 269.16 395.436 269.124 395.414 269.081C395.393 269.038 395.383 268.99 395.387 268.942C395.391 268.894 395.407 268.848 395.435 268.809L402.112 259.634C402.156 259.588 402.216 259.56 402.279 259.554C402.342 259.549 402.406 259.566 402.457 259.603C402.509 259.64 402.545 259.695 402.56 259.757C402.574 259.819 402.566 259.884 402.537 259.94L395.86 269.115C395.835 269.15 395.803 269.178 395.766 269.197C395.728 269.217 395.686 269.227 395.644 269.227V269.227Z" fill="black"/>
<path d="M472.594 316.092C460.883 331.258 427.003 313.946 423.028 311.619C427.854 316.211 431.988 321.479 435.302 327.259C440.42 336.413 439.222 339.716 439 340.28L414.387 340.976C414.387 340.976 408.643 340.238 401.312 331.028C393.98 321.818 376.866 297.748 373.684 292.238C373.308 291.583 372.877 290.726 372.403 289.723C371.076 286.897 370.485 283.782 370.685 280.666C370.884 277.551 371.868 274.536 373.545 271.903C375.221 269.271 377.536 267.105 380.274 265.608C383.012 264.11 386.084 263.33 389.204 263.34C396.116 263.316 403.003 264.182 409.694 265.918V265.918L388.194 248.139C388.194 248.139 402.349 234.902 410.022 224.452H415.097C418.948 227.127 431.452 235.996 440.378 244.077C448.037 251.044 459.727 262.887 467.302 273.692C468.298 275.086 469.231 276.535 470.087 277.914C470.296 278.253 470.498 278.595 470.693 278.938C471.917 281.036 473.025 283.199 474.014 285.417C478.609 295.756 479.842 306.714 472.594 316.092Z" fill="#8EBF8C"/>
<path d="M407.515 245.275C407.703 242.44 409.318 231.488 409.318 231.488L404.006 226.403L401.04 223.56L400.894 223.421L408.016 216.454C410.105 220.502 415.139 224.515 415.139 224.515L407.515 245.275Z" fill="#C15D31"/>
<path d="M406.151 219.562C405.748 221.926 405.027 224.225 404.006 226.396L401.04 223.56L406.151 219.562Z" fill="black"/>
<path d="M411.136 212.421C410.385 214.172 409.452 215.84 408.351 217.395V217.395C408.149 217.687 407.947 217.966 407.738 218.245C406.275 220.258 404.568 222.081 402.655 223.672C398.478 226.737 391.515 223.909 392.427 215.8C392.977 210.979 395.073 205.496 398.262 202.291C400.267 200.278 402.697 199.163 405.447 199.658C406.639 199.895 407.775 200.356 408.796 201.016C413.078 203.81 412.932 208.199 411.136 212.421Z" fill="#C15D31"/>
<path d="M474.035 285.445L465.791 289.688L459.309 286.142L450.474 281.558C450.474 281.558 459.804 276.472 467.323 273.72C468.319 275.114 469.252 276.563 470.108 277.942C470.317 278.281 470.519 278.623 470.714 278.966C471.938 281.064 473.046 283.227 474.035 285.445V285.445Z" fill="#4B764A"/>
<path d="M472.594 316.092C460.883 331.258 427.003 313.946 423.028 311.619C427.854 316.211 431.988 321.479 435.302 327.259C440.42 336.413 439.222 339.716 439 340.28L414.387 340.977C414.387 340.977 408.643 340.238 401.312 331.028C393.98 321.818 376.866 297.748 373.684 292.238C373.308 291.583 372.877 290.726 372.403 289.723C371.076 286.897 370.485 283.782 370.685 280.666C370.884 277.551 371.868 274.536 373.545 271.903C375.221 269.271 377.536 267.105 380.274 265.608C383.012 264.11 386.084 263.33 389.204 263.34C396.116 263.316 403.003 264.182 409.694 265.918H409.736C446.296 274.577 461.614 281.203 461.614 281.203L470.108 277.97C470.317 278.309 470.519 278.65 470.714 278.994C477.704 291.026 481.38 304.708 472.594 316.092Z" fill="#5B77C9"/>
<path d="M220.189 338.636C219.416 340.726 214.41 341.631 204.872 336.448L210.581 329.607C210.581 329.607 222.02 333.634 220.189 338.636Z" fill="black"/>
<path d="M191.664 319.554C191.664 319.728 165.422 355.084 165.422 355.084C158.327 355.523 128.305 355.196 118.356 355.307C108.406 355.418 104.807 355.084 104.807 355.084C110.056 353.154 109.13 341.722 109.13 341.722C101.388 340.475 93.0329 340.531 92.1626 340.851L91.9328 340.949C90.9163 341.436 89.9276 342.669 89.2453 344.787C88.7099 346.361 88.3982 348.003 88.3193 349.664C88.2427 351.392 88.1383 351.838 89.9485 352.931C91.7588 354.025 92.1835 355.119 92.1835 355.119H81.51C80.4099 355.119 77.8547 351.719 77.6319 350.639C77.4091 349.56 78.2794 339.207 79.1079 329.99C79.8042 322.675 80.2498 315.98 81.1062 315.284C82.3107 314.308 85.5831 315.242 91.2296 316.607C96.4442 317.902 101.725 318.913 107.048 319.638L107.745 319.728C122.7 321.637 155.257 323.644 155.257 323.644C155.257 323.644 158.23 287.689 158.564 270.258C159.024 246.307 160.813 239.779 162.338 232.931L192.68 264.852C193.321 271.818 191.664 319.38 191.664 319.554Z" fill="#F09400"/>
<path d="M216.576 355.063H165.422C167.399 350.772 169.676 346.48 171.981 342.447C176.359 334.871 181.137 327.534 186.296 320.467C196.983 311.73 213.665 327.733 213.665 327.733C213.477 328.012 203.451 339.527 200.067 344.411C197.874 347.553 209.669 352.242 213.052 352.513C215.315 352.694 216.582 352.966 216.576 355.063Z" fill="#FFDCAE"/>
<path d="M198.48 232.29C198.48 232.29 201.077 236.386 202.038 236.985C202.476 237.264 240.721 245.31 256.109 249.003C273.571 253.183 280.986 267.116 261.762 288.232C253.456 297.344 232.52 319.923 220.189 338.636C219.576 336.267 215.538 334.491 210.63 331.286C202.971 326.305 192.527 319.784 186.303 320.439C186.303 320.439 199.072 302.437 223.817 275.985C223.817 275.985 193.119 271.219 182.738 269.756C170.79 268.07 160.005 261.543 161.057 243.283C161.445 236.735 162.614 230.256 164.538 223.985L198.48 232.29Z" fill="#F09400"/>
<path d="M182.745 270.014H182.71C177.948 269.317 162.212 265.688 159.601 246.885C159.596 246.851 159.598 246.816 159.607 246.783C159.616 246.75 159.631 246.719 159.651 246.692C159.672 246.664 159.698 246.642 159.728 246.625C159.757 246.607 159.79 246.596 159.824 246.592C159.858 246.587 159.893 246.589 159.926 246.598C159.959 246.606 159.99 246.621 160.017 246.642C160.044 246.663 160.067 246.689 160.084 246.719C160.101 246.748 160.112 246.781 160.117 246.815C162.679 265.256 178.115 268.844 182.787 269.499C182.856 269.503 182.92 269.535 182.966 269.587C183.012 269.64 183.035 269.708 183.03 269.777C183.026 269.846 182.994 269.911 182.941 269.957C182.889 270.003 182.821 270.026 182.752 270.021L182.745 270.014Z" fill="black"/>
<path d="M215.009 175.421C215.009 175.421 221.414 186.191 229.393 193.82C237.373 201.448 250.281 212.302 254.542 214.859L253.108 222.383C253.108 222.383 229.226 204.27 212.913 184.066C212.913 184.052 213.254 175.957 215.009 175.421Z" fill="#EA4338"/>
<path d="M268.538 209.182L263.016 208.458C261.773 208.296 260.633 209.172 260.47 210.415L259.848 215.168C259.686 216.412 260.561 217.552 261.804 217.715L267.327 218.438C268.57 218.601 269.71 217.725 269.872 216.481L270.494 211.729C270.657 210.485 269.781 209.345 268.538 209.182Z" fill="#E4D0C0"/>
<path d="M286.626 211.553L281.103 210.829C279.86 210.666 278.721 211.543 278.558 212.786L277.936 217.539C277.773 218.782 278.649 219.923 279.892 220.085L285.415 220.809C286.658 220.972 287.797 220.096 287.96 218.852L288.582 214.1C288.745 212.856 287.869 211.716 286.626 211.553Z" fill="#E4D0C0"/>
<path d="M304.707 213.924L299.184 213.2C297.941 213.037 296.801 213.913 296.639 215.157L296.017 219.909C295.854 221.153 296.73 222.293 297.973 222.456L303.495 223.18C304.738 223.343 305.878 222.466 306.041 221.223L306.663 216.47C306.825 215.227 305.95 214.086 304.707 213.924Z" fill="#E4D0C0"/>
<path d="M322.719 216.285L317.197 215.562C315.954 215.399 314.814 216.275 314.651 217.519L314.029 222.271C313.867 223.515 314.742 224.655 315.985 224.818L321.508 225.542C322.751 225.704 323.891 224.828 324.053 223.585L324.675 218.832C324.838 217.588 323.962 216.448 322.719 216.285Z" fill="#E4D0C0"/>
<path d="M344.576 224.128L250.97 211.864L245.838 251.079L339.444 263.343L344.576 224.128Z" fill="#E4D0C0"/>
<path d="M344.581 224.389L250.935 212.121C250.877 212.102 250.827 212.062 250.795 212.01C250.762 211.958 250.749 211.895 250.757 211.834C250.765 211.773 250.794 211.717 250.84 211.675C250.885 211.633 250.944 211.609 251.005 211.605L344.644 223.874C344.706 223.884 344.762 223.916 344.803 223.964C344.843 224.011 344.866 224.072 344.866 224.135C344.866 224.198 344.843 224.259 344.803 224.306C344.762 224.354 344.706 224.386 344.644 224.396L344.581 224.389Z" fill="#F6EEE8"/>
<path d="M282.253 257.913C283.833 259.167 285.553 259.028 286.173 257.843C286.333 257.537 287.516 258.986 288.825 258.693C290.503 258.324 287.851 254.513 288.422 254.311C289.424 253.907 291.784 258.972 293.581 258.617C295.565 258.226 292.481 252.04 292.481 252.04C292.696 250.899 292.652 249.724 292.352 248.603C292.052 247.481 291.503 246.442 290.747 245.561C287.328 241.381 278.215 236.699 274.573 235.557L267.729 251.336C270.902 252.622 273.825 254.457 276.363 256.756C280.749 260.665 281.981 258.463 282.253 257.913Z" fill="#FFDCAE"/>
<path d="M242.608 157.865C242.469 163.041 237.874 170.405 232.742 172.871C227.451 175.428 223.615 171.422 223.615 168.419C222.831 168.688 222.065 169.01 221.324 169.381C218.81 170.586 216.005 172.293 216.005 172.293L210.887 165.549C215.67 163.417 224.534 158.882 224.534 158.882C224.624 157.356 225.606 155.942 226.964 155.844C226.964 155.844 230.027 150.229 236.453 150.905C242.88 151.581 242.608 157.865 242.608 157.865Z" fill="#FFDCAE"/>
<path d="M164.531 223.964C171.222 195.485 187.883 179.064 197.289 172.564C204.335 167.688 213.582 163.696 213.582 163.696L218.741 172.697C218.741 172.697 215.301 175.086 215.009 175.428C214.717 175.769 214.717 182.534 214.912 183.091C215.106 183.648 226.532 196.516 235.43 204.451C244.328 212.386 262.584 225.866 267.959 228.291C272.088 230.151 275.736 233.167 277.101 236.219C277.101 236.219 273.355 246.341 269.275 252.416C269.275 252.416 265.188 254.019 260.523 250.765C255.858 247.512 238.243 235.752 231.642 230.82C223.865 224.996 215.74 216.447 209.091 210.456C209.091 210.456 199.747 230.332 198.334 232.526C197.178 232.269 164.531 223.964 164.531 223.964Z" fill="#EA4338"/>
<path d="M288.818 258.958C288.75 258.965 288.682 258.945 288.628 258.902C288.575 258.859 288.54 258.796 288.533 258.728C288.526 258.66 288.546 258.591 288.589 258.538C288.632 258.484 288.694 258.45 288.763 258.442C288.824 258.434 288.882 258.412 288.933 258.377C288.984 258.342 289.026 258.295 289.055 258.24C289.299 257.774 288.832 256.631 288.491 255.802C288.15 254.973 287.99 254.555 288.108 254.276C288.128 254.23 288.157 254.189 288.192 254.154C288.228 254.12 288.271 254.092 288.317 254.074C288.944 253.817 289.633 254.694 290.587 255.9C291.541 257.105 292.676 258.533 293.525 258.366C293.6 258.354 293.672 258.324 293.733 258.277C293.793 258.231 293.842 258.171 293.873 258.101C294.416 256.993 292.885 253.44 292.244 252.165C292.222 252.107 292.222 252.043 292.244 251.984C292.447 250.88 292.401 249.744 292.109 248.659C291.818 247.574 291.288 246.568 290.559 245.714C287.899 242.475 281.619 238.748 276.913 236.727C276.85 236.701 276.8 236.651 276.774 236.589C276.748 236.526 276.748 236.456 276.773 236.393L276.836 236.226C275.52 233.369 272.094 230.429 267.868 228.528C262.215 225.978 243.896 212.33 235.277 204.646C226.657 196.962 214.946 183.955 214.682 183.175C214.672 183.113 214.684 183.049 214.716 182.996C214.749 182.942 214.799 182.902 214.858 182.882C214.917 182.862 214.982 182.863 215.04 182.886C215.098 182.909 215.146 182.952 215.176 183.007C215.531 183.704 226.845 196.432 235.618 204.256C244.76 212.407 262.967 225.748 268.077 228.054C272.464 230.025 276.014 233.119 277.351 236.114C277.376 236.177 277.376 236.247 277.351 236.309V236.344C282.086 238.434 288.289 242.126 290.963 245.401C291.735 246.3 292.299 247.359 292.612 248.503C292.925 249.646 292.98 250.845 292.773 252.012C293.156 252.792 295.085 256.889 294.361 258.331C294.296 258.471 294.199 258.594 294.078 258.689C293.957 258.785 293.815 258.851 293.664 258.881C292.516 259.104 291.29 257.579 290.183 256.227C289.675 255.586 288.937 254.653 288.603 254.562C288.701 254.922 288.827 255.273 288.979 255.614C289.396 256.645 289.877 257.808 289.522 258.491C289.456 258.613 289.363 258.718 289.251 258.799C289.139 258.879 289.01 258.934 288.874 258.958H288.818Z" fill="black"/>
<path d="M251.193 217.36C251.138 217.36 251.085 217.343 251.04 217.311C244.864 212.706 239.113 208.094 235.263 204.66C226.65 196.996 214.932 183.969 214.668 183.188C214.512 181.542 214.468 179.887 214.536 178.235C214.529 178.197 214.531 178.158 214.542 178.121C214.552 178.085 214.57 178.05 214.595 178.021C214.62 177.992 214.651 177.968 214.686 177.952C214.72 177.936 214.758 177.928 214.797 177.928C214.835 177.928 214.873 177.936 214.908 177.952C214.943 177.968 214.973 177.992 214.998 178.021C215.023 178.05 215.041 178.085 215.052 178.121C215.062 178.158 215.064 178.197 215.058 178.235C214.995 179.829 215.032 181.425 215.169 183.014C215.524 183.711 226.838 196.439 235.611 204.263C239.447 207.683 245.191 212.288 251.353 216.886C251.396 216.92 251.428 216.965 251.444 217.017C251.46 217.069 251.459 217.125 251.443 217.177C251.426 217.229 251.394 217.274 251.35 217.307C251.307 217.34 251.254 217.358 251.2 217.36H251.193Z" fill="black"/>
<path d="M249.585 158.951C246.8 156.952 244.989 151.985 244.244 149.198C243.548 146.572 239.566 145.896 237.874 147.624C231.044 144.036 227.395 152.131 226.964 155.81C228.788 155.663 229.916 156.896 229.547 158.742C233.028 158.471 235.277 156.492 237.045 152.709C237.045 152.709 237.233 156.025 238.807 158.136C240.777 160.812 244.572 160.394 249.585 158.951Z" fill="#C15D31"/>
<path d="M411.136 212.421C410.385 214.172 409.452 215.84 408.351 217.395C410.439 214.037 407.745 212.149 406.311 213.117C404.424 211.982 404.278 208.387 405.983 207.028C403.895 207.467 402.502 205.767 403.776 203.364C401.291 204.465 399.111 204.144 398.206 202.354C400.211 200.34 402.641 199.226 405.392 199.72C406.583 199.958 407.72 200.419 408.741 201.079C413.078 203.81 412.932 208.199 411.136 212.421Z" fill="black"/>
<path d="M405.705 215.911C405.671 215.915 405.637 215.912 405.604 215.903C405.571 215.894 405.54 215.879 405.514 215.858C405.487 215.837 405.464 215.81 405.448 215.781C405.431 215.751 405.42 215.718 405.416 215.684C405.412 215.651 405.414 215.616 405.424 215.583C405.433 215.551 405.448 215.52 405.469 215.493C405.49 215.466 405.516 215.444 405.546 215.427C405.576 215.41 405.608 215.399 405.642 215.395L407.731 214.859C407.798 214.841 407.87 214.851 407.93 214.887C407.99 214.922 408.034 214.98 408.051 215.047C408.069 215.114 408.059 215.186 408.024 215.246C407.988 215.306 407.931 215.35 407.863 215.368L405.774 215.904L405.705 215.911Z" fill="black"/>
<path d="M411.136 212.421C411.832 205.454 409.311 201.483 405.364 199.72C406.556 199.958 407.692 200.419 408.713 201.079C413.078 203.81 412.932 208.199 411.136 212.421Z" fill="#F09400"/>
<path d="M402.788 211.208C402.731 211.209 402.676 211.191 402.63 211.157C402.585 211.123 402.552 211.075 402.537 211.02C402.331 210.654 402.007 210.367 401.617 210.208C401.228 210.049 400.796 210.026 400.392 210.143C400.329 210.146 400.266 210.126 400.215 210.086C400.165 210.047 400.131 209.99 400.119 209.927C400.107 209.864 400.118 209.799 400.151 209.744C400.183 209.689 400.234 209.647 400.295 209.627C400.825 209.486 401.387 209.532 401.887 209.758C402.387 209.984 402.794 210.376 403.038 210.867C403.058 210.934 403.051 211.005 403.018 211.066C402.986 211.128 402.93 211.174 402.864 211.195L402.788 211.208Z" fill="black"/>
<path d="M395.073 215.737C395.008 215.735 394.945 215.709 394.897 215.664C394.85 215.619 394.821 215.558 394.816 215.493C394.77 215.078 394.594 214.688 394.314 214.378C394.107 214.154 393.949 213.889 393.849 213.599C393.75 213.31 393.711 213.004 393.736 212.699C393.82 211.898 394.662 211.529 395.477 211.174C396.186 210.973 396.804 210.532 397.225 209.927C397.318 209.718 397.345 209.485 397.302 209.261C397.258 209.036 397.146 208.831 396.981 208.673C396.75 208.414 396.456 208.222 396.127 208.114C395.798 208.006 395.446 207.987 395.108 208.06C395.042 208.083 394.97 208.079 394.908 208.049C394.845 208.019 394.797 207.965 394.774 207.899C394.751 207.834 394.755 207.762 394.785 207.699C394.815 207.636 394.868 207.588 394.934 207.565C395.369 207.46 395.825 207.474 396.252 207.607C396.68 207.739 397.064 207.985 397.364 208.317C397.599 208.551 397.757 208.851 397.817 209.177C397.877 209.504 397.835 209.841 397.698 210.143C397.343 210.93 396.459 211.313 395.686 211.654C394.913 211.996 394.293 212.26 394.252 212.755C394.234 212.994 394.268 213.235 394.349 213.46C394.431 213.686 394.559 213.892 394.725 214.065C395.068 214.454 395.28 214.942 395.331 215.458C395.334 215.493 395.33 215.527 395.319 215.56C395.308 215.593 395.291 215.623 395.268 215.649C395.245 215.675 395.217 215.696 395.186 215.711C395.155 215.726 395.122 215.735 395.087 215.737H395.073Z" fill="black"/>
<path d="M400.285 211.818C400.481 211.421 400.455 211.008 400.228 210.896C400 210.784 399.657 211.014 399.461 211.411C399.265 211.808 399.291 212.22 399.519 212.333C399.746 212.445 400.09 212.215 400.285 211.818Z" fill="black"/>
<path d="M235.059 163.351C235.299 162.98 235.321 162.567 235.108 162.429C234.895 162.291 234.528 162.48 234.288 162.851C234.047 163.223 234.025 163.636 234.238 163.774C234.451 163.912 234.819 163.723 235.059 163.351Z" fill="black"/>
<path d="M238.976 166.33C239.24 165.975 239.29 165.565 239.086 165.413C238.883 165.261 238.504 165.425 238.239 165.78C237.975 166.134 237.925 166.545 238.128 166.697C238.332 166.849 238.711 166.684 238.976 166.33Z" fill="black"/>
<path d="M396.378 209.884C396.574 209.487 396.548 209.074 396.321 208.962C396.093 208.849 395.75 209.08 395.554 209.477C395.359 209.873 395.384 210.286 395.612 210.398C395.84 210.511 396.183 210.28 396.378 209.884Z" fill="black"/>
<path d="M395.407 218.189C396.763 218.288 398.127 218.201 399.459 217.931C398.909 220.195 395.895 221.784 395.407 218.189Z" fill="white"/>
<path d="M423.028 311.884C422.966 311.883 422.907 311.861 422.86 311.821C422.798 311.765 416.371 306.38 413.726 303.802C413.701 303.779 413.681 303.75 413.668 303.719C413.654 303.687 413.646 303.653 413.646 303.619C413.645 303.585 413.651 303.551 413.664 303.519C413.676 303.487 413.695 303.458 413.719 303.433C413.743 303.408 413.771 303.389 413.802 303.375C413.834 303.361 413.867 303.354 413.902 303.353C413.936 303.353 413.97 303.359 414.002 303.371C414.034 303.384 414.063 303.402 414.088 303.426C416.72 305.99 423.139 311.361 423.195 311.417C423.237 311.451 423.268 311.497 423.283 311.549C423.297 311.601 423.295 311.656 423.277 311.707C423.258 311.758 423.224 311.802 423.18 311.832C423.135 311.863 423.082 311.878 423.028 311.877V311.884Z" fill="black"/>
<path d="M436.549 340.614C436.504 340.615 436.46 340.603 436.421 340.581C436.382 340.559 436.349 340.527 436.326 340.489L432.225 333.703C432.19 333.644 432.18 333.574 432.197 333.507C432.214 333.44 432.256 333.383 432.316 333.348C432.375 333.313 432.445 333.303 432.512 333.32C432.578 333.337 432.636 333.379 432.671 333.439L436.744 340.238C436.767 340.278 436.779 340.323 436.779 340.369C436.779 340.415 436.768 340.46 436.745 340.5C436.723 340.54 436.69 340.574 436.651 340.597C436.612 340.621 436.567 340.634 436.521 340.635L436.549 340.614Z" fill="black"/>
<path d="M430.317 340.788C430.273 340.788 430.229 340.776 430.19 340.754C430.151 340.732 430.118 340.701 430.094 340.663L426.105 334.01C426.07 333.951 426.06 333.88 426.077 333.813C426.094 333.747 426.136 333.69 426.196 333.654C426.255 333.619 426.325 333.609 426.392 333.626C426.458 333.643 426.516 333.686 426.551 333.745L430.526 340.398C430.549 340.438 430.561 340.483 430.562 340.529C430.562 340.575 430.55 340.62 430.528 340.66C430.505 340.7 430.473 340.734 430.433 340.758C430.394 340.781 430.349 340.794 430.303 340.795L430.317 340.788Z" fill="black"/>
<path d="M423.564 340.97C423.523 340.969 423.483 340.96 423.447 340.942C423.411 340.924 423.379 340.897 423.355 340.865L418.481 334.525C418.452 334.5 418.43 334.468 418.414 334.432C418.399 334.396 418.392 334.358 418.393 334.319C418.395 334.281 418.405 334.243 418.422 334.208C418.44 334.174 418.465 334.143 418.495 334.12C418.526 334.096 418.561 334.079 418.599 334.07C418.636 334.062 418.676 334.061 418.713 334.07C418.751 334.078 418.787 334.094 418.818 334.117C418.848 334.141 418.874 334.171 418.892 334.205L423.766 340.545C423.796 340.583 423.815 340.629 423.82 340.678C423.825 340.727 423.816 340.776 423.794 340.82C423.772 340.864 423.738 340.901 423.696 340.926C423.654 340.951 423.606 340.964 423.557 340.963L423.564 340.97Z" fill="black"/>
<path d="M417.889 341.13C417.852 341.129 417.816 341.121 417.782 341.105C417.749 341.09 417.719 341.067 417.694 341.039L412.368 334.818C412.339 334.793 412.316 334.762 412.3 334.728C412.284 334.693 412.276 334.655 412.276 334.617C412.276 334.579 412.285 334.542 412.301 334.507C412.316 334.472 412.34 334.442 412.368 334.417C412.397 334.392 412.431 334.374 412.468 334.363C412.504 334.353 412.543 334.35 412.58 334.356C412.618 334.362 412.654 334.375 412.686 334.396C412.718 334.417 412.745 334.444 412.765 334.477L418.091 340.698C418.125 340.735 418.148 340.781 418.156 340.831C418.164 340.881 418.157 340.932 418.136 340.978C418.115 341.024 418.082 341.063 418.039 341.09C417.996 341.117 417.947 341.131 417.896 341.13H417.889Z" fill="black"/>
<path d="M402.321 260.052C402.269 260.053 402.218 260.038 402.175 260.01C402.118 259.97 402.08 259.911 402.067 259.843C402.054 259.775 402.068 259.705 402.105 259.648C402.175 259.55 408.887 249.65 409.966 247.742C409.979 247.705 410 247.672 410.027 247.644C410.054 247.617 410.087 247.595 410.123 247.582C410.159 247.568 410.198 247.563 410.237 247.566C410.275 247.569 410.313 247.58 410.346 247.6C410.38 247.619 410.409 247.645 410.431 247.677C410.454 247.708 410.469 247.744 410.476 247.783C410.483 247.821 410.481 247.86 410.471 247.897C410.461 247.935 410.443 247.97 410.418 247.999C409.325 249.929 402.808 259.536 402.53 259.94C402.507 259.974 402.475 260.002 402.439 260.021C402.403 260.041 402.362 260.051 402.321 260.052V260.052Z" fill="black"/>
<path d="M413.454 241.249C413.402 241.25 413.351 241.235 413.308 241.207C413.25 241.169 413.21 241.109 413.196 241.041C413.182 240.974 413.194 240.903 413.231 240.845C416.107 236.463 419.163 234.498 422.283 235.007C422.317 235.012 422.349 235.023 422.379 235.041C422.408 235.059 422.434 235.083 422.454 235.111C422.474 235.139 422.488 235.17 422.496 235.204C422.503 235.238 422.504 235.272 422.498 235.306C422.486 235.374 422.448 235.435 422.393 235.475C422.337 235.515 422.267 235.532 422.199 235.522C419.275 235.048 416.399 236.915 413.642 241.13C413.621 241.162 413.594 241.19 413.561 241.21C413.529 241.231 413.492 241.244 413.454 241.249V241.249Z" fill="black"/>
<path d="M425.729 268.607C425.68 268.608 425.632 268.595 425.589 268.57C425.547 268.545 425.513 268.508 425.491 268.464C425.469 268.42 425.461 268.371 425.466 268.322C425.471 268.274 425.49 268.227 425.52 268.189C425.562 268.133 429.83 262.288 431.383 259.655C431.422 259.604 431.478 259.57 431.541 259.558C431.604 259.546 431.669 259.557 431.724 259.59C431.779 259.622 431.821 259.673 431.841 259.734C431.862 259.794 431.86 259.86 431.835 259.919C430.269 262.574 425.987 268.433 425.945 268.495C425.921 268.53 425.889 268.559 425.851 268.578C425.813 268.598 425.771 268.607 425.729 268.607V268.607Z" fill="black"/>
<path d="M406.15 254.36C406.116 254.358 406.082 254.35 406.051 254.334C406.02 254.319 405.992 254.298 405.97 254.272C405.947 254.246 405.93 254.216 405.919 254.183C405.908 254.15 405.904 254.116 405.907 254.081C406.082 251.085 406.548 248.112 407.299 245.206C407.323 245.147 407.368 245.099 407.424 245.07C407.481 245.041 407.546 245.034 407.607 245.049C407.669 245.064 407.723 245.101 407.76 245.153C407.797 245.205 407.814 245.268 407.808 245.331C407.071 248.206 406.617 251.146 406.45 254.109C406.449 254.146 406.441 254.183 406.425 254.216C406.409 254.25 406.386 254.279 406.358 254.303C406.329 254.327 406.296 254.344 406.26 254.354C406.224 254.364 406.187 254.366 406.15 254.36Z" fill="black"/>
<path d="M445.12 355.6H397.67C397.631 355.418 397.656 355.229 397.74 355.063C398.032 354.304 399.32 352.82 404.612 351.225L405.252 351.036C409.43 349.845 412.312 348.946 414.304 348.117C415.988 349.192 417.399 350.645 418.425 352.36C418.425 352.36 429.712 351.573 430.317 351.461C430.784 351.378 438.512 346.473 442.035 344.223C442.307 344.704 442.55 345.191 442.78 345.679C444.063 348.658 444.842 351.829 445.085 355.063C445.113 355.405 445.12 355.6 445.12 355.6Z" fill="#F09400"/>
<path d="M453.21 328.444C453.152 328.439 453.097 328.416 453.054 328.377C453.01 328.339 452.981 328.287 452.97 328.23C452.958 328.173 452.966 328.114 452.992 328.062C453.018 328.01 453.06 327.968 453.113 327.942L460.242 325.155C460.304 325.142 460.368 325.152 460.423 325.182C460.478 325.212 460.521 325.26 460.544 325.319C460.566 325.378 460.567 325.442 460.546 325.502C460.526 325.561 460.484 325.611 460.43 325.643L453.301 328.43L453.21 328.444Z" fill="black"/>
<path d="M453.21 334.637C453.153 334.633 453.099 334.611 453.056 334.574C453.013 334.537 452.983 334.487 452.971 334.431C452.958 334.376 452.964 334.317 452.987 334.265C453.01 334.213 453.049 334.17 453.099 334.142L460.409 330.61C460.471 330.588 460.538 330.589 460.599 330.614C460.659 330.638 460.709 330.685 460.737 330.744C460.766 330.802 460.772 330.87 460.753 330.933C460.735 330.995 460.695 331.049 460.639 331.084L453.328 334.616C453.291 334.632 453.251 334.639 453.21 334.637V334.637Z" fill="black"/>
<path d="M330.559 323.866C330.509 323.867 330.46 323.854 330.418 323.828C330.375 323.802 330.341 323.764 330.32 323.719C330.299 323.674 330.291 323.624 330.297 323.575C330.304 323.526 330.324 323.479 330.357 323.441C331.164 322.434 332.087 321.524 333.107 320.731C333.165 320.708 333.229 320.706 333.289 320.726C333.348 320.746 333.399 320.786 333.431 320.839C333.464 320.893 333.476 320.956 333.467 321.018C333.457 321.08 333.426 321.136 333.378 321.177C332.412 321.941 331.534 322.81 330.761 323.769C330.736 323.799 330.706 323.824 330.671 323.841C330.636 323.858 330.597 323.866 330.559 323.866V323.866Z" fill="black"/>
<path d="M328.4 336.19H328.324C328.258 336.17 328.202 336.124 328.17 336.062C328.137 336.001 328.13 335.93 328.15 335.863C329.361 331.85 332.613 326.179 335.753 324.02C335.809 323.994 335.873 323.989 335.933 324.006C335.993 324.023 336.046 324.061 336.081 324.112C336.115 324.164 336.131 324.226 336.125 324.289C336.118 324.351 336.09 324.408 336.045 324.452C333.33 326.319 330.022 331.502 328.63 336.002C328.616 336.054 328.586 336.099 328.545 336.133C328.504 336.166 328.453 336.187 328.4 336.19V336.19Z" fill="black"/>
<path d="M331.972 336.49C331.905 336.488 331.842 336.462 331.794 336.415C331.746 336.369 331.718 336.306 331.714 336.239C331.666 334.491 333.873 330.715 340.243 325.852C340.271 325.831 340.302 325.815 340.336 325.807C340.369 325.798 340.404 325.795 340.438 325.8C340.472 325.804 340.505 325.816 340.535 325.833C340.565 325.85 340.591 325.873 340.612 325.901C340.633 325.928 340.649 325.959 340.658 325.993C340.667 326.026 340.669 326.061 340.665 326.095C340.66 326.13 340.649 326.163 340.631 326.193C340.614 326.223 340.591 326.249 340.564 326.27C333.915 331.342 332.209 334.916 332.209 336.225C332.211 336.294 332.185 336.361 332.139 336.412C332.092 336.463 332.027 336.493 331.958 336.497L331.972 336.49Z" fill="black"/>
<path d="M478.407 73.366H428.333V145.192H478.407V73.366Z" fill="#E4D0C0"/>
<path d="M472.545 78.8766H434.195V139.682H472.545V78.8766Z" fill="#F6EEE8"/>
<path d="M463.076 93.8898H443.657V124.675H463.076V93.8898Z" fill="white"/>
<path d="M507.413 158.032H456.155V186.128H507.413V158.032Z" fill="#E4D0C0"/>
<path d="M502.574 162.748H460.994V181.419H502.574V162.748Z" fill="white"/>
<path d="M230.835 169.422C230.507 169.206 229.554 168.566 229.776 166.524C229.78 166.49 229.79 166.457 229.806 166.427C229.823 166.398 229.845 166.371 229.871 166.35C229.898 166.328 229.928 166.312 229.961 166.303C229.994 166.293 230.028 166.291 230.062 166.294C230.096 166.298 230.129 166.308 230.159 166.324C230.189 166.341 230.215 166.363 230.236 166.389C230.258 166.416 230.274 166.446 230.283 166.479C230.293 166.512 230.296 166.546 230.292 166.58C230.104 168.308 230.835 168.795 231.113 168.977L230.835 169.422Z" fill="black"/>
<path d="M236.453 161.223C236.386 161.221 236.321 161.193 236.273 161.145C236.225 161.097 236.198 161.033 236.196 160.965C236.204 160.781 236.165 160.597 236.082 160.432C235.999 160.268 235.875 160.127 235.722 160.024C235.444 159.884 235.136 159.811 234.824 159.811C234.512 159.811 234.205 159.884 233.926 160.024C233.895 160.038 233.861 160.044 233.826 160.045C233.792 160.045 233.758 160.038 233.727 160.025C233.695 160.012 233.666 159.993 233.642 159.969C233.618 159.945 233.598 159.917 233.585 159.885C233.572 159.853 233.565 159.82 233.565 159.785C233.564 159.751 233.571 159.717 233.584 159.685C233.597 159.654 233.616 159.625 233.64 159.601C233.664 159.576 233.693 159.557 233.724 159.544C234.083 159.373 234.478 159.291 234.875 159.305C235.273 159.318 235.661 159.426 236.008 159.62C236.235 159.772 236.418 159.98 236.54 160.225C236.662 160.469 236.719 160.741 236.704 161.014C236.704 161.083 236.677 161.149 236.629 161.198C236.581 161.248 236.515 161.276 236.447 161.278L236.453 161.223Z" fill="black"/>
<path d="M234.998 168.858C234.544 168.805 234.115 168.618 233.766 168.322C233.567 168.182 233.36 168.055 233.146 167.938C233.085 167.906 233.04 167.851 233.019 167.785C232.999 167.719 233.006 167.648 233.038 167.587C233.071 167.526 233.126 167.48 233.192 167.46C233.258 167.44 233.329 167.446 233.39 167.479C233.63 167.602 233.862 167.739 234.086 167.89C234.504 168.175 234.838 168.398 235.165 168.322C235.493 168.245 235.924 167.785 236.384 166.928C237.846 164.253 238.333 163.71 238.96 163.508C239.328 163.38 239.73 163.39 240.091 163.536C240.452 163.682 240.748 163.954 240.923 164.302C240.942 164.331 240.954 164.364 240.96 164.398C240.965 164.432 240.964 164.467 240.957 164.5C240.949 164.534 240.935 164.566 240.914 164.594C240.894 164.622 240.869 164.646 240.84 164.664C240.811 164.682 240.778 164.695 240.744 164.7C240.71 164.706 240.675 164.705 240.642 164.697C240.608 164.69 240.576 164.675 240.548 164.655C240.52 164.635 240.496 164.61 240.478 164.581C240.362 164.326 240.153 164.125 239.894 164.019C239.636 163.913 239.346 163.91 239.085 164.009C238.647 164.149 238.194 164.657 236.809 167.186C236.259 168.196 235.778 168.698 235.256 168.823C235.172 168.845 235.085 168.856 234.998 168.858V168.858Z" fill="black"/>
<path d="M227.444 159.439C227.383 159.439 227.323 159.417 227.276 159.377C227.23 159.338 227.198 159.284 227.186 159.223L226.817 157.133C226.805 157.097 226.801 157.059 226.805 157.021C226.809 156.983 226.821 156.946 226.841 156.913C226.86 156.881 226.886 156.853 226.918 156.831C226.949 156.809 226.985 156.795 227.022 156.788C227.06 156.781 227.098 156.783 227.135 156.793C227.172 156.802 227.206 156.82 227.236 156.844C227.265 156.868 227.289 156.898 227.306 156.933C227.323 156.967 227.332 157.005 227.333 157.043L227.702 159.133C227.712 159.201 227.695 159.27 227.654 159.326C227.614 159.382 227.554 159.42 227.486 159.432L227.444 159.439Z" fill="black"/>
<path d="M224.039 164.88C223.75 166.035 223.607 167.222 223.615 168.412C222.831 168.681 222.065 169.003 221.324 169.374C221.199 167.486 222.744 165.277 224.039 164.88Z" fill="black"/>
<path d="M292.481 252.305C292.431 252.305 292.382 252.291 292.34 252.263C292.297 252.236 292.264 252.197 292.244 252.152C291.088 249.933 289.6 247.906 287.83 246.139C287.782 246.089 287.756 246.022 287.757 245.953C287.758 245.884 287.787 245.818 287.837 245.77C287.887 245.722 287.953 245.696 288.023 245.697C288.092 245.698 288.158 245.727 288.206 245.777C290.016 247.584 291.538 249.658 292.717 251.929C292.733 251.96 292.741 251.993 292.743 252.028C292.745 252.062 292.74 252.097 292.728 252.129C292.717 252.162 292.699 252.192 292.675 252.217C292.652 252.242 292.624 252.263 292.592 252.277C292.558 252.294 292.519 252.304 292.481 252.305V252.305Z" fill="black"/>
<path d="M216.576 355.063H165.422C167.399 350.772 169.676 346.48 171.981 342.447C173.751 344.573 175.38 346.814 176.854 349.155L190.654 349.699C190.654 349.699 193.133 346.181 193.836 345.198C194.539 344.216 195.535 344.376 200.053 344.376C197.874 347.553 209.669 352.242 213.052 352.513C215.315 352.695 216.582 352.966 216.576 355.063Z" fill="#C15D31"/>
<path d="M109.13 341.701C101.388 340.454 93.0329 340.51 92.1626 340.83L91.9328 340.928C90.9163 341.415 89.9276 342.649 89.2453 344.766C88.7099 346.341 88.3982 347.982 88.3193 349.643C88.2427 351.371 88.1383 351.817 89.9485 352.91C91.7588 354.004 92.1835 355.098 92.1835 355.098H81.51C80.4099 355.098 77.8547 351.698 77.6319 350.618C77.4091 349.539 78.2794 339.186 79.1079 329.969C79.8042 322.654 80.2498 315.959 81.1062 315.263C82.3107 314.287 85.5831 315.221 91.2296 316.586C96.4442 317.881 101.725 318.892 107.048 319.617L107.745 319.707C109.833 326.263 109.165 337.633 109.13 341.701Z" fill="#FFDCAE"/>
<path d="M92.1835 355.063H81.51C80.4099 355.063 77.8547 351.663 77.6319 350.584C77.4091 349.504 78.2794 339.151 79.1079 329.934C79.8042 322.619 80.2498 315.924 81.1062 315.228C82.3107 314.252 85.5831 315.186 91.2296 316.551C89.5656 318.537 86.3141 322.473 86.1331 323.009C85.8964 323.706 85.6805 328.583 85.4368 331.787C85.1653 335.758 85.5691 335.271 86.328 336.107C87.087 336.943 90.429 335.229 90.6518 336.636C90.9416 338.102 91.3634 339.538 91.912 340.928C90.8954 341.415 89.9068 342.648 89.2244 344.766C88.689 346.34 88.3773 347.982 88.2984 349.643C88.2218 351.371 88.1174 351.817 89.9277 352.91C91.7379 354.004 92.1835 355.063 92.1835 355.063Z" fill="#C15D31"/>
<path d="M413.844 341.13H413.747C409.569 339.507 404.619 335.605 401.103 331.195C399.668 329.398 397.83 327.015 395.623 324.027C395.582 323.971 395.564 323.902 395.574 323.833C395.583 323.764 395.62 323.702 395.675 323.661C395.731 323.619 395.8 323.601 395.869 323.611C395.938 323.621 395.999 323.658 396.041 323.713C398.241 326.667 400.079 329.077 401.506 330.875C404.988 335.215 409.861 339.054 413.928 340.628C413.98 340.654 414.022 340.696 414.048 340.748C414.074 340.8 414.082 340.859 414.071 340.916C414.059 340.973 414.03 341.025 413.986 341.064C413.943 341.102 413.888 341.126 413.83 341.13H413.844Z" fill="black"/>
<path d="M439 340.545C438.965 340.543 438.931 340.534 438.9 340.519C438.869 340.504 438.841 340.483 438.819 340.457C438.796 340.431 438.779 340.401 438.768 340.368C438.757 340.335 438.753 340.3 438.756 340.266C439.083 335.605 437.523 331.746 435.094 327.391C431.787 321.642 427.672 316.398 422.874 311.821C422.819 311.78 422.782 311.719 422.772 311.651C422.761 311.583 422.778 311.514 422.819 311.459C422.859 311.403 422.92 311.366 422.988 311.356C423.056 311.345 423.125 311.362 423.181 311.403C428.403 314.461 446.401 322.961 460.117 321.902C460.18 321.906 460.24 321.932 460.286 321.977C460.331 322.022 460.359 322.081 460.364 322.145C460.369 322.208 460.351 322.272 460.313 322.323C460.276 322.374 460.221 322.41 460.159 322.424C446.394 323.476 429.823 315.506 424.587 312.761C428.849 317.06 432.535 321.893 435.553 327.141C438.032 331.578 439.619 335.501 439.285 340.308C439.278 340.377 439.244 340.44 439.191 340.485C439.137 340.529 439.069 340.55 439 340.545V340.545Z" fill="black"/>
<path d="M324.111 305.028C322.183 305.858 320.449 304.332 320.978 302.736C321.097 302.391 321.248 302.057 321.431 301.74C321.444 301.948 321.503 302.151 321.605 302.332C322.183 303.141 323.54 302.89 324.473 300.451C324.731 299.755 324.954 299.128 325.17 298.543C326.68 298.02 327.885 298.194 328.08 299.135C328.191 299.817 326.541 303.983 324.111 305.028Z" fill="#C15D31"/>
<path d="M323.025 305.523C322.398 305.532 321.791 305.303 321.326 304.882C321.021 304.61 320.803 304.255 320.697 303.86C320.592 303.465 320.605 303.048 320.735 302.66C320.859 302.297 321.017 301.947 321.208 301.615C321.235 301.567 321.277 301.529 321.327 301.506C321.377 301.484 321.433 301.478 321.486 301.49C321.541 301.5 321.59 301.527 321.628 301.567C321.665 301.607 321.689 301.658 321.695 301.712C321.702 301.875 321.742 302.034 321.814 302.179C321.885 302.286 321.984 302.372 322.101 302.426C322.218 302.48 322.347 302.501 322.475 302.486C323.102 302.402 323.756 301.615 324.237 300.396C324.459 299.824 324.675 299.204 324.933 298.501C324.945 298.463 324.966 298.428 324.994 298.399C325.022 298.37 325.055 298.348 325.093 298.334C325.504 298.144 325.949 298.04 326.402 298.029C326.854 298.017 327.304 298.097 327.725 298.264C327.884 298.353 328.022 298.476 328.129 298.624C328.236 298.772 328.31 298.941 328.345 299.121C328.526 300.006 326.729 304.241 324.251 305.307C323.861 305.463 323.444 305.537 323.025 305.523V305.523ZM321.375 302.451C321.324 302.576 321.278 302.699 321.236 302.82C321.138 303.112 321.128 303.427 321.209 303.725C321.29 304.022 321.456 304.289 321.688 304.492C322.006 304.764 322.396 304.936 322.811 304.988C323.225 305.04 323.646 304.969 324.021 304.785C326.381 303.768 327.913 299.699 327.808 299.211C327.791 299.104 327.749 299.001 327.685 298.913C327.62 298.825 327.536 298.753 327.439 298.703C326.761 298.454 326.011 298.479 325.351 298.772C325.135 299.434 324.926 300.02 324.717 300.57C324.16 302.019 323.366 302.918 322.538 303.022C322.318 303.051 322.095 303.018 321.894 302.927C321.692 302.836 321.52 302.69 321.396 302.507L321.375 302.451Z" fill="black"/>
<path d="M322.364 303.008C322.17 303.008 321.979 302.96 321.808 302.869C321.637 302.778 321.491 302.646 321.382 302.486C321.253 302.275 321.176 302.036 321.159 301.789C320.978 300.465 321.083 297.435 321.333 292.649C321.335 292.615 321.343 292.582 321.358 292.551C321.373 292.52 321.393 292.493 321.418 292.47C321.444 292.448 321.473 292.43 321.505 292.419C321.537 292.408 321.571 292.403 321.605 292.405C321.639 292.407 321.672 292.415 321.702 292.43C321.733 292.444 321.76 292.465 321.783 292.49C321.806 292.515 321.823 292.545 321.834 292.577C321.846 292.609 321.85 292.643 321.849 292.677C321.605 297.435 321.493 300.437 321.674 301.733C321.681 301.895 321.721 302.054 321.793 302.2C321.864 302.307 321.963 302.393 322.08 302.447C322.197 302.501 322.326 302.522 322.454 302.507C323.081 302.423 323.735 301.636 324.216 300.417C324.439 299.845 324.654 299.225 324.912 298.522C325.406 296.996 325.664 295.881 325.664 295.867C325.681 295.801 325.724 295.743 325.782 295.707C325.845 295.682 325.915 295.682 325.977 295.707C327.273 295.921 328.603 295.706 329.765 295.094C331.205 294.288 332.552 293.325 333.782 292.224C333.833 292.177 333.9 292.152 333.97 292.154C334.039 292.157 334.104 292.187 334.151 292.238C334.198 292.288 334.223 292.356 334.221 292.425C334.218 292.494 334.188 292.56 334.137 292.607C332.876 293.744 331.491 294.735 330.009 295.561C328.813 296.186 327.455 296.429 326.117 296.257C326.012 296.668 325.775 297.581 325.42 298.71C325.191 299.406 324.975 300.047 324.724 300.633C324.167 302.082 323.373 302.98 322.545 303.085L322.364 303.008Z" fill="black"/>
<path d="M314.19 260.296C314.122 260.285 314.061 260.249 314.019 260.194C313.978 260.14 313.959 260.071 313.967 260.003L319.098 220.788C319.109 220.72 319.145 220.659 319.2 220.617C319.254 220.575 319.323 220.557 319.391 220.565L344.644 223.874C344.702 223.893 344.752 223.933 344.785 223.985C344.817 224.037 344.831 224.099 344.822 224.16C344.814 224.222 344.785 224.278 344.739 224.32C344.694 224.361 344.636 224.386 344.574 224.389L319.579 221.115L314.482 260.073C314.478 260.107 314.467 260.139 314.45 260.169C314.433 260.199 314.41 260.225 314.383 260.245C314.356 260.266 314.324 260.281 314.291 260.29C314.258 260.299 314.224 260.3 314.19 260.296V260.296Z" fill="#F6EEE8"/>
<path d="M360.658 174.285V173.728C360.811 173.728 360.971 173.77 361.139 173.777C360.924 173.885 360.754 174.065 360.658 174.285V174.285Z" fill="#E4D0C0"/>
<path d="M291.638 159.537V161.181C293.88 162.177 299.179 163.877 297.967 165.939C299.408 166.176 300.495 168.252 298.232 169.374C298.608 170.767 297.013 172.125 295.6 172C295.725 173.184 294.381 174.397 292.335 174.174C290.072 173.923 289.772 171.575 290.824 171.275C290.448 171.153 290.112 170.934 289.848 170.64C289.585 170.345 289.404 169.987 289.323 169.6C289.243 169.213 289.266 168.812 289.39 168.437C289.514 168.062 289.735 167.727 290.03 167.465C288.916 167.381 288.721 164.608 290.308 163.877C288.944 163.09 288.881 159.746 291.638 159.537Z" fill="#F88D7A"/>
<path d="M210.595 168.336C210.539 168.337 210.484 168.32 210.438 168.287C210.393 168.254 210.359 168.207 210.343 168.154C210.326 168.1 210.328 168.043 210.347 167.99C210.366 167.937 210.402 167.892 210.449 167.862C211.773 166.932 213.189 166.141 214.675 165.5C214.74 165.477 214.812 165.481 214.875 165.511C214.938 165.541 214.986 165.595 215.009 165.66C215.032 165.726 215.028 165.798 214.998 165.861C214.968 165.923 214.914 165.972 214.849 165.995C213.409 166.623 212.035 167.393 210.748 168.294C210.703 168.323 210.649 168.338 210.595 168.336V168.336Z" fill="black"/>
<path d="M212.308 170.614C212.255 170.611 212.205 170.594 212.163 170.563C212.12 170.532 212.088 170.489 212.07 170.44C212.052 170.39 212.05 170.337 212.062 170.286C212.075 170.235 212.102 170.189 212.14 170.154C213.247 169.206 215.914 167.904 216.22 167.966C216.258 167.974 216.294 167.99 216.325 168.013C216.356 168.036 216.382 168.065 216.401 168.099C216.435 168.159 216.443 168.23 216.425 168.296C216.406 168.362 216.363 168.419 216.304 168.454C216.267 168.462 216.229 168.462 216.193 168.454C214.868 168.987 213.618 169.689 212.475 170.544C212.429 170.587 212.37 170.611 212.308 170.614V170.614Z" fill="black"/>
<path d="M214.243 173.156C214.192 173.154 214.142 173.137 214.1 173.107C214.059 173.077 214.026 173.035 214.008 172.987C213.99 172.939 213.985 172.887 213.996 172.836C214.007 172.786 214.032 172.74 214.069 172.704C215.173 171.901 216.337 171.184 217.55 170.558C217.611 170.526 217.682 170.519 217.748 170.539C217.814 170.559 217.87 170.605 217.902 170.666C217.934 170.727 217.941 170.798 217.921 170.864C217.901 170.93 217.855 170.985 217.794 171.018C216.626 171.632 215.505 172.331 214.438 173.108C214.41 173.128 214.379 173.144 214.346 173.152C214.312 173.16 214.277 173.162 214.243 173.156V173.156Z" fill="black"/>
<path d="M209.571 178.026C209.503 178.026 209.438 177.998 209.39 177.95C208.064 176.686 206.328 175.944 204.499 175.858C202.67 175.773 200.872 176.349 199.434 177.483C199.408 177.512 199.376 177.534 199.341 177.55C199.305 177.565 199.266 177.572 199.228 177.571C199.189 177.569 199.151 177.559 199.117 177.542C199.082 177.524 199.052 177.499 199.028 177.469C199.005 177.438 198.988 177.403 198.979 177.365C198.97 177.327 198.97 177.288 198.978 177.25C198.986 177.213 199.003 177.177 199.026 177.146C199.05 177.115 199.079 177.09 199.114 177.072C200.652 175.86 202.576 175.244 204.531 175.338C206.487 175.431 208.343 176.228 209.759 177.58C209.797 177.616 209.824 177.662 209.835 177.713C209.846 177.764 209.841 177.817 209.822 177.866C209.802 177.914 209.768 177.955 209.725 177.984C209.681 178.012 209.63 178.027 209.578 178.026H209.571Z" fill="black"/>
<path d="M209.091 210.728C209.026 210.727 208.964 210.702 208.917 210.658C202.045 204.325 196.753 197.777 195.96 196.188C195.929 196.126 195.924 196.055 195.947 195.99C195.969 195.924 196.016 195.87 196.078 195.84C196.14 195.81 196.211 195.805 196.277 195.827C196.342 195.849 196.396 195.897 196.426 195.958C197.06 197.219 201.996 203.538 209.272 210.275C209.312 210.31 209.341 210.356 209.353 210.407C209.366 210.459 209.363 210.513 209.344 210.563C209.325 210.612 209.291 210.655 209.247 210.684C209.203 210.714 209.151 210.729 209.098 210.728H209.091Z" fill="black"/>
<path d="M275.854 239.653C275.808 239.654 275.762 239.642 275.722 239.619C273.633 238.344 269.456 235.383 269.386 235.355C269.343 235.311 269.318 235.253 269.313 235.191C269.308 235.13 269.325 235.069 269.36 235.019C269.396 234.968 269.448 234.932 269.507 234.916C269.566 234.9 269.629 234.905 269.685 234.93C269.727 234.93 273.863 237.905 275.994 239.173C276.041 239.203 276.078 239.248 276.098 239.3C276.118 239.353 276.121 239.411 276.106 239.465C276.092 239.52 276.06 239.568 276.016 239.603C275.972 239.638 275.918 239.658 275.861 239.66L275.854 239.653Z" fill="black"/>
<path d="M273.571 244.837C273.532 244.846 273.491 244.846 273.452 244.837C271.08 243.598 268.793 242.202 266.608 240.657C266.567 240.61 266.543 240.551 266.541 240.489C266.538 240.427 266.558 240.366 266.596 240.317C266.634 240.268 266.689 240.234 266.749 240.221C266.81 240.208 266.873 240.217 266.928 240.246C269.092 241.762 271.353 243.135 273.696 244.356C273.752 244.38 273.798 244.423 273.826 244.477C273.853 244.531 273.861 244.594 273.846 244.653C273.832 244.713 273.797 244.765 273.748 244.801C273.699 244.837 273.638 244.855 273.577 244.85L273.571 244.837Z" fill="black"/>
<path d="M271.189 249.525H271.099C269.706 249.037 266.323 247.721 264.136 246C264.082 245.957 264.047 245.895 264.038 245.826C264.03 245.758 264.049 245.689 264.091 245.634C264.134 245.58 264.196 245.544 264.264 245.536C264.333 245.527 264.402 245.546 264.457 245.589C266.569 247.052 268.875 248.212 271.308 249.037C271.363 249.061 271.409 249.102 271.438 249.155C271.466 249.208 271.476 249.269 271.466 249.328C271.455 249.387 271.425 249.441 271.38 249.481C271.335 249.52 271.277 249.543 271.217 249.546L271.189 249.525Z" fill="black"/>
<path d="M198.181 349.42C198.124 349.418 198.07 349.398 198.026 349.363C197.982 349.328 197.95 349.279 197.935 349.225C197.921 349.171 197.924 349.113 197.944 349.06C197.964 349.008 198.001 348.963 198.048 348.933C199.301 348.312 200.664 347.945 202.059 347.853C202.093 347.85 202.128 347.854 202.161 347.865C202.193 347.876 202.224 347.893 202.25 347.916C202.276 347.938 202.297 347.966 202.312 347.997C202.327 348.028 202.335 348.062 202.337 348.097C202.34 348.131 202.336 348.166 202.325 348.198C202.314 348.231 202.297 348.261 202.274 348.287C202.252 348.313 202.224 348.335 202.193 348.35C202.162 348.365 202.128 348.373 202.094 348.375C200.78 348.467 199.497 348.809 198.313 349.385C198.273 349.408 198.227 349.42 198.181 349.42V349.42Z" fill="black"/>
<path d="M201.39 351.05C201.329 351.055 201.269 351.037 201.22 351.001C201.171 350.965 201.136 350.913 201.122 350.853C201.107 350.794 201.115 350.731 201.142 350.677C201.17 350.622 201.216 350.579 201.272 350.556C202.396 350.078 203.561 349.705 204.753 349.441C204.821 349.425 204.891 349.437 204.95 349.474C205.009 349.51 205.051 349.569 205.067 349.636C205.082 349.704 205.07 349.774 205.034 349.833C204.997 349.892 204.939 349.934 204.872 349.95C203.731 350.209 202.615 350.568 201.537 351.022C201.492 351.046 201.441 351.056 201.39 351.05V351.05Z" fill="black"/>
<path d="M89.5099 344.3C89.4732 344.307 89.4352 344.307 89.3985 344.3C88.4664 343.852 87.4913 343.499 86.4882 343.248C86.4493 343.25 86.4105 343.243 86.3744 343.228C86.3384 343.214 86.306 343.191 86.2797 343.163C86.2533 343.134 86.2335 343.1 86.2219 343.063C86.2102 343.026 86.2068 342.986 86.212 342.948C86.2172 342.909 86.2309 342.872 86.252 342.84C86.2731 342.807 86.3012 342.779 86.3342 342.759C86.3672 342.738 86.4044 342.725 86.4431 342.72C86.4817 342.716 86.5209 342.72 86.5578 342.732C87.6147 342.987 88.6416 343.354 89.6213 343.826C89.6767 343.849 89.7221 343.892 89.7495 343.946C89.7769 343.999 89.7847 344.061 89.7715 344.12C89.7582 344.178 89.7248 344.231 89.677 344.267C89.6292 344.304 89.5701 344.323 89.5099 344.32V344.3Z" fill="black"/>
<path d="M88.6883 347.086H88.5978C87.7396 346.757 86.8476 346.523 85.9381 346.39C85.9037 346.388 85.8699 346.379 85.8388 346.364C85.8078 346.349 85.78 346.328 85.7573 346.302C85.7346 346.276 85.7173 346.246 85.7065 346.213C85.6957 346.18 85.6916 346.145 85.6944 346.111C85.6998 346.042 85.7319 345.978 85.784 345.932C85.8361 345.887 85.9039 345.863 85.9729 345.867C86.9246 345.993 87.8589 346.227 88.7579 346.564C88.8253 346.576 88.8852 346.614 88.9244 346.67C88.9636 346.726 88.9788 346.796 88.9668 346.863C88.9548 346.931 88.9165 346.991 88.8604 347.03C88.8042 347.069 88.7348 347.084 88.6674 347.072L88.6883 347.086Z" fill="black"/>
<path d="M380.981 116.093C380.947 116.09 380.913 116.08 380.882 116.065C380.851 116.049 380.824 116.027 380.802 116C380.78 115.973 380.763 115.943 380.754 115.909C380.744 115.876 380.74 115.841 380.744 115.807V115.452C380.877 113.724 381.273 108.485 383.46 104.946C383.5 104.895 383.558 104.861 383.622 104.851C383.686 104.84 383.751 104.853 383.806 104.887C383.861 104.922 383.902 104.975 383.92 105.037C383.938 105.099 383.933 105.166 383.905 105.225C381.817 108.652 381.399 113.801 381.266 115.493V115.856C381.259 115.925 381.226 115.988 381.172 116.033C381.119 116.077 381.05 116.098 380.981 116.093V116.093Z" fill="black"/>
<path d="M391.355 156.269C391.286 156.269 391.22 156.242 391.171 156.193C391.122 156.144 391.094 156.077 391.094 156.008C391.094 155.939 391.122 155.872 391.171 155.823C391.22 155.774 391.286 155.747 391.355 155.747C391.46 155.747 401.98 155.05 406.714 155.545C406.782 155.554 406.844 155.588 406.887 155.641C406.93 155.695 406.95 155.762 406.944 155.83C406.934 155.898 406.899 155.958 406.846 156.001C406.793 156.043 406.726 156.065 406.659 156.06C401.966 155.552 391.494 156.255 391.39 156.262L391.355 156.269Z" fill="black"/>
<path d="M357.232 238.351C357.169 238.349 357.108 238.326 357.06 238.283C357.013 238.241 356.983 238.183 356.974 238.121L352.859 203.629L348.174 202.124C348.108 202.103 348.054 202.056 348.022 201.995C347.991 201.933 347.985 201.862 348.007 201.796C348.028 201.731 348.074 201.676 348.136 201.645C348.197 201.614 348.268 201.608 348.334 201.629L353.208 203.183C353.255 203.197 353.298 203.225 353.33 203.264C353.362 203.302 353.383 203.349 353.389 203.399L357.524 238.058C357.532 238.127 357.513 238.197 357.47 238.251C357.427 238.306 357.364 238.342 357.295 238.351H357.232Z" fill="black"/>
<path d="M296.394 166.287C294.123 166.226 291.93 165.448 290.127 164.065C290.093 164.047 290.063 164.022 290.04 163.991C290.017 163.96 290 163.924 289.992 163.887C289.984 163.849 289.984 163.809 289.993 163.772C290.002 163.734 290.018 163.699 290.042 163.668C290.066 163.638 290.096 163.613 290.131 163.595C290.165 163.577 290.203 163.568 290.242 163.566C290.28 163.565 290.319 163.572 290.354 163.587C290.39 163.602 290.422 163.625 290.448 163.654C292.162 164.957 294.242 165.688 296.394 165.744C296.456 165.754 296.512 165.786 296.552 165.834C296.593 165.882 296.615 165.942 296.615 166.005C296.615 166.068 296.593 166.129 296.552 166.177C296.512 166.225 296.456 166.256 296.394 166.267V166.287Z" fill="black"/>
<path d="M296.428 169.332C294.144 169.409 291.884 168.837 289.912 167.681C289.881 167.666 289.854 167.645 289.831 167.619C289.808 167.593 289.791 167.563 289.78 167.531C289.769 167.499 289.765 167.464 289.767 167.43C289.769 167.396 289.778 167.363 289.793 167.332C289.808 167.302 289.829 167.274 289.855 167.252C289.881 167.229 289.91 167.212 289.943 167.201C289.975 167.19 290.009 167.185 290.043 167.188C290.077 167.19 290.111 167.199 290.141 167.214C292.114 168.363 294.378 168.918 296.658 168.809C296.79 168.809 296.923 168.921 296.923 169.067C296.924 169.101 296.918 169.136 296.905 169.168C296.893 169.2 296.874 169.229 296.85 169.254C296.826 169.279 296.797 169.298 296.765 169.312C296.734 169.325 296.7 169.332 296.665 169.332H296.428Z" fill="black"/>
<path d="M295.607 172.244C293.973 172.191 292.351 171.946 290.775 171.512C290.708 171.495 290.652 171.452 290.617 171.392C290.582 171.333 290.573 171.262 290.59 171.195C290.608 171.129 290.651 171.072 290.711 171.037C290.77 171.003 290.841 170.993 290.907 171.011C292.45 171.428 294.037 171.662 295.635 171.707C295.697 171.718 295.753 171.749 295.794 171.797C295.834 171.845 295.857 171.906 295.857 171.969C295.857 172.031 295.834 172.092 295.794 172.14C295.753 172.188 295.697 172.22 295.635 172.23L295.607 172.244Z" fill="black"/>
<path d="M388.953 174.167C386.725 174.313 382.415 174.647 381.294 175.086C376.781 176.85 372.058 178.021 367.244 178.57C364.459 178.8 362.913 177.176 363.561 176.689H363.261C360.4 176.507 360.017 174.32 361.131 173.756C358.179 173.588 357.74 171.457 359.126 170.697C354.816 170.307 355.352 168.154 358.165 167.855C364.048 167.228 369.918 165.695 371.958 164.372C374.638 162.651 373.503 161.327 372.153 160.456C370.802 159.585 365.441 159.342 365.1 158.088C364.758 156.834 365.636 156.492 367.564 156.318C370.578 156.123 373.602 156.123 376.616 156.318C379.894 156.51 383.182 156.51 386.461 156.318C388.647 158.945 389.099 167.2 388.953 174.167Z" fill="#F88D7A"/>
<path d="M359.69 171.004C359.467 171.004 359.265 171.004 359.084 171.004C359.05 171.001 359.017 170.992 358.987 170.976C358.957 170.961 358.93 170.94 358.908 170.914C358.886 170.888 358.869 170.858 358.859 170.825C358.848 170.793 358.844 170.759 358.847 170.725C358.854 170.657 358.887 170.595 358.939 170.551C358.991 170.507 359.058 170.484 359.126 170.488C361.117 170.655 365.392 169.868 370.586 168.398C370.653 168.379 370.724 168.387 370.785 168.42C370.845 168.453 370.89 168.509 370.91 168.576C370.929 168.642 370.921 168.714 370.888 168.775C370.855 168.835 370.799 168.88 370.732 168.9C365.956 170.224 361.918 171.004 359.69 171.004Z" fill="black"/>
<path d="M361.5 174.048H361.103C361.034 174.043 360.97 174.011 360.924 173.959C360.879 173.907 360.856 173.839 360.859 173.77C360.861 173.735 360.87 173.701 360.885 173.67C360.9 173.639 360.921 173.611 360.947 173.589C360.973 173.566 361.003 173.549 361.036 173.538C361.069 173.527 361.104 173.523 361.138 173.526C362.788 173.623 369.361 172.954 372.243 171.22C372.272 171.202 372.305 171.19 372.339 171.185C372.373 171.179 372.407 171.181 372.44 171.189C372.474 171.197 372.505 171.212 372.533 171.232C372.56 171.252 372.584 171.278 372.602 171.307C372.62 171.336 372.631 171.369 372.637 171.403C372.642 171.436 372.64 171.471 372.632 171.504C372.624 171.538 372.61 171.569 372.59 171.597C372.569 171.624 372.544 171.648 372.515 171.666C369.709 173.359 363.693 174.048 361.5 174.048Z" fill="black"/>
<path d="M363.241 176.953C363.179 176.943 363.122 176.911 363.082 176.864C363.041 176.816 363.019 176.755 363.019 176.692C363.019 176.629 363.041 176.569 363.082 176.521C363.122 176.473 363.179 176.441 363.241 176.431C367.119 176.431 372.473 174.829 373.127 174.404C373.185 174.366 373.256 174.353 373.324 174.367C373.392 174.381 373.452 174.422 373.489 174.48C373.527 174.538 373.54 174.609 373.526 174.677C373.512 174.745 373.471 174.805 373.413 174.842C372.647 175.358 367.202 176.953 363.241 176.953Z" fill="black"/>
</svg>
